<svg width="170" height="93" viewBox="0 0 170 93" fill="none" xmlns="http://www.w3.org/2000/svg">
<mask id="path-1-inside-1_1162_4060" fill="white">
<path d="M133.693 2.8152L134.502 4.09795L134.423 5.26673L136.171 7.72656L137.597 7.70436L139.623 6.05055L140.48 7.01781L139.138 9.8515L136.651 10.2114L134.498 12.3836L132.442 12.9465L133.478 13.7567L134.474 15.9094L133.331 17.584L133.944 18.6277L136.307 17.4075L139.149 14.4488L141.721 14.2723L144.302 12.8923L142.923 15.7134L143.215 16.6626L144.118 16.4764L144.656 19.349L146.923 22.8359L146.057 24.7162L142.788 25.8182L143.404 27.4679L141.498 29.1509L140.715 28.9146L140.879 29.9124L139.376 30.0264L138.541 30.9019L139.908 32.4487L136.753 34.8738L138.372 35.7702L139.848 35.502L140.67 37.1391L141.348 36.9264L142.371 34.6806L143.871 34.7113L145.874 33.2381L148.327 33.1492L150.824 34.5987L151.497 36.1677L153.746 36.3553L155.085 35.7771L155.873 37.1224L157.912 38.0688L160.685 36.3108L163.035 38.6331L166.158 39.3821L169.578 41.8712L168.511 42.0032L167.563 43.1025L167.8 44.5283L166.9 45.9209L168.798 46.146L168.9 47.1675L170.001 47.6594L168.93 48.9033L169.246 51.844L167.286 52.0691L166.926 50.7447L165.42 51.4131L160.972 55.2141L160.797 56.6358L158.837 56.6621L157.385 59.1873L156.347 59.3318L155.056 60.855L156.213 63.8179L155.467 66.0165L162.971 76.6285L162.24 77.7334L161.148 77.1344L160.079 77.5277L157.569 75.6557L154.422 74.783L154.067 73.9477L154.837 73.3738L154.695 72.362L154.02 72.2133L152.306 69.545L149.712 68.6889L149.323 69.1837L146.824 69.0586L144.22 71.5143L142.73 70.9125L135.903 71.8117L130.19 74.7023L127.296 79.3524L125.591 80.4086L123.591 80.41L121.363 84.7265L119.705 83.99L117.92 86.8765L115.645 86.5526L112.645 90.8039L108.998 92.2297L107.123 91.2486L106.504 89.6601L107.333 87.9743L106.474 87.6172L106.286 85.9203L105.589 85.4617L107.014 84.6181L105.907 79.679L107.43 80.0917L110.328 77.6708L113.48 76.666L113.536 74.1367L115.167 72.3398L117.301 73.6128L123.544 71.5879L125.108 71.5074L126.075 72.5219L126.435 71.5838L129.668 69.1073L128.496 66.9032L128.214 67.2742L127.69 66.5918L126.736 66.653L126.049 67.8634L125.922 66.6238L125.308 67.5021L124.788 67.0726L125.949 64.5975L125.711 63.0619L124.513 62.6255L124.061 61.4372L122.991 60.7702L123.404 59.9349L122.74 59.172L123.26 58.6577L122.155 57.2513L123.01 56.8942L122.799 56.3647L124.031 54.6956L127.038 52.1427L128.486 49.4813L124.109 49.1908L117.782 49.8329L115.16 52.3219L111.36 53.6241L109.401 52.6708L101.164 55.8241L96.2426 56.9776L95.6233 58.1533L94.3515 58.3312L93.2135 59.3624L91.292 59.3415L91.0934 59.9155L84.6612 62.9159L83.8308 61.4345L81.9976 62.2947L79.9905 61.3956L79.356 61.7527L78.6691 60.199L77.4828 61.1815L78.7918 62.9257L78.8663 64.0625L75.9254 65.5148L73.1446 69.2476L70.1306 71.4893L65.5606 76.6174L66.3456 77.1969L66.6214 78.6381L64.8144 79.0508L62.0238 82.0138L56.6401 83.07L52.557 82.2681L43.0682 83.7746L40.1355 82.2361L40.1038 81.5732L38.8265 80.8255L32.662 79.8235L32.0881 80.4725L32.2716 81.4815L30.5335 82.3126L26.9057 82.2666L25.1773 83.4688L23.8296 83.1672L21.6157 84.2415L16.7492 84.5208L16.6181 80.8241L14.6097 78.9688L14.309 75.7988L15.647 73.8045L14.778 72.4037L16.5699 72.3231L17.1175 71.7227L15.3325 70.4317L15.207 68.0566L14.1752 65.4605L11.884 66.0845L9.67837 65.3841L5.54981 65.7663L4.68495 64.7101L3.45314 65.2979L1.12472 62.3503L1.39506 61.2635L0.863981 60.4436L2.77034 58.0727L3.2283 56.1368L2.89722 54.9708L2.05029 54.3162L1.08747 54.4969L0.465332 53.1808L3.87245 53.0918L5.24773 54.5636L8.55828 54.6594L9.60803 57.0609L11.2881 57.7752L13.1683 55.9797L15.2346 56.3355L19.7094 53.0682L21.2584 53.1029L22.7592 55.7101L24.6021 55.1611L25.3829 54.2759L26.7705 54.8915L28.1113 53.6408L29.8259 54.3106L31.106 52.4609L32.9585 51.7215L34.9876 48.7961L32.7778 46.3905L33.4716 44.3239L36.7243 41.8141L37.4981 42.8063L39.4858 41.7362L41.486 39.8573L42.5205 40.876L43.4848 39.8142L43.1923 38.4968L48.8326 37.4933L49.1954 35.2906L47.7843 33.9981L50.4782 31.8635L51.3252 29.84L51.1694 28.7421L51.9721 28.4531L52.2384 27.4024L55.3779 26.2198L56.2028 26.9591L56.6911 25.9585L57.9257 26.7868L60.4155 26.8243L63.635 25.7834L64.8944 26.4685L66.8821 25.1844L69.2533 26.3601L71.4272 22.9358L70.961 22.184L71.2396 20.7622L75.8661 17.0127L77.5863 12.7323L79.694 10.6102L81.6914 10.4629L82.1355 9.21627L83.8363 8.00164L87.4945 7.93212L89.5249 3.96024L91.9183 5.43056L93.8329 7.52768L94.4287 10.064L96.5599 9.41219L100.92 11.1911L100.19 9.78602L103.102 10.7547L103.777 11.6663L107.501 11.879L107.956 13.6078L112.104 14.3875L113.38 14.293L114.208 13.1617L114.593 10.87L116.051 11.2564L115.787 8.42687L117.176 8.29486L117.55 6.83979L118.685 7.23865L122.716 3.70175L123.26 4.36745L125.696 2.53716L127.899 2.82901L131.463 0.148193L133.693 2.8152Z"/>
</mask>
<path d="M133.693 2.8152L134.502 4.09795L134.423 5.26673L136.171 7.72656L137.597 7.70436L139.623 6.05055L140.48 7.01781L139.138 9.8515L136.651 10.2114L134.498 12.3836L132.442 12.9465L133.478 13.7567L134.474 15.9094L133.331 17.584L133.944 18.6277L136.307 17.4075L139.149 14.4488L141.721 14.2723L144.302 12.8923L142.923 15.7134L143.215 16.6626L144.118 16.4764L144.656 19.349L146.923 22.8359L146.057 24.7162L142.788 25.8182L143.404 27.4679L141.498 29.1509L140.715 28.9146L140.879 29.9124L139.376 30.0264L138.541 30.9019L139.908 32.4487L136.753 34.8738L138.372 35.7702L139.848 35.502L140.67 37.1391L141.348 36.9264L142.371 34.6806L143.871 34.7113L145.874 33.2381L148.327 33.1492L150.824 34.5987L151.497 36.1677L153.746 36.3553L155.085 35.7771L155.873 37.1224L157.912 38.0688L160.685 36.3108L163.035 38.6331L166.158 39.3821L169.578 41.8712L168.511 42.0032L167.563 43.1025L167.8 44.5283L166.9 45.9209L168.798 46.146L168.9 47.1675L170.001 47.6594L168.93 48.9033L169.246 51.844L167.286 52.0691L166.926 50.7447L165.42 51.4131L160.972 55.2141L160.797 56.6358L158.837 56.6621L157.385 59.1873L156.347 59.3318L155.056 60.855L156.213 63.8179L155.467 66.0165L162.971 76.6285L162.24 77.7334L161.148 77.1344L160.079 77.5277L157.569 75.6557L154.422 74.783L154.067 73.9477L154.837 73.3738L154.695 72.362L154.02 72.2133L152.306 69.545L149.712 68.6889L149.323 69.1837L146.824 69.0586L144.22 71.5143L142.73 70.9125L135.903 71.8117L130.19 74.7023L127.296 79.3524L125.591 80.4086L123.591 80.41L121.363 84.7265L119.705 83.99L117.92 86.8765L115.645 86.5526L112.645 90.8039L108.998 92.2297L107.123 91.2486L106.504 89.6601L107.333 87.9743L106.474 87.6172L106.286 85.9203L105.589 85.4617L107.014 84.6181L105.907 79.679L107.43 80.0917L110.328 77.6708L113.48 76.666L113.536 74.1367L115.167 72.3398L117.301 73.6128L123.544 71.5879L125.108 71.5074L126.075 72.5219L126.435 71.5838L129.668 69.1073L128.496 66.9032L128.214 67.2742L127.69 66.5918L126.736 66.653L126.049 67.8634L125.922 66.6238L125.308 67.5021L124.788 67.0726L125.949 64.5975L125.711 63.0619L124.513 62.6255L124.061 61.4372L122.991 60.7702L123.404 59.9349L122.74 59.172L123.26 58.6577L122.155 57.2513L123.01 56.8942L122.799 56.3647L124.031 54.6956L127.038 52.1427L128.486 49.4813L124.109 49.1908L117.782 49.8329L115.16 52.3219L111.36 53.6241L109.401 52.6708L101.164 55.8241L96.2426 56.9776L95.6233 58.1533L94.3515 58.3312L93.2135 59.3624L91.292 59.3415L91.0934 59.9155L84.6612 62.9159L83.8308 61.4345L81.9976 62.2947L79.9905 61.3956L79.356 61.7527L78.6691 60.199L77.4828 61.1815L78.7918 62.9257L78.8663 64.0625L75.9254 65.5148L73.1446 69.2476L70.1306 71.4893L65.5606 76.6174L66.3456 77.1969L66.6214 78.6381L64.8144 79.0508L62.0238 82.0138L56.6401 83.07L52.557 82.2681L43.0682 83.7746L40.1355 82.2361L40.1038 81.5732L38.8265 80.8255L32.662 79.8235L32.0881 80.4725L32.2716 81.4815L30.5335 82.3126L26.9057 82.2666L25.1773 83.4688L23.8296 83.1672L21.6157 84.2415L16.7492 84.5208L16.6181 80.8241L14.6097 78.9688L14.309 75.7988L15.647 73.8045L14.778 72.4037L16.5699 72.3231L17.1175 71.7227L15.3325 70.4317L15.207 68.0566L14.1752 65.4605L11.884 66.0845L9.67837 65.3841L5.54981 65.7663L4.68495 64.7101L3.45314 65.2979L1.12472 62.3503L1.39506 61.2635L0.863981 60.4436L2.77034 58.0727L3.2283 56.1368L2.89722 54.9708L2.05029 54.3162L1.08747 54.4969L0.465332 53.1808L3.87245 53.0918L5.24773 54.5636L8.55828 54.6594L9.60803 57.0609L11.2881 57.7752L13.1683 55.9797L15.2346 56.3355L19.7094 53.0682L21.2584 53.1029L22.7592 55.7101L24.6021 55.1611L25.3829 54.2759L26.7705 54.8915L28.1113 53.6408L29.8259 54.3106L31.106 52.4609L32.9585 51.7215L34.9876 48.7961L32.7778 46.3905L33.4716 44.3239L36.7243 41.8141L37.4981 42.8063L39.4858 41.7362L41.486 39.8573L42.5205 40.876L43.4848 39.8142L43.1923 38.4968L48.8326 37.4933L49.1954 35.2906L47.7843 33.9981L50.4782 31.8635L51.3252 29.84L51.1694 28.7421L51.9721 28.4531L52.2384 27.4024L55.3779 26.2198L56.2028 26.9591L56.6911 25.9585L57.9257 26.7868L60.4155 26.8243L63.635 25.7834L64.8944 26.4685L66.8821 25.1844L69.2533 26.3601L71.4272 22.9358L70.961 22.184L71.2396 20.7622L75.8661 17.0127L77.5863 12.7323L79.694 10.6102L81.6914 10.4629L82.1355 9.21627L83.8363 8.00164L87.4945 7.93212L89.5249 3.96024L91.9183 5.43056L93.8329 7.52768L94.4287 10.064L96.5599 9.41219L100.92 11.1911L100.19 9.78602L103.102 10.7547L103.777 11.6663L107.501 11.879L107.956 13.6078L112.104 14.3875L113.38 14.293L114.208 13.1617L114.593 10.87L116.051 11.2564L115.787 8.42687L117.176 8.29486L117.55 6.83979L118.685 7.23865L122.716 3.70175L123.26 4.36745L125.696 2.53716L127.899 2.82901L131.463 0.148193L133.693 2.8152Z" fill="#D0D5DD" stroke="white" stroke-width="1.3794" mask="url(#path-1-inside-1_1162_4060)"/>
<g opacity="0.1">
<rect x="78.9993" y="21" width="28.2793" height="28.2793" rx="14.1396" fill="#236DF8"/>
</g>
<rect x="84.655" y="26.6542" width="16.9676" height="16.9676" rx="8.48379" fill="#73C4FF" fill-opacity="0.7"/>
<rect x="90.3108" y="32.3115" width="5.65586" height="5.65586" rx="2.82793" fill="#236DF8"/>
</svg>
