<svg width="183" height="124" viewBox="0 0 183 124" fill="none" xmlns="http://www.w3.org/2000/svg">
<mask id="path-1-inside-1_1162_4059" fill="white">
<path d="M5.13349 79.0518L5.41764 80.8334L4.69897 81.2378L5.13349 79.0518ZM69.7488 35.5209L74.6139 35.2401L76.8278 34.1659L78.1755 34.4674L79.9039 33.2653L83.5318 33.3126L85.2712 32.4816L85.0877 31.4726L85.6601 30.8236L91.8261 31.8256L93.1034 32.5733L93.1351 33.2362L96.0678 34.7746L105.557 33.2681L109.64 34.07L115.022 33.0138L117.813 30.0509L119.62 29.6381L119.345 28.197L118.56 27.6175L123.13 22.4893L126.146 20.249L128.926 16.5162L131.867 15.0625L131.793 13.9257L130.484 12.1816L131.67 11.199L132.357 12.7528L132.991 12.3956L134.999 13.2948L136.832 12.4345L137.662 13.916L144.094 10.9155L144.294 10.3402L146.216 10.3624L147.354 9.3312L148.626 9.15332L149.245 7.97899L154.165 6.82411L162.403 3.67078L164.362 4.62415L168.162 3.32195L170.783 0.832926L177.112 0.190857L181.488 0.481319L180.04 3.14269L177.032 5.69564L175.8 7.36609L176.01 7.89421L175.156 8.25137L176.261 9.65778L175.741 10.172L176.404 10.9349L175.99 11.7716L177.061 12.4373L177.513 13.6255L178.709 14.0619L178.949 15.5976L177.786 18.0713L178.306 18.5007L178.92 17.6224L179.047 18.8621L179.734 17.6516L180.688 17.5905L181.213 18.2728L181.494 17.9018L182.666 20.1059L179.433 22.5824L179.073 23.5219L178.106 22.5074L176.542 22.5879L170.299 24.6142L168.165 23.3412L166.534 25.1381L166.478 27.6674L163.326 28.6722L160.426 31.0932L158.904 30.6804L156.436 33.15L153.876 34.498L152.845 34.7301L151.184 33.6308L149.973 34.2687L147.547 38.3684L144.209 40.7491L142.526 41.2021L141.828 40.5337L140.977 42.0971L140.122 41.4537L137.895 42.7851L137.738 43.8982L136.161 44.582L135.917 47.2364L134.521 48.0022L133.521 49.4794L132.867 48.9027L132.749 46.2066L132.372 46.3775L129.768 49.5573L129.451 53.3137L127.501 53.8891L124.522 58.8296L124.126 62.0719L123.079 64.1746L123.788 66.9957L121.954 68.0256L120.996 69.368L119.829 68.8302L118.486 70.3826L118.025 69.3555L118.56 67.3168L117.829 65.5046L117.218 66.4593L115.364 67.3265L115.879 69.2819L112.061 72.1044L109.942 75.4523L107.852 76.257L105.086 78.9725L106.939 81.6228L108.844 82.5664L109.315 84.3217L108.555 85.464L109.194 86.5814L106.732 88.609L105.204 93.4064L104.304 94.9351L103.252 94.8809L102.693 95.8662L103.085 98.0189L102.436 98.4178L102.82 99.0557L102.122 100.38L101.2 101.044L101.206 102.486L99.9232 103.171L99.0486 102.213L98.6762 102.534L98.6017 104.697L97.6968 105.701L98.53 106.816L97.6844 109.336L98.5961 109.739L97.2705 110.017L97.6043 110.453L96.5395 112.492L96.6374 115.22L95.5201 115.471L93.6496 115.717L92.9517 115.166L92.7682 115.752L91.5461 115.592L90.5667 116.283L88.7266 111.736L86.5733 117.013L84.6546 117.716L84.2876 120.234L82.5289 120.47L81.9771 122.642L80.6585 123.125L80.515 123.786L79.2363 123.436L78.8252 120.241L75.1946 120.284L72.7752 120.362L74.498 116.233L73.3021 113.658L73.2994 112.268L73.8746 107.401L75.2415 104.872L73.5738 99.688L75.2457 99.0222L77.9327 101.257L79.1121 101.187L79.5991 100.386L80.8309 100.488L81.2047 99.5212L80.7591 97.9272L80.1632 98.3066L79.6832 97.9563L80.3081 97.8396L79.9288 97.2309L79.0018 97.3449L78.9273 95.4534L80.006 95.2839L80.6129 93.0186L82.3068 93.2882L81.7785 91.9971L84.5787 92.7101L85.885 90.8131L89.8563 89.4609L88.7086 88.502L89.5032 87.3554L89.2784 85.8406L88.59 85.753L87.9113 84.2799L87.3651 84.4814L86.0836 83.132L85.6891 83.3487L85.5208 82.5482L84.2173 83.15L83.9014 81.3837L83.0145 81.5184L85.2449 79.2754L85.4987 77.5187L84.0297 78.6347L83.1621 78.5375L82.7317 76.8836L81.1164 76.5334L80.0694 74.6225L79.108 74.3488L79.137 73.0494L77.7479 72.3392L76.2609 73.2495L73.2414 73.5386L71.2702 74.9617L71.0509 70.4366L71.8234 68.5897L73.1407 67.4042L71.3558 67.2514L71.1447 66.1896L75.2153 61.8647L73.5931 62.3984L71.7778 61.8522L70.4743 62.9348L68.1556 63.3559L66.372 63.0919L64.3815 64.4288L62.8807 62.7333L63.0435 61.2657L61.4117 60.5889L58.8694 62.5068L58.5508 65.8922L57.0817 67.4584L55.4016 66.348L56.1768 65.5462L56.0086 63.6936L54.3822 63.3489L52.24 66.9665L53.098 66.872L51.4634 68.5591L52.4166 68.68L53.0497 67.9657L52.9256 68.5049L50.5861 69.5291L49.8496 69.0885L47.3859 69.5999L45.7127 72.5531L44.2188 73.3078L43.2974 73.1105L42.9484 71.6081L43.4271 68.9496L39.5813 70.192L39.195 69.9182L40.0227 69.1552L39.173 69.2776L37.777 70.1309L38.5992 68.0157L36.8156 68.0434L36.1011 66.1006L35.3258 66.2423L35.4183 67.2027L34.3754 65.9658L33.0402 66.4022L32.2635 65.9533L31.3449 67.3652L30.262 67.1429L30.4607 65.7879L28.6895 65.9978L26.9211 67.6682L26.3928 67.2374L27.0425 66.4272L25.6976 65.7073L23.6795 67.7516L24.3113 65.7629L22.6615 63.9215L21.2559 64.7651L20.3276 63.9562L19.4172 64.0799L18.2433 65.2376L14.1479 66.2007L12.3036 65.6601L9.01377 68.3173L9.51033 68.7398L9.1172 69.3415L7.2771 70.06L7.5847 71.668L6.95709 72.6283L5.77768 72.9354L9.3779 77.1991L5.12797 79.0586L5.56388 76.3124L4.10311 73.4996L4.36103 71.8681L3.52235 70.3032L5.71286 66.3383L4.59003 66.1382L4.30172 65.5753L5.28108 65.1834L4.24653 64.0786L4.25208 65.0264L3.76651 64.9013L3.22027 63.1474L2.46574 63.2266L3.20234 62.5595L3.0313 61.6409L1.92089 60.9029L2.25467 60.3095L1.6836 59.402L0.755298 59.0657L1.19945 58.7766L0.064209 58.3222L1.13736 57.5731L0.133162 57.4133L1.04218 56.7365L0.351135 55.715L0.940142 56.0861L1.29463 55.6775L0.727683 54.5602L1.9057 55.0882L1.67122 54.0501L2.54711 53.7458L2.58024 53.0231L4.75416 52.0155L4.45208 51.4249L3.88791 51.6278L5.139 49.5793L4.62038 48.6774L4.88933 45.7631L5.33765 45.5574L4.74587 44.29L5.30318 43.445L4.74313 41.687L4.89901 40.6113L7.65365 41.0588L13.0899 40.0304L14.3217 39.5217L14.1865 38.2529L15.0762 36.827L17.5784 37.0049L19.1248 35.4512L20.7028 35.2636L25.041 38.535L29.4399 39.619L39.3068 39.2341L40.5386 37.9277L45.3237 38.4072L47.4604 39.2285L49.5405 37.4163L51.9793 38.9005L55.7616 37.8777L57.5949 38.403L60.9054 36.8798L62.518 34.8689L63.6573 34.8008L66.2078 36.6783L67.939 37.0257L69.1929 36.5893L69.7488 35.5209Z"/>
</mask>
<path d="M5.13349 79.0518L5.41764 80.8334L4.69897 81.2378L5.13349 79.0518ZM69.7488 35.5209L74.6139 35.2401L76.8278 34.1659L78.1755 34.4674L79.9039 33.2653L83.5318 33.3126L85.2712 32.4816L85.0877 31.4726L85.6601 30.8236L91.8261 31.8256L93.1034 32.5733L93.1351 33.2362L96.0678 34.7746L105.557 33.2681L109.64 34.07L115.022 33.0138L117.813 30.0509L119.62 29.6381L119.345 28.197L118.56 27.6175L123.13 22.4893L126.146 20.249L128.926 16.5162L131.867 15.0625L131.793 13.9257L130.484 12.1816L131.67 11.199L132.357 12.7528L132.991 12.3956L134.999 13.2948L136.832 12.4345L137.662 13.916L144.094 10.9155L144.294 10.3402L146.216 10.3624L147.354 9.3312L148.626 9.15332L149.245 7.97899L154.165 6.82411L162.403 3.67078L164.362 4.62415L168.162 3.32195L170.783 0.832926L177.112 0.190857L181.488 0.481319L180.04 3.14269L177.032 5.69564L175.8 7.36609L176.01 7.89421L175.156 8.25137L176.261 9.65778L175.741 10.172L176.404 10.9349L175.99 11.7716L177.061 12.4373L177.513 13.6255L178.709 14.0619L178.949 15.5976L177.786 18.0713L178.306 18.5007L178.92 17.6224L179.047 18.8621L179.734 17.6516L180.688 17.5905L181.213 18.2728L181.494 17.9018L182.666 20.1059L179.433 22.5824L179.073 23.5219L178.106 22.5074L176.542 22.5879L170.299 24.6142L168.165 23.3412L166.534 25.1381L166.478 27.6674L163.326 28.6722L160.426 31.0932L158.904 30.6804L156.436 33.15L153.876 34.498L152.845 34.7301L151.184 33.6308L149.973 34.2687L147.547 38.3684L144.209 40.7491L142.526 41.2021L141.828 40.5337L140.977 42.0971L140.122 41.4537L137.895 42.7851L137.738 43.8982L136.161 44.582L135.917 47.2364L134.521 48.0022L133.521 49.4794L132.867 48.9027L132.749 46.2066L132.372 46.3775L129.768 49.5573L129.451 53.3137L127.501 53.8891L124.522 58.8296L124.126 62.0719L123.079 64.1746L123.788 66.9957L121.954 68.0256L120.996 69.368L119.829 68.8302L118.486 70.3826L118.025 69.3555L118.56 67.3168L117.829 65.5046L117.218 66.4593L115.364 67.3265L115.879 69.2819L112.061 72.1044L109.942 75.4523L107.852 76.257L105.086 78.9725L106.939 81.6228L108.844 82.5664L109.315 84.3217L108.555 85.464L109.194 86.5814L106.732 88.609L105.204 93.4064L104.304 94.9351L103.252 94.8809L102.693 95.8662L103.085 98.0189L102.436 98.4178L102.82 99.0557L102.122 100.38L101.2 101.044L101.206 102.486L99.9232 103.171L99.0486 102.213L98.6762 102.534L98.6017 104.697L97.6968 105.701L98.53 106.816L97.6844 109.336L98.5961 109.739L97.2705 110.017L97.6043 110.453L96.5395 112.492L96.6374 115.22L95.5201 115.471L93.6496 115.717L92.9517 115.166L92.7682 115.752L91.5461 115.592L90.5667 116.283L88.7266 111.736L86.5733 117.013L84.6546 117.716L84.2876 120.234L82.5289 120.47L81.9771 122.642L80.6585 123.125L80.515 123.786L79.2363 123.436L78.8252 120.241L75.1946 120.284L72.7752 120.362L74.498 116.233L73.3021 113.658L73.2994 112.268L73.8746 107.401L75.2415 104.872L73.5738 99.688L75.2457 99.0222L77.9327 101.257L79.1121 101.187L79.5991 100.386L80.8309 100.488L81.2047 99.5212L80.7591 97.9272L80.1632 98.3066L79.6832 97.9563L80.3081 97.8396L79.9288 97.2309L79.0018 97.3449L78.9273 95.4534L80.006 95.2839L80.6129 93.0186L82.3068 93.2882L81.7785 91.9971L84.5787 92.7101L85.885 90.8131L89.8563 89.4609L88.7086 88.502L89.5032 87.3554L89.2784 85.8406L88.59 85.753L87.9113 84.2799L87.3651 84.4814L86.0836 83.132L85.6891 83.3487L85.5208 82.5482L84.2173 83.15L83.9014 81.3837L83.0145 81.5184L85.2449 79.2754L85.4987 77.5187L84.0297 78.6347L83.1621 78.5375L82.7317 76.8836L81.1164 76.5334L80.0694 74.6225L79.108 74.3488L79.137 73.0494L77.7479 72.3392L76.2609 73.2495L73.2414 73.5386L71.2702 74.9617L71.0509 70.4366L71.8234 68.5897L73.1407 67.4042L71.3558 67.2514L71.1447 66.1896L75.2153 61.8647L73.5931 62.3984L71.7778 61.8522L70.4743 62.9348L68.1556 63.3559L66.372 63.0919L64.3815 64.4288L62.8807 62.7333L63.0435 61.2657L61.4117 60.5889L58.8694 62.5068L58.5508 65.8922L57.0817 67.4584L55.4016 66.348L56.1768 65.5462L56.0086 63.6936L54.3822 63.3489L52.24 66.9665L53.098 66.872L51.4634 68.5591L52.4166 68.68L53.0497 67.9657L52.9256 68.5049L50.5861 69.5291L49.8496 69.0885L47.3859 69.5999L45.7127 72.5531L44.2188 73.3078L43.2974 73.1105L42.9484 71.6081L43.4271 68.9496L39.5813 70.192L39.195 69.9182L40.0227 69.1552L39.173 69.2776L37.777 70.1309L38.5992 68.0157L36.8156 68.0434L36.1011 66.1006L35.3258 66.2423L35.4183 67.2027L34.3754 65.9658L33.0402 66.4022L32.2635 65.9533L31.3449 67.3652L30.262 67.1429L30.4607 65.7879L28.6895 65.9978L26.9211 67.6682L26.3928 67.2374L27.0425 66.4272L25.6976 65.7073L23.6795 67.7516L24.3113 65.7629L22.6615 63.9215L21.2559 64.7651L20.3276 63.9562L19.4172 64.0799L18.2433 65.2376L14.1479 66.2007L12.3036 65.6601L9.01377 68.3173L9.51033 68.7398L9.1172 69.3415L7.2771 70.06L7.5847 71.668L6.95709 72.6283L5.77768 72.9354L9.3779 77.1991L5.12797 79.0586L5.56388 76.3124L4.10311 73.4996L4.36103 71.8681L3.52235 70.3032L5.71286 66.3383L4.59003 66.1382L4.30172 65.5753L5.28108 65.1834L4.24653 64.0786L4.25208 65.0264L3.76651 64.9013L3.22027 63.1474L2.46574 63.2266L3.20234 62.5595L3.0313 61.6409L1.92089 60.9029L2.25467 60.3095L1.6836 59.402L0.755298 59.0657L1.19945 58.7766L0.064209 58.3222L1.13736 57.5731L0.133162 57.4133L1.04218 56.7365L0.351135 55.715L0.940142 56.0861L1.29463 55.6775L0.727683 54.5602L1.9057 55.0882L1.67122 54.0501L2.54711 53.7458L2.58024 53.0231L4.75416 52.0155L4.45208 51.4249L3.88791 51.6278L5.139 49.5793L4.62038 48.6774L4.88933 45.7631L5.33765 45.5574L4.74587 44.29L5.30318 43.445L4.74313 41.687L4.89901 40.6113L7.65365 41.0588L13.0899 40.0304L14.3217 39.5217L14.1865 38.2529L15.0762 36.827L17.5784 37.0049L19.1248 35.4512L20.7028 35.2636L25.041 38.535L29.4399 39.619L39.3068 39.2341L40.5386 37.9277L45.3237 38.4072L47.4604 39.2285L49.5405 37.4163L51.9793 38.9005L55.7616 37.8777L57.5949 38.403L60.9054 36.8798L62.518 34.8689L63.6573 34.8008L66.2078 36.6783L67.939 37.0257L69.1929 36.5893L69.7488 35.5209Z" fill="#D0D5DD" stroke="white" stroke-width="1.3794" mask="url(#path-1-inside-1_1162_4059)"/>
<g opacity="0.1">
<rect x="80.9993" y="40" width="28.2793" height="28.2793" rx="14.1396" fill="#236DF8"/>
</g>
<rect x="86.655" y="45.6542" width="16.9676" height="16.9676" rx="8.48379" fill="#73C4FF" fill-opacity="0.7"/>
<rect x="92.3108" y="51.3115" width="5.65586" height="5.65586" rx="2.82793" fill="#236DF8"/>
</svg>
