<svg width="145" height="105" viewBox="0 0 145 105" fill="none" xmlns="http://www.w3.org/2000/svg">
<mask id="path-1-inside-1_1162_4056" fill="white">
<path d="M24.0867 0.357118L25.0454 0.255751L24.9889 1.26469L26.6331 1.79558L26.7117 2.67806L28.029 2.36676L29.174 4.57505L38.5897 6.0732L40.6409 10.0909L40.1609 13.9711L39.2491 15.5373L42.5431 16.9869L43.0011 16.5032L43.6053 17.2175L44.6495 16.4462L46.433 18.0611L48.4773 18.3641L48.9408 19.0214L48.6304 19.8011L51.3051 20.7517L50.2071 21.7662L55.2102 21.4034L54.6736 23.1768L55.6309 24.9014L59.2132 25.4615L61.3292 23.8494L62.6589 24.1482L67.8855 21.2297L70.7753 23.7035L70.7146 28.2813L73.1741 29.9573L74.1411 29.7308L74.1066 31.0608L76.944 29.6113L77.2971 28.3869L79.2655 27.8894L82.4436 29.111L82.3761 29.8378L83.9955 29.5723L84.7197 30.4243L85.728 29.4959L87.8854 29.4153L94.0927 32.042L94.9176 33.3747L99.5579 35.7943L100.546 34.6171L102.511 35.255L104.263 34.5115L104.195 33.7333L105.298 33.6193L105.38 32.7397L107.765 32.2449L108.619 30.4605L109.397 30.5092L109.964 34.8896L112.018 36.3822L114.723 36.1543L115.002 37.3578L116.347 37.4384L117.17 38.2L117.976 36.2543L120.798 35.2106L124.823 37.1312L126.149 36.7241L126.896 35.3705L128.511 36.2627L129.456 36.114L130.13 34.2781L131.832 35.3357L132.971 33.7125L134.088 35.9249L135.96 36.756L136.14 37.6441L137.069 37.6468L137.203 36.7713L138.943 35.294L139.195 32.1212L140.329 32.9175L140.99 32.0642L142.808 31.5917L142.87 32.2268L141.3 33.5777L141.726 34.178L142.664 34.0405L142.744 34.9814L143.867 35.8013L142.786 36.699L142.992 37.2994L143.857 37.1118L144.559 37.9915L142.318 40.3235L140.303 41.2546L138.147 43.7409L137.211 43.677L136.508 44.8639L135.093 44.5053L135.21 46.7817L134.337 46.6817L134.141 47.1806L133.615 46.4704L131.571 47.9686L131.219 51.4777L130.463 52.2282L131.014 53.5359L133.556 54.1696L132.761 54.9145L133.545 55.3579L133.197 56.806L134.177 56.7559L135.003 58.2554L137.533 59.3505L137.158 61.0766L137.698 61.2045L136.738 62.6776L137.163 64.2883L138.234 65.3403L138.163 66.0908L136.927 65.9101L136.348 65.1333L136.254 65.6572L135.746 65.382L135.729 64.6705L133.996 64.305L133.215 65.3278L132.644 64.9526L132.189 66.5744L131.334 66.6008L130.608 67.575L129.819 67.24L129.176 68.5089L129.368 69.3761L130.036 69.5595L129.895 70.8339L131.989 72.5836L131.016 73.9733L131.417 75.0949L130 74.4153L129.876 73.594L127.695 73.2674L127.012 71.5483L124.783 71.508L124.008 70.3239L123.064 70.8826L122.842 72.4613L121.161 72.0277L121.57 73.0742L120.906 73.7649L120.89 75.2422L118.57 74.1916L117.937 74.9101L116.596 74.3333L115.661 78.611L114.49 78.0814L113.359 78.6012L111.494 80.6858L111.821 85.1108L111.615 85.978L110.56 86.0697L109.523 87.1315L110.045 87.7944L108.712 93.9954L105.235 92.8475L104.311 94.6389L104.688 96.162L103.684 95.2518L103.055 95.7882L102.547 95.2225L101.486 95.3393L101.645 94.3873L100.816 93.5826L100.057 93.6396L99.5014 94.9821L97.6764 95.4657L95.7866 94.051L94.163 96.2801L92.9795 96.8304L92.4857 99.7781L91.8277 99.8767L91.4346 101.568L90.3766 101.233L88.5047 99.1832L86.437 98.6009L87.3985 97.1236L87.1557 95.5407L87.6992 94.7194L86.0039 94.9806L84.6535 93.8383L84.0065 94.6846L82.2257 94.0995L81.9691 90.8642L80.8753 89.5551L79.5042 89.7135L79.8366 88.4947L76.9412 90.0067L74.8459 87.8346L71.9436 87.8776L70.7739 87.1216L69.6152 90.6015L68.2552 91.4409L68.6924 94.7874L66.1474 94.1162L65.9088 95.3196L64.9997 95.3183L64.4645 96.6135L63.5459 95.7797L57.6559 96.544L57.6393 97.4807L53.8487 98.573L54.3894 99.6348L52.0803 101.232L51.3878 100.991L51.6968 99.3027L51.0361 100.089L49.2208 100.181L48.589 101.333L46.553 101.455L46.0372 98.5731L44.7157 98.8997L44.6647 97.0249L43.5873 96.4538L40.2257 98.7788L39.6285 100.769L37.151 100.177L36.9566 101.079L35.6806 101.323L35.7951 102.492L34.8723 104.156L33.7453 102.517L32.6749 102.748L32.8211 101.865L31.6569 100.895L30.3189 100.701L29.7174 99.8225L30.1602 99.5765L29.0857 98.9525L29.1147 98.0005L30.0444 97.3015L29.0802 95.2906L28.3946 95.3461L28.7091 95.738L28.047 96.4107L27.407 95.6977L26.9021 96.2703L26.0593 95.6283L25.6138 95.8895L25.7986 97.0569L24.8399 96.1063L24.6661 97.2348L23.7929 97.9797L21.9735 93.8174L20.3982 92.9975L18.5581 95.8645L16.8118 96.3426L12.4418 97.2306L6.13245 96.5288L7.37942 93.3741L6.11313 92.5625L6.58078 91.623L5.62899 90.8406L5.60276 89.8205L4.8303 89.965L2.9143 88.3432L3.01777 86.7853L1.96668 85.5888L1.67424 81.1263L0.932129 80.9081L2.06325 77.4935L1.42735 75.666L1.83976 75.1045L2.95568 74.8461L3.56262 73.4938L5.03585 73.4076L7.3215 71.3063L8.03464 71.6107L9.71613 70.9269L10.5203 69.6956L11.6404 69.5886L11.2432 69.3606L11.8018 68.7936L12.0735 69.1119L12.8957 68.3294L13.7454 69.0563L14.8268 68.3169L14.6834 67.6554L15.9538 67.4859L15.1413 66.5562L16.3221 66.306L18.2257 63.5877L22.8301 61.0513L22.6315 59.1877L23.3474 58.3914L24.9006 58.0509L26.2317 58.9362L26.48 60.0202L28.8677 60.2815L28.8098 59.7798L29.8195 59.9465L30.1878 57.6146L31.5934 57.4825L32.2252 59.0627L33.5798 58.5804L34.7233 59.7561L35.7689 59.5477L36.0944 58.1941L35.9648 59.2753L36.5689 59.5574L36.6641 57.8758L38.8284 58.1357L37.9608 57.0976L38.529 56.0233L36.6889 54.628L35.8365 54.7309L35.8847 53.3356L32.8432 52.8631L32.4101 51.611L30.7672 50.7104L29.1781 51.1078L26.4483 49.3832L25.4206 49.675L25.4496 48.5813L23.2494 46.2924L22.0369 46.1909L21.1445 44.7261L20.9528 41.645L22.9115 42.2732L23.8826 40.9599L25.2206 41.4769L25.8675 39.181L25.5682 37.3424L22.7005 37.0033L20.9376 34.9354L20.1003 35.3828L17.8008 34.877L17.798 32.684L19.5402 32.9911L19.8754 32.2365L22.0011 31.8626L23.0053 30.0462L22.9832 28.6468L28.4815 30.0546L32.588 29.1554L32.2362 27.7295L30.0251 27.3071L29.2278 25.0724L27.7642 25.8492L27.378 25.5171L27.1076 24.9473L27.9063 23.274L27.5835 21.5313L26.6635 21.2533L25.4993 22.436L24.4233 21.7495L24.6881 20.7141L23.5267 20.2847L23.2205 21.0532L22.1225 20.5807L21.997 19.2785L21.339 18.9255L21.9666 18.3015L21.7983 15.6138L20.3527 14.8369L21.2176 13.9641L18.8699 14.0447L20.0065 10.5509L19.3044 9.42381L17.6725 8.63026L18.4726 7.1738L18.2132 6.4845L16.4214 6.9445L15.6793 6.56787L16.5331 5.64927L17.9746 4.56387L17.0173 4.31511L16.8739 3.12272L18.6919 2.44173L21.4686 2.95595L23.4371 1.13539L23.5033 0.243164L24.0867 0.357118Z"/>
</mask>
<path d="M24.0867 0.357118L25.0454 0.255751L24.9889 1.26469L26.6331 1.79558L26.7117 2.67806L28.029 2.36676L29.174 4.57505L38.5897 6.0732L40.6409 10.0909L40.1609 13.9711L39.2491 15.5373L42.5431 16.9869L43.0011 16.5032L43.6053 17.2175L44.6495 16.4462L46.433 18.0611L48.4773 18.3641L48.9408 19.0214L48.6304 19.8011L51.3051 20.7517L50.2071 21.7662L55.2102 21.4034L54.6736 23.1768L55.6309 24.9014L59.2132 25.4615L61.3292 23.8494L62.6589 24.1482L67.8855 21.2297L70.7753 23.7035L70.7146 28.2813L73.1741 29.9573L74.1411 29.7308L74.1066 31.0608L76.944 29.6113L77.2971 28.3869L79.2655 27.8894L82.4436 29.111L82.3761 29.8378L83.9955 29.5723L84.7197 30.4243L85.728 29.4959L87.8854 29.4153L94.0927 32.042L94.9176 33.3747L99.5579 35.7943L100.546 34.6171L102.511 35.255L104.263 34.5115L104.195 33.7333L105.298 33.6193L105.38 32.7397L107.765 32.2449L108.619 30.4605L109.397 30.5092L109.964 34.8896L112.018 36.3822L114.723 36.1543L115.002 37.3578L116.347 37.4384L117.17 38.2L117.976 36.2543L120.798 35.2106L124.823 37.1312L126.149 36.7241L126.896 35.3705L128.511 36.2627L129.456 36.114L130.13 34.2781L131.832 35.3357L132.971 33.7125L134.088 35.9249L135.96 36.756L136.14 37.6441L137.069 37.6468L137.203 36.7713L138.943 35.294L139.195 32.1212L140.329 32.9175L140.99 32.0642L142.808 31.5917L142.87 32.2268L141.3 33.5777L141.726 34.178L142.664 34.0405L142.744 34.9814L143.867 35.8013L142.786 36.699L142.992 37.2994L143.857 37.1118L144.559 37.9915L142.318 40.3235L140.303 41.2546L138.147 43.7409L137.211 43.677L136.508 44.8639L135.093 44.5053L135.21 46.7817L134.337 46.6817L134.141 47.1806L133.615 46.4704L131.571 47.9686L131.219 51.4777L130.463 52.2282L131.014 53.5359L133.556 54.1696L132.761 54.9145L133.545 55.3579L133.197 56.806L134.177 56.7559L135.003 58.2554L137.533 59.3505L137.158 61.0766L137.698 61.2045L136.738 62.6776L137.163 64.2883L138.234 65.3403L138.163 66.0908L136.927 65.9101L136.348 65.1333L136.254 65.6572L135.746 65.382L135.729 64.6705L133.996 64.305L133.215 65.3278L132.644 64.9526L132.189 66.5744L131.334 66.6008L130.608 67.575L129.819 67.24L129.176 68.5089L129.368 69.3761L130.036 69.5595L129.895 70.8339L131.989 72.5836L131.016 73.9733L131.417 75.0949L130 74.4153L129.876 73.594L127.695 73.2674L127.012 71.5483L124.783 71.508L124.008 70.3239L123.064 70.8826L122.842 72.4613L121.161 72.0277L121.57 73.0742L120.906 73.7649L120.89 75.2422L118.57 74.1916L117.937 74.9101L116.596 74.3333L115.661 78.611L114.49 78.0814L113.359 78.6012L111.494 80.6858L111.821 85.1108L111.615 85.978L110.56 86.0697L109.523 87.1315L110.045 87.7944L108.712 93.9954L105.235 92.8475L104.311 94.6389L104.688 96.162L103.684 95.2518L103.055 95.7882L102.547 95.2225L101.486 95.3393L101.645 94.3873L100.816 93.5826L100.057 93.6396L99.5014 94.9821L97.6764 95.4657L95.7866 94.051L94.163 96.2801L92.9795 96.8304L92.4857 99.7781L91.8277 99.8767L91.4346 101.568L90.3766 101.233L88.5047 99.1832L86.437 98.6009L87.3985 97.1236L87.1557 95.5407L87.6992 94.7194L86.0039 94.9806L84.6535 93.8383L84.0065 94.6846L82.2257 94.0995L81.9691 90.8642L80.8753 89.5551L79.5042 89.7135L79.8366 88.4947L76.9412 90.0067L74.8459 87.8346L71.9436 87.8776L70.7739 87.1216L69.6152 90.6015L68.2552 91.4409L68.6924 94.7874L66.1474 94.1162L65.9088 95.3196L64.9997 95.3183L64.4645 96.6135L63.5459 95.7797L57.6559 96.544L57.6393 97.4807L53.8487 98.573L54.3894 99.6348L52.0803 101.232L51.3878 100.991L51.6968 99.3027L51.0361 100.089L49.2208 100.181L48.589 101.333L46.553 101.455L46.0372 98.5731L44.7157 98.8997L44.6647 97.0249L43.5873 96.4538L40.2257 98.7788L39.6285 100.769L37.151 100.177L36.9566 101.079L35.6806 101.323L35.7951 102.492L34.8723 104.156L33.7453 102.517L32.6749 102.748L32.8211 101.865L31.6569 100.895L30.3189 100.701L29.7174 99.8225L30.1602 99.5765L29.0857 98.9525L29.1147 98.0005L30.0444 97.3015L29.0802 95.2906L28.3946 95.3461L28.7091 95.738L28.047 96.4107L27.407 95.6977L26.9021 96.2703L26.0593 95.6283L25.6138 95.8895L25.7986 97.0569L24.8399 96.1063L24.6661 97.2348L23.7929 97.9797L21.9735 93.8174L20.3982 92.9975L18.5581 95.8645L16.8118 96.3426L12.4418 97.2306L6.13245 96.5288L7.37942 93.3741L6.11313 92.5625L6.58078 91.623L5.62899 90.8406L5.60276 89.8205L4.8303 89.965L2.9143 88.3432L3.01777 86.7853L1.96668 85.5888L1.67424 81.1263L0.932129 80.9081L2.06325 77.4935L1.42735 75.666L1.83976 75.1045L2.95568 74.8461L3.56262 73.4938L5.03585 73.4076L7.3215 71.3063L8.03464 71.6107L9.71613 70.9269L10.5203 69.6956L11.6404 69.5886L11.2432 69.3606L11.8018 68.7936L12.0735 69.1119L12.8957 68.3294L13.7454 69.0563L14.8268 68.3169L14.6834 67.6554L15.9538 67.4859L15.1413 66.5562L16.3221 66.306L18.2257 63.5877L22.8301 61.0513L22.6315 59.1877L23.3474 58.3914L24.9006 58.0509L26.2317 58.9362L26.48 60.0202L28.8677 60.2815L28.8098 59.7798L29.8195 59.9465L30.1878 57.6146L31.5934 57.4825L32.2252 59.0627L33.5798 58.5804L34.7233 59.7561L35.7689 59.5477L36.0944 58.1941L35.9648 59.2753L36.5689 59.5574L36.6641 57.8758L38.8284 58.1357L37.9608 57.0976L38.529 56.0233L36.6889 54.628L35.8365 54.7309L35.8847 53.3356L32.8432 52.8631L32.4101 51.611L30.7672 50.7104L29.1781 51.1078L26.4483 49.3832L25.4206 49.675L25.4496 48.5813L23.2494 46.2924L22.0369 46.1909L21.1445 44.7261L20.9528 41.645L22.9115 42.2732L23.8826 40.9599L25.2206 41.4769L25.8675 39.181L25.5682 37.3424L22.7005 37.0033L20.9376 34.9354L20.1003 35.3828L17.8008 34.877L17.798 32.684L19.5402 32.9911L19.8754 32.2365L22.0011 31.8626L23.0053 30.0462L22.9832 28.6468L28.4815 30.0546L32.588 29.1554L32.2362 27.7295L30.0251 27.3071L29.2278 25.0724L27.7642 25.8492L27.378 25.5171L27.1076 24.9473L27.9063 23.274L27.5835 21.5313L26.6635 21.2533L25.4993 22.436L24.4233 21.7495L24.6881 20.7141L23.5267 20.2847L23.2205 21.0532L22.1225 20.5807L21.997 19.2785L21.339 18.9255L21.9666 18.3015L21.7983 15.6138L20.3527 14.8369L21.2176 13.9641L18.8699 14.0447L20.0065 10.5509L19.3044 9.42381L17.6725 8.63026L18.4726 7.1738L18.2132 6.4845L16.4214 6.9445L15.6793 6.56787L16.5331 5.64927L17.9746 4.56387L17.0173 4.31511L16.8739 3.12272L18.6919 2.44173L21.4686 2.95595L23.4371 1.13539L23.5033 0.243164L24.0867 0.357118Z" fill="#D0D5DD"/>
<path d="M138.838 32.075L138.862 32.1848L139.536 32.0407L139.513 31.9309L138.838 32.075ZM24.0867 0.357118L23.9545 1.03403L24.0562 1.05389L24.1592 1.04299L24.0867 0.357118ZM25.0454 0.255751L25.734 0.294337L25.7794 -0.515403L24.9729 -0.430126L25.0454 0.255751ZM24.9889 1.26469L24.3003 1.2261L24.2705 1.75749L24.777 1.92102L24.9889 1.26469ZM26.6331 1.79558L27.3201 1.73436L27.2796 1.27955L26.845 1.13924L26.6331 1.79558ZM26.7117 2.67806L26.0248 2.73927L26.0954 3.5324L26.8704 3.34927L26.7117 2.67806ZM28.029 2.36676L28.6413 2.0493L28.3938 1.57186L27.8704 1.69555L28.029 2.36676ZM29.174 4.57505L28.5617 4.89251L28.7219 5.20149L29.0656 5.25618L29.174 4.57505ZM38.5897 6.0732L39.204 5.7596L39.0445 5.44719L38.6981 5.39207L38.5897 6.0732ZM40.6409 10.0909L41.3254 10.1756L41.3514 9.96572L41.2552 9.77734L40.6409 10.0909ZM40.1609 13.9711L40.757 14.3181L40.828 14.196L40.8454 14.0558L40.1609 13.9711ZM39.2491 15.5373L38.653 15.1903L38.2646 15.8576L38.9713 16.1686L39.2491 15.5373ZM42.5431 16.9869L42.2653 17.6181L42.7099 17.8138L43.0439 17.4611L42.5431 16.9869ZM43.0011 16.5032L43.5277 16.0578L43.0301 15.4695L42.5003 16.029L43.0011 16.5032ZM43.6053 17.2175L43.0787 17.6629L43.4957 18.1559L44.0151 17.7723L43.6053 17.2175ZM44.6495 16.4462L45.1124 15.935L44.6938 15.556L44.2397 15.8915L44.6495 16.4462ZM46.433 18.0611L45.9701 18.5724L46.1251 18.7127L46.3319 18.7433L46.433 18.0611ZM48.4773 18.3641L49.041 17.9666L48.8707 17.7252L48.5784 17.6818L48.4773 18.3641ZM48.9408 19.0214L49.5816 19.2765L49.7197 18.9293L49.5044 18.624L48.9408 19.0214ZM48.6304 19.8011L47.9896 19.546L47.7249 20.2112L48.3995 20.451L48.6304 19.8011ZM51.3051 20.7517L51.7731 21.2582L52.6112 20.4839L51.5361 20.1018L51.3051 20.7517ZM50.2071 21.7662L49.739 21.2596L48.292 22.5965L50.2569 22.4541L50.2071 21.7662ZM55.2102 21.4034L55.8703 21.6032L56.1609 20.643L55.1603 20.7155L55.2102 21.4034ZM54.6736 23.1768L54.0134 22.977L53.9289 23.2563L54.0705 23.5115L54.6736 23.1768ZM55.6309 24.9014L55.0278 25.2361L55.1914 25.5308L55.5243 25.5828L55.6309 24.9014ZM59.2132 25.4615L59.1067 26.1429L59.3972 26.1883L59.6312 26.0101L59.2132 25.4615ZM61.3292 23.8494L61.4804 23.1765L61.1668 23.106L60.9112 23.3008L61.3292 23.8494ZM62.6589 24.1482L62.5077 24.8211L62.765 24.8789L62.9952 24.7504L62.6589 24.1482ZM67.8855 21.2297L68.334 20.7058L67.9689 20.3932L67.5492 20.6275L67.8855 21.2297ZM70.7753 23.7035L71.465 23.7126L71.4692 23.3896L71.2238 23.1795L70.7753 23.7035ZM70.7146 28.2813L70.025 28.2721L70.0201 28.6426L70.3262 28.8512L70.7146 28.2813ZM73.1741 29.9573L72.7857 30.5272L73.0362 30.698L73.3314 30.6288L73.1741 29.9573ZM74.1411 29.7308L74.8305 29.7486L74.8537 28.8555L73.9837 29.0593L74.1411 29.7308ZM74.1066 31.0608L73.4171 31.0429L73.387 32.2028L74.4203 31.675L74.1066 31.0608ZM76.944 29.6113L77.2577 30.2255L77.5238 30.0895L77.6067 29.8024L76.944 29.6113ZM77.2971 28.3869L77.1281 27.7182L76.7442 27.8153L76.6344 28.1958L77.2971 28.3869ZM79.2655 27.8894L79.513 27.2456L79.3087 27.1671L79.0965 27.2207L79.2655 27.8894ZM82.4436 29.111L83.1304 29.1748L83.1787 28.6546L82.6911 28.4672L82.4436 29.111ZM82.3761 29.8378L81.6893 29.7739L81.6067 30.6628L82.4876 30.5184L82.3761 29.8378ZM83.9955 29.5723L84.521 29.1256L84.2685 28.8287L83.8839 28.8917L83.9955 29.5723ZM84.7197 30.4243L84.1942 30.871L84.659 31.4177L85.1868 30.9317L84.7197 30.4243ZM85.728 29.4959L85.7023 28.8067L85.448 28.8162L85.2609 28.9885L85.728 29.4959ZM87.8854 29.4153L88.1542 28.7802L88.0129 28.7204L87.8596 28.7261L87.8854 29.4153ZM94.0927 32.042L94.6791 31.679L94.5636 31.4923L94.3615 31.4068L94.0927 32.042ZM94.9176 33.3747L94.3311 33.7377L94.4308 33.8987L94.5987 33.9863L94.9176 33.3747ZM99.5579 35.7943L99.239 36.4058L99.7302 36.6619L100.086 36.2376L99.5579 35.7943ZM100.546 34.6171L100.758 33.9611L100.316 33.8176L100.017 34.1738L100.546 34.6171ZM102.511 35.255L102.298 35.911L102.543 35.9906L102.781 35.8899L102.511 35.255ZM104.263 34.5115L104.532 35.1464L104.993 34.9508L104.95 34.4518L104.263 34.5115ZM104.195 33.7333L104.124 33.0473L103.45 33.117L103.508 33.793L104.195 33.7333ZM105.298 33.6193L105.369 34.3054L105.931 34.2472L105.984 33.6839L105.298 33.6193ZM105.38 32.7397L105.24 32.0643L104.741 32.1678L104.694 32.6751L105.38 32.7397ZM107.765 32.2449L107.905 32.9202L108.24 32.8508L108.387 32.5426L107.765 32.2449ZM108.619 30.4605L108.662 29.7721L108.198 29.743L107.997 30.1628L108.619 30.4605ZM109.397 30.5092L110.081 30.4206L110.008 29.8564L109.44 29.8208L109.397 30.5092ZM109.964 34.8896L109.28 34.9782L109.318 35.2729L109.559 35.4476L109.964 34.8896ZM112.018 36.3822L111.613 36.9402L111.82 37.091L112.076 37.0695L112.018 36.3822ZM114.723 36.1543L115.395 35.9987L115.26 35.4169L114.665 35.4671L114.723 36.1543ZM115.002 37.3578L114.33 37.5134L114.446 38.0155L114.96 38.0463L115.002 37.3578ZM116.347 37.4384L116.815 36.932L116.634 36.7647L116.388 36.7499L116.347 37.4384ZM117.17 38.2L116.702 38.7063L117.429 39.3785L117.807 38.4638L117.17 38.2ZM117.976 36.2543L117.736 35.6075L117.454 35.712L117.338 35.9905L117.976 36.2543ZM120.798 35.2106L121.095 34.5882L120.832 34.4627L120.559 34.5637L120.798 35.2106ZM124.823 37.1312L124.526 37.7537L124.769 37.8695L125.026 37.7905L124.823 37.1312ZM126.149 36.7241L126.351 37.3833L126.618 37.3015L126.752 37.0575L126.149 36.7241ZM126.896 35.3705L127.23 34.7667L126.626 34.4332L126.292 35.037L126.896 35.3705ZM128.511 36.2627L128.178 36.8664L128.385 36.9808L128.619 36.944L128.511 36.2627ZM129.456 36.114L129.564 36.7953L129.964 36.7322L130.104 36.3514L129.456 36.114ZM130.13 34.2781L130.494 33.6923L129.774 33.2451L129.482 34.0407L130.13 34.2781ZM131.832 35.3357L131.468 35.9215L132.022 36.2656L132.396 35.7319L131.832 35.3357ZM132.971 33.7125L133.587 33.4016L133.068 32.3741L132.407 33.3162L132.971 33.7125ZM134.088 35.9249L133.473 36.2358L133.584 36.4555L133.809 36.5553L134.088 35.9249ZM135.96 36.756L136.636 36.6195L136.566 36.2702L136.24 36.1256L135.96 36.756ZM136.14 37.6441L135.464 37.7805L135.575 38.3321L136.138 38.3338L136.14 37.6441ZM137.069 37.6468L137.067 38.3365L137.661 38.3383L137.751 37.751L137.069 37.6468ZM137.203 36.7713L136.757 36.2456L136.56 36.4124L136.521 36.6671L137.203 36.7713ZM138.943 35.294L139.389 35.8197L139.607 35.6342L139.63 35.3487L138.943 35.294ZM139.195 32.1212L139.591 31.5568L138.603 30.8628L138.507 32.0665L139.195 32.1212ZM140.329 32.9175L139.932 33.4819L140.471 33.8603L140.874 33.3398L140.329 32.9175ZM140.99 32.0642L140.816 31.3967L140.588 31.4559L140.444 31.642L140.99 32.0642ZM142.808 31.5917L143.494 31.5246L143.415 30.7211L142.634 30.9242L142.808 31.5917ZM142.87 32.2268L143.32 32.7496L143.591 32.516L143.556 32.1597L142.87 32.2268ZM141.3 33.5777L140.85 33.0549L140.374 33.4647L140.738 33.9769L141.3 33.5777ZM141.726 34.178L141.164 34.5773L141.408 34.9217L141.826 34.8604L141.726 34.178ZM142.664 34.0405L143.351 33.982L143.289 33.2517L142.564 33.3581L142.664 34.0405ZM142.744 34.9814L142.057 35.0398L142.084 35.353L142.337 35.5384L142.744 34.9814ZM143.867 35.8013L144.308 36.332L144.989 35.7665L144.274 35.2443L143.867 35.8013ZM142.786 36.699L142.345 36.1684L141.978 36.4729L142.133 36.9238L142.786 36.699ZM142.992 37.2994L142.34 37.5241L142.54 38.1033L143.139 37.9734L142.992 37.2994ZM143.857 37.1118L144.396 36.6816L144.129 36.347L143.711 36.4378L143.857 37.1118ZM144.559 37.9915L145.057 38.4695L145.476 38.0337L145.098 37.5613L144.559 37.9915ZM142.318 40.3235L142.607 40.9496L142.725 40.8951L142.815 40.8015L142.318 40.3235ZM140.303 41.2546L140.013 40.6285L139.879 40.6907L139.782 40.8028L140.303 41.2546ZM138.147 43.7409L138.1 44.429L138.443 44.4524L138.668 44.1928L138.147 43.7409ZM137.211 43.677L137.258 42.9889L136.835 42.9599L136.618 43.3253L137.211 43.677ZM136.508 44.8639L136.338 45.5324L136.838 45.6591L137.101 45.2155L136.508 44.8639ZM135.093 44.5053L135.262 43.8367L134.356 43.6071L134.404 44.5408L135.093 44.5053ZM135.21 46.7817L135.131 47.4669L135.941 47.5596L135.899 46.7462L135.21 46.7817ZM134.337 46.6817L134.415 45.9965L133.888 45.9361L133.695 46.4296L134.337 46.6817ZM134.141 47.1806L133.586 47.5909L134.328 48.5923L134.783 47.4326L134.141 47.1806ZM133.615 46.4704L134.17 46.0602L133.761 45.5084L133.208 45.9141L133.615 46.4704ZM131.571 47.9686L131.163 47.4123L130.915 47.594L130.885 47.8998L131.571 47.9686ZM131.219 51.4777L131.705 51.9671L131.881 51.7927L131.906 51.5465L131.219 51.4777ZM130.463 52.2282L129.977 51.7387L129.647 52.0667L129.828 52.4957L130.463 52.2282ZM131.014 53.5359L130.378 53.8035L130.512 54.1216L130.847 54.2051L131.014 53.5359ZM133.556 54.1696L134.028 54.6728L134.951 53.8067L133.723 53.5004L133.556 54.1696ZM132.761 54.9145L132.29 54.4114L131.605 55.0529L132.422 55.5148L132.761 54.9145ZM133.545 55.3579L134.216 55.5189L134.337 55.0135L133.885 54.7576L133.545 55.3579ZM133.197 56.806L132.527 56.645L132.311 57.5419L133.233 57.4948L133.197 56.806ZM134.177 56.7559L134.781 56.423L134.573 56.045L134.141 56.0671L134.177 56.7559ZM135.003 58.2554L134.399 58.5883L134.513 58.7947L134.729 58.8884L135.003 58.2554ZM137.533 59.3505L138.207 59.497L138.327 58.9429L137.807 58.7176L137.533 59.3505ZM137.158 61.0766L136.484 60.9301L136.34 61.592L136.999 61.7478L137.158 61.0766ZM137.698 61.2045L138.276 61.581L138.812 60.759L137.857 60.5333L137.698 61.2045ZM136.738 62.6776L136.16 62.301L135.993 62.5575L136.071 62.8535L136.738 62.6776ZM137.163 64.2883L136.496 64.4642L136.545 64.6474L136.68 64.7802L137.163 64.2883ZM138.234 65.3403L138.92 65.4047L138.951 65.0783L138.717 64.8484L138.234 65.3403ZM138.163 66.0908L138.063 66.7732L138.782 66.8783L138.85 66.1552L138.163 66.0908ZM136.927 65.9101L136.374 66.3224L136.545 66.5513L136.827 66.5926L136.927 65.9101ZM136.348 65.1333L136.901 64.7209L135.949 63.4453L135.669 65.0117L136.348 65.1333ZM136.254 65.6572L135.925 66.2635L136.765 66.7186L136.933 65.7787L136.254 65.6572ZM135.746 65.382L135.057 65.3994L135.067 65.7982L135.418 65.9883L135.746 65.382ZM135.729 64.6705L136.418 64.6531L136.404 64.1082L135.871 63.9957L135.729 64.6705ZM133.996 64.305L134.138 63.6301L133.712 63.5402L133.448 63.8865L133.996 64.305ZM133.215 65.3278L132.837 65.9042L133.374 66.2571L133.763 65.7463L133.215 65.3278ZM132.644 64.9526L133.023 64.3762L132.235 63.8584L131.98 64.7662L132.644 64.9526ZM132.189 66.5744L132.21 67.2638L132.716 67.2482L132.853 66.7608L132.189 66.5744ZM131.334 66.6008L131.313 65.9114L130.98 65.9217L130.781 66.1888L131.334 66.6008ZM130.608 67.575L130.339 68.2098L130.838 68.4216L131.161 67.9869L130.608 67.575ZM129.819 67.24L130.089 66.6052L129.495 66.3533L129.204 66.9284L129.819 67.24ZM129.176 68.5089L128.561 68.1972L128.45 68.4171L128.503 68.6578L129.176 68.5089ZM129.368 69.3761L128.695 69.525L128.784 69.931L129.185 70.0411L129.368 69.3761ZM130.036 69.5595L130.721 69.6352L130.786 69.0504L130.218 68.8945L130.036 69.5595ZM129.895 70.8339L129.21 70.7582L129.169 71.1259L129.453 71.3632L129.895 70.8339ZM131.989 72.5836L132.554 72.9791L132.917 72.4603L132.431 72.0544L131.989 72.5836ZM131.016 73.9733L130.451 73.5779L130.247 73.8697L130.367 74.205L131.016 73.9733ZM131.417 75.0949L131.118 75.7168L132.629 76.4416L132.066 74.8632L131.417 75.0949ZM130 74.4153L129.318 74.5184L129.372 74.8793L129.702 75.0371L130 74.4153ZM129.876 73.594L130.558 73.4909L130.482 72.9873L129.978 72.9119L129.876 73.594ZM127.695 73.2674L127.054 73.522L127.2 73.8907L127.593 73.9495L127.695 73.2674ZM127.012 71.5483L127.653 71.2937L127.484 70.867L127.025 70.8587L127.012 71.5483ZM124.783 71.508L124.206 71.8858L124.406 72.191L124.771 72.1976L124.783 71.508ZM124.008 70.3239L124.585 69.9461L124.224 69.3945L123.656 69.7305L124.008 70.3239ZM123.064 70.8826L122.713 70.2892L122.427 70.4581L122.381 70.7865L123.064 70.8826ZM122.842 72.4613L122.67 73.1292L123.418 73.322L123.525 72.5574L122.842 72.4613ZM121.161 72.0277L121.333 71.3599L120.027 71.0231L120.518 72.2792L121.161 72.0277ZM121.57 73.0742L122.067 73.5525L122.374 73.2342L122.213 72.8228L121.57 73.0742ZM120.906 73.7649L120.409 73.2866L120.219 73.4839L120.216 73.7578L120.906 73.7649ZM120.89 75.2422L120.606 75.8705L121.569 76.3067L121.58 75.2493L120.89 75.2422ZM118.57 74.1916L118.855 73.5633L118.39 73.3528L118.053 73.7356L118.57 74.1916ZM117.937 74.9101L117.665 75.5436L118.124 75.7412L118.454 75.366L117.937 74.9101ZM116.596 74.3333L116.869 73.6998L116.101 73.3695L115.922 74.186L116.596 74.3333ZM115.661 78.611L115.377 79.2394L116.153 79.5903L116.335 78.7583L115.661 78.611ZM114.49 78.0814L114.774 77.453L114.488 77.3235L114.202 77.4547L114.49 78.0814ZM113.359 78.6012L113.071 77.9745L112.94 78.0344L112.845 78.1413L113.359 78.6012ZM111.494 80.6858L110.98 80.226L110.784 80.4444L110.806 80.7366L111.494 80.6858ZM111.821 85.1108L112.492 85.2699L112.516 85.1662L112.509 85.06L111.821 85.1108ZM111.615 85.978L111.675 86.6651L112.171 86.6219L112.286 86.137L111.615 85.978ZM110.56 86.0697L110.5 85.3826L110.245 85.4047L110.067 85.5877L110.56 86.0697ZM109.523 87.1315L109.029 86.6495L108.606 87.0829L108.981 87.5586L109.523 87.1315ZM110.045 87.7944L110.72 87.9394L110.788 87.6221L110.587 87.3673L110.045 87.7944ZM108.712 93.9954L108.495 94.6503L109.224 94.8911L109.386 94.1404L108.712 93.9954ZM105.235 92.8475L105.452 92.1926L104.893 92.0079L104.623 92.5313L105.235 92.8475ZM104.311 94.6389L103.698 94.3227L103.58 94.5529L103.642 94.8044L104.311 94.6389ZM104.688 96.162L104.225 96.673L105.9 98.1918L105.357 95.9965L104.688 96.162ZM103.684 95.2518L104.147 94.7408L103.698 94.3335L103.236 94.727L103.684 95.2518ZM103.055 95.7882L102.541 96.2488L102.991 96.7493L103.502 96.313L103.055 95.7882ZM102.547 95.2225L103.06 94.7619L102.824 94.4982L102.472 94.537L102.547 95.2225ZM101.486 95.3393L100.806 95.2259L100.656 96.1245L101.562 96.0248L101.486 95.3393ZM101.645 94.3873L102.325 94.5006L102.385 94.1441L102.125 93.8924L101.645 94.3873ZM100.816 93.5826L101.296 93.0877L101.074 92.8716L100.764 92.8948L100.816 93.5826ZM100.057 93.6396L100.006 92.9518L99.5824 92.9836L99.42 93.3757L100.057 93.6396ZM99.5014 94.9821L99.678 95.6488L100.008 95.5613L100.139 95.2459L99.5014 94.9821ZM97.6764 95.4657L97.2631 96.0178L97.5303 96.2179L97.8531 96.1324L97.6764 95.4657ZM95.7866 94.051L96.1999 93.4988L95.6405 93.0801L95.2291 93.6449L95.7866 94.051ZM94.163 96.2801L94.4538 96.9055L94.6155 96.8303L94.7205 96.6861L94.163 96.2801ZM92.9795 96.8304L92.6887 96.205L92.3593 96.3582L92.2993 96.7165L92.9795 96.8304ZM92.4857 99.7781L92.588 100.46L93.0832 100.386L93.1659 99.892L92.4857 99.7781ZM91.8277 99.8767L91.7255 99.1946L91.262 99.2641L91.1559 99.7206L91.8277 99.8767ZM91.4346 101.568L91.2264 102.226L91.9375 102.451L92.1064 101.724L91.4346 101.568ZM90.3766 101.233L89.8673 101.698L89.992 101.835L90.1684 101.891L90.3766 101.233ZM88.5047 99.1832L89.0141 98.7181L88.8813 98.5727L88.6917 98.5193L88.5047 99.1832ZM86.437 98.6009L85.859 98.2247L85.3475 99.0106L86.2501 99.2648L86.437 98.6009ZM87.3985 97.1236L87.9765 97.4998L88.1201 97.2792L88.0802 97.019L87.3985 97.1236ZM87.1557 95.5407L86.5805 95.1601L86.4336 95.3821L86.474 95.6453L87.1557 95.5407ZM87.6992 94.7194L88.2744 95.1L89.1344 93.8004L87.5942 94.0377L87.6992 94.7194ZM86.0039 94.9806L85.5585 95.5072L85.7984 95.7101L86.109 95.6623L86.0039 94.9806ZM84.6535 93.8383L85.0989 93.3117L84.5456 92.8436L84.1055 93.4194L84.6535 93.8383ZM84.0065 94.6846L83.7913 95.3399L84.2569 95.4929L84.5545 95.1035L84.0065 94.6846ZM82.2257 94.0995L81.5382 94.1541L81.5744 94.6115L82.0104 94.7548L82.2257 94.0995ZM81.9691 90.8642L82.6567 90.8097L82.6393 90.5906L82.4984 90.422L81.9691 90.8642ZM80.8753 89.5551L81.4045 89.1128L81.1659 88.8272L80.7961 88.8699L80.8753 89.5551ZM79.5042 89.7135L78.8388 89.532L78.5705 90.5157L79.5833 90.3987L79.5042 89.7135ZM79.8366 88.4947L80.502 88.6762L80.9177 87.1521L79.5173 87.8834L79.8366 88.4947ZM76.9412 90.0067L76.4448 90.4856L76.8031 90.8569L77.2605 90.6181L76.9412 90.0067ZM74.8459 87.8346L75.3423 87.3557L75.1347 87.1405L74.8357 87.1449L74.8459 87.8346ZM71.9436 87.8776L71.5693 88.4568L71.7448 88.5703L71.9539 88.5672L71.9436 87.8776ZM70.7739 87.1216L71.1483 86.5423L70.4007 86.0592L70.1195 86.9037L70.7739 87.1216ZM69.6152 90.6015L69.9775 91.1884L70.1905 91.0569L70.2696 90.8194L69.6152 90.6015ZM68.2552 91.4409L67.8929 90.854L67.5135 91.0881L67.5713 91.5302L68.2552 91.4409ZM68.6924 94.7874L68.5165 95.4543L69.5093 95.7161L69.3763 94.698L68.6924 94.7874ZM66.1474 94.1162L66.3233 93.4493L65.6136 93.2621L65.4709 93.982L66.1474 94.1162ZM65.9088 95.3196L65.9077 96.0094L66.475 96.0102L66.5853 95.4538L65.9088 95.3196ZM64.9997 95.3183L65.0008 94.6286L64.5388 94.6279L64.3623 95.0549L64.9997 95.3183ZM64.4645 96.6135L64.001 97.1242L64.7274 97.7835L65.102 96.8769L64.4645 96.6135ZM63.5459 95.7797L64.0094 95.269L63.7733 95.0547L63.4571 95.0957L63.5459 95.7797ZM57.6559 96.544L57.5671 95.86L56.9768 95.9367L56.9663 96.5318L57.6559 96.544ZM57.6393 97.4807L57.8302 98.1435L58.3198 98.0024L58.3289 97.4929L57.6393 97.4807ZM53.8487 98.573L53.6577 97.9103L52.855 98.1416L53.2341 98.886L53.8487 98.573ZM54.3894 99.6348L54.7817 100.202L55.2776 99.8592L55.004 99.3218L54.3894 99.6348ZM52.0803 101.232L51.8541 101.883L52.1847 101.998L52.4726 101.799L52.0803 101.232ZM51.3878 100.991L50.7094 100.867L50.603 101.449L51.1616 101.643L51.3878 100.991ZM51.6968 99.3027L52.3753 99.4268L52.8441 96.8646L51.1687 98.8591L51.6968 99.3027ZM51.0361 100.089L51.0709 100.778L51.371 100.763L51.5642 100.533L51.0361 100.089ZM49.2208 100.181L49.186 99.4922L48.8013 99.5116L48.6161 99.8493L49.2208 100.181ZM48.589 101.333L48.6304 102.022L49.0106 101.999L49.1938 101.665L48.589 101.333ZM46.553 101.455L45.8741 101.577L45.9822 102.181L46.5944 102.144L46.553 101.455ZM46.0372 98.5731L46.7161 98.4516L46.5864 97.7269L45.8717 97.9036L46.0372 98.5731ZM44.7157 98.8997L44.0262 98.9185L44.0495 99.7748L44.8811 99.5693L44.7157 98.8997ZM44.6647 97.0249L45.3541 97.0062L45.3432 96.604L44.9877 96.4156L44.6647 97.0249ZM43.5873 96.4538L43.9104 95.8444L43.5399 95.648L43.195 95.8865L43.5873 96.4538ZM40.2257 98.7788L39.8334 98.2116L39.6346 98.3491L39.5651 98.5806L40.2257 98.7788ZM39.6285 100.769L39.4682 101.44L40.1018 101.591L40.2891 100.967L39.6285 100.769ZM37.151 100.177L37.3113 99.506L36.6255 99.3421L36.4768 100.031L37.151 100.177ZM36.9566 101.079L37.0864 101.756L37.5346 101.67L37.6308 101.224L36.9566 101.079ZM35.6806 101.323L35.5508 100.646L34.9329 100.765L34.9942 101.391L35.6806 101.323ZM35.7951 102.492L36.3982 102.827L36.5024 102.639L36.4815 102.425L35.7951 102.492ZM34.8723 104.156L34.304 104.547L34.9351 105.464L35.4754 104.49L34.8723 104.156ZM33.7453 102.517L34.3136 102.126L34.0517 101.746L33.6 101.843L33.7453 102.517ZM32.6749 102.748L31.9945 102.635L31.8287 103.636L32.8202 103.422L32.6749 102.748ZM32.8211 101.865L33.5015 101.978L33.5661 101.588L33.2626 101.336L32.8211 101.865ZM31.6569 100.895L32.0984 100.365L31.9488 100.241L31.7561 100.213L31.6569 100.895ZM30.3189 100.701L29.7498 101.09L29.9205 101.34L30.2196 101.383L30.3189 100.701ZM29.7174 99.8225L29.3825 99.2196L28.7205 99.5873L29.1484 100.212L29.7174 99.8225ZM30.1602 99.5765L30.4952 100.179L31.5566 99.5899L30.5066 98.9801L30.1602 99.5765ZM29.0857 98.9525L28.3963 98.9315L28.3838 99.3424L28.7393 99.5489L29.0857 98.9525ZM29.1147 98.0005L28.7002 97.4493L28.4354 97.6484L28.4253 97.9796L29.1147 98.0005ZM30.0444 97.3015L30.4588 97.8527L30.9107 97.513L30.6663 97.0033L30.0444 97.3015ZM29.0802 95.2906L29.7021 94.9924L29.4971 94.5648L29.0245 94.6031L29.0802 95.2906ZM28.3946 95.3461L28.3389 94.6587L27.0429 94.7637L27.8567 95.7778L28.3946 95.3461ZM28.7091 95.738L29.2006 96.2219L29.6309 95.7848L29.247 95.3064L28.7091 95.738ZM28.047 96.4107L27.5338 96.8714L28.0238 97.4173L28.5385 96.8945L28.047 96.4107ZM27.407 95.6977L27.9202 95.237L27.4023 94.6601L26.8896 95.2416L27.407 95.6977ZM26.9021 96.2703L26.4841 96.8189L26.9948 97.208L27.4194 96.7264L26.9021 96.2703ZM26.0593 95.6283L26.4772 95.0796L26.1094 94.7994L25.7104 95.0333L26.0593 95.6283ZM25.6138 95.8895L25.2649 95.2945L24.8589 95.5326L24.9325 95.9974L25.6138 95.8895ZM25.7986 97.0569L25.313 97.5467L26.8094 99.0304L26.4798 96.9491L25.7986 97.0569ZM24.8399 96.1063L25.3255 95.6166L24.3643 94.6635L24.1582 96.0013L24.8399 96.1063ZM24.6661 97.2348L25.1137 97.7595L25.3087 97.5931L25.3477 97.3398L24.6661 97.2348ZM23.7929 97.9797L23.161 98.2559L23.5333 99.1078L24.2406 98.5044L23.7929 97.9797ZM21.9735 93.8174L22.6055 93.5412L22.5079 93.3181L22.2919 93.2056L21.9735 93.8174ZM20.3982 92.9975L20.7167 92.3857L20.158 92.0949L19.8178 92.6249L20.3982 92.9975ZM18.5581 95.8645L18.7402 96.5297L18.9955 96.4598L19.1385 96.237L18.5581 95.8645ZM16.8118 96.3426L16.9491 97.0185L16.9717 97.0139L16.9939 97.0078L16.8118 96.3426ZM12.4418 97.2306L12.3656 97.9161L12.4731 97.928L12.5792 97.9065L12.4418 97.2306ZM6.13245 96.5288L5.49104 96.2753L5.15931 97.1145L6.05621 97.2143L6.13245 96.5288ZM7.37942 93.3741L8.02083 93.6276L8.22949 93.0997L7.75159 92.7934L7.37942 93.3741ZM6.11313 92.5625L5.49569 92.2552L5.21991 92.8092L5.74096 93.1432L6.11313 92.5625ZM6.58078 91.623L7.19822 91.9303L7.44286 91.4388L7.01875 91.0902L6.58078 91.623ZM5.62899 90.8406L4.93951 90.8583L4.94761 91.1733L5.19102 91.3734L5.62899 90.8406ZM5.60276 89.8205L6.29223 89.8028L6.27143 88.9938L5.47593 89.1426L5.60276 89.8205ZM4.8303 89.965L4.3847 90.4915L4.63491 90.7033L4.95713 90.643L4.8303 89.965ZM2.9143 88.3432L2.22612 88.2975L2.20305 88.6448L2.4687 88.8696L2.9143 88.3432ZM3.01777 86.7853L3.70596 86.831L3.72494 86.5453L3.53595 86.3302L3.01777 86.7853ZM1.96668 85.5888L1.27846 85.6339L1.29379 85.8678L1.44851 86.0439L1.96668 85.5888ZM1.67424 81.1263L2.36246 81.0812L2.33096 80.6005L1.86878 80.4646L1.67424 81.1263ZM0.932129 80.9081L0.277415 80.6912L0.0530487 81.3685L0.737588 81.5698L0.932129 80.9081ZM2.06325 77.4935L2.71796 77.7104L2.79161 77.488L2.71464 77.2668L2.06325 77.4935ZM1.42735 75.666L0.871497 75.2577L0.656738 75.55L0.775953 75.8926L1.42735 75.666ZM1.83976 75.1045L1.68413 74.4326L1.43519 74.4903L1.28391 74.6962L1.83976 75.1045ZM2.95568 74.8461L3.11131 75.518L3.44475 75.4408L3.58491 75.1285L2.95568 74.8461ZM3.56262 73.4938L3.52233 72.8053L3.1047 72.8297L2.9334 73.2114L3.56262 73.4938ZM5.03585 73.4076L5.07615 74.0961L5.32162 74.0818L5.50264 73.9153L5.03585 73.4076ZM7.3215 71.3063L7.59222 70.672L7.18259 70.4971L6.85471 70.7986L7.3215 71.3063ZM8.03464 71.6107L7.76392 72.245L8.02823 72.3578L8.29443 72.2496L8.03464 71.6107ZM9.71613 70.9269L9.97592 71.5658L10.1757 71.4846L10.2936 71.3041L9.71613 70.9269ZM10.5203 69.6956L10.4547 69.009L10.1244 69.0406L9.94287 69.3185L10.5203 69.6956ZM11.6404 69.5886L11.706 70.2752L13.8635 70.069L11.9837 68.9904L11.6404 69.5886ZM11.2432 69.3606L10.7519 68.8766L10.1241 69.5137L10.8999 69.9588L11.2432 69.3606ZM11.8018 68.7936L12.3263 68.3458L11.8382 67.7741L11.3105 68.3096L11.8018 68.7936ZM12.0735 69.1119L11.549 69.5597L12.0217 70.1133L12.549 69.6115L12.0735 69.1119ZM12.8957 68.3294L13.344 67.8053L12.871 67.4008L12.4202 67.8298L12.8957 68.3294ZM13.7454 69.0563L13.2971 69.5804L13.6985 69.9238L14.1346 69.6256L13.7454 69.0563ZM14.8268 68.3169L15.2161 68.8863L15.5992 68.6244L15.5009 68.1708L14.8268 68.3169ZM14.6834 67.6554L14.5921 66.9718L13.8508 67.0708L14.0093 67.8016L14.6834 67.6554ZM15.9538 67.4859L16.045 68.1695L17.3186 67.9995L16.4731 67.0321L15.9538 67.4859ZM15.1413 66.5562L14.9984 65.8814L13.8487 66.125L14.622 67.01L15.1413 66.5562ZM16.3221 66.306L16.465 66.9807L16.731 66.9243L16.887 66.7016L16.3221 66.306ZM18.2257 63.5877L17.8929 62.9836L17.7526 63.0608L17.6607 63.1921L18.2257 63.5877ZM22.8301 61.0513L23.1629 61.6555L23.5645 61.4342L23.5159 60.9782L22.8301 61.0513ZM22.6315 59.1877L22.1186 58.7266L21.9131 58.9552L21.9456 59.2608L22.6315 59.1877ZM23.3474 58.3914L23.1997 57.7177L22.9829 57.7652L22.8345 57.9303L23.3474 58.3914ZM24.9006 58.0509L25.2825 57.4766L25.0388 57.3145L24.7529 57.3772L24.9006 58.0509ZM26.2317 58.9362L26.904 58.7822L26.8426 58.5142L26.6137 58.3619L26.2317 58.9362ZM26.48 60.0202L25.8077 60.1742L25.9173 60.6524L26.405 60.7058L26.48 60.0202ZM28.8677 60.2815L28.7927 60.9671L29.652 61.0611L29.5529 60.2024L28.8677 60.2815ZM28.8098 59.7798L28.9222 59.0993L28.0197 58.9502L28.1247 59.8589L28.8098 59.7798ZM29.8195 59.9465L29.7071 60.627L30.3924 60.7402L30.5008 60.0541L29.8195 59.9465ZM30.1878 57.6146L30.1233 56.9279L29.5901 56.978L29.5066 57.507L30.1878 57.6146ZM31.5934 57.4825L32.2339 57.2265L32.0424 56.7476L31.5289 56.7959L31.5934 57.4825ZM32.2252 59.0627L31.5848 59.3187L31.8312 59.935L32.4565 59.7124L32.2252 59.0627ZM33.5798 58.5804L34.0742 58.0995L33.7655 57.7822L33.3485 57.9306L33.5798 58.5804ZM34.7233 59.7561L34.2289 60.237L34.4904 60.5059L34.8582 60.4325L34.7233 59.7561ZM35.7689 59.5477L35.9038 60.2241L36.3363 60.1378L36.4395 59.709L35.7689 59.5477ZM36.0944 58.1941L36.7792 58.2762L35.4238 58.0328L36.0944 58.1941ZM35.9648 59.2753L35.28 59.1932L35.2205 59.6889L35.673 59.9002L35.9648 59.2753ZM36.5689 59.5574L36.2771 60.1823L37.2 60.6133L37.2575 59.5964L36.5689 59.5574ZM36.6641 57.8758L36.7463 57.1911L36.017 57.1035L35.9755 57.8369L36.6641 57.8758ZM38.8284 58.1357L38.7462 58.8205L40.4729 59.0278L39.3576 57.6934L38.8284 58.1357ZM37.9608 57.0976L37.3511 56.7751L37.1345 57.1845L37.4315 57.5399L37.9608 57.0976ZM38.529 56.0233L39.1387 56.3458L39.4127 55.8278L38.9458 55.4737L38.529 56.0233ZM36.6889 54.628L37.1057 54.0784L36.8833 53.9098L36.6063 53.9433L36.6889 54.628ZM35.8365 54.7309L35.1472 54.707L35.1193 55.5121L35.9191 55.4156L35.8365 54.7309ZM35.8847 53.3356L36.574 53.3594L36.5952 52.748L35.9906 52.6541L35.8847 53.3356ZM32.8432 52.8631L32.1914 53.0886L32.3271 53.4809L32.7373 53.5446L32.8432 52.8631ZM32.4101 51.611L33.0619 51.3855L32.9749 51.134L32.7416 51.0062L32.4101 51.611ZM30.7672 50.7104L31.0987 50.1056L30.8619 49.9758L30.5998 50.0413L30.7672 50.7104ZM29.1781 51.1078L28.8097 51.6909L29.0592 51.8485L29.3454 51.7769L29.1781 51.1078ZM26.4483 49.3832L26.8166 48.8001L26.5562 48.6356L26.2599 48.7197L26.4483 49.3832ZM25.4206 49.675L24.7312 49.6567L24.7063 50.5948L25.609 50.3385L25.4206 49.675ZM25.4496 48.5813L26.139 48.5996L26.1467 48.3113L25.9468 48.1034L25.4496 48.5813ZM23.2494 46.2924L23.7467 45.8144L23.5663 45.6268L23.307 45.6051L23.2494 46.2924ZM22.0369 46.1909L21.448 46.5497L21.6303 46.849L21.9794 46.8782L22.0369 46.1909ZM21.1445 44.7261L20.4561 44.7689L20.4667 44.9392L20.5555 45.0849L21.1445 44.7261ZM20.9528 41.645L21.1634 40.9883L20.2017 40.6799L20.2644 41.6879L20.9528 41.645ZM22.9115 42.2732L22.7009 42.9299L23.1719 43.081L23.466 42.6832L22.9115 42.2732ZM23.8826 40.9599L24.1312 40.3165L23.6407 40.127L23.328 40.5498L23.8826 40.9599ZM25.2206 41.4769L24.972 42.1202L25.6789 42.3933L25.8845 41.6639L25.2206 41.4769ZM25.8675 39.181L26.5314 39.368L26.5728 39.221L26.5483 39.0701L25.8675 39.181ZM25.5682 37.3424L26.2489 37.2316L26.1654 36.7185L25.6492 36.6575L25.5682 37.3424ZM22.7005 37.0033L22.1756 37.4507L22.351 37.6565L22.6195 37.6882L22.7005 37.0033ZM20.9376 34.9354L21.4624 34.4879L21.1022 34.0653L20.6125 34.3271L20.9376 34.9354ZM20.1003 35.3828L19.9521 36.0564L20.2008 36.1111L20.4254 35.9911L20.1003 35.3828ZM17.8008 34.877L17.1111 34.8778L17.1118 35.4316L17.6526 35.5506L17.8008 34.877ZM17.798 32.684L17.9178 32.0047L17.1073 31.8619L17.1083 32.6848L17.798 32.684ZM19.5402 32.9911L19.4205 33.6703L19.9516 33.764L20.1705 33.2711L19.5402 32.9911ZM19.8754 32.2365L19.756 31.5572L19.3942 31.6208L19.2451 31.9565L19.8754 32.2365ZM22.0011 31.8626L22.1205 32.5419L22.4452 32.4848L22.6047 32.1963L22.0011 31.8626ZM23.0053 30.0462L23.6089 30.3799L23.6978 30.2191L23.6949 30.0354L23.0053 30.0462ZM22.9832 28.6468L23.1543 27.9786L22.2794 27.7546L22.2936 28.6576L22.9832 28.6468ZM28.4815 30.0546L28.3104 30.7227L28.4691 30.7633L28.629 30.7283L28.4815 30.0546ZM32.588 29.1554L32.7355 29.8291L33.4272 29.6777L33.2576 28.9902L32.588 29.1554ZM32.2362 27.7295L32.9059 27.5643L32.8 27.1351L32.3657 27.0521L32.2362 27.7295ZM30.0251 27.3071L29.3755 27.5388L29.5081 27.9105L29.8956 27.9845L30.0251 27.3071ZM29.2278 25.0724L29.8774 24.8406L29.6092 24.089L28.9044 24.4632L29.2278 25.0724ZM27.7642 25.8492L27.3145 26.3721L27.6716 26.6792L28.0876 26.4584L27.7642 25.8492ZM27.378 25.5171L26.7549 25.8127L26.8175 25.9447L26.9283 26.04L27.378 25.5171ZM27.1076 24.9473L26.4852 24.6502L26.3438 24.9464L26.4845 25.2429L27.1076 24.9473ZM27.9063 23.274L28.5287 23.5711L28.6253 23.3688L28.5845 23.1484L27.9063 23.274ZM27.5835 21.5313L28.2617 21.4057L28.1852 20.9925L27.783 20.871L27.5835 21.5313ZM26.6635 21.2533L26.8629 20.5931L26.4642 20.4727L26.1719 20.7695L26.6635 21.2533ZM25.4993 22.436L25.1283 23.0174L25.599 23.3178L25.9908 22.9198L25.4993 22.436ZM24.4233 21.7495L23.7551 21.5786L23.6314 22.0623L24.0523 22.3309L24.4233 21.7495ZM24.6881 20.7141L25.3563 20.885L25.5104 20.2828L24.9273 20.0672L24.6881 20.7141ZM23.5267 20.2847L23.7659 19.6378L23.135 19.4045L22.886 20.0294L23.5267 20.2847ZM23.2205 21.0532L22.9478 21.6867L23.5988 21.9669L23.8612 21.3085L23.2205 21.0532ZM22.1225 20.5807L21.436 20.6469L21.4751 21.0529L21.8498 21.2142L22.1225 20.5807ZM21.997 19.2785L22.6835 19.2123L22.6481 18.8452L22.323 18.6708L21.997 19.2785ZM21.339 18.9255L20.8527 18.4364L20.1923 19.093L21.0129 19.5333L21.339 18.9255ZM21.9666 18.3015L22.4529 18.7906L22.6745 18.5703L22.655 18.2584L21.9666 18.3015ZM21.7983 15.6138L22.4867 15.5707L22.4627 15.1878L22.1248 15.0062L21.7983 15.6138ZM20.3527 14.8369L19.8628 14.3514L19.2129 15.0073L20.0262 15.4444L20.3527 14.8369ZM21.2176 13.9641L21.7075 14.4496L22.9307 13.2152L21.1939 13.2748L21.2176 13.9641ZM18.8699 14.0447L18.214 13.8313L17.9093 14.7678L18.8935 14.734L18.8699 14.0447ZM20.0065 10.5509L20.6623 10.7643L20.7617 10.4588L20.5919 10.1862L20.0065 10.5509ZM19.3044 9.42381L19.8898 9.05913L19.7847 8.89046L19.606 8.80356L19.3044 9.42381ZM17.6725 8.63026L17.068 8.29819L16.719 8.93351L17.3709 9.25051L17.6725 8.63026ZM18.4726 7.1738L19.0771 7.50587L19.2298 7.22783L19.1181 6.93092L18.4726 7.1738ZM18.2132 6.4845L18.8588 6.24162L18.6409 5.66264L18.0417 5.81646L18.2132 6.4845ZM16.4214 6.9445L16.1093 7.55953L16.3411 7.67719L16.5929 7.61254L16.4214 6.9445ZM15.6793 6.56787L15.1741 6.09831L14.551 6.76869L15.3672 7.1829L15.6793 6.56787ZM16.5331 5.64927L16.1183 5.09831L16.0695 5.13502L16.028 5.17972L16.5331 5.64927ZM17.9746 4.56387L18.3895 5.11484L19.5306 4.2556L18.1481 3.89634L17.9746 4.56387ZM17.0173 4.31511L16.3325 4.39747L16.3887 4.86436L16.8438 4.98264L17.0173 4.31511ZM16.8739 3.12272L16.6319 2.47684L16.1244 2.66696L16.1891 3.20508L16.8739 3.12272ZM18.6919 2.44173L18.8175 1.76356L18.6293 1.7287L18.45 1.79585L18.6919 2.44173ZM21.4686 2.95595L21.3431 3.63412L21.6831 3.69709L21.937 3.46229L21.4686 2.95595ZM23.4371 1.13539L23.9054 1.64172L24.1048 1.4573L24.1249 1.18643L23.4371 1.13539ZM23.5033 0.243164L23.6355 -0.433746L22.873 -0.582673L22.8155 0.192118L23.5033 0.243164ZM24.1592 1.04299L25.1179 0.941628L24.9729 -0.430126L24.0142 -0.328759L24.1592 1.04299ZM24.3568 0.217164L24.3003 1.2261L25.6775 1.30327L25.734 0.294337L24.3568 0.217164ZM24.777 1.92102L26.4212 2.45191L26.845 1.13924L25.2008 0.60835L24.777 1.92102ZM25.9461 1.85679L26.0248 2.73927L27.3987 2.61684L27.3201 1.73436L25.9461 1.85679ZM26.8704 3.34927L28.1877 3.03797L27.8704 1.69555L26.5531 2.00684L26.8704 3.34927ZM27.4168 2.68421L28.5617 4.89251L29.7863 4.25759L28.6413 2.0493L27.4168 2.68421ZM29.0656 5.25618L38.4814 6.75433L38.6981 5.39207L29.2824 3.89392L29.0656 5.25618ZM37.9755 6.38681L40.0266 10.4046L41.2552 9.77734L39.204 5.7596L37.9755 6.38681ZM39.9564 10.0063L39.4764 13.8864L40.8454 14.0558L41.3254 10.1756L39.9564 10.0063ZM39.5648 13.6241L38.653 15.1903L39.8451 15.8843L40.757 14.3181L39.5648 13.6241ZM38.9713 16.1686L42.2653 17.6181L42.8209 16.3556L39.5269 14.9061L38.9713 16.1686ZM43.0439 17.4611L43.5019 16.9774L42.5003 16.029L42.0423 16.5126L43.0439 17.4611ZM42.4745 16.9486L43.0787 17.6629L44.1319 16.7721L43.5277 16.0578L42.4745 16.9486ZM44.0151 17.7723L45.0592 17.001L44.2397 15.8915L43.1955 16.6628L44.0151 17.7723ZM44.1866 16.9575L45.9701 18.5724L46.8959 17.5498L45.1124 15.935L44.1866 16.9575ZM46.3319 18.7433L48.3762 19.0463L48.5784 17.6818L46.5341 17.3789L46.3319 18.7433ZM47.9136 18.7615L48.3771 19.4189L49.5044 18.624L49.041 17.9666L47.9136 18.7615ZM48.3 18.7664L47.9896 19.546L49.2712 20.0561L49.5816 19.2765L48.3 18.7664ZM48.3995 20.451L51.0741 21.4015L51.5361 20.1018L48.8614 19.1512L48.3995 20.451ZM50.837 20.2451L49.739 21.2596L50.6751 22.2728L51.7731 21.2582L50.837 20.2451ZM50.2569 22.4541L55.26 22.0913L55.1603 20.7155L50.1572 21.0783L50.2569 22.4541ZM54.55 21.2037L54.0134 22.977L55.3337 23.3765L55.8703 21.6032L54.55 21.2037ZM54.0705 23.5115L55.0278 25.2361L56.2339 24.5667L55.2766 22.842L54.0705 23.5115ZM55.5243 25.5828L59.1067 26.1429L59.3197 24.7801L55.7374 24.22L55.5243 25.5828ZM59.6312 26.0101L61.7472 24.398L60.9112 23.3008L58.7952 24.9129L59.6312 26.0101ZM61.178 24.5223L62.5077 24.8211L62.8101 23.4753L61.4804 23.1765L61.178 24.5223ZM62.9952 24.7504L68.2217 21.8319L67.5492 20.6275L62.3227 23.546L62.9952 24.7504ZM67.437 21.7537L70.3268 24.2274L71.2238 23.1795L68.334 20.7058L67.437 21.7537ZM70.0857 23.6943L70.025 28.2721L71.4043 28.2904L71.465 23.7126L70.0857 23.6943ZM70.3262 28.8512L72.7857 30.5272L73.5625 29.3873L71.103 27.7113L70.3262 28.8512ZM73.3314 30.6288L74.2984 30.4023L73.9837 29.0593L73.0168 29.2858L73.3314 30.6288ZM73.4516 29.7129L73.4171 31.0429L74.796 31.0786L74.8305 29.7486L73.4516 29.7129ZM74.4203 31.675L77.2577 30.2255L76.6302 28.9971L73.7928 30.4466L74.4203 31.675ZM77.6067 29.8024L77.9598 28.578L76.6344 28.1958L76.2813 29.4201L77.6067 29.8024ZM77.4661 29.0556L79.4345 28.558L79.0965 27.2207L77.1281 27.7182L77.4661 29.0556ZM79.0181 28.5332L82.1962 29.7547L82.6911 28.4672L79.513 27.2456L79.0181 28.5332ZM81.7569 29.0471L81.6893 29.7739L83.0628 29.9016L83.1304 29.1748L81.7569 29.0471ZM82.4876 30.5184L84.107 30.2529L83.8839 28.8917L82.2645 29.1572L82.4876 30.5184ZM83.47 30.019L84.1942 30.871L85.2452 29.9776L84.521 29.1256L83.47 30.019ZM85.1868 30.9317L86.1952 30.0033L85.2609 28.9885L84.2525 29.9169L85.1868 30.9317ZM85.7538 30.1851L87.9111 30.1046L87.8596 28.7261L85.7023 28.8067L85.7538 30.1851ZM87.6166 30.0505L93.8239 32.6771L94.3615 31.4068L88.1542 28.7802L87.6166 30.0505ZM93.5062 32.405L94.3311 33.7377L95.5041 33.0117L94.6791 31.679L93.5062 32.405ZM94.5987 33.9863L99.239 36.4058L99.8768 35.1827L95.2365 32.7632L94.5987 33.9863ZM100.086 36.2376L101.074 35.0605L100.017 34.1738L99.0295 35.351L100.086 36.2376ZM100.333 35.2732L102.298 35.911L102.724 34.599L100.758 33.9611L100.333 35.2732ZM102.781 35.8899L104.532 35.1464L103.994 33.8766L102.242 34.6201L102.781 35.8899ZM104.95 34.4518L104.883 33.6736L103.508 33.793L103.576 34.5712L104.95 34.4518ZM104.266 34.4193L105.369 34.3054L105.227 32.9333L104.124 33.0473L104.266 34.4193ZM105.984 33.6839L106.067 32.8043L104.694 32.6751L104.611 33.5547L105.984 33.6839ZM105.52 33.415L107.905 32.9202L107.625 31.5696L105.24 32.0643L105.52 33.415ZM108.387 32.5426L109.241 30.7582L107.997 30.1628L107.143 31.9472L108.387 32.5426ZM108.576 31.1488L109.354 31.1975L109.44 29.8208L108.662 29.7721L108.576 31.1488ZM108.713 30.5977L109.28 34.9782L110.648 34.8011L110.081 30.4206L108.713 30.5977ZM109.559 35.4476L111.613 36.9402L112.423 35.8243L110.37 34.3317L109.559 35.4476ZM112.076 37.0695L114.781 36.8416L114.665 35.4671L111.96 35.695L112.076 37.0695ZM114.051 36.3099L114.33 37.5134L115.674 37.2022L115.395 35.9987L114.051 36.3099ZM114.96 38.0463L116.305 38.1268L116.388 36.7499L115.043 36.6693L114.96 38.0463ZM115.878 37.9447L116.702 38.7063L117.638 37.6936L116.815 36.932L115.878 37.9447ZM117.807 38.4638L118.613 36.5182L117.338 35.9905L116.533 37.9361L117.807 38.4638ZM118.215 36.9012L121.037 35.8575L120.559 34.5637L117.736 35.6075L118.215 36.9012ZM120.501 35.8331L124.526 37.7537L125.12 36.5088L121.095 34.5882L120.501 35.8331ZM125.026 37.7905L126.351 37.3833L125.946 36.0648L124.62 36.472L125.026 37.7905ZM126.752 37.0575L127.5 35.7039L126.292 35.037L125.545 36.3906L126.752 37.0575ZM126.563 35.9742L128.178 36.8664L128.845 35.659L127.23 34.7667L126.563 35.9742ZM128.619 36.944L129.564 36.7953L129.349 35.4326L128.404 35.5814L128.619 36.944ZM130.104 36.3514L130.777 34.5155L129.482 34.0407L128.809 35.8765L130.104 36.3514ZM129.766 34.8639L131.468 35.9215L132.196 34.7498L130.494 33.6923L129.766 34.8639ZM132.396 35.7319L133.536 34.1087L132.407 33.3162L131.267 34.9394L132.396 35.7319ZM132.355 34.0234L133.473 36.2358L134.704 35.614L133.587 33.4016L132.355 34.0234ZM133.809 36.5553L135.68 37.3864L136.24 36.1256L134.368 35.2946L133.809 36.5553ZM135.284 36.8925L135.464 37.7805L136.816 37.5076L136.636 36.6195L135.284 36.8925ZM136.138 38.3338L137.067 38.3365L137.071 36.9571L136.142 36.9544L136.138 38.3338ZM137.751 37.751L137.885 36.8755L136.521 36.6671L136.388 37.5426L137.751 37.751ZM137.65 37.297L139.389 35.8197L138.496 34.7683L136.757 36.2456L137.65 37.297ZM139.63 35.3487L139.883 32.1759L138.507 32.0665L138.255 35.2393L139.63 35.3487ZM138.799 32.6856L139.932 33.4819L140.725 32.3531L139.591 31.5568L138.799 32.6856ZM140.874 33.3398L141.535 32.4865L140.444 31.642L139.784 32.4953L140.874 33.3398ZM141.163 32.7318L142.981 32.2592L142.634 30.9242L140.816 31.3967L141.163 32.7318ZM142.121 31.6588L142.183 32.2939L143.556 32.1597L143.494 31.5246L142.121 31.6588ZM142.42 31.704L140.85 33.0549L141.75 34.1004L143.32 32.7496L142.42 31.704ZM140.738 33.9769L141.164 34.5773L142.289 33.7787L141.862 33.1784L140.738 33.9769ZM141.826 34.8604L142.764 34.7229L142.564 33.3581L141.626 33.4956L141.826 34.8604ZM141.977 34.0989L142.057 35.0398L143.431 34.9229L143.351 33.982L141.977 34.0989ZM142.337 35.5384L143.46 36.3583L144.274 35.2443L143.151 34.4244L142.337 35.5384ZM143.426 35.2706L142.345 36.1684L143.226 37.2297L144.308 36.332L143.426 35.2706ZM142.133 36.9238L142.34 37.5241L143.645 37.0747L143.438 36.4743L142.133 36.9238ZM143.139 37.9734L144.004 37.7858L143.711 36.4378L142.846 36.6254L143.139 37.9734ZM143.318 37.542L144.02 38.4217L145.098 37.5613L144.396 36.6816L143.318 37.542ZM144.062 37.5136L141.821 39.8456L142.815 40.8015L145.057 38.4695L144.062 37.5136ZM142.029 39.6974L140.013 40.6285L140.592 41.8807L142.607 40.9496L142.029 39.6974ZM139.782 40.8028L137.626 43.2891L138.668 44.1928L140.824 41.7065L139.782 40.8028ZM138.194 43.0528L137.258 42.9889L137.164 44.3651L138.1 44.429L138.194 43.0528ZM136.618 43.3253L135.915 44.5122L137.101 45.2155L137.805 44.0287L136.618 43.3253ZM136.677 44.1953L135.262 43.8367L134.923 45.1739L136.338 45.5324L136.677 44.1953ZM134.404 44.5408L134.521 46.8172L135.899 46.7462L135.781 44.4698L134.404 44.5408ZM135.288 46.0965L134.415 45.9965L134.258 47.3669L135.131 47.4669L135.288 46.0965ZM133.695 46.4296L133.499 46.9286L134.783 47.4326L134.979 46.9337L133.695 46.4296ZM134.695 46.7703L134.17 46.0602L133.061 46.8807L133.586 47.5909L134.695 46.7703ZM133.208 45.9141L131.163 47.4123L131.979 48.5249L134.023 47.0267L133.208 45.9141ZM130.885 47.8998L130.533 51.4089L131.906 51.5465L132.257 48.0374L130.885 47.8998ZM130.733 50.9882L129.977 51.7387L130.949 52.7176L131.705 51.9671L130.733 50.9882ZM129.828 52.4957L130.378 53.8035L131.649 53.2684L131.099 51.9606L129.828 52.4957ZM130.847 54.2051L133.389 54.8388L133.723 53.5004L131.181 52.8667L130.847 54.2051ZM133.084 53.6665L132.29 54.4114L133.233 55.4177L134.028 54.6728L133.084 53.6665ZM132.422 55.5148L133.205 55.9581L133.885 54.7576L133.101 54.3143L132.422 55.5148ZM132.874 55.1969L132.527 56.645L133.868 56.967L134.216 55.5189L132.874 55.1969ZM133.233 57.4948L134.212 57.4447L134.141 56.0671L133.162 56.1172L133.233 57.4948ZM133.573 57.0887L134.399 58.5883L135.607 57.9226L134.781 56.423L133.573 57.0887ZM134.729 58.8884L137.259 59.9835L137.807 58.7176L135.277 57.6225L134.729 58.8884ZM136.859 59.204L136.484 60.9301L137.832 61.2231L138.207 59.497L136.859 59.204ZM136.999 61.7478L137.54 61.8756L137.857 60.5333L137.316 60.4054L136.999 61.7478ZM137.12 60.8279L136.16 62.301L137.316 63.0542L138.276 61.581L137.12 60.8279ZM136.071 62.8535L136.496 64.4642L137.83 64.1124L137.405 62.5017L136.071 62.8535ZM136.68 64.7802L137.75 65.8322L138.717 64.8484L137.647 63.7964L136.68 64.7802ZM137.547 65.276L137.476 66.0264L138.85 66.1552L138.92 65.4047L137.547 65.276ZM138.263 65.4083L137.027 65.2277L136.827 66.5926L138.063 66.7732L138.263 65.4083ZM137.48 65.4978L136.901 64.7209L135.795 65.5456L136.374 66.3224L137.48 65.4978ZM135.669 65.0117L135.575 65.5357L136.933 65.7787L137.027 65.2548L135.669 65.0117ZM136.583 65.0509L136.075 64.7757L135.418 65.9883L135.925 66.2635L136.583 65.0509ZM136.436 65.3646L136.418 64.6531L135.039 64.6879L135.057 65.3994L136.436 65.3646ZM135.871 63.9957L134.138 63.6301L133.854 64.9798L135.586 65.3454L135.871 63.9957ZM133.448 63.8865L132.667 64.9094L133.763 65.7463L134.544 64.7235L133.448 63.8865ZM133.594 64.7514L133.023 64.3762L132.265 65.529L132.837 65.9042L133.594 64.7514ZM131.98 64.7662L131.525 66.3881L132.853 66.7608L133.308 65.139L131.98 64.7662ZM132.168 65.885L131.313 65.9114L131.355 67.2901L132.21 67.2638L132.168 65.885ZM130.781 66.1888L130.055 67.163L131.161 67.9869L131.887 67.0127L130.781 66.1888ZM130.878 66.9401L130.089 66.6052L129.55 67.8749L130.339 68.2098L130.878 66.9401ZM129.204 66.9284L128.561 68.1972L129.792 68.8206L130.434 67.5517L129.204 66.9284ZM128.503 68.6578L128.695 69.525L130.042 69.2272L129.85 68.36L128.503 68.6578ZM129.185 70.0411L129.853 70.2246L130.218 68.8945L129.551 68.711L129.185 70.0411ZM129.35 69.4839L129.21 70.7582L130.581 70.9096L130.721 69.6352L129.35 69.4839ZM129.453 71.3632L131.547 73.1129L132.431 72.0544L130.337 70.3047L129.453 71.3632ZM131.424 72.1882L130.451 73.5779L131.582 74.3688L132.554 72.9791L131.424 72.1882ZM130.367 74.205L130.767 75.3266L132.066 74.8632L131.666 73.7416L130.367 74.205ZM131.715 74.4731L130.298 73.7935L129.702 75.0371L131.118 75.7168L131.715 74.4731ZM130.682 74.3122L130.558 73.4909L129.194 73.697L129.318 74.5184L130.682 74.3122ZM129.978 72.9119L127.797 72.5853L127.593 73.9495L129.774 74.2761L129.978 72.9119ZM128.336 73.0128L127.653 71.2937L126.371 71.8029L127.054 73.522L128.336 73.0128ZM127.025 70.8587L124.795 70.8184L124.771 72.1976L127 72.2379L127.025 70.8587ZM125.36 71.1302L124.585 69.9461L123.431 70.7017L124.206 71.8858L125.36 71.1302ZM123.656 69.7305L122.713 70.2892L123.416 71.4761L124.359 70.9174L123.656 69.7305ZM122.381 70.7865L122.159 72.3652L123.525 72.5574L123.747 70.9787L122.381 70.7865ZM123.014 71.7935L121.333 71.3599L120.988 72.6956L122.67 73.1292L123.014 71.7935ZM120.518 72.2792L120.928 73.3256L122.213 72.8228L121.803 71.7763L120.518 72.2792ZM121.073 72.5959L120.409 73.2866L121.402 74.2432L122.067 73.5525L121.073 72.5959ZM120.216 73.7578L120.201 75.2351L121.58 75.2493L121.595 73.772L120.216 73.7578ZM121.175 74.6139L118.855 73.5633L118.286 74.8198L120.606 75.8705L121.175 74.6139ZM118.053 73.7356L117.42 74.4541L118.454 75.366L119.088 74.6475L118.053 73.7356ZM118.21 74.2765L116.869 73.6998L116.324 74.9669L117.665 75.5436L118.21 74.2765ZM115.922 74.186L114.987 78.4637L116.335 78.7583L117.27 74.4807L115.922 74.186ZM115.945 77.9825L114.774 77.453L114.206 78.7099L115.377 79.2394L115.945 77.9825ZM114.202 77.4547L113.071 77.9745L113.647 79.2279L114.778 78.7081L114.202 77.4547ZM112.845 78.1413L110.98 80.226L112.008 81.1457L113.873 79.0611L112.845 78.1413ZM110.806 80.7366L111.133 85.1616L112.509 85.06L112.182 80.635L110.806 80.7366ZM111.15 84.9517L110.944 85.8189L112.286 86.137L112.492 85.2699L111.15 84.9517ZM111.555 85.2909L110.5 85.3826L110.62 86.7568L111.675 86.6651L111.555 85.2909ZM110.067 85.5877L109.029 86.6495L110.016 87.6135L111.053 86.5517L110.067 85.5877ZM108.981 87.5586L109.504 88.2215L110.587 87.3673L110.064 86.7044L108.981 87.5586ZM109.371 87.6493L108.037 93.8504L109.386 94.1404L110.72 87.9394L109.371 87.6493ZM108.928 93.3405L105.452 92.1926L105.019 93.5024L108.495 94.6503L108.928 93.3405ZM104.623 92.5313L103.698 94.3227L104.924 94.9551L105.848 93.1637L104.623 92.5313ZM103.642 94.8044L104.018 96.3276L105.357 95.9965L104.981 94.4734L103.642 94.8044ZM105.151 95.651L104.147 94.7408L103.22 95.7628L104.225 96.673L105.151 95.651ZM103.236 94.727L102.607 95.2634L103.502 96.313L104.131 95.7765L103.236 94.727ZM103.568 95.3275L103.06 94.7619L102.034 95.6832L102.541 96.2488L103.568 95.3275ZM102.472 94.537L101.411 94.6537L101.562 96.0248L102.622 95.9081L102.472 94.537ZM102.167 95.4526L102.325 94.5006L100.965 94.2739L100.806 95.2259L102.167 95.4526ZM102.125 93.8924L101.296 93.0877L100.336 94.0775L101.165 94.8822L102.125 93.8924ZM100.764 92.8948L100.006 92.9518L100.109 94.3273L100.868 94.2704L100.764 92.8948ZM99.42 93.3757L98.8641 94.7182L100.139 95.2459L100.694 93.9034L99.42 93.3757ZM99.3247 94.3154L97.4997 94.799L97.8531 96.1324L99.678 95.6488L99.3247 94.3154ZM98.0897 94.9136L96.1999 93.4988L95.3733 94.6031L97.2631 96.0178L98.0897 94.9136ZM95.2291 93.6449L93.6055 95.874L94.7205 96.6861L96.3441 94.457L95.2291 93.6449ZM93.8722 95.6547L92.6887 96.205L93.2703 97.4558L94.4538 96.9055L93.8722 95.6547ZM92.2993 96.7165L91.8055 99.6641L93.1659 99.892L93.6597 96.9444L92.2993 96.7165ZM92.3835 99.096L91.7255 99.1946L91.93 100.559L92.588 100.46L92.3835 99.096ZM91.1559 99.7206L90.7628 101.412L92.1064 101.724L92.4995 100.033L91.1559 99.7206ZM91.6427 100.91L90.5847 100.576L90.1684 101.891L91.2264 102.226L91.6427 100.91ZM90.8859 100.768L89.0141 98.7181L87.9954 99.6482L89.8673 101.698L90.8859 100.768ZM88.6917 98.5193L86.624 97.937L86.2501 99.2648L88.3178 99.8471L88.6917 98.5193ZM87.0151 98.9771L87.9765 97.4998L86.8204 96.7474L85.859 98.2247L87.0151 98.9771ZM88.0802 97.019L87.8374 95.4361L86.474 95.6453L86.7167 97.2281L88.0802 97.019ZM87.7309 95.9213L88.2744 95.1L87.124 94.3388L86.5805 95.1601L87.7309 95.9213ZM87.5942 94.0377L85.8989 94.299L86.109 95.6623L87.8042 95.401L87.5942 94.0377ZM86.4493 94.454L85.0989 93.3117L84.208 94.3648L85.5585 95.5072L86.4493 94.454ZM84.1055 93.4194L83.4586 94.2658L84.5545 95.1035L85.2014 94.2571L84.1055 93.4194ZM84.2218 94.0294L82.441 93.4443L82.0104 94.7548L83.7913 95.3399L84.2218 94.0294ZM82.9133 94.045L82.6567 90.8097L81.2816 90.9187L81.5382 94.1541L82.9133 94.045ZM82.4984 90.422L81.4045 89.1128L80.346 89.9973L81.4399 91.3064L82.4984 90.422ZM80.7961 88.8699L79.425 89.0284L79.5833 90.3987L80.9545 90.2402L80.7961 88.8699ZM80.1696 89.895L80.502 88.6762L79.1712 88.3132L78.8388 89.532L80.1696 89.895ZM79.5173 87.8834L76.622 89.3954L77.2605 90.6181L80.1559 89.1061L79.5173 87.8834ZM77.4376 89.5279L75.3423 87.3557L74.3495 88.3134L76.4448 90.4856L77.4376 89.5279ZM74.8357 87.1449L71.9334 87.188L71.9539 88.5672L74.8561 88.5242L74.8357 87.1449ZM72.318 87.2983L71.1483 86.5423L70.3996 87.7008L71.5693 88.4568L72.318 87.2983ZM70.1195 86.9037L68.9609 90.3836L70.2696 90.8194L71.4283 87.3395L70.1195 86.9037ZM69.253 90.0146L67.8929 90.854L68.6174 92.0278L69.9775 91.1884L69.253 90.0146ZM67.5713 91.5302L68.0085 94.8767L69.3763 94.698L68.939 91.3515L67.5713 91.5302ZM68.8683 94.1205L66.3233 93.4493L65.9715 94.7831L68.5165 95.4543L68.8683 94.1205ZM65.4709 93.982L65.2322 95.1855L66.5853 95.4538L66.8239 94.2503L65.4709 93.982ZM65.9098 94.63L65.0008 94.6286L64.9987 96.008L65.9077 96.0094L65.9098 94.63ZM64.3623 95.0549L63.8271 96.3501L65.102 96.8769L65.6372 95.5816L64.3623 95.0549ZM64.9281 96.1028L64.0094 95.269L63.0823 96.2904L64.001 97.1242L64.9281 96.1028ZM63.4571 95.0957L57.5671 95.86L57.7446 97.228L63.6346 96.4636L63.4571 95.0957ZM56.9663 96.5318L56.9497 97.4685L58.3289 97.4929L58.3454 96.5562L56.9663 96.5318ZM57.4483 96.818L53.6577 97.9103L54.0397 99.2358L57.8302 98.1435L57.4483 96.818ZM53.2341 98.886L53.7748 99.9478L55.004 99.3218L54.4633 98.2601L53.2341 98.886ZM53.9971 99.0675L51.688 100.664L52.4726 101.799L54.7817 100.202L53.9971 99.0675ZM52.3065 100.58L51.6141 100.34L51.1616 101.643L51.8541 101.883L52.3065 100.58ZM52.0663 101.115L52.3753 99.4268L51.0184 99.1785L50.7094 100.867L52.0663 101.115ZM51.1687 98.8591L50.508 99.6456L51.5642 100.533L52.2249 99.7463L51.1687 98.8591ZM51.0013 99.4004L49.186 99.4922L49.2556 100.87L51.0709 100.778L51.0013 99.4004ZM48.6161 99.8493L47.9843 101.001L49.1938 101.665L49.8255 100.513L48.6161 99.8493ZM48.5476 100.645L46.5117 100.767L46.5944 102.144L48.6304 102.022L48.5476 100.645ZM47.232 101.334L46.7161 98.4516L45.3582 98.6946L45.8741 101.577L47.232 101.334ZM45.8717 97.9036L44.5502 98.2301L44.8811 99.5693L46.2026 99.2427L45.8717 97.9036ZM45.4051 98.8809L45.3541 97.0062L43.9752 97.0437L44.0262 98.9185L45.4051 98.8809ZM44.9877 96.4156L43.9104 95.8444L43.2643 97.0631L44.3416 97.6343L44.9877 96.4156ZM43.195 95.8865L39.8334 98.2116L40.6181 99.346L43.9797 97.021L43.195 95.8865ZM39.5651 98.5806L38.9679 100.571L40.2891 100.967L40.8863 98.9771L39.5651 98.5806ZM39.7888 100.098L37.3113 99.506L36.9907 100.848L39.4682 101.44L39.7888 100.098ZM36.4768 100.031L36.2823 100.933L37.6308 101.224L37.8252 100.322L36.4768 100.031ZM36.8267 100.401L35.5508 100.646L35.8105 102.001L37.0864 101.756L36.8267 100.401ZM34.9942 101.391L35.1087 102.559L36.4815 102.425L36.367 101.256L34.9942 101.391ZM35.192 102.158L34.2691 103.821L35.4754 104.49L36.3982 102.827L35.192 102.158ZM35.4405 103.765L34.3136 102.126L33.177 102.908L34.304 104.547L35.4405 103.765ZM33.6 101.843L32.5296 102.074L32.8202 103.422L33.8906 103.191L33.6 101.843ZM33.3553 102.861L33.5015 101.978L32.1407 101.753L31.9945 102.635L33.3553 102.861ZM33.2626 101.336L32.0984 100.365L31.2154 101.425L32.3796 102.395L33.2626 101.336ZM31.7561 100.213L30.4181 100.018L30.2196 101.383L31.5577 101.578L31.7561 100.213ZM30.8879 100.311L30.2865 99.4328L29.1484 100.212L29.7498 101.09L30.8879 100.311ZM30.0523 100.425L30.4952 100.179L29.8253 98.9736L29.3825 99.2196L30.0523 100.425ZM30.5066 98.9801L29.4321 98.3561L28.7393 99.5489L29.8139 100.173L30.5066 98.9801ZM29.7751 98.9735L29.804 98.0215L28.4253 97.9796L28.3963 98.9315L29.7751 98.9735ZM29.5292 98.5518L30.4588 97.8527L29.6299 96.7502L28.7002 97.4493L29.5292 98.5518ZM30.6663 97.0033L29.7021 94.9924L28.4583 95.5887L29.4224 97.5997L30.6663 97.0033ZM29.0245 94.6031L28.3389 94.6587L28.4503 96.0336L29.1359 95.978L29.0245 94.6031ZM27.8567 95.7778L28.1712 96.1697L29.247 95.3064L28.9325 94.9145L27.8567 95.7778ZM28.2176 95.2542L27.5555 95.9268L28.5385 96.8945L29.2006 96.2219L28.2176 95.2542ZM28.5602 95.9499L27.9202 95.237L26.8937 96.1585L27.5338 96.8714L28.5602 95.9499ZM26.8896 95.2416L26.3848 95.8142L27.4194 96.7264L27.9243 96.1538L26.8896 95.2416ZM27.3201 95.7217L26.4772 95.0796L25.6413 96.1769L26.4841 96.8189L27.3201 95.7217ZM25.7104 95.0333L25.2649 95.2945L25.9626 96.4845L26.4082 96.2232L25.7104 95.0333ZM24.9325 95.9974L25.1174 97.1648L26.4798 96.9491L26.295 95.7816L24.9325 95.9974ZM26.2842 96.5671L25.3255 95.6166L24.3543 96.5961L25.313 97.5467L26.2842 96.5671ZM24.1582 96.0013L23.9844 97.1298L25.3477 97.3398L25.5216 96.2113L24.1582 96.0013ZM24.2184 96.7101L23.3453 97.455L24.2406 98.5044L25.1137 97.7595L24.2184 96.7101ZM24.4249 97.7035L22.6055 93.5412L21.3415 94.0937L23.161 98.2559L24.4249 97.7035ZM22.2919 93.2056L20.7167 92.3857L20.0798 93.6093L21.6551 94.4292L22.2919 93.2056ZM19.8178 92.6249L17.9777 95.492L19.1385 96.237L20.9787 93.37L19.8178 92.6249ZM18.376 95.1993L16.6297 95.6774L16.9939 97.0078L18.7402 96.5297L18.376 95.1993ZM16.6744 95.6667L12.3045 96.5547L12.5792 97.9065L16.9491 97.0185L16.6744 95.6667ZM12.5181 96.5451L6.2087 95.8433L6.05621 97.2143L12.3656 97.9161L12.5181 96.5451ZM6.77387 96.7823L8.02083 93.6276L6.73801 93.1206L5.49104 96.2753L6.77387 96.7823ZM7.75159 92.7934L6.4853 91.9818L5.74096 93.1432L7.00725 93.9548L7.75159 92.7934ZM6.73057 92.8698L7.19822 91.9303L5.96334 91.3157L5.49569 92.2552L6.73057 92.8698ZM7.01875 91.0902L6.06696 90.3078L5.19102 91.3734L6.14281 92.1558L7.01875 91.0902ZM6.31846 90.8229L6.29223 89.8028L4.91329 89.8383L4.93951 90.8583L6.31846 90.8229ZM5.47593 89.1426L4.70347 89.2871L4.95713 90.643L5.72959 90.4985L5.47593 89.1426ZM5.2759 89.4386L3.3599 87.8168L2.4687 88.8696L4.3847 90.4915L5.2759 89.4386ZM3.60249 88.3889L3.70596 86.831L2.32959 86.7396L2.22612 88.2975L3.60249 88.3889ZM3.53595 86.3302L2.48485 85.1336L1.44851 86.0439L2.4996 87.2405L3.53595 86.3302ZM2.6549 85.5436L2.36246 81.0812L0.986015 81.1714L1.27846 85.6339L2.6549 85.5436ZM1.86878 80.4646L1.12667 80.2464L0.737588 81.5698L1.4797 81.788L1.86878 80.4646ZM1.58684 81.125L2.71796 77.7104L1.40853 77.2766L0.277415 80.6912L1.58684 81.125ZM2.71464 77.2668L2.07874 75.4393L0.775953 75.8926L1.41185 77.7201L2.71464 77.2668ZM1.98319 76.0743L2.39561 75.5128L1.28391 74.6962L0.871497 75.2577L1.98319 76.0743ZM1.99539 75.7765L3.11131 75.518L2.80005 74.1742L1.68413 74.4326L1.99539 75.7765ZM3.58491 75.1285L4.19185 73.7762L2.9334 73.2114L2.32646 74.5637L3.58491 75.1285ZM3.60291 74.1823L5.07615 74.0961L4.99556 72.7191L3.52233 72.8053L3.60291 74.1823ZM5.50264 73.9153L7.78828 71.814L6.85471 70.7986L4.56907 72.8999L5.50264 73.9153ZM7.05077 71.9407L7.76392 72.245L8.30537 70.9763L7.59222 70.672L7.05077 71.9407ZM8.29443 72.2496L9.97592 71.5658L9.45634 70.288L7.77485 70.9718L8.29443 72.2496ZM10.2936 71.3041L11.0978 70.0727L9.94287 69.3185L9.13867 70.5498L10.2936 71.3041ZM10.5859 70.3822L11.706 70.2752L11.5748 68.902L10.4547 69.009L10.5859 70.3822ZM11.9837 68.9904L11.5864 68.7624L10.8999 69.9588L11.2972 70.1868L11.9837 68.9904ZM11.7344 69.8447L12.2931 69.2777L11.3105 68.3096L10.7519 68.8766L11.7344 69.8447ZM11.2773 69.2415L11.549 69.5597L12.5981 68.664L12.3263 68.3458L11.2773 69.2415ZM12.549 69.6115L13.3712 68.829L12.4202 67.8298L11.5981 68.6123L12.549 69.6115ZM12.4474 68.8536L13.2971 69.5804L14.1937 68.5322L13.344 67.8053L12.4474 68.8536ZM14.1346 69.6256L15.2161 68.8863L14.4376 67.7476L13.3561 68.4869L14.1346 69.6256ZM15.5009 68.1708L15.3574 67.5093L14.0093 67.8016L14.1528 68.4631L15.5009 68.1708ZM14.7746 68.3391L16.045 68.1695L15.8625 66.8022L14.5921 66.9718L14.7746 68.3391ZM16.4731 67.0321L15.6607 66.1023L14.622 67.01L15.4344 67.9397L16.4731 67.0321ZM15.2843 67.2309L16.465 66.9807L16.1791 65.6313L14.9984 65.8814L15.2843 67.2309ZM16.887 66.7016L18.7906 63.9833L17.6607 63.1921L15.7571 65.9104L16.887 66.7016ZM18.5584 64.1918L23.1629 61.6555L22.4973 60.4472L17.8929 62.9836L18.5584 64.1918ZM23.5159 60.9782L23.3173 59.1146L21.9456 59.2608L22.1443 61.1245L23.5159 60.9782ZM23.1444 59.6488L23.8603 58.8525L22.8345 57.9303L22.1186 58.7266L23.1444 59.6488ZM23.4951 59.0651L25.0483 58.7246L24.7529 57.3772L23.1997 57.7177L23.4951 59.0651ZM24.5187 58.6252L25.8498 59.5105L26.6137 58.3619L25.2825 57.4766L24.5187 58.6252ZM25.5594 59.0902L25.8077 60.1742L27.1523 59.8662L26.904 58.7822L25.5594 59.0902ZM26.405 60.7058L28.7927 60.9671L28.9428 59.5958L26.555 59.3346L26.405 60.7058ZM29.5529 60.2024L29.495 59.7007L28.1247 59.8589L28.1826 60.3606L29.5529 60.2024ZM28.6974 60.4602L29.7071 60.627L29.9319 59.2661L28.9222 59.0993L28.6974 60.4602ZM30.5008 60.0541L30.8691 57.7221L29.5066 57.507L29.1383 59.8389L30.5008 60.0541ZM30.2523 58.3012L31.6579 58.1692L31.5289 56.7959L30.1233 56.9279L30.2523 58.3012ZM30.953 57.7386L31.5848 59.3187L32.8656 58.8066L32.2339 57.2265L30.953 57.7386ZM32.4565 59.7124L33.8111 59.2302L33.3485 57.9306L31.9939 58.4129L32.4565 59.7124ZM33.0854 59.0613L34.2289 60.237L35.2177 59.2753L34.0742 58.0995L33.0854 59.0613ZM34.8582 60.4325L35.9038 60.2241L35.634 58.8713L34.5885 59.0798L34.8582 60.4325ZM36.4395 59.709L36.765 58.3554L35.4238 58.0328L35.0983 59.3864L36.4395 59.709ZM35.4096 58.112L35.28 59.1932L36.6496 59.3574L36.7792 58.2762L35.4096 58.112ZM35.673 59.9002L36.2771 60.1823L36.8608 58.9325L36.2566 58.6504L35.673 59.9002ZM37.2575 59.5964L37.3527 57.9148L35.9755 57.8369L35.8803 59.5184L37.2575 59.5964ZM36.5819 58.5606L38.7462 58.8205L38.9106 57.4509L36.7463 57.1911L36.5819 58.5606ZM39.3576 57.6934L38.49 56.6553L37.4315 57.5399L38.2992 58.578L39.3576 57.6934ZM38.5704 57.4201L39.1387 56.3458L37.9194 55.7008L37.3511 56.7751L38.5704 57.4201ZM38.9458 55.4737L37.1057 54.0784L36.2722 55.1776L38.1123 56.5729L38.9458 55.4737ZM36.6063 53.9433L35.7538 54.0462L35.9191 55.4156L36.7716 55.3127L36.6063 53.9433ZM36.5257 54.7547L36.574 53.3594L35.1955 53.3117L35.1472 54.707L36.5257 54.7547ZM35.9906 52.6541L32.9491 52.1816L32.7373 53.5446L35.7789 54.0171L35.9906 52.6541ZM33.495 52.6376L33.0619 51.3855L31.7583 51.8364L32.1914 53.0886L33.495 52.6376ZM32.7416 51.0062L31.0987 50.1056L30.4357 51.3152L32.0785 52.2157L32.7416 51.0062ZM30.5998 50.0413L29.0108 50.4387L29.3454 51.7769L30.9345 51.3795L30.5998 50.0413ZM29.5465 50.5247L26.8166 48.8001L26.0799 49.9663L28.8097 51.6909L29.5465 50.5247ZM26.2599 48.7197L25.2322 49.0115L25.609 50.3385L26.6367 50.0467L26.2599 48.7197ZM26.1101 49.6933L26.139 48.5996L24.7601 48.563L24.7312 49.6567L26.1101 49.6933ZM25.9468 48.1034L23.7467 45.8144L22.7522 46.7703L24.9523 49.0593L25.9468 48.1034ZM23.307 45.6051L22.0945 45.5036L21.9794 46.8782L23.1919 46.9797L23.307 45.6051ZM22.6259 45.832L21.7335 44.3672L20.5555 45.0849L21.448 46.5497L22.6259 45.832ZM21.8328 44.6832L21.6411 41.6022L20.2644 41.6879L20.4561 44.7689L21.8328 44.6832ZM20.7421 42.3018L22.7009 42.9299L23.1221 41.6164L21.1634 40.9883L20.7421 42.3018ZM23.466 42.6832L24.4372 41.3699L23.328 40.5498L22.3569 41.8631L23.466 42.6832ZM23.634 41.6032L24.972 42.1202L25.4692 40.8335L24.1312 40.3165L23.634 41.6032ZM25.8845 41.6639L26.5314 39.368L25.2037 38.9939L24.5568 41.2898L25.8845 41.6639ZM26.5483 39.0701L26.2489 37.2316L24.8875 37.4532L25.1868 39.2918L26.5483 39.0701ZM25.6492 36.6575L22.7815 36.3183L22.6195 37.6882L25.4872 38.0273L25.6492 36.6575ZM23.2253 36.5558L21.4624 34.4879L20.4127 35.3828L22.1756 37.4507L23.2253 36.5558ZM20.6125 34.3271L19.7752 34.7746L20.4254 35.9911L21.2627 35.5436L20.6125 34.3271ZM20.2485 34.7092L17.949 34.2034L17.6526 35.5506L19.9521 36.0564L20.2485 34.7092ZM18.4905 34.8761L18.4877 32.6831L17.1083 32.6848L17.1111 34.8778L18.4905 34.8761ZM17.6783 33.3632L19.4205 33.6703L19.66 32.3119L17.9178 32.0047L17.6783 33.3632ZM20.1705 33.2711L20.5058 32.5164L19.2451 31.9565L18.9099 32.7111L20.1705 33.2711ZM19.9949 32.9157L22.1205 32.5419L21.8816 31.1833L19.756 31.5572L19.9949 32.9157ZM22.6047 32.1963L23.6089 30.3799L22.4017 29.7125L21.3975 31.5289L22.6047 32.1963ZM23.6949 30.0354L23.6728 28.6359L22.2936 28.6576L22.3157 30.0571L23.6949 30.0354ZM22.8121 29.3149L28.3104 30.7227L28.6526 29.3864L23.1543 27.9786L22.8121 29.3149ZM28.629 30.7283L32.7355 29.8291L32.4405 28.4817L28.334 29.3808L28.629 30.7283ZM33.2576 28.9902L32.9059 27.5643L31.5666 27.8947L31.9184 29.3206L33.2576 28.9902ZM32.3657 27.0521L30.1545 26.6296L29.8956 27.9845L32.1068 28.407L32.3657 27.0521ZM30.6747 27.0753L29.8774 24.8406L28.5782 25.3041L29.3755 27.5388L30.6747 27.0753ZM28.9044 24.4632L27.4409 25.24L28.0876 26.4584L29.5511 25.6815L28.9044 24.4632ZM28.2139 25.3263L27.8277 24.9941L26.9283 26.04L27.3145 26.3721L28.2139 25.3263ZM28.0011 25.2214L27.7307 24.6516L26.4845 25.2429L26.7549 25.8127L28.0011 25.2214ZM27.73 25.2444L28.5287 23.5711L27.2839 22.9769L26.4852 24.6502L27.73 25.2444ZM28.5845 23.1484L28.2617 21.4057L26.9053 21.6569L27.2281 23.3996L28.5845 23.1484ZM27.783 20.871L26.8629 20.5931L26.464 21.9136L27.3841 22.1915L27.783 20.871ZM26.1719 20.7695L25.0077 21.9522L25.9908 22.9198L27.155 21.7372L26.1719 20.7695ZM25.8702 21.8546L24.7943 21.1681L24.0523 22.3309L25.1283 23.0174L25.8702 21.8546ZM25.0915 21.9204L25.3563 20.885L24.02 20.5432L23.7551 21.5786L25.0915 21.9204ZM24.9273 20.0672L23.7659 19.6378L23.2875 20.9316L24.449 21.361L24.9273 20.0672ZM22.886 20.0294L22.5798 20.7979L23.8612 21.3085L24.1674 20.54L22.886 20.0294ZM23.4931 20.4197L22.3951 19.9472L21.8498 21.2142L22.9478 21.6867L23.4931 20.4197ZM22.809 20.5145L22.6835 19.2123L21.3104 19.3447L21.436 20.6469L22.809 20.5145ZM22.323 18.6708L21.6651 18.3178L21.0129 19.5333L21.6709 19.8863L22.323 18.6708ZM21.8253 19.4146L22.4529 18.7906L21.4803 17.8124L20.8527 18.4364L21.8253 19.4146ZM22.655 18.2584L22.4867 15.5707L21.1099 15.6569L21.2782 18.3446L22.655 18.2584ZM22.1248 15.0062L20.6792 14.2294L20.0262 15.4444L21.4718 16.2213L22.1248 15.0062ZM20.8426 15.3224L21.7075 14.4496L20.7277 13.4787L19.8628 14.3514L20.8426 15.3224ZM21.1939 13.2748L18.8462 13.3554L18.8935 14.734L21.2412 14.6534L21.1939 13.2748ZM19.5257 14.2581L20.6623 10.7643L19.3506 10.3375L18.214 13.8313L19.5257 14.2581ZM20.5919 10.1862L19.8898 9.05913L18.719 9.78849L19.4211 10.9156L20.5919 10.1862ZM19.606 8.80356L17.9741 8.01001L17.3709 9.25051L19.0027 10.0441L19.606 8.80356ZM18.277 8.96233L19.0771 7.50587L17.8681 6.84173L17.068 8.29819L18.277 8.96233ZM19.1181 6.93092L18.8588 6.24162L17.5677 6.72738L17.8271 7.41668L19.1181 6.93092ZM18.0417 5.81646L16.2499 6.27647L16.5929 7.61254L18.3847 7.15254L18.0417 5.81646ZM16.7336 6.32948L15.9914 5.95285L15.3672 7.1829L16.1093 7.55953L16.7336 6.32948ZM16.1845 7.03743L17.0383 6.11883L16.028 5.17972L15.1741 6.09831L16.1845 7.03743ZM16.948 6.20024L18.3895 5.11484L17.5597 4.01291L16.1183 5.09831L16.948 6.20024ZM18.1481 3.89634L17.1908 3.64758L16.8438 4.98264L17.8011 5.2314L18.1481 3.89634ZM17.7021 4.23274L17.5586 3.04035L16.1891 3.20508L16.3325 4.39747L17.7021 4.23274ZM17.1158 3.76859L18.9338 3.08761L18.45 1.79585L16.6319 2.47684L17.1158 3.76859ZM18.5663 3.1199L21.3431 3.63412L21.5942 2.27778L18.8175 1.76356L18.5663 3.1199ZM21.937 3.46229L23.9054 1.64172L22.9687 0.629052L21.0003 2.44962L21.937 3.46229ZM24.1249 1.18643L24.1911 0.29421L22.8155 0.192118L22.7492 1.08434L24.1249 1.18643ZM23.3711 0.920074L23.9545 1.03403L24.2189 -0.319793L23.6355 -0.433746L23.3711 0.920074Z" fill="white" mask="url(#path-1-inside-1_1162_4056)"/>
<g opacity="0.1">
<rect x="58.9993" y="47" width="28.2793" height="28.2793" rx="14.1396" fill="#236DF8"/>
</g>
<rect x="64.655" y="52.6542" width="16.9676" height="16.9676" rx="8.48379" fill="#73C4FF" fill-opacity="0.7"/>
<rect x="70.3108" y="58.3115" width="5.65586" height="5.65586" rx="2.82793" fill="#236DF8"/>
</svg>
