<svg width="120" height="196" viewBox="0 0 120 196" fill="none" xmlns="http://www.w3.org/2000/svg">
<mask id="path-1-inside-1_1162_4065" fill="white">
<path d="M89.0967 0.0480957L92.0362 0.605362L92.679 1.91312L94.3867 2.3648L95.4282 6.47981L96.391 6.91757L95.9592 7.59578L99.8354 8.93409L100.816 11.0173L100.393 13.2993L102.129 15.9217L106.76 17.0724L106.836 15.1977L108.832 14.885L109.284 17.6645L107.749 20.4676L107.643 22.8065L108.818 23.7015L109.883 23.033L110.658 24.4214L109.603 30.4515L112.367 32.2414L112.902 35.9381L114.114 34.0578L114.898 35.5435L116.467 35.153L116.674 36.0202L119.329 35.5866L119.863 36.7275L119.31 39.0595L118.144 39.2152L116.867 42.2323L115.97 42.2447L115.138 43.1175L115.001 45.1951L112.958 46.2764L110.951 46.2096L108.775 48.3081L108.702 49.8341L108.055 49.7965L107.939 50.4177L109.83 51.6101L108.752 54.6273L104.618 55.375L101.492 58.5311L99.765 58.4476L98.4008 59.1008L95.8999 62.8725L97.089 64.0691L95.2999 64.386L95.2061 67.2517L95.7316 68.2286L97.0931 68.8943L96.2572 70.109L96.6324 70.9886L95.093 71.3528L95.2475 72.5368L93.9315 71.8948L93.2446 72.8857L93.7343 74.1684L91.8748 76.2405L93.7467 77.7775L92.828 78.4113L92.4956 77.0396L90.7479 78.1764L89.4167 81.8217L89.8678 83.4241L91.1244 84.8082L91.381 86.3926L90.5768 86.6566L87.5518 85.5671L87.0924 87.5127L87.6828 88.3424L86.0593 89.1331L85.2441 92.9994L83.2149 94.0681L80.9265 93.515L78.485 91.7597L76.2683 92.5797L74.3399 92.2851L73.6571 92.8826L72.6018 92.2475L69.243 92.5685L69.5051 94.0431L68.4747 94.9937L68.8485 96.0652L66.8456 99.0128L64.9034 100.189L64.1337 102.654L62.8771 102.572L62.4702 101.459L60.8866 100.796L60.5556 104.675L61.5115 108.831L60.2355 111.001L61.866 112.36L62.0853 114.129L62.7199 113.488L63.2716 114.955L62.2495 117.74L63.273 119.36L62.5764 119.959L62.8219 121.848L61.8205 123.625L62.1653 126.242L68.156 128.518L69.1216 128.075L71.308 128.377L71.1066 131.359L71.5976 132.051L71.17 133.274L69.5244 133.448L67.7726 135.118L67.3739 133.54L68.0167 132.244L63.6523 131.06L62.106 131.713L60.6811 133.306L57.5388 128.136L56.0325 128.752L52.5509 126.541L51.5839 127.768L49.1852 124.929L47.025 126.968L46.1808 129.614L46.5367 130.906L49.7342 132.545L50.3052 134.358L52.6061 134.747L51.9633 137.179L52.2102 142.256L51.526 143.385L53.5372 143.139L54.3248 145.775L56.1649 145.968L55.6821 147.551L54.9455 147.675L56.1677 148.969L55.26 150.629L56.0408 153.895L55.4918 154.886L56.6463 155.161L57.0036 155.985L56.4835 156.914L57.3788 158.31L57.7954 161.494L55.867 161.957L55.5318 165.145L54.6062 166.162L53.2296 166.218L53.1482 167.554L51.8529 167.348L49.9452 168.21L49.3603 170.095L47.5685 169.438L47.6554 170.334L49.5659 171.381L49.3452 172.222L48.2403 172.066L47.8995 173.158L46.7767 173.627L44.0096 176.729L43.5131 178.738L41.0053 178.923L41.0233 179.782L39.1376 180.081L37.2478 181.365L36.5788 183.658L37.0933 184.464L36.6905 186.439L35.6863 188.382L35.7857 190.161L34.6283 193.019L33.3759 192.74L33.1193 195.126L29.3383 194.958L26.6113 193.728L24.1283 195.743L22.9407 195.639L20.386 186.785L21.244 184.135L18.019 185.213L17.6203 183.237L18.1776 182.943L17.0824 182.126L16.1678 184.192L14.3388 184.026L14.3015 182.592L15.8851 181.519L14.6284 180.053L13.8104 177.594L14.107 176.799L13.0807 176.484L13.3083 175.975L11.9193 174.87L11.3965 173.45L7.08722 170.118L2.99869 171.389L0.852343 167.374L0.119873 166.098L1.11304 165.943L3.19042 164.138L0.856489 160.933L0.857857 159.143L2.429 156.465L2.50762 154.426L4.29257 152.972L4.196 151.437L5.74646 150.765L6.86099 148.497L9.52462 146.479L10.7454 149.352L12.529 148.76L13.0104 150.078L14.7622 149.978L17.5279 147.707L15.8809 145.689L18.8866 144.492L18.5114 142.855L17.5389 142.545L17.0258 141.518L15.2588 141.344L13.947 140.115L12.0944 139.995L12.3538 137.539L8.71078 135.009L8.7908 133.636L6.6748 133.47L6.93273 135.077L6.19201 134.447L4.52431 134.396L4.60707 133.729L5.59197 133.912L7.49277 132.114L7.06516 131.187L4.89951 130.971L4.8595 130.154L5.93956 129.533L7.00172 130.299L8.15351 130.204L8.88046 128.471L8.8984 126.055L8.73149 124.695L7.50797 123.8L4.49947 123.642L4.27325 123.064L5.08158 122.219L4.18497 120.632L7.87761 119.772L8.77977 118.624L10.9661 117.797L10.0488 115.886L11.0972 109.455L9.50946 109.191L7.90935 110.035L7.03342 109.047L7.78521 107.886L9.87915 106.99L8.88046 104.462L8.77426 99.2478L6.28306 99.3034L5.36297 96.9033L6.04576 96.0639L5.64025 94.1905L6.33269 91.8419L11.4724 89.4432L12.5593 87.9506L12.0862 86.9416L14.2132 82.5528L13.6077 78.9854L13.8753 75.0941L14.5815 73.6571L16.5513 73.9837L17.1431 72.1978L17.2837 68.1203L16.761 67.4602L17.55 67.3324L19.4287 62.3946L20.575 62.5864L20.9474 64.293L21.9779 64.1944L22.1103 63.0895L21.1612 62.535L22.4593 61.9708L22.5641 58.9564L24.4484 58.4088L25.2898 56.9191L25.1794 52.3315L27.203 50.7959L28.3093 52.0007L29.9577 50.504L30.7798 51.0585L31.3274 49.7258L32.9399 50.3206L33.4545 52.3246L34.2586 51.1363L34.9401 51.5088L34.6518 50.6764L35.8588 50.6972L36.9913 49.2352L39.7845 49.2658L40.0094 48.4737L40.7349 48.3277L40.9612 46.3529L42.4192 45.7998L42.8786 44.9673L43.3861 45.8498L44.0276 45.362L43.5613 43.39L44.6497 42.1308L43.9738 40.0074L44.2193 38.7774L46.7312 38.2312L46.836 37.4739L49.1534 36.1508L48.5244 33.5159L49.0914 32.3582L51.5743 32.2859L52.8171 31.131L54.2255 31.541L55.2407 30.3458L54.9924 27.6428L56.3498 25.8514L56.2463 24.5645L54.8586 23.4166L54.0807 23.6056L53.7234 22.2881L52.1991 22.9121L51.2984 22.5952L51.3411 21.4751L50.1894 21.8017L48.4637 18.0494L45.8884 18.704L45.2373 17.6158L43.2565 16.9334L42.0164 18.3246L40.9032 18.0647L40.1432 19.3655L39.5321 18.8443L39.4935 17.4685L38.6672 17.3281L38.4548 16.265L39.4066 15.9051L39.7114 13.9802L40.5735 14.0011L41.8495 12.0721L41.4674 11.0423L40.4742 10.5003L40.2108 8.61302L39.2838 7.88897L39.6328 6.20324L41.1074 5.61398L42.8799 7.72219L42.7668 8.30867L44.6028 9.21201L46.6319 8.81871L48.4665 7.27888L49.4555 7.91541L50.8998 7.59018L52.1895 8.93687L55.5676 8.95632L56.7663 7.9112L56.6325 8.57691L57.4092 9.36907L58.2506 8.89515L60.3569 9.47191L64.1613 9.22729L65.7849 10.0862L66.6015 9.7721L66.1063 8.82569L67.7988 8.86459L69.7065 7.80003L69.8362 6.17542L72.4805 5.7196L74.2033 4.42852L77.987 7.18715L82.2563 7.11487L85.2275 5.75572L85.9931 3.59464L87.7256 2.52178L88.1008 0.94857L89.0967 0.0480957Z"/>
</mask>
<path d="M89.0967 0.0480957L92.0362 0.605362L92.679 1.91312L94.3867 2.3648L95.4282 6.47981L96.391 6.91757L95.9592 7.59578L99.8354 8.93409L100.816 11.0173L100.393 13.2993L102.129 15.9217L106.76 17.0724L106.836 15.1977L108.832 14.885L109.284 17.6645L107.749 20.4676L107.643 22.8065L108.818 23.7015L109.883 23.033L110.658 24.4214L109.603 30.4515L112.367 32.2414L112.902 35.9381L114.114 34.0578L114.898 35.5435L116.467 35.153L116.674 36.0202L119.329 35.5866L119.863 36.7275L119.31 39.0595L118.144 39.2152L116.867 42.2323L115.97 42.2447L115.138 43.1175L115.001 45.1951L112.958 46.2764L110.951 46.2096L108.775 48.3081L108.702 49.8341L108.055 49.7965L107.939 50.4177L109.83 51.6101L108.752 54.6273L104.618 55.375L101.492 58.5311L99.765 58.4476L98.4008 59.1008L95.8999 62.8725L97.089 64.0691L95.2999 64.386L95.2061 67.2517L95.7316 68.2286L97.0931 68.8943L96.2572 70.109L96.6324 70.9886L95.093 71.3528L95.2475 72.5368L93.9315 71.8948L93.2446 72.8857L93.7343 74.1684L91.8748 76.2405L93.7467 77.7775L92.828 78.4113L92.4956 77.0396L90.7479 78.1764L89.4167 81.8217L89.8678 83.4241L91.1244 84.8082L91.381 86.3926L90.5768 86.6566L87.5518 85.5671L87.0924 87.5127L87.6828 88.3424L86.0593 89.1331L85.2441 92.9994L83.2149 94.0681L80.9265 93.515L78.485 91.7597L76.2683 92.5797L74.3399 92.2851L73.6571 92.8826L72.6018 92.2475L69.243 92.5685L69.5051 94.0431L68.4747 94.9937L68.8485 96.0652L66.8456 99.0128L64.9034 100.189L64.1337 102.654L62.8771 102.572L62.4702 101.459L60.8866 100.796L60.5556 104.675L61.5115 108.831L60.2355 111.001L61.866 112.36L62.0853 114.129L62.7199 113.488L63.2716 114.955L62.2495 117.74L63.273 119.36L62.5764 119.959L62.8219 121.848L61.8205 123.625L62.1653 126.242L68.156 128.518L69.1216 128.075L71.308 128.377L71.1066 131.359L71.5976 132.051L71.17 133.274L69.5244 133.448L67.7726 135.118L67.3739 133.54L68.0167 132.244L63.6523 131.06L62.106 131.713L60.6811 133.306L57.5388 128.136L56.0325 128.752L52.5509 126.541L51.5839 127.768L49.1852 124.929L47.025 126.968L46.1808 129.614L46.5367 130.906L49.7342 132.545L50.3052 134.358L52.6061 134.747L51.9633 137.179L52.2102 142.256L51.526 143.385L53.5372 143.139L54.3248 145.775L56.1649 145.968L55.6821 147.551L54.9455 147.675L56.1677 148.969L55.26 150.629L56.0408 153.895L55.4918 154.886L56.6463 155.161L57.0036 155.985L56.4835 156.914L57.3788 158.31L57.7954 161.494L55.867 161.957L55.5318 165.145L54.6062 166.162L53.2296 166.218L53.1482 167.554L51.8529 167.348L49.9452 168.21L49.3603 170.095L47.5685 169.438L47.6554 170.334L49.5659 171.381L49.3452 172.222L48.2403 172.066L47.8995 173.158L46.7767 173.627L44.0096 176.729L43.5131 178.738L41.0053 178.923L41.0233 179.782L39.1376 180.081L37.2478 181.365L36.5788 183.658L37.0933 184.464L36.6905 186.439L35.6863 188.382L35.7857 190.161L34.6283 193.019L33.3759 192.74L33.1193 195.126L29.3383 194.958L26.6113 193.728L24.1283 195.743L22.9407 195.639L20.386 186.785L21.244 184.135L18.019 185.213L17.6203 183.237L18.1776 182.943L17.0824 182.126L16.1678 184.192L14.3388 184.026L14.3015 182.592L15.8851 181.519L14.6284 180.053L13.8104 177.594L14.107 176.799L13.0807 176.484L13.3083 175.975L11.9193 174.87L11.3965 173.45L7.08722 170.118L2.99869 171.389L0.852343 167.374L0.119873 166.098L1.11304 165.943L3.19042 164.138L0.856489 160.933L0.857857 159.143L2.429 156.465L2.50762 154.426L4.29257 152.972L4.196 151.437L5.74646 150.765L6.86099 148.497L9.52462 146.479L10.7454 149.352L12.529 148.76L13.0104 150.078L14.7622 149.978L17.5279 147.707L15.8809 145.689L18.8866 144.492L18.5114 142.855L17.5389 142.545L17.0258 141.518L15.2588 141.344L13.947 140.115L12.0944 139.995L12.3538 137.539L8.71078 135.009L8.7908 133.636L6.6748 133.47L6.93273 135.077L6.19201 134.447L4.52431 134.396L4.60707 133.729L5.59197 133.912L7.49277 132.114L7.06516 131.187L4.89951 130.971L4.8595 130.154L5.93956 129.533L7.00172 130.299L8.15351 130.204L8.88046 128.471L8.8984 126.055L8.73149 124.695L7.50797 123.8L4.49947 123.642L4.27325 123.064L5.08158 122.219L4.18497 120.632L7.87761 119.772L8.77977 118.624L10.9661 117.797L10.0488 115.886L11.0972 109.455L9.50946 109.191L7.90935 110.035L7.03342 109.047L7.78521 107.886L9.87915 106.99L8.88046 104.462L8.77426 99.2478L6.28306 99.3034L5.36297 96.9033L6.04576 96.0639L5.64025 94.1905L6.33269 91.8419L11.4724 89.4432L12.5593 87.9506L12.0862 86.9416L14.2132 82.5528L13.6077 78.9854L13.8753 75.0941L14.5815 73.6571L16.5513 73.9837L17.1431 72.1978L17.2837 68.1203L16.761 67.4602L17.55 67.3324L19.4287 62.3946L20.575 62.5864L20.9474 64.293L21.9779 64.1944L22.1103 63.0895L21.1612 62.535L22.4593 61.9708L22.5641 58.9564L24.4484 58.4088L25.2898 56.9191L25.1794 52.3315L27.203 50.7959L28.3093 52.0007L29.9577 50.504L30.7798 51.0585L31.3274 49.7258L32.9399 50.3206L33.4545 52.3246L34.2586 51.1363L34.9401 51.5088L34.6518 50.6764L35.8588 50.6972L36.9913 49.2352L39.7845 49.2658L40.0094 48.4737L40.7349 48.3277L40.9612 46.3529L42.4192 45.7998L42.8786 44.9673L43.3861 45.8498L44.0276 45.362L43.5613 43.39L44.6497 42.1308L43.9738 40.0074L44.2193 38.7774L46.7312 38.2312L46.836 37.4739L49.1534 36.1508L48.5244 33.5159L49.0914 32.3582L51.5743 32.2859L52.8171 31.131L54.2255 31.541L55.2407 30.3458L54.9924 27.6428L56.3498 25.8514L56.2463 24.5645L54.8586 23.4166L54.0807 23.6056L53.7234 22.2881L52.1991 22.9121L51.2984 22.5952L51.3411 21.4751L50.1894 21.8017L48.4637 18.0494L45.8884 18.704L45.2373 17.6158L43.2565 16.9334L42.0164 18.3246L40.9032 18.0647L40.1432 19.3655L39.5321 18.8443L39.4935 17.4685L38.6672 17.3281L38.4548 16.265L39.4066 15.9051L39.7114 13.9802L40.5735 14.0011L41.8495 12.0721L41.4674 11.0423L40.4742 10.5003L40.2108 8.61302L39.2838 7.88897L39.6328 6.20324L41.1074 5.61398L42.8799 7.72219L42.7668 8.30867L44.6028 9.21201L46.6319 8.81871L48.4665 7.27888L49.4555 7.91541L50.8998 7.59018L52.1895 8.93687L55.5676 8.95632L56.7663 7.9112L56.6325 8.57691L57.4092 9.36907L58.2506 8.89515L60.3569 9.47191L64.1613 9.22729L65.7849 10.0862L66.6015 9.7721L66.1063 8.82569L67.7988 8.86459L69.7065 7.80003L69.8362 6.17542L72.4805 5.7196L74.2033 4.42852L77.987 7.18715L82.2563 7.11487L85.2275 5.75572L85.9931 3.59464L87.7256 2.52178L88.1008 0.94857L89.0967 0.0480957Z" fill="#D0D5DD" stroke="white" stroke-width="1.3794" mask="url(#path-1-inside-1_1162_4065)"/>
<g opacity="0.1">
<rect x="41.9993" y="52" width="28.2793" height="28.2793" rx="14.1396" fill="#236DF8"/>
</g>
<rect x="47.655" y="57.6543" width="16.9676" height="16.9676" rx="8.48379" fill="#73C4FF" fill-opacity="0.7"/>
<rect x="53.3108" y="63.3114" width="5.65586" height="5.65586" rx="2.82793" fill="#236DF8"/>
</svg>
