<svg width="16" height="17" viewBox="0 0 16 17" fill="none" xmlns="http://www.w3.org/2000/svg">
<path d="M11.0831 3.61302L11.7731 3.83077L13.4454 6.21577L13.5614 6.38122L13.7625 6.36089L14.4337 6.29301L14.1454 8.20525L14.1267 8.32952L14.1923 8.4367L14.7809 9.39812L13.7256 10.5955L13.5505 10.7943L13.6974 11.0147L14.7049 12.5269L12.4102 13.1984L12.2964 13.2316L12.2271 13.3278L11.7388 14.006L11.6313 14.1554L11.6955 14.3278L11.9987 15.1426L10.362 15.6508L9.2331 14.7309L8.94955 13.1622L8.92771 13.0414L8.83442 12.9616L7.8178 12.0916L7.68356 11.9767L7.51191 12.0186L6.98413 12.1472L5.88061 11.3351L5.34227 10.939L5.33141 11.6073L5.3244 12.039L4.71974 11.7948L4.618 11.7537L4.51122 11.779L2.15634 12.3362L1.14959 11.0178L1.10398 10.3362L1.32746 10.3242L1.53782 10.313L1.62383 10.1207L2.20027 8.83196L3.59224 8.83076L4.27139 8.83018L3.87019 8.2822L3.54024 7.83154L4.47512 6.44542L4.544 6.34329L4.53259 6.22063L4.20669 2.72015L6.48101 2.25156L6.60179 2.22668L6.6794 2.13086L7.7959 0.752397L8.94548 1.22973L9.19957 1.87721L9.34889 2.25769L9.69881 2.04646L10.8234 1.36762L11.373 2.01955L10.8719 3.14378L10.7146 3.49672L11.0831 3.61302Z" fill="#D0D5DD" stroke="white" stroke-width="0.6897"/>
</svg>
