<svg width="10" height="11" viewBox="0 0 10 11" fill="none" xmlns="http://www.w3.org/2000/svg">
<path d="M8.42018 8.0197L8.83464 8.40979L8.21347 9.91394L7.22949 9.20263L7.16869 9.15868L7.09514 9.14396L4.81775 8.6881L4.49032 8.62256L4.41428 8.94771L4.33502 9.2866L3.67741 8.58321L3.8354 8.01355L4.12688 6.96248L3.28416 7.65495L2.72985 8.11042L2.6104 7.97109L2.9426 6.90526L2.97759 6.793L2.9367 6.68274L2.46771 5.4181L2.45453 5.38257L2.43396 5.35075L1.28725 3.57744L1.45649 3.4527L2.35961 4.0023L2.74405 4.23625L2.86996 3.8042L2.97786 3.43395L3.57564 3.45884L3.94345 3.47415L3.93809 3.24765L4.01378 3.33482L4.48288 3.87508L4.61325 3.17156L4.74821 2.44328L5.65794 2.35123L5.85499 2.33129L5.875 2.28734L5.91435 2.71381L5.95196 3.12139L6.34724 3.01516L7.48367 2.70976L7.51297 2.76484L7.42485 2.74654L7.2931 2.91844L6.00786 4.59527L5.19252 4.65491L4.84915 4.68002L4.87371 5.02343L5.03509 7.28037L5.11326 8.37358L5.67515 7.43256L5.81859 7.19233L6.43126 7.55066L6.61984 7.66097L6.80013 7.53757L7.52707 7.04004L7.69947 6.92204L7.67472 6.71461L7.6033 6.11598L8.89454 6.32231L9.13445 6.56215L8.3812 7.56094L8.19503 7.8078L8.42018 8.0197Z" fill="#D0D5DD" stroke="white" stroke-width="0.6897"/>
</svg>
