<svg width="29" height="34" viewBox="0 0 29 34" fill="none" xmlns="http://www.w3.org/2000/svg">
<path d="M5.16701 3.30447L9.08352 2.94811L9.27076 2.93107L9.35788 2.76445L9.92235 1.68477L10.1533 2.36653L10.2223 2.57012L10.4355 2.59784L12.0158 2.80335L12.6507 5.49125L12.6699 5.57233L12.7239 5.63573L13.5736 6.63218L13.6471 6.71837L13.7574 6.74419L14.6002 6.94154L14.7192 6.96939L14.8291 6.91616L17.5975 5.57589L18.8952 5.52584L19.089 5.51836L19.1833 5.34878L19.3972 4.96391L19.7477 5.46835L19.9821 5.80569L20.2738 5.51644L20.6218 5.17129L20.9532 5.35036L21.2683 6.45118L20.8881 7.66447L20.8334 7.83918L20.9474 7.9824L21.7262 8.96027L21.0092 9.83999L20.8632 10.0192L20.9734 10.2224L21.6878 11.5384L21.6917 13.0856L21.6923 13.3009L21.886 13.395L23.0468 13.9583L23.3544 15.7464L21.1734 16.6959L20.6208 16.9365L21.1081 17.291L22.4437 18.2626L22.7794 19.1602L21.9622 20.2331L21.9171 20.2924L21.9004 20.3651L21.5763 21.7812L21.5518 21.8883L21.5937 21.9898L22.2086 23.4793L21.1615 24.7908L21.0442 24.9378L21.1042 25.116L21.2703 25.6094L19.9866 26.6429L19.0556 25.9227L18.4432 25.449L18.5007 26.2211L18.5561 26.9647L18.0068 26.7827L17.8549 26.7323L17.7183 26.8159L16.6587 27.4645L15.5205 26.9705L15.7522 26.0672L15.7942 25.9036L15.6907 25.7701L13.1884 22.5446L13.125 22.4628L13.0271 22.4295L11.8349 22.0235L12.6871 20.531L12.7584 20.4062L12.7199 20.2677L11.1722 14.6989L11.1619 14.6619L11.1437 14.628L10.5257 13.4787L10.3911 13.2283L10.1197 13.3127L9.3663 13.5468L8.69447 12.9492L10.2659 13.1853L10.4317 13.2102L10.5537 13.0953L11.1303 12.5518L11.4176 12.2811L11.1107 12.0328L9.73127 10.9168L9.65971 10.8589L9.56883 10.8444L8.26553 10.636L8.56183 10.0582L8.82141 9.55201L8.25256 9.55599L7.35107 9.56231L6.58679 6.23932L6.57797 6.20097L6.56074 6.16559L5.16701 3.30447Z" fill="#D0D5DD" stroke="white" stroke-width="0.6897"/>
<g opacity="0.1">
<rect x="-0.000732422" y="5" width="28.2793" height="28.2793" rx="14.1396" fill="#236DF8"/>
</g>
<rect x="5.65503" y="10.6543" width="16.9676" height="16.9676" rx="8.48379" fill="#73C4FF" fill-opacity="0.7"/>
<rect x="11.3108" y="16.3114" width="5.65586" height="5.65586" rx="2.82793" fill="#236DF8"/>
</svg>
