<svg width="182" height="145" viewBox="0 0 182 145" fill="none" xmlns="http://www.w3.org/2000/svg">
<mask id="path-1-inside-1_1159_4049" fill="white">
<path d="M41.6195 71.7534L42.4692 72.7345L41.8761 73.4113L40.4801 72.4566L41.6195 71.7534ZM27.4462 71.1863L27.7345 71.638L25.9454 72.9597L26.1937 71.6908L27.4462 71.1863ZM52.6327 67.5675L53.1541 68.3596L51.1567 68.9336L51.365 68.0455L52.6327 67.5675ZM10.7389 44.9328L12.2948 45.4747L12.3748 46.2627L11.1472 46.5949L11.1955 47.0924L10.1609 46.2697L11.0189 45.9542L10.7389 44.9328ZM11.6286 43.0232L12.4631 43.6625L12.4466 44.495L11.2989 43.7153L11.0175 43.0858L11.6286 43.0232ZM8.27389 39.6795L8.90979 40.4508L8.58839 42.1241L7.85041 41.6502L7.95525 40.5286L6.79241 41.5807L6.53584 41.2041L8.27389 39.6795ZM8.54149 36.0064L8.51666 37.1293L7.04898 38.8206L7.19382 37.26L8.54149 36.0064ZM7.79386 35.1212L8.09043 35.8744L7.33728 36.3302L7.16899 35.3922L7.79386 35.1212ZM4.9716 29.426L6.11099 30.0667L6.92897 29.7498L5.89442 34.19L3.71221 36.4359L2.5411 36.1648L3.07079 35.9022L2.50937 35.3574L1.61138 35.709L1.8445 36.201L1.01134 36.2275L1.14791 35.6924L0.336818 36.0162L0.000244141 35.1378L0.529934 34.4027L2.40592 34.3402L4.13845 31.9971L4.9716 29.426ZM3.84601 29.6233L3.98533 31.6635L2.70801 32.5821L2.69973 29.8929L3.84601 29.6233ZM8.95807 28.6088L9.54432 31.0228L7.25037 31.505L7.80351 30.4086L7.55384 29.3815L8.95807 28.6088ZM5.74407 27.6068L6.53446 27.6277L6.93725 29.2578L5.22679 29.1425L5.0254 28.4184L5.74407 27.6068ZM7.38142 25.311L7.38556 27.3609L5.51647 27.1663L4.73021 28.1335L4.81297 26.5659L7.38142 25.311ZM9.99814 25.2345L10.6437 25.8919L11.4148 26.0823L9.55259 27.8L8.79806 27.4915L8.87669 26.8036L10.1457 25.8655L9.99814 25.2345ZM8.54149 23.4918L9.5926 25.6543L7.42694 28.0557L8.1594 25.4361L7.78558 24.9149L6.98553 25.2248L7.55522 23.8629L8.54149 23.4918ZM7.04071 23.4042L6.46274 25.3207L4.5771 26.3852L4.37019 28.9771L3.88877 29.3634L3.39219 28.8103L2.29281 29.8124L2.32453 33.0074L1.50655 33.3506L0.183704 31.7691L1.38792 30.3835L0.76995 28.4948L1.3962 28.4518L2.62248 25.9559L4.28328 25.8683L5.01299 23.9699L6.05581 24.3562L7.04071 23.4042ZM84.3409 1.64506L89.8447 3.97007L91.3828 2.51919L92.3083 3.52259L95.3472 1.86186L99.0522 1.96335L100.35 3.15437L104.319 1.96752L104.688 3.51711L106.035 4.07855L106.558 1.81884L107.817 2.06758L108.512 3.36005L111.639 0.843262L112.586 1.12257L112.576 2.53316L114.9 3.75058L116.206 3.8117L116.765 3.16544L119.222 3.92982L120.341 3.63519L119.538 4.63021L118.187 4.21195L117.371 4.84288L118.645 6.17008L120.459 5.72256L121.279 7.375L122.901 7.25553L122.732 8.64663L123.541 10.3435L124.784 10.2559L124.577 8.97178L125.848 7.17348L127.116 8.26583L130.256 8.75221L130.147 9.95851L131.275 11.8013L135.19 11.6568L136.801 12.9103L138.751 11.7151L137.939 11.0884L139.008 8.32696L139.368 7.95175L140.473 8.49791L141.724 7.55984L142.127 9.73477L141.452 10.7479L143.908 12.139L145.091 11.3538L145.683 11.6943L145.094 12.6616L144.571 12.3642L144.215 13.6997L143.185 13.4968L141.386 17.3964L142.295 18.8668L145.461 20.1467L144.742 21.6282L146.097 22.9193L147.402 22.3912L148.599 20.9236L148.676 19.6117L149.782 19.1975L149.671 20.4705L150.945 21.6407L150.694 23.5585L151.261 25.4402L149.454 27.6291L149.471 29.9833L149.853 30.6407L151.14 30.2404L152.838 32.464L153.682 32.6419L153.825 35.3755L155.667 34.1581L158.078 35.1823L157.395 37.5449L158.011 38.9305L157.27 40.562L157.86 40.9387L159.332 40.4564L159.965 41.817L161.08 40.3688L161.609 41.1249L163.026 40.7427L164.821 44.1962L166.109 44.0601L166.352 43.0483L167.037 42.9344L167.608 44.1796L168.817 44.3464L169.159 45.4887L170.81 45.4984L171.737 46.328L171.543 49.1798L173.159 50.0178L173.867 48.7656L174.979 48.8852L176.195 51.0727L176.032 51.8176L177.194 52.8335L178.58 55.4309L177.739 55.9132L178.328 56.9068L179.435 57.9658L180.91 57.1917L181.702 59.2458L179.513 63.2593L178.966 65.993L175.536 65.9541L172.3 69.944L169.8 68.8961L168.873 70.2275L169.112 70.7779L170.334 70.2247L170.127 71.5672L170.856 71.4977L171.424 72.9694L172.038 71.8465L172.525 72.6151L173.264 72.2398L173.384 71.1836L173.783 72.458L175.209 72.5845L176.369 73.7922L175.323 73.6185L174.43 74.9179L173.845 74.633L173.391 76.0616L171.751 75.7378L171.107 74.5079L169.952 74.8651L169.581 77.1943L170.518 78.509L170.061 79.1886L171.418 79.4693L171.635 83.0673L172.34 82.8241L173.092 83.4147L170.694 85.6342L172.315 86.5403L172.089 87.5506L162.401 91.6254L163.396 92.6426L162.999 93.5085L164.88 95.4569L164.57 97.1746L161.739 97.7972L162.804 98.6297L163.852 101.818L169.887 99.836L173.253 99.8332L173.886 100.714L174.747 100.129L175.671 100.579L176.699 99.6594L177.359 100.407L177.333 101.819L175.079 102.841L174.483 102.321L174.297 102.96L171.592 102.82L171.017 103.302L169.81 102.249L169.272 104.189L166.967 105.039L166.509 104.72L166.384 107.976L164.752 109.065L163.023 108.91L162.746 111.874L160.409 112.023L160.266 112.918L158.667 112.487L157.371 113.091L156.7 111.745L155.981 111.999L158.051 113.845L160.725 113.668L160.425 115.483L161.368 116.88L162.317 116.503L162.568 117.326L165.168 117.725L164.839 119.057L166.284 122.154L166.413 125.181L165.585 125.762L164.566 125.573L163.931 126.664L162.749 126.679L163.404 127.506L163.2 129.093L160.598 130.588L159.236 130.248L158.361 130.742L157.382 130.22L156.53 128.456L154.541 127.296L153.388 127.927L152.932 125.956L152.097 126.165L151.7 127.574L150.625 128.262L151.712 129.729L152.881 130.085L152.91 131.33L153.456 131.425L151.406 135.311L150.297 136.057L151.224 137.233L151.412 141.73L149.806 142.148L149.611 141.51L149.185 141.969L147.981 141.701L147.344 143.477L145.243 144.324L144.655 143.773L145.589 142.534L145.058 142.002L143.205 141.706L143.331 142.758L142.605 143.256L141.696 142.725L141.378 143.258L141.216 141.002L142.187 140.931L143.567 139.131L144.164 139.255L143.659 138.308L142.258 138.685L142.099 136.966L141.623 138.011L140.456 138.13L140.274 139.111L139.572 138.303L139.591 139.118L138.724 139.082L138.54 139.712L137.441 139.042L136.823 139.496L138.146 141.542L135.376 141.127L134.224 142.361L134.245 143.628L133.283 143.51L133.278 144.234L131.424 143.878L131.945 139.084L133.846 136.649L135.674 132.656L136.044 129.979L132.995 120.41L133.043 118.905L132.417 119.206L131.006 115.686L132.369 115.136L130.485 114.912L130.934 112.768L129.385 112.39L129.154 114.481L128.239 114.86L127.982 110.304L127.1 108.176L128.184 105.371L130.245 102.791L128.752 103.748L129.585 101.055L130.476 100.692L129.85 100.356L128.189 101.928L127.371 100.061L128.262 98.0571L130.363 96.9773L132.859 97.176L134.238 96.4687L132.641 96.6146L131.381 95.7932L125.646 96.5784L124.771 95.4291L125.726 94.3576L126.575 91.6059L125.076 90.5678L124.628 87.5201L125.935 81.4164L126.922 79.8543L128.816 79.3428L131.896 80.7132L133.475 78.4395L135.473 79.133L136.179 78.8036L136.532 77.4417L136.002 78.4242L135.153 78.5438L134.486 77.3028L131.839 78.908L129.987 78.6731L128.439 77.2333L125.752 78.5272L125.639 77.5724L124.155 79.9586L124.348 78.7162L123.715 78.6647L122.687 76.7052L121.474 76.1395L122.03 74.9152L121.076 74.073L120.546 74.508L121.509 75.1737L120.898 76.3508L122.07 76.8191L122.15 79.0149L121.662 79.8835L120.41 77.6447L120.578 79.7098L121.421 80.8647L120.979 81.4359L120.392 80.3936L120.041 82.2183L119.472 82.0529L118.164 88.2331L117.098 84.5655L118.389 83.804L118.717 84.1417L118.765 82.72L116.896 84.3849L116.84 85.5634L116.463 87.73L117.401 89.2462L117.761 94.2048L118.957 97.6889L116.568 103.588L113.761 106.928L113.271 108.429L112.325 107.816L112.935 108.644L112.493 109.584L113.409 111.11L110.65 112.419L110.345 113.091L110.434 111.438L109.454 113.453L104.923 114.968L104.258 115.433L104.546 116.028L101.899 116.57L97.5832 118.756L96.1169 118.807L96.1486 119.608L93.9664 121.233L92.1621 121.102L92.3553 121.627L87.286 123.33L85.7452 124.061L85.5686 124.704H83.8844L83.4912 125.349L80.1227 125.22L78.0302 126.186L77.0453 124.825L76.7694 124.504L77.4177 124.487L77.4205 123.546L78.1847 123.557L78.2523 122.625L75.9638 121.808L78.3695 120.739L77.986 118.898L76.8025 118.114L74.6382 118.411L73.7899 117.509L71.9815 122.03L71.8298 124.525L70.1207 124.326L65.0514 121.763L55.2508 113.961L44.0845 100.784L45.5605 99.2467L44.799 97.0078L44.4225 97.5693L43.0113 97.3706L44.2142 98.5101L43.581 98.7951L44.4073 99.469L43.861 100.472L30.2022 87.9036L22.2693 78.6952L21.6513 76.3674L23.0555 73.1696L25.4447 71.11L25.9592 71.3713L24.7646 72.5956L25.486 73.7436L29.1042 72.8736L29.4008 73.5601L28.0614 76.341L30.2188 78.0601L32.7376 77.0178L33.139 75.8115L35.6095 76.2534L37.5103 75.6197L38.6262 74.0118L37.8882 72.5011L39.3973 73.4642L39.7256 75.0013L42.4044 74.897L42.6775 73.8116L43.6872 73.7505L43.6555 72.2732L42.9024 72.03L44.5301 71.3073L45.0032 72.6554L45.4363 72.3163L46.5343 73.6199L47.6489 71.9257L48.6283 72.1606L50.387 70.2192L51.1457 70.6305L51.0105 69.559L53.5031 68.5167L54.2576 69.0212L57.0812 68.8739L59.3917 65.3926L59.68 63.1704L61.1311 62.413L62.5919 58.865L64.5976 56.9277L66.6281 52.4402L65.0073 52.8418L63.9727 53.8383L63.5479 56.4287L62.4167 56.9874L59.24 55.442L58.7351 56.1592L57.0509 56.6039L55.9363 56.0368L56.1929 57.1709L46.5592 59.4917L45.2363 60.459L43.8886 62.9508L42.0761 62.1586L40.8567 62.3671L39.5173 61.3206L37.142 61.9141L33.7583 60.1797L29.2022 59.8739L18.149 52.6834L16.5531 52.2734L11.7086 48.0708L11.5072 47.476L14.026 46.3114L13.128 46.4171L13.0149 43.8878L12.1238 42.8121L10.7678 42.637L10.8078 41.6044L10.0947 41.5433L9.13188 40.1244L8.73875 34.8837L9.07532 34.111L9.65329 34.1902L9.7733 33.0506L12.8935 30.9173L13.8632 29.3205L15.9089 28.2045L15.324 27.7654L12.0921 28.3797L9.82158 30.9354L9.50018 28.8021L10.4064 28.4589L11.161 27.0357L13.7763 25.8573L12.5514 25.9796L11.8341 25.1013L11.6176 25.717L10.7582 25.6641L10.1375 24.9248L10.4092 24.4245L16.2551 24.4606L16.931 13.9333L18.4828 13.4803L19.0994 16.6544L20.2485 17.0519L21.9727 14.4878L23.5121 16.0985L26.1799 14.7283L29.2642 15.8025L32.4548 14.4864L37.9669 15.1744L40.8402 14.4503L44.4183 17.7107L52.3899 17.9858L54.0838 17.1478L55.808 14.0417L68.9703 9.9253L70.0379 10.5535L68.8903 12.3337L69.3331 13.4247L68.9537 15.2592L71.2932 16.1235L75.6383 16.2L78.1902 15.109L77.9309 14.0403L80.0855 12.2781L81.2028 11.8237L82.6112 12.2447L85.0541 10.5146L84.683 9.58478L81.4759 9.23736L81.6911 6.6677L81.1987 6.07848L81.8401 3.24063L84.3409 1.64506Z"/>
</mask>
<path d="M41.6195 71.7534L42.4692 72.7345L41.8761 73.4113L40.4801 72.4566L41.6195 71.7534ZM27.4462 71.1863L27.7345 71.638L25.9454 72.9597L26.1937 71.6908L27.4462 71.1863ZM52.6327 67.5675L53.1541 68.3596L51.1567 68.9336L51.365 68.0455L52.6327 67.5675ZM10.7389 44.9328L12.2948 45.4747L12.3748 46.2627L11.1472 46.5949L11.1955 47.0924L10.1609 46.2697L11.0189 45.9542L10.7389 44.9328ZM11.6286 43.0232L12.4631 43.6625L12.4466 44.495L11.2989 43.7153L11.0175 43.0858L11.6286 43.0232ZM8.27389 39.6795L8.90979 40.4508L8.58839 42.1241L7.85041 41.6502L7.95525 40.5286L6.79241 41.5807L6.53584 41.2041L8.27389 39.6795ZM8.54149 36.0064L8.51666 37.1293L7.04898 38.8206L7.19382 37.26L8.54149 36.0064ZM7.79386 35.1212L8.09043 35.8744L7.33728 36.3302L7.16899 35.3922L7.79386 35.1212ZM4.9716 29.426L6.11099 30.0667L6.92897 29.7498L5.89442 34.19L3.71221 36.4359L2.5411 36.1648L3.07079 35.9022L2.50937 35.3574L1.61138 35.709L1.8445 36.201L1.01134 36.2275L1.14791 35.6924L0.336818 36.0162L0.000244141 35.1378L0.529934 34.4027L2.40592 34.3402L4.13845 31.9971L4.9716 29.426ZM3.84601 29.6233L3.98533 31.6635L2.70801 32.5821L2.69973 29.8929L3.84601 29.6233ZM8.95807 28.6088L9.54432 31.0228L7.25037 31.505L7.80351 30.4086L7.55384 29.3815L8.95807 28.6088ZM5.74407 27.6068L6.53446 27.6277L6.93725 29.2578L5.22679 29.1425L5.0254 28.4184L5.74407 27.6068ZM7.38142 25.311L7.38556 27.3609L5.51647 27.1663L4.73021 28.1335L4.81297 26.5659L7.38142 25.311ZM9.99814 25.2345L10.6437 25.8919L11.4148 26.0823L9.55259 27.8L8.79806 27.4915L8.87669 26.8036L10.1457 25.8655L9.99814 25.2345ZM8.54149 23.4918L9.5926 25.6543L7.42694 28.0557L8.1594 25.4361L7.78558 24.9149L6.98553 25.2248L7.55522 23.8629L8.54149 23.4918ZM7.04071 23.4042L6.46274 25.3207L4.5771 26.3852L4.37019 28.9771L3.88877 29.3634L3.39219 28.8103L2.29281 29.8124L2.32453 33.0074L1.50655 33.3506L0.183704 31.7691L1.38792 30.3835L0.76995 28.4948L1.3962 28.4518L2.62248 25.9559L4.28328 25.8683L5.01299 23.9699L6.05581 24.3562L7.04071 23.4042ZM84.3409 1.64506L89.8447 3.97007L91.3828 2.51919L92.3083 3.52259L95.3472 1.86186L99.0522 1.96335L100.35 3.15437L104.319 1.96752L104.688 3.51711L106.035 4.07855L106.558 1.81884L107.817 2.06758L108.512 3.36005L111.639 0.843262L112.586 1.12257L112.576 2.53316L114.9 3.75058L116.206 3.8117L116.765 3.16544L119.222 3.92982L120.341 3.63519L119.538 4.63021L118.187 4.21195L117.371 4.84288L118.645 6.17008L120.459 5.72256L121.279 7.375L122.901 7.25553L122.732 8.64663L123.541 10.3435L124.784 10.2559L124.577 8.97178L125.848 7.17348L127.116 8.26583L130.256 8.75221L130.147 9.95851L131.275 11.8013L135.19 11.6568L136.801 12.9103L138.751 11.7151L137.939 11.0884L139.008 8.32696L139.368 7.95175L140.473 8.49791L141.724 7.55984L142.127 9.73477L141.452 10.7479L143.908 12.139L145.091 11.3538L145.683 11.6943L145.094 12.6616L144.571 12.3642L144.215 13.6997L143.185 13.4968L141.386 17.3964L142.295 18.8668L145.461 20.1467L144.742 21.6282L146.097 22.9193L147.402 22.3912L148.599 20.9236L148.676 19.6117L149.782 19.1975L149.671 20.4705L150.945 21.6407L150.694 23.5585L151.261 25.4402L149.454 27.6291L149.471 29.9833L149.853 30.6407L151.14 30.2404L152.838 32.464L153.682 32.6419L153.825 35.3755L155.667 34.1581L158.078 35.1823L157.395 37.5449L158.011 38.9305L157.27 40.562L157.86 40.9387L159.332 40.4564L159.965 41.817L161.08 40.3688L161.609 41.1249L163.026 40.7427L164.821 44.1962L166.109 44.0601L166.352 43.0483L167.037 42.9344L167.608 44.1796L168.817 44.3464L169.159 45.4887L170.81 45.4984L171.737 46.328L171.543 49.1798L173.159 50.0178L173.867 48.7656L174.979 48.8852L176.195 51.0727L176.032 51.8176L177.194 52.8335L178.58 55.4309L177.739 55.9132L178.328 56.9068L179.435 57.9658L180.91 57.1917L181.702 59.2458L179.513 63.2593L178.966 65.993L175.536 65.9541L172.3 69.944L169.8 68.8961L168.873 70.2275L169.112 70.7779L170.334 70.2247L170.127 71.5672L170.856 71.4977L171.424 72.9694L172.038 71.8465L172.525 72.6151L173.264 72.2398L173.384 71.1836L173.783 72.458L175.209 72.5845L176.369 73.7922L175.323 73.6185L174.43 74.9179L173.845 74.633L173.391 76.0616L171.751 75.7378L171.107 74.5079L169.952 74.8651L169.581 77.1943L170.518 78.509L170.061 79.1886L171.418 79.4693L171.635 83.0673L172.34 82.8241L173.092 83.4147L170.694 85.6342L172.315 86.5403L172.089 87.5506L162.401 91.6254L163.396 92.6426L162.999 93.5085L164.88 95.4569L164.57 97.1746L161.739 97.7972L162.804 98.6297L163.852 101.818L169.887 99.836L173.253 99.8332L173.886 100.714L174.747 100.129L175.671 100.579L176.699 99.6594L177.359 100.407L177.333 101.819L175.079 102.841L174.483 102.321L174.297 102.96L171.592 102.82L171.017 103.302L169.81 102.249L169.272 104.189L166.967 105.039L166.509 104.72L166.384 107.976L164.752 109.065L163.023 108.91L162.746 111.874L160.409 112.023L160.266 112.918L158.667 112.487L157.371 113.091L156.7 111.745L155.981 111.999L158.051 113.845L160.725 113.668L160.425 115.483L161.368 116.88L162.317 116.503L162.568 117.326L165.168 117.725L164.839 119.057L166.284 122.154L166.413 125.181L165.585 125.762L164.566 125.573L163.931 126.664L162.749 126.679L163.404 127.506L163.2 129.093L160.598 130.588L159.236 130.248L158.361 130.742L157.382 130.22L156.53 128.456L154.541 127.296L153.388 127.927L152.932 125.956L152.097 126.165L151.7 127.574L150.625 128.262L151.712 129.729L152.881 130.085L152.91 131.33L153.456 131.425L151.406 135.311L150.297 136.057L151.224 137.233L151.412 141.73L149.806 142.148L149.611 141.51L149.185 141.969L147.981 141.701L147.344 143.477L145.243 144.324L144.655 143.773L145.589 142.534L145.058 142.002L143.205 141.706L143.331 142.758L142.605 143.256L141.696 142.725L141.378 143.258L141.216 141.002L142.187 140.931L143.567 139.131L144.164 139.255L143.659 138.308L142.258 138.685L142.099 136.966L141.623 138.011L140.456 138.13L140.274 139.111L139.572 138.303L139.591 139.118L138.724 139.082L138.54 139.712L137.441 139.042L136.823 139.496L138.146 141.542L135.376 141.127L134.224 142.361L134.245 143.628L133.283 143.51L133.278 144.234L131.424 143.878L131.945 139.084L133.846 136.649L135.674 132.656L136.044 129.979L132.995 120.41L133.043 118.905L132.417 119.206L131.006 115.686L132.369 115.136L130.485 114.912L130.934 112.768L129.385 112.39L129.154 114.481L128.239 114.86L127.982 110.304L127.1 108.176L128.184 105.371L130.245 102.791L128.752 103.748L129.585 101.055L130.476 100.692L129.85 100.356L128.189 101.928L127.371 100.061L128.262 98.0571L130.363 96.9773L132.859 97.176L134.238 96.4687L132.641 96.6146L131.381 95.7932L125.646 96.5784L124.771 95.4291L125.726 94.3576L126.575 91.6059L125.076 90.5678L124.628 87.5201L125.935 81.4164L126.922 79.8543L128.816 79.3428L131.896 80.7132L133.475 78.4395L135.473 79.133L136.179 78.8036L136.532 77.4417L136.002 78.4242L135.153 78.5438L134.486 77.3028L131.839 78.908L129.987 78.6731L128.439 77.2333L125.752 78.5272L125.639 77.5724L124.155 79.9586L124.348 78.7162L123.715 78.6647L122.687 76.7052L121.474 76.1395L122.03 74.9152L121.076 74.073L120.546 74.508L121.509 75.1737L120.898 76.3508L122.07 76.8191L122.15 79.0149L121.662 79.8835L120.41 77.6447L120.578 79.7098L121.421 80.8647L120.979 81.4359L120.392 80.3936L120.041 82.2183L119.472 82.0529L118.164 88.2331L117.098 84.5655L118.389 83.804L118.717 84.1417L118.765 82.72L116.896 84.3849L116.84 85.5634L116.463 87.73L117.401 89.2462L117.761 94.2048L118.957 97.6889L116.568 103.588L113.761 106.928L113.271 108.429L112.325 107.816L112.935 108.644L112.493 109.584L113.409 111.11L110.65 112.419L110.345 113.091L110.434 111.438L109.454 113.453L104.923 114.968L104.258 115.433L104.546 116.028L101.899 116.57L97.5832 118.756L96.1169 118.807L96.1486 119.608L93.9664 121.233L92.1621 121.102L92.3553 121.627L87.286 123.33L85.7452 124.061L85.5686 124.704H83.8844L83.4912 125.349L80.1227 125.22L78.0302 126.186L77.0453 124.825L76.7694 124.504L77.4177 124.487L77.4205 123.546L78.1847 123.557L78.2523 122.625L75.9638 121.808L78.3695 120.739L77.986 118.898L76.8025 118.114L74.6382 118.411L73.7899 117.509L71.9815 122.03L71.8298 124.525L70.1207 124.326L65.0514 121.763L55.2508 113.961L44.0845 100.784L45.5605 99.2467L44.799 97.0078L44.4225 97.5693L43.0113 97.3706L44.2142 98.5101L43.581 98.7951L44.4073 99.469L43.861 100.472L30.2022 87.9036L22.2693 78.6952L21.6513 76.3674L23.0555 73.1696L25.4447 71.11L25.9592 71.3713L24.7646 72.5956L25.486 73.7436L29.1042 72.8736L29.4008 73.5601L28.0614 76.341L30.2188 78.0601L32.7376 77.0178L33.139 75.8115L35.6095 76.2534L37.5103 75.6197L38.6262 74.0118L37.8882 72.5011L39.3973 73.4642L39.7256 75.0013L42.4044 74.897L42.6775 73.8116L43.6872 73.7505L43.6555 72.2732L42.9024 72.03L44.5301 71.3073L45.0032 72.6554L45.4363 72.3163L46.5343 73.6199L47.6489 71.9257L48.6283 72.1606L50.387 70.2192L51.1457 70.6305L51.0105 69.559L53.5031 68.5167L54.2576 69.0212L57.0812 68.8739L59.3917 65.3926L59.68 63.1704L61.1311 62.413L62.5919 58.865L64.5976 56.9277L66.6281 52.4402L65.0073 52.8418L63.9727 53.8383L63.5479 56.4287L62.4167 56.9874L59.24 55.442L58.7351 56.1592L57.0509 56.6039L55.9363 56.0368L56.1929 57.1709L46.5592 59.4917L45.2363 60.459L43.8886 62.9508L42.0761 62.1586L40.8567 62.3671L39.5173 61.3206L37.142 61.9141L33.7583 60.1797L29.2022 59.8739L18.149 52.6834L16.5531 52.2734L11.7086 48.0708L11.5072 47.476L14.026 46.3114L13.128 46.4171L13.0149 43.8878L12.1238 42.8121L10.7678 42.637L10.8078 41.6044L10.0947 41.5433L9.13188 40.1244L8.73875 34.8837L9.07532 34.111L9.65329 34.1902L9.7733 33.0506L12.8935 30.9173L13.8632 29.3205L15.9089 28.2045L15.324 27.7654L12.0921 28.3797L9.82158 30.9354L9.50018 28.8021L10.4064 28.4589L11.161 27.0357L13.7763 25.8573L12.5514 25.9796L11.8341 25.1013L11.6176 25.717L10.7582 25.6641L10.1375 24.9248L10.4092 24.4245L16.2551 24.4606L16.931 13.9333L18.4828 13.4803L19.0994 16.6544L20.2485 17.0519L21.9727 14.4878L23.5121 16.0985L26.1799 14.7283L29.2642 15.8025L32.4548 14.4864L37.9669 15.1744L40.8402 14.4503L44.4183 17.7107L52.3899 17.9858L54.0838 17.1478L55.808 14.0417L68.9703 9.9253L70.0379 10.5535L68.8903 12.3337L69.3331 13.4247L68.9537 15.2592L71.2932 16.1235L75.6383 16.2L78.1902 15.109L77.9309 14.0403L80.0855 12.2781L81.2028 11.8237L82.6112 12.2447L85.0541 10.5146L84.683 9.58478L81.4759 9.23736L81.6911 6.6677L81.1987 6.07848L81.8401 3.24063L84.3409 1.64506Z" fill="#D0D5DD" stroke="white" stroke-width="1.3794" mask="url(#path-1-inside-1_1159_4049)"/>
<g opacity="0.1">
<rect x="84.9993" y="46" width="28.2793" height="28.2793" rx="14.1396" fill="#236DF8"/>
</g>
<rect x="90.655" y="51.6543" width="16.9676" height="16.9676" rx="8.48379" fill="#73C4FF" fill-opacity="0.7"/>
<rect x="96.3108" y="57.3114" width="5.65586" height="5.65586" rx="2.82793" fill="#236DF8"/>
</svg>
