<svg width="100" height="99" viewBox="0 0 100 99" fill="none" xmlns="http://www.w3.org/2000/svg">
<mask id="path-1-inside-1_1159_4053" fill="white">
<path d="M8.94451 23.9754L10.4191 21.6545L9.63833 20.0257L10.0977 17.7521L8.98037 15.8037L6.69608 13.8567L7.07955 11.8012L8.78726 11.7873L11.0591 13.341L14.9987 10.4559L15.3297 9.21211L19.4776 8.2532L20.566 5.78639L23.9345 2.92631L26.1691 3.16117L28.4341 2.13555L29.4272 2.22728L30.7294 3.76294L33.7006 3.17785L34.4358 0.752759L35.0979 0.537354L35.8056 1.19609L36.5435 0.859767L35.8249 3.9992L37.0084 5.49874L37.9547 5.43198L39.1189 8.21564L41.4556 9.73878L42.5205 9.38996L43.664 10.2975L45.4393 10.0529L45.7221 12.3459L46.5208 11.7553L48.0919 12.981L48.3981 14.0303L48.9595 13.644L50.3127 14.4139L50.9679 15.591L51.7942 15.4048L52.6894 13.3271L54.6454 14.1484L55.4924 13.2937L56.5035 13.2645L58.3615 11.3189L60.3658 10.7796L60.7093 9.86102L62.0735 10.3516L64.3178 12.6419L63.4874 14.0414L65.9758 15.2963L66.9372 17.1224L67.9249 17.4448L67.5828 19.9547L69.8726 23.6195L71.4093 23.4332L71.3555 21.9323L72.2631 22.3228L73.0728 21.0206L73.8839 21.7002L74.7805 20.4397L76.5255 20.7775L78.916 19.2765L78.6828 18.4163L81.0996 17.5894L80.8623 20.6815L81.603 22.3576L78.9422 23.9294L79.0153 25.5873L78.418 26.3197L79.3395 27.419L81.4196 25.5734L82.2376 26.1891L83.2266 26.6644L83.0266 28.0889L85.3564 29.3883L83.777 31.6605L83.8363 33.9967L83.0583 35.2836L85.9523 35.1626L87.4972 36.2341L86.9593 38.2881L87.6255 39.5389L89.0835 40.0489L91.4961 43.4468L92.6396 43.7151L90.3388 50.7555L91.3016 51.7589L90.9168 52.5288L91.5816 54.2062L92.8893 54.2799L94.3749 56.8162L90.7816 60.1071L91.0685 61.2439L92.001 61.0493L93.3459 62.3348L92.7969 64.0831L94.2632 64.7599L94.3142 66.4915L96.564 68.8972L96.8165 70.0493L98.52 71.6419L99.1532 73.7655L95.5378 74.0365L94.0176 72.6884L93.3335 70.7302L89.078 71.0819L88.6959 70.1605L87.5676 69.6699L85.8847 70.6747L83.9508 70.7747L83.2004 69.4044L82.4886 68.8749L81.8555 69.2835L80.6651 67.8242L78.9918 67.9146L78.8484 68.665L78.1449 68.4858L77.0924 69.7157L74.644 69.8324L72.9101 71.2124L71.241 71.3986L70.7872 72.4256L69.0698 71.6196L67.1276 72.434L65.8379 74.9161L64.6185 75.5651L65.3316 77.3884L64.4971 78.6823L65.0958 79.2298L63.5577 78.4391L62.7122 79.0283L63.0308 80.286L64.475 80.2346L64.2943 82.4359L62.9991 81.673L62.9963 83.4046L61.3755 85.4656L62.8998 87.4196L62.6777 88.2548L63.9964 88.9983L64.0819 90.4923L62.5659 91.1983L63.4998 92.3879L64.6957 92.3615L64.9082 93.3899L64.5785 94.1223L61.1093 96.1263L58.2801 96.8462L57.7587 97.712L58.1008 98.3833L57.1766 97.9552L56.2221 96.2236L55.5586 97.4396L53.5254 97.58L54.5916 96.5071L54.5103 95.6733L53.0688 97.2326L51.4935 95.7845L50.4727 96.0624L48.7705 95.0284L47.3512 95.166L46.8532 93.6345L45.2848 93.1105L44.7206 92.2433L46.0476 91.158L45.8835 88.0977L43.7192 86.2716L42.4736 85.9117L41.8791 86.3578L41.1714 85.1835L41.4418 83.9285L40.8983 84.451L40.1659 84.0327L38.6747 81.1324L37.2402 82.0273L36.1808 81.1727L36.0194 80.0136L34.8552 80.8224L33.2013 78.8976L30.2411 77.5204L29.9211 75.8541L30.6935 73.9376L29.641 73.347L29.6727 71.482L30.9735 70.4619L30.7004 69.9838L29.39 70.348L29.9969 69.1778L29.0989 68.1883L28.0727 69.0277L28.1361 68.0591L27.5857 68.7914L27.4754 68.0882L26.7333 68.4162L26.1029 67.1696L25.0738 68.0966L25.569 67.3114L23.5758 64.4249L23.111 62.7224L22.9965 63.5952L21.7453 64.0441L22.3468 65.7188L21.1715 66.0842L21.1743 66.8639L17.6154 67.2864L17.4264 66.1106L16.5243 65.4213L17.0581 63.6494L12.7048 55.7515L10.368 49.9438L11.8012 50.0341L9.57902 45.4216L6.39537 43.9012L3.6683 41.6081L2.49995 41.0731L1.03226 41.4539L0.461182 40.9188L2.85998 38.081L1.65852 37.3805L1.7261 35.6864L5.01321 34.3481L8.11686 30.732L10.6674 29.4465L8.32239 26.321L8.94451 23.9754Z"/>
</mask>
<path d="M8.94451 23.9754L10.4191 21.6545L9.63833 20.0257L10.0977 17.7521L8.98037 15.8037L6.69608 13.8567L7.07955 11.8012L8.78726 11.7873L11.0591 13.341L14.9987 10.4559L15.3297 9.21211L19.4776 8.2532L20.566 5.78639L23.9345 2.92631L26.1691 3.16117L28.4341 2.13555L29.4272 2.22728L30.7294 3.76294L33.7006 3.17785L34.4358 0.752759L35.0979 0.537354L35.8056 1.19609L36.5435 0.859767L35.8249 3.9992L37.0084 5.49874L37.9547 5.43198L39.1189 8.21564L41.4556 9.73878L42.5205 9.38996L43.664 10.2975L45.4393 10.0529L45.7221 12.3459L46.5208 11.7553L48.0919 12.981L48.3981 14.0303L48.9595 13.644L50.3127 14.4139L50.9679 15.591L51.7942 15.4048L52.6894 13.3271L54.6454 14.1484L55.4924 13.2937L56.5035 13.2645L58.3615 11.3189L60.3658 10.7796L60.7093 9.86102L62.0735 10.3516L64.3178 12.6419L63.4874 14.0414L65.9758 15.2963L66.9372 17.1224L67.9249 17.4448L67.5828 19.9547L69.8726 23.6195L71.4093 23.4332L71.3555 21.9323L72.2631 22.3228L73.0728 21.0206L73.8839 21.7002L74.7805 20.4397L76.5255 20.7775L78.916 19.2765L78.6828 18.4163L81.0996 17.5894L80.8623 20.6815L81.603 22.3576L78.9422 23.9294L79.0153 25.5873L78.418 26.3197L79.3395 27.419L81.4196 25.5734L82.2376 26.1891L83.2266 26.6644L83.0266 28.0889L85.3564 29.3883L83.777 31.6605L83.8363 33.9967L83.0583 35.2836L85.9523 35.1626L87.4972 36.2341L86.9593 38.2881L87.6255 39.5389L89.0835 40.0489L91.4961 43.4468L92.6396 43.7151L90.3388 50.7555L91.3016 51.7589L90.9168 52.5288L91.5816 54.2062L92.8893 54.2799L94.3749 56.8162L90.7816 60.1071L91.0685 61.2439L92.001 61.0493L93.3459 62.3348L92.7969 64.0831L94.2632 64.7599L94.3142 66.4915L96.564 68.8972L96.8165 70.0493L98.52 71.6419L99.1532 73.7655L95.5378 74.0365L94.0176 72.6884L93.3335 70.7302L89.078 71.0819L88.6959 70.1605L87.5676 69.6699L85.8847 70.6747L83.9508 70.7747L83.2004 69.4044L82.4886 68.8749L81.8555 69.2835L80.6651 67.8242L78.9918 67.9146L78.8484 68.665L78.1449 68.4858L77.0924 69.7157L74.644 69.8324L72.9101 71.2124L71.241 71.3986L70.7872 72.4256L69.0698 71.6196L67.1276 72.434L65.8379 74.9161L64.6185 75.5651L65.3316 77.3884L64.4971 78.6823L65.0958 79.2298L63.5577 78.4391L62.7122 79.0283L63.0308 80.286L64.475 80.2346L64.2943 82.4359L62.9991 81.673L62.9963 83.4046L61.3755 85.4656L62.8998 87.4196L62.6777 88.2548L63.9964 88.9983L64.0819 90.4923L62.5659 91.1983L63.4998 92.3879L64.6957 92.3615L64.9082 93.3899L64.5785 94.1223L61.1093 96.1263L58.2801 96.8462L57.7587 97.712L58.1008 98.3833L57.1766 97.9552L56.2221 96.2236L55.5586 97.4396L53.5254 97.58L54.5916 96.5071L54.5103 95.6733L53.0688 97.2326L51.4935 95.7845L50.4727 96.0624L48.7705 95.0284L47.3512 95.166L46.8532 93.6345L45.2848 93.1105L44.7206 92.2433L46.0476 91.158L45.8835 88.0977L43.7192 86.2716L42.4736 85.9117L41.8791 86.3578L41.1714 85.1835L41.4418 83.9285L40.8983 84.451L40.1659 84.0327L38.6747 81.1324L37.2402 82.0273L36.1808 81.1727L36.0194 80.0136L34.8552 80.8224L33.2013 78.8976L30.2411 77.5204L29.9211 75.8541L30.6935 73.9376L29.641 73.347L29.6727 71.482L30.9735 70.4619L30.7004 69.9838L29.39 70.348L29.9969 69.1778L29.0989 68.1883L28.0727 69.0277L28.1361 68.0591L27.5857 68.7914L27.4754 68.0882L26.7333 68.4162L26.1029 67.1696L25.0738 68.0966L25.569 67.3114L23.5758 64.4249L23.111 62.7224L22.9965 63.5952L21.7453 64.0441L22.3468 65.7188L21.1715 66.0842L21.1743 66.8639L17.6154 67.2864L17.4264 66.1106L16.5243 65.4213L17.0581 63.6494L12.7048 55.7515L10.368 49.9438L11.8012 50.0341L9.57902 45.4216L6.39537 43.9012L3.6683 41.6081L2.49995 41.0731L1.03226 41.4539L0.461182 40.9188L2.85998 38.081L1.65852 37.3805L1.7261 35.6864L5.01321 34.3481L8.11686 30.732L10.6674 29.4465L8.32239 26.321L8.94451 23.9754Z" fill="#D0D5DD" stroke="white" stroke-width="1.3794" mask="url(#path-1-inside-1_1159_4053)"/>
<g opacity="0.1">
<rect x="36.9993" y="34" width="28.2793" height="28.2793" rx="14.1396" fill="#236DF8"/>
</g>
<rect x="42.655" y="39.6542" width="16.9676" height="16.9676" rx="8.48379" fill="#73C4FF" fill-opacity="0.7"/>
<rect x="48.3108" y="45.3115" width="5.65586" height="5.65586" rx="2.82793" fill="#236DF8"/>
</svg>
