<svg width="91" height="109" viewBox="0 0 91 109" fill="none" xmlns="http://www.w3.org/2000/svg">
<mask id="path-1-inside-1_1159_4051" fill="white">
<path d="M66.855 0.822809L68.0192 0.0139771L68.1806 1.17303L69.24 2.02772L70.6746 1.13272L72.1657 4.03311L72.8982 4.45144L73.4416 3.92888L73.1713 5.18382L73.8789 6.35815L74.4734 5.91204L75.719 6.27198L77.8833 8.09811L78.0475 11.1583L76.7205 12.2437L77.2847 13.1109L78.853 13.6348L79.351 15.1663L80.7704 15.0288L82.4726 16.0628L83.4933 15.7848L85.0686 17.2329L86.5101 15.6737L86.5915 16.5075L85.5252 17.5804L87.5584 17.44L88.2219 16.224L89.1765 17.9556L90.1007 18.3836L90.5959 18.8409L89.9696 20.8407L88.7116 21.8107L87.1667 24.9502L85.7307 25.6242L84.9928 27.2891L85.4673 27.6782L81.3084 29.6433L81.0987 31.1887L78.7041 34.3935L77.9012 38.161L76.8805 38.9088L77.6392 41.0726L75.9729 44.5761L76.6681 46.1674L75.9522 46.8122L77.5261 49.8543L77.1343 50.9008L77.7399 51.5943L76.8764 52.0293L76.966 52.9215L77.9454 53.3954L77.2391 55.4758L77.6599 56.4542L77.1164 57.0671L77.5426 58.486L77.0239 61.014L79.6848 64.3188L78.991 65.9837L79.8876 67.6875L78.7496 68.16L78.8972 68.9202L77.5205 69.7513L77.2129 68.9675L75.6901 68.3351L74.4114 69.9139L71.8346 70.4448L72.1892 74.2526L71.1187 75.8397L71.5919 76.486L69.9766 76.4874L69.309 77.9799L68.7365 78.0106L68.8124 79.1446L70.018 80.7233L72.5906 80.1146L73.661 80.5468L73.6762 79.613L74.9093 80.5204L75.5935 80.3537L76.6101 81.2237L76.9164 82.9177L78.2875 84.0351L80.449 83.3639L80.0186 82.2076L80.5069 81.5294L83.252 80.7261L87.2039 83.8697L87.7722 85.6861L86.8922 86.3532L87.8178 87.3719L87.7295 88.2391L86.9943 88.5976L89.1282 89.3203L88.3888 89.9109L88.4895 90.8295L87.6247 90.4946L87.7115 91.3771L89.1613 91.4911L87.8343 92.2054L87.7171 94.2358L87.3101 93.9092L87.0398 94.6291L87.335 96.0022L88.9558 97.6671L88.244 98.4912L89.0165 98.8331L88.4923 99.6822L87.0357 99.6474L86.7391 101.207L85.4052 100.851L85.4079 102.066L83.2989 102.049L81.4642 103.783L81.0808 103.472L80.1924 104.463L79.0972 103.28L78.3716 104.492L78.7179 103.715L77.8502 103.489L77.8737 104.266L77.1536 104.769L74.6059 103.343L74.0969 104.714L75.4445 105.184L75.788 106.012L73.3134 105.905L72.6485 108.67L71.6002 108.083L70.6884 108.624L70.0621 107.29L71.0332 107.242L70.1532 106.258L70.7215 102.93L71.3822 102.878L71.734 100.102L71.1643 99.9114L71.1505 97.5266L72.3961 92.7264L69.1834 90.0122L67.764 90.507L67.4799 92.2914L63.43 94.276L63.6851 96.8248L61.9209 97.1263L60.1663 98.4146L60.1746 96.1674L57.7275 95.8213L58.9952 95.3266L57.5785 94.3941L57.9344 93.7798L58.9993 93.9535L58.2241 92.3734L55.5039 92.921L54.3245 91.6313L52.683 91.5855L54.8929 93.2365L53.2127 94.1357L54.8639 95.0168L54.479 96.2675L53.2058 96.5983L52.7672 95.5171L51.8761 95.1238L49.7449 95.506L50.8002 96.4107L49.0994 97.4821L49.807 98.3396L49.4304 100.232L50.3601 100.758L50.2001 101.907L51.0719 102.659L49.618 103.754L47.1682 101.758L46.0592 102.432L43.5583 101.881L43.9721 100.421L42.5707 100.175L42.4189 99.6418L42.8493 99.0512L43.5611 99.5154L44.2466 97.9519L43.3666 97.4154L44.3515 97.1153L43.7583 96.4343L44.9156 96.2453L44.7791 95.6616L45.6536 95.0237L45.077 94.5359L44.1791 95.7853L44.1073 94.8194L42.7803 94.383L45.426 91.7828L46.5406 91.9454L46.5033 92.7098L47.3075 92.3582L45.9268 90.7919L46.1557 90.0915L44.9474 89.5162L45.1653 88.2279L43.3155 86.9938L42.3831 85.3372L41.4258 84.5228L37.9924 84.0628L38.2214 82.4174L33.9149 79.5072L33.5963 77.6547L31.7962 77.2461L31.0223 72.7698L30.145 71.5357L30.5726 69.9194L29.236 66.9565L30.6637 65.3305L30.5078 64.1589L28.3021 63.9685L28.1739 62.3731L26.7407 62.1883L27.1903 60.2635L26.1779 59.7938L27.3186 58.2595L27.1752 55.8372L26.0868 56.0804L25.7199 57.024L24.844 56.6988L24.9681 54.7921L22.2024 56.7322L20.9458 55.6148L18.8739 57.0045L18.0035 56.8155L16.9014 55.0005L15.4903 55.5119L14.395 55.1743L13.646 52.4281L11.1617 51.119L8.72156 52.7158L5.64826 52.1724L5.40686 53.5385L4.07711 53.6344L4.1047 52.5101L2.98049 50.6339L2.21493 50.4227L2.15147 49.6069L2.54736 49.0413L3.59018 49.3054L4.61507 47.0276L3.23292 45.8171L4.35574 39.5091L3.81365 38.9879L2.05766 39.894L0.503077 39.8051L0.308594 38.3528L2.85771 35.747L2.28388 34.5129L1.45762 34.342L1.86179 33.1524L5.55583 34.4448L5.3503 33.85L6.82073 32.2866L7.77943 32.5339L10.0085 31.5069L11.4072 32.6256L12.3273 32.3171L12.4363 33.2955L13.3163 32.9592L15.4586 36.0541L17.6408 35.2995L18.198 34.096L18.7594 35.4955L18.096 36.2904L18.8422 37.0534L18.3539 37.7149L20.1982 38.571L20.2368 37.2771L21.0148 36.6476L22.419 39.5368L21.3431 40.4318L21.3886 41.6798L20.3071 42.5137L20.7541 43.6018L22.1376 44.3843L22.2024 46.3938L24.2991 45.6642L24.5419 44.986L23.8508 44.2661L24.924 42.2482L25.8689 42.629L25.433 41.4769L26.6869 40.8946L28.578 37.676L30.5257 39.27L31.8155 39.0768L32.1727 39.8509L33.457 39.7244L33.8073 38.8308L35.8888 39.4312L36.133 37.6495L38.0297 37.0909L38.7359 37.6996L39.6877 37.5259L41.1388 39.7022L43.6107 40.2261L45.1336 39.4034L45.655 39.7161L46.8675 37.7454L47.9862 38.0581L51.6126 35.6344L49.956 34.9812L49.4263 33.6443L50.5119 33.1273L50.1381 30.712L50.8457 30.3534L50.3532 29.9921L51.9878 27.7629L50.1284 26.7456L50.745 26.7429L50.5119 25.9438L51.8775 27.2793L53.9493 27.6406L54.7011 26.9902L54.0349 26.2676L55.886 26.9944L56.2226 25.9841L55.6267 25.1294L56.4695 24.4915L57.6792 27.8922L58.7979 28.0116L59.0945 28.6982L60.6477 27.9574L61.2795 28.7482L61.9802 28.5772L62.721 27.7267L63.0741 24.3691L62.074 24.0606L62.2975 23.5311L61.4878 22.675L60.0021 23.659L60.438 22.3929L62.234 22.2025L64.1045 20.3472L65.2756 20.1137L65.9501 19.2174L65.1652 19.0325L64.8425 18.0778L66.5088 16.5588L67.9696 17.4649L68.662 16.7255L70.0428 18.3251V19.216L71.4015 18.2445L70.2897 16.4837L70.2925 15.0231L71.2001 13.8988L70.1807 13.147L71.0015 11.1527L69.4179 9.77683L69.5228 8.47604L68.731 9.2668L68.2979 8.25506L68.5393 5.62985L69.0772 4.66259L68.5269 3.31314L66.8316 1.83029L66.855 0.822809Z"/>
</mask>
<path d="M66.855 0.822809L68.0192 0.0139771L68.1806 1.17303L69.24 2.02772L70.6746 1.13272L72.1657 4.03311L72.8982 4.45144L73.4416 3.92888L73.1713 5.18382L73.8789 6.35815L74.4734 5.91204L75.719 6.27198L77.8833 8.09811L78.0475 11.1583L76.7205 12.2437L77.2847 13.1109L78.853 13.6348L79.351 15.1663L80.7704 15.0288L82.4726 16.0628L83.4933 15.7848L85.0686 17.2329L86.5101 15.6737L86.5915 16.5075L85.5252 17.5804L87.5584 17.44L88.2219 16.224L89.1765 17.9556L90.1007 18.3836L90.5959 18.8409L89.9696 20.8407L88.7116 21.8107L87.1667 24.9502L85.7307 25.6242L84.9928 27.2891L85.4673 27.6782L81.3084 29.6433L81.0987 31.1887L78.7041 34.3935L77.9012 38.161L76.8805 38.9088L77.6392 41.0726L75.9729 44.5761L76.6681 46.1674L75.9522 46.8122L77.5261 49.8543L77.1343 50.9008L77.7399 51.5943L76.8764 52.0293L76.966 52.9215L77.9454 53.3954L77.2391 55.4758L77.6599 56.4542L77.1164 57.0671L77.5426 58.486L77.0239 61.014L79.6848 64.3188L78.991 65.9837L79.8876 67.6875L78.7496 68.16L78.8972 68.9202L77.5205 69.7513L77.2129 68.9675L75.6901 68.3351L74.4114 69.9139L71.8346 70.4448L72.1892 74.2526L71.1187 75.8397L71.5919 76.486L69.9766 76.4874L69.309 77.9799L68.7365 78.0106L68.8124 79.1446L70.018 80.7233L72.5906 80.1146L73.661 80.5468L73.6762 79.613L74.9093 80.5204L75.5935 80.3537L76.6101 81.2237L76.9164 82.9177L78.2875 84.0351L80.449 83.3639L80.0186 82.2076L80.5069 81.5294L83.252 80.7261L87.2039 83.8697L87.7722 85.6861L86.8922 86.3532L87.8178 87.3719L87.7295 88.2391L86.9943 88.5976L89.1282 89.3203L88.3888 89.9109L88.4895 90.8295L87.6247 90.4946L87.7115 91.3771L89.1613 91.4911L87.8343 92.2054L87.7171 94.2358L87.3101 93.9092L87.0398 94.6291L87.335 96.0022L88.9558 97.6671L88.244 98.4912L89.0165 98.8331L88.4923 99.6822L87.0357 99.6474L86.7391 101.207L85.4052 100.851L85.4079 102.066L83.2989 102.049L81.4642 103.783L81.0808 103.472L80.1924 104.463L79.0972 103.28L78.3716 104.492L78.7179 103.715L77.8502 103.489L77.8737 104.266L77.1536 104.769L74.6059 103.343L74.0969 104.714L75.4445 105.184L75.788 106.012L73.3134 105.905L72.6485 108.67L71.6002 108.083L70.6884 108.624L70.0621 107.29L71.0332 107.242L70.1532 106.258L70.7215 102.93L71.3822 102.878L71.734 100.102L71.1643 99.9114L71.1505 97.5266L72.3961 92.7264L69.1834 90.0122L67.764 90.507L67.4799 92.2914L63.43 94.276L63.6851 96.8248L61.9209 97.1263L60.1663 98.4146L60.1746 96.1674L57.7275 95.8213L58.9952 95.3266L57.5785 94.3941L57.9344 93.7798L58.9993 93.9535L58.2241 92.3734L55.5039 92.921L54.3245 91.6313L52.683 91.5855L54.8929 93.2365L53.2127 94.1357L54.8639 95.0168L54.479 96.2675L53.2058 96.5983L52.7672 95.5171L51.8761 95.1238L49.7449 95.506L50.8002 96.4107L49.0994 97.4821L49.807 98.3396L49.4304 100.232L50.3601 100.758L50.2001 101.907L51.0719 102.659L49.618 103.754L47.1682 101.758L46.0592 102.432L43.5583 101.881L43.9721 100.421L42.5707 100.175L42.4189 99.6418L42.8493 99.0512L43.5611 99.5154L44.2466 97.9519L43.3666 97.4154L44.3515 97.1153L43.7583 96.4343L44.9156 96.2453L44.7791 95.6616L45.6536 95.0237L45.077 94.5359L44.1791 95.7853L44.1073 94.8194L42.7803 94.383L45.426 91.7828L46.5406 91.9454L46.5033 92.7098L47.3075 92.3582L45.9268 90.7919L46.1557 90.0915L44.9474 89.5162L45.1653 88.2279L43.3155 86.9938L42.3831 85.3372L41.4258 84.5228L37.9924 84.0628L38.2214 82.4174L33.9149 79.5072L33.5963 77.6547L31.7962 77.2461L31.0223 72.7698L30.145 71.5357L30.5726 69.9194L29.236 66.9565L30.6637 65.3305L30.5078 64.1589L28.3021 63.9685L28.1739 62.3731L26.7407 62.1883L27.1903 60.2635L26.1779 59.7938L27.3186 58.2595L27.1752 55.8372L26.0868 56.0804L25.7199 57.024L24.844 56.6988L24.9681 54.7921L22.2024 56.7322L20.9458 55.6148L18.8739 57.0045L18.0035 56.8155L16.9014 55.0005L15.4903 55.5119L14.395 55.1743L13.646 52.4281L11.1617 51.119L8.72156 52.7158L5.64826 52.1724L5.40686 53.5385L4.07711 53.6344L4.1047 52.5101L2.98049 50.6339L2.21493 50.4227L2.15147 49.6069L2.54736 49.0413L3.59018 49.3054L4.61507 47.0276L3.23292 45.8171L4.35574 39.5091L3.81365 38.9879L2.05766 39.894L0.503077 39.8051L0.308594 38.3528L2.85771 35.747L2.28388 34.5129L1.45762 34.342L1.86179 33.1524L5.55583 34.4448L5.3503 33.85L6.82073 32.2866L7.77943 32.5339L10.0085 31.5069L11.4072 32.6256L12.3273 32.3171L12.4363 33.2955L13.3163 32.9592L15.4586 36.0541L17.6408 35.2995L18.198 34.096L18.7594 35.4955L18.096 36.2904L18.8422 37.0534L18.3539 37.7149L20.1982 38.571L20.2368 37.2771L21.0148 36.6476L22.419 39.5368L21.3431 40.4318L21.3886 41.6798L20.3071 42.5137L20.7541 43.6018L22.1376 44.3843L22.2024 46.3938L24.2991 45.6642L24.5419 44.986L23.8508 44.2661L24.924 42.2482L25.8689 42.629L25.433 41.4769L26.6869 40.8946L28.578 37.676L30.5257 39.27L31.8155 39.0768L32.1727 39.8509L33.457 39.7244L33.8073 38.8308L35.8888 39.4312L36.133 37.6495L38.0297 37.0909L38.7359 37.6996L39.6877 37.5259L41.1388 39.7022L43.6107 40.2261L45.1336 39.4034L45.655 39.7161L46.8675 37.7454L47.9862 38.0581L51.6126 35.6344L49.956 34.9812L49.4263 33.6443L50.5119 33.1273L50.1381 30.712L50.8457 30.3534L50.3532 29.9921L51.9878 27.7629L50.1284 26.7456L50.745 26.7429L50.5119 25.9438L51.8775 27.2793L53.9493 27.6406L54.7011 26.9902L54.0349 26.2676L55.886 26.9944L56.2226 25.9841L55.6267 25.1294L56.4695 24.4915L57.6792 27.8922L58.7979 28.0116L59.0945 28.6982L60.6477 27.9574L61.2795 28.7482L61.9802 28.5772L62.721 27.7267L63.0741 24.3691L62.074 24.0606L62.2975 23.5311L61.4878 22.675L60.0021 23.659L60.438 22.3929L62.234 22.2025L64.1045 20.3472L65.2756 20.1137L65.9501 19.2174L65.1652 19.0325L64.8425 18.0778L66.5088 16.5588L67.9696 17.4649L68.662 16.7255L70.0428 18.3251V19.216L71.4015 18.2445L70.2897 16.4837L70.2925 15.0231L71.2001 13.8988L70.1807 13.147L71.0015 11.1527L69.4179 9.77683L69.5228 8.47604L68.731 9.2668L68.2979 8.25506L68.5393 5.62985L69.0772 4.66259L68.5269 3.31314L66.8316 1.83029L66.855 0.822809Z" fill="#D0D5DD" stroke="white" stroke-width="1.3794" mask="url(#path-1-inside-1_1159_4051)"/>
<g opacity="0.1">
<rect x="40.9993" y="46" width="28.2793" height="28.2793" rx="14.1396" fill="#236DF8"/>
</g>
<rect x="46.655" y="51.6542" width="16.9676" height="16.9676" rx="8.48379" fill="#73C4FF" fill-opacity="0.7"/>
<rect x="52.3108" y="57.3115" width="5.65586" height="5.65586" rx="2.82793" fill="#236DF8"/>
</svg>
