<svg width="135" height="108" viewBox="0 0 135 108" fill="none" xmlns="http://www.w3.org/2000/svg">
<mask id="path-1-inside-1_1162_4066" fill="white">
<path d="M5.13953 26.5341L11.4489 27.236L15.8189 26.3479L17.5652 25.8698L19.4053 23.0028L20.9792 23.8227L22.8 27.985L23.6718 27.2401L23.8456 26.1117L24.8056 27.0622L24.6208 25.8949L25.0664 25.635L25.9106 26.2756L26.4154 25.7031L27.0555 26.416L27.7176 25.7434L27.4044 25.3501L28.09 25.2945L29.0542 27.3068L28.1245 28.0059L28.0955 28.9565L29.1714 29.5805L28.7273 29.8265L29.3287 30.7048L30.6667 30.8993L31.8309 31.8694L31.6834 32.7518L32.7538 32.5211L33.8821 34.1583L34.8049 32.4948L34.6904 31.326L35.9664 31.0814L36.1595 30.1794L38.6369 30.7715L39.2342 28.7813L42.5944 26.4563L43.6717 27.0275L43.7241 28.9022L45.0456 28.5757L45.5615 31.458L47.5961 31.3356L48.2279 30.1835L50.0446 30.0918L50.7039 29.3038L50.3949 30.9923L51.0874 31.2328L53.3965 29.6346L52.8571 28.5742L56.6477 27.4819L56.6629 26.5452L62.553 25.7808L63.4716 26.6147L64.0068 25.3194L64.9158 25.3208L65.1545 24.1173L67.6981 24.7885L67.2608 21.442L68.6209 20.6013L69.7796 17.1227L70.9494 17.8774L73.8516 17.8343L75.9469 20.0079L78.8423 18.4958L78.5085 19.7146L79.8796 19.5562L80.9735 20.8654L81.23 24.1007L83.0108 24.6857L83.6578 23.8394L85.0068 24.9818L86.7035 24.7191L86.16 25.5404L86.4028 27.1234L85.4413 28.6007L87.509 29.1829L89.3809 31.2328L90.4389 31.5678L90.8321 29.8764L91.49 29.7778L91.9838 26.8302L93.1674 26.2798L94.7909 24.0521L96.6807 25.4654L98.5056 24.9832L99.0629 23.6407L99.8216 23.5838L100.649 24.3884L100.491 25.3404L101.55 25.2237L102.059 25.7893L102.688 25.2529L103.691 26.1631L103.314 24.6414L104.238 22.85L107.713 23.9979L109.047 17.7969L108.524 17.134L109.562 16.0736L110.617 15.9805L110.822 15.1133L110.495 10.6884L112.359 8.60378L113.491 8.08402L114.661 8.6135L115.596 4.33588L116.937 4.91264L117.57 4.19553L119.889 5.24616L119.904 3.7675L120.571 3.07679L120.161 2.03028L121.841 2.46391L122.064 0.885147L123.007 0.327881L123.782 1.51191L126.011 1.55081L126.694 3.27132L128.875 3.59794L128.999 4.41927L128.679 8.55095L131.58 10.5689L134.165 13.7111L134.363 14.7686L131.926 16.1556L132.199 17.0631L131.311 17.1118L131.57 18.0457L130.931 18.981L130.375 19.0158L130.442 18.232L129.88 18.9282L130.505 19.8135L132.268 20.343L131.858 21.855L132.632 22.3484L131.799 23.3657L132.291 23.8132L131.457 23.8715L132.531 24.4093L131.879 25.4002L130.748 25.7699L128.473 24.7929L129.539 25.9575L129.217 27.678L129.549 27.0554L130.018 27.571L128.916 30.1101L129.647 30.3616L128.095 33.6317L126.768 33.9986L125.931 35.4467L124.614 35.5718L124.67 36.5529L126.255 37.359L126.168 38.5111L122.699 38.3263L123.801 39.1726L122.693 39.8772L122.893 40.5582L120.51 39.6076L120.441 41.6116L120.998 41.9979L120.195 42.8276L118.784 42.9958L119.479 43.8477L116.554 42.968L115.725 43.3863L115.363 43.1195L115.854 42.2759L113.127 41.9535L113.807 44.3313L114.683 44.6621L114.762 46.4702L114.065 47.2804L113.424 46.2019L113.265 48.7604L112.569 48.6145L111.702 48.2963L111.907 47.8724L110.037 47.4693L111.062 48.9689L110.552 49.7652L109.842 49.7444L105.301 47.5222L104.421 48.1684L103.225 47.0594L102.653 47.6139L102.538 48.1907L101.081 49.2302L100.275 48.5951L101.052 50.8173L100.252 53.1464L98.6946 53.455L98.5084 52.9436L97.4159 52.92L94.4654 53.6593L92.6459 54.9921L90.0817 54.9713L90.0748 55.6189L88.3809 56.3999L87.7173 57.7035L87.5946 59.1738L88.1215 59.6089L86.0469 60.8373L86.4552 61.3224L86.0428 61.5837L85.422 60.918L84.4027 61.5975L83.8674 61.0903L84.2744 60.0174L83.7612 60.4496L81.5832 59.9118L81.5611 56.9225L78.7333 56.4152L77.6919 57.4311L78.7444 59.2628L75.7607 60.4941L73.5123 60.0007L73.4212 61.9005L74.3689 63.1415L73.5192 63.3222L73.8571 64.6174L72.366 66.5269L72.5177 68.6671L73.2668 68.6921L74.9262 70.7309L78.4464 70.2875L78.7664 71.3868L81.3238 72.1915L81.7142 73.5187L83.5157 75.0585L85.9931 74.3873L88.7312 75.6116L89.4002 74.9668L91.7424 75.1197L92.1728 75.8632L92.9825 75.2044L92.3494 76.5525L91.3728 76.868L90.9644 76.3913L89.8789 77.2098L90.7506 78.0506L89.8789 79.186L89.3975 81.8196L92.0087 84.1738L92.9522 83.5735L95.2227 85.0549L96.1993 88.1138L99.325 88.2194L100.442 90.5236L100.171 91.2852L98.9043 91.2477L99.3912 92.8264L101.75 93.7395L101.324 95.9756L102.971 96.9276L102.956 98.2423L100.954 98.3299L100.824 97.8726L100.766 98.6828L100.485 99.443L99.7885 99.4389L99.5306 99.5153L98.2519 99.393L96.1828 98.8315L96.0227 97.9532L94.4447 97.5321L94.0846 96.8122L92.7535 96.8012L91.8169 95.4643L90.0403 96.0132L89.894 96.6956L87.567 95.3239L85.4607 92.1928L80.4797 90.9601L78.4919 88.4961L78.016 89.8441L76.4932 90.4931L76.038 91.8662L77.6339 92.8557L77.994 94.3969L77.176 95.5504L77.9705 95.8242L77.6243 96.4329L78.6299 96.551L76.5084 98.5147L78.1526 100.331L77.3939 102.712L75.7235 105.516L74.8462 105.962L74.6489 107.155L70.4721 106.433L71.257 103.704L72.4929 103.711L71.6639 102.653L68.1837 104.592L67.1188 103.295L65.5725 103.791L64.0855 103.411L59.8935 101.162L58.9941 101.289L58.8465 102.381L57.8327 102.213L57.1705 102.771L55.1732 106.104L54.5911 104.766L53.4848 103.985L53.4379 104.609L52.9965 103.915L51.9385 104.04L51.2612 103.009L49.7728 102.657L48.5713 103.619L47.923 103.47L49.1893 102.619L50.5411 97.6141L51.8102 97.0415L51.7978 96.2994L51.0446 96.3036L51.1894 95.46L50.6432 95.2252L50.3094 91.1629L47.1947 92.4012L46.9836 92.019L45.4387 93.053L44.9394 92.2636L43.6703 92.7917L42.9544 92.151L41.3653 92.3025L41.1088 93.1544L34.8366 92.989L33.3938 93.4296L33.4214 94.1272L32.562 94.2704L31.933 95.2182L27.981 95.5781L26.7492 94.4385L25.2346 94.4982L24.0318 93.5866L23.5269 91.3977L19.7019 89.8343L19.775 88.3083L21.9503 86.2098L23.9573 86.2766L26.0002 85.1954L26.1381 83.1177L26.9699 82.2449L27.8666 82.2325L29.1439 79.2154L30.3095 79.0598L30.8626 76.7278L30.3287 75.5868L27.6734 76.0204L27.4665 75.1532L25.8981 75.5437L25.1133 74.0581L23.9021 75.9384L23.3669 72.2417L20.6026 70.4517L21.6579 64.4216L20.8826 63.0333L19.8177 63.7017L18.6425 62.8068L18.7487 60.4678L20.284 57.6647L19.8315 54.8852L17.8355 55.1979L17.7597 57.0727L13.129 55.922L11.3923 53.2995L11.8158 51.0176L10.8351 48.9343L6.95896 47.596L7.3907 46.9178L6.42788 46.48L5.38647 42.365L3.67876 41.9133L3.03595 40.6056L0.0964355 40.0483L2.35867 34.827L1.60827 33.2844L3.7877 31.6918L3.167 30.4507L2.30761 30.2965L1.76828 28.8039L2.10349 27.3558L5.13953 26.5341Z"/>
</mask>
<path d="M5.13953 26.5341L11.4489 27.236L15.8189 26.3479L17.5652 25.8698L19.4053 23.0028L20.9792 23.8227L22.8 27.985L23.6718 27.2401L23.8456 26.1117L24.8056 27.0622L24.6208 25.8949L25.0664 25.635L25.9106 26.2756L26.4154 25.7031L27.0555 26.416L27.7176 25.7434L27.4044 25.3501L28.09 25.2945L29.0542 27.3068L28.1245 28.0059L28.0955 28.9565L29.1714 29.5805L28.7273 29.8265L29.3287 30.7048L30.6667 30.8993L31.8309 31.8694L31.6834 32.7518L32.7538 32.5211L33.8821 34.1583L34.8049 32.4948L34.6904 31.326L35.9664 31.0814L36.1595 30.1794L38.6369 30.7715L39.2342 28.7813L42.5944 26.4563L43.6717 27.0275L43.7241 28.9022L45.0456 28.5757L45.5615 31.458L47.5961 31.3356L48.2279 30.1835L50.0446 30.0918L50.7039 29.3038L50.3949 30.9923L51.0874 31.2328L53.3965 29.6346L52.8571 28.5742L56.6477 27.4819L56.6629 26.5452L62.553 25.7808L63.4716 26.6147L64.0068 25.3194L64.9158 25.3208L65.1545 24.1173L67.6981 24.7885L67.2608 21.442L68.6209 20.6013L69.7796 17.1227L70.9494 17.8774L73.8516 17.8343L75.9469 20.0079L78.8423 18.4958L78.5085 19.7146L79.8796 19.5562L80.9735 20.8654L81.23 24.1007L83.0108 24.6857L83.6578 23.8394L85.0068 24.9818L86.7035 24.7191L86.16 25.5404L86.4028 27.1234L85.4413 28.6007L87.509 29.1829L89.3809 31.2328L90.4389 31.5678L90.8321 29.8764L91.49 29.7778L91.9838 26.8302L93.1674 26.2798L94.7909 24.0521L96.6807 25.4654L98.5056 24.9832L99.0629 23.6407L99.8216 23.5838L100.649 24.3884L100.491 25.3404L101.55 25.2237L102.059 25.7893L102.688 25.2529L103.691 26.1631L103.314 24.6414L104.238 22.85L107.713 23.9979L109.047 17.7969L108.524 17.134L109.562 16.0736L110.617 15.9805L110.822 15.1133L110.495 10.6884L112.359 8.60378L113.491 8.08402L114.661 8.6135L115.596 4.33588L116.937 4.91264L117.57 4.19553L119.889 5.24616L119.904 3.7675L120.571 3.07679L120.161 2.03028L121.841 2.46391L122.064 0.885147L123.007 0.327881L123.782 1.51191L126.011 1.55081L126.694 3.27132L128.875 3.59794L128.999 4.41927L128.679 8.55095L131.58 10.5689L134.165 13.7111L134.363 14.7686L131.926 16.1556L132.199 17.0631L131.311 17.1118L131.57 18.0457L130.931 18.981L130.375 19.0158L130.442 18.232L129.88 18.9282L130.505 19.8135L132.268 20.343L131.858 21.855L132.632 22.3484L131.799 23.3657L132.291 23.8132L131.457 23.8715L132.531 24.4093L131.879 25.4002L130.748 25.7699L128.473 24.7929L129.539 25.9575L129.217 27.678L129.549 27.0554L130.018 27.571L128.916 30.1101L129.647 30.3616L128.095 33.6317L126.768 33.9986L125.931 35.4467L124.614 35.5718L124.67 36.5529L126.255 37.359L126.168 38.5111L122.699 38.3263L123.801 39.1726L122.693 39.8772L122.893 40.5582L120.51 39.6076L120.441 41.6116L120.998 41.9979L120.195 42.8276L118.784 42.9958L119.479 43.8477L116.554 42.968L115.725 43.3863L115.363 43.1195L115.854 42.2759L113.127 41.9535L113.807 44.3313L114.683 44.6621L114.762 46.4702L114.065 47.2804L113.424 46.2019L113.265 48.7604L112.569 48.6145L111.702 48.2963L111.907 47.8724L110.037 47.4693L111.062 48.9689L110.552 49.7652L109.842 49.7444L105.301 47.5222L104.421 48.1684L103.225 47.0594L102.653 47.6139L102.538 48.1907L101.081 49.2302L100.275 48.5951L101.052 50.8173L100.252 53.1464L98.6946 53.455L98.5084 52.9436L97.4159 52.92L94.4654 53.6593L92.6459 54.9921L90.0817 54.9713L90.0748 55.6189L88.3809 56.3999L87.7173 57.7035L87.5946 59.1738L88.1215 59.6089L86.0469 60.8373L86.4552 61.3224L86.0428 61.5837L85.422 60.918L84.4027 61.5975L83.8674 61.0903L84.2744 60.0174L83.7612 60.4496L81.5832 59.9118L81.5611 56.9225L78.7333 56.4152L77.6919 57.4311L78.7444 59.2628L75.7607 60.4941L73.5123 60.0007L73.4212 61.9005L74.3689 63.1415L73.5192 63.3222L73.8571 64.6174L72.366 66.5269L72.5177 68.6671L73.2668 68.6921L74.9262 70.7309L78.4464 70.2875L78.7664 71.3868L81.3238 72.1915L81.7142 73.5187L83.5157 75.0585L85.9931 74.3873L88.7312 75.6116L89.4002 74.9668L91.7424 75.1197L92.1728 75.8632L92.9825 75.2044L92.3494 76.5525L91.3728 76.868L90.9644 76.3913L89.8789 77.2098L90.7506 78.0506L89.8789 79.186L89.3975 81.8196L92.0087 84.1738L92.9522 83.5735L95.2227 85.0549L96.1993 88.1138L99.325 88.2194L100.442 90.5236L100.171 91.2852L98.9043 91.2477L99.3912 92.8264L101.75 93.7395L101.324 95.9756L102.971 96.9276L102.956 98.2423L100.954 98.3299L100.824 97.8726L100.766 98.6828L100.485 99.443L99.7885 99.4389L99.5306 99.5153L98.2519 99.393L96.1828 98.8315L96.0227 97.9532L94.4447 97.5321L94.0846 96.8122L92.7535 96.8012L91.8169 95.4643L90.0403 96.0132L89.894 96.6956L87.567 95.3239L85.4607 92.1928L80.4797 90.9601L78.4919 88.4961L78.016 89.8441L76.4932 90.4931L76.038 91.8662L77.6339 92.8557L77.994 94.3969L77.176 95.5504L77.9705 95.8242L77.6243 96.4329L78.6299 96.551L76.5084 98.5147L78.1526 100.331L77.3939 102.712L75.7235 105.516L74.8462 105.962L74.6489 107.155L70.4721 106.433L71.257 103.704L72.4929 103.711L71.6639 102.653L68.1837 104.592L67.1188 103.295L65.5725 103.791L64.0855 103.411L59.8935 101.162L58.9941 101.289L58.8465 102.381L57.8327 102.213L57.1705 102.771L55.1732 106.104L54.5911 104.766L53.4848 103.985L53.4379 104.609L52.9965 103.915L51.9385 104.04L51.2612 103.009L49.7728 102.657L48.5713 103.619L47.923 103.47L49.1893 102.619L50.5411 97.6141L51.8102 97.0415L51.7978 96.2994L51.0446 96.3036L51.1894 95.46L50.6432 95.2252L50.3094 91.1629L47.1947 92.4012L46.9836 92.019L45.4387 93.053L44.9394 92.2636L43.6703 92.7917L42.9544 92.151L41.3653 92.3025L41.1088 93.1544L34.8366 92.989L33.3938 93.4296L33.4214 94.1272L32.562 94.2704L31.933 95.2182L27.981 95.5781L26.7492 94.4385L25.2346 94.4982L24.0318 93.5866L23.5269 91.3977L19.7019 89.8343L19.775 88.3083L21.9503 86.2098L23.9573 86.2766L26.0002 85.1954L26.1381 83.1177L26.9699 82.2449L27.8666 82.2325L29.1439 79.2154L30.3095 79.0598L30.8626 76.7278L30.3287 75.5868L27.6734 76.0204L27.4665 75.1532L25.8981 75.5437L25.1133 74.0581L23.9021 75.9384L23.3669 72.2417L20.6026 70.4517L21.6579 64.4216L20.8826 63.0333L19.8177 63.7017L18.6425 62.8068L18.7487 60.4678L20.284 57.6647L19.8315 54.8852L17.8355 55.1979L17.7597 57.0727L13.129 55.922L11.3923 53.2995L11.8158 51.0176L10.8351 48.9343L6.95896 47.596L7.3907 46.9178L6.42788 46.48L5.38647 42.365L3.67876 41.9133L3.03595 40.6056L0.0964355 40.0483L2.35867 34.827L1.60827 33.2844L3.7877 31.6918L3.167 30.4507L2.30761 30.2965L1.76828 28.8039L2.10349 27.3558L5.13953 26.5341Z" fill="#D0D5DD" stroke="white" stroke-width="1.3794" mask="url(#path-1-inside-1_1162_4066)"/>
<g opacity="0.1">
<rect x="38.9993" y="43" width="28.2793" height="28.2793" rx="14.1396" fill="#236DF8"/>
</g>
<rect x="44.655" y="48.6542" width="16.9676" height="16.9676" rx="8.48379" fill="#73C4FF" fill-opacity="0.7"/>
<rect x="50.3108" y="54.3115" width="5.65586" height="5.65586" rx="2.82793" fill="#236DF8"/>
</svg>
