<svg width="222" height="169" viewBox="0 0 222 169" fill="none" xmlns="http://www.w3.org/2000/svg">
<mask id="path-1-inside-1_1151_2606" fill="white">
<path d="M65.8417 1.65862L67.4901 3.59453L70.7841 3.45695L73.1181 3.31797L75.1761 1.65862L77.3721 0.828944L79.5695 1.93518L81.9021 5.39286L84.6471 9.40365L88.217 13.552L89.7674 16.6498L94.4339 19.6919L98.9639 21.9044L102.807 25.501L107.337 27.0214L110.905 30.7556L113.103 32.6916L116.808 33.1057L119.965 36.5634L120.102 39.0524L119.416 41.1273L120.378 43.7553L122.025 46.2443L125.73 47.3505H130.26L135.339 48.8723L138.358 51.6379L139.594 55.2332L140.967 57.7222L145.771 58.2753L151.291 55.7335L156.066 54.5411H159.909L162.695 50.1161L165.852 47.3505L169.559 46.5209L172.578 45.2757L175.323 43.2022L180.128 42.7866L184.109 44.0318L186.579 45.4146L188.226 44.446V40.8507L189.735 39.0524L192.207 38.3617L195.638 41.1273L197.423 43.2022L199.619 43.7553L203.874 44.7225L207.168 45.6912L209.913 44.446L211.835 43.7553L213.62 46.6585L215.267 49.4254L217.601 50.6693L220.482 52.7441L221.306 54.9566L220.62 57.308L221.031 59.7971L220.895 61.594L219.66 63.9455L219.522 65.6048L218.15 67.5407L217.875 69.6156L218.012 73.2109L216.914 75.9764L215.816 78.6045L214.992 80.5404L214.443 83.5825L212.384 84.6901L210.133 85.6852L207.251 87.068V89.8336L206.153 91.6319L203.544 91.4929L200.662 91.6319L199.289 92.8757L199.564 94.3975L200.799 96.6099L201.503 99.5089L200.302 104.694L197.471 107.806L195.755 108.496L193.01 107.806L189.922 106.769L188.033 107.633L185.288 108.152L183.659 108.67L182.972 110.313L183.572 112.732L184.603 114.893L185.804 116.882L187.691 119.992L187.177 121.895L185.717 123.192L183.659 124.055L183.316 125.957L183.572 128.204L182.913 129.199L187.174 133.145L187.417 135.475L190.607 136.769L197.086 137.2L197.249 138.276L195.5 142.321L195.429 144.103L198.205 147.201L198.859 150.178L200.652 151.658L201.546 154.725L201 156.904L198.188 157.635L194.267 161.036L192.712 159.789L191.112 160.22L188.905 161.817L188.268 164.992L186.673 164.593L184.593 165.984L182.789 165.151L178.933 161.44L178.428 158.263L178.908 157.215L177.915 153.853L175.272 155.464L174.443 156.914L172.111 156.733L170.399 158.077L169.448 157.861L168.28 158.666L168.237 160.189L167.419 159.574L165.339 161.419L164.418 160.32L165.015 159.587L164.942 157.93L167.603 156.358L166.862 154.682L167.099 151.59L164.683 152.416L164.916 153.277L162.525 154.778L160.78 154.44L159.884 155.7L159.073 155.021L158.263 156.323L157.355 155.932L157.409 157.433L155.872 157.62L153.583 153.955L153.925 151.445L152.937 151.123L151.976 149.296L149.487 148.042L150.318 146.642L148.073 144.352L146.709 143.861L146.366 144.78L144.361 145.319L142.503 147.265L141.492 147.294L140.645 148.149L138.689 147.327L137.794 149.405L136.968 149.591L136.313 148.414L134.959 147.644L134.398 148.03L134.092 146.981L132.521 145.755L131.722 146.346L131.439 144.053L129.664 144.298L128.52 143.39L127.455 143.739L125.119 142.216L123.954 139.432L123.008 139.499L121.825 137.999L122.543 134.86L121.805 135.196L121.098 134.538L120.436 134.753L119.7 137.178L116.729 137.763L115.427 136.227L114.434 136.136L112.169 137.161L109.934 136.926L106.566 139.787L105.477 142.253L101.33 143.212L100.998 144.456L97.0589 147.341L94.7871 145.787L93.0794 145.801L92.6959 147.857L94.9802 149.804L96.0975 151.752L95.6381 154.026L96.4189 155.655L94.9443 157.976L92.9745 161.037L91.2889 161.404L90.2957 163.4L85.0306 165.775L84.2236 168.271L83.905 167.101L83.2553 166.849L83.3849 166.078L81.7324 166.618L79.0564 166.171L75.3941 163.842L75.1927 163.184L73.776 163.522L72.1346 161.278L70.8062 160.865L69.1523 162.384L64.9948 160.722L61.0414 161.109L59.4179 156.778L60.4 155.164L59.6468 153.085L61.0014 148.907L59.411 149.487L58.6095 151.731L56.2218 152.316L54.5872 153.338L50.6062 152.922L48.6847 151.54L45.8018 150.157L43.6058 148.082L40.1738 146.838L37.2923 144.763H32.9003L31.9388 142.69L30.4284 141.306L28.5069 139.646L29.3304 136.19L28.0958 133.7L27.6834 129.414L29.1938 127.615L28.0958 123.19L28.7814 121.53L28.9193 119.456L26.8599 117.381L26.9978 115.445L28.3703 113.786L27.2709 109.499L25.2129 107.425L25.3494 103.414L24.9384 100.178L23.5659 96.7213L24.1149 93.2636V90.9121L25.8984 88.9762L28.9193 88.1466L31.2519 87.1793L31.3898 84.5513L33.1734 81.3702L35.0949 81.0936L39.7628 80.956L41.4098 79.7108L42.5078 75.5624L43.7437 72.9344V70.1689L41.2718 67.6798L37.8413 66.1581L35.0949 65.3284L33.4479 64.0832L32.4878 62.0097L33.0368 59.7972L34.9583 58.552L35.7818 56.8927L34.4093 53.8505L31.5264 53.9881L28.2324 53.5739L25.4874 52.7443L20.6829 52.3287L18.0745 49.9231L16.8399 47.4341L15.8785 43.8388L12.1734 42.0405L7.91793 41.0718L5.17155 42.8702L2.15342 43.0077L1.05404 41.3484L0.91748 38.3062L1.60442 36.7845L0.91748 34.572L1.46649 32.3595L2.83898 29.1784L6.13299 26.8284L9.56494 23.9238L12.7224 20.4661L15.7419 16.5943L16.9778 12.7225L19.7215 10.9255L23.9769 11.3397L29.3304 11.8928L35.3708 12.1694L38.2523 11.4773L35.6453 8.5741L33.3444 7.29554L34.4879 5.64175L37.2923 5.25401L39.7628 7.46787L43.3313 8.29615L45.1149 6.08508L47.5867 5.53196L49.9193 4.42433L51.8408 3.45707L54.8617 1.93531L56.9211 0.275955L59.9406 -0.000732422L62.2732 0.4148L65.8417 1.65862Z"/>
</mask>
<path d="M65.8417 1.65862L67.4901 3.59453L70.7841 3.45695L73.1181 3.31797L75.1761 1.65862L77.3721 0.828944L79.5695 1.93518L81.9021 5.39286L84.6471 9.40365L88.217 13.552L89.7674 16.6498L94.4339 19.6919L98.9639 21.9044L102.807 25.501L107.337 27.0214L110.905 30.7556L113.103 32.6916L116.808 33.1057L119.965 36.5634L120.102 39.0524L119.416 41.1273L120.378 43.7553L122.025 46.2443L125.73 47.3505H130.26L135.339 48.8723L138.358 51.6379L139.594 55.2332L140.967 57.7222L145.771 58.2753L151.291 55.7335L156.066 54.5411H159.909L162.695 50.1161L165.852 47.3505L169.559 46.5209L172.578 45.2757L175.323 43.2022L180.128 42.7866L184.109 44.0318L186.579 45.4146L188.226 44.446V40.8507L189.735 39.0524L192.207 38.3617L195.638 41.1273L197.423 43.2022L199.619 43.7553L203.874 44.7225L207.168 45.6912L209.913 44.446L211.835 43.7553L213.62 46.6585L215.267 49.4254L217.601 50.6693L220.482 52.7441L221.306 54.9566L220.62 57.308L221.031 59.7971L220.895 61.594L219.66 63.9455L219.522 65.6048L218.15 67.5407L217.875 69.6156L218.012 73.2109L216.914 75.9764L215.816 78.6045L214.992 80.5404L214.443 83.5825L212.384 84.6901L210.133 85.6852L207.251 87.068V89.8336L206.153 91.6319L203.544 91.4929L200.662 91.6319L199.289 92.8757L199.564 94.3975L200.799 96.6099L201.503 99.5089L200.302 104.694L197.471 107.806L195.755 108.496L193.01 107.806L189.922 106.769L188.033 107.633L185.288 108.152L183.659 108.67L182.972 110.313L183.572 112.732L184.603 114.893L185.804 116.882L187.691 119.992L187.177 121.895L185.717 123.192L183.659 124.055L183.316 125.957L183.572 128.204L182.913 129.199L187.174 133.145L187.417 135.475L190.607 136.769L197.086 137.2L197.249 138.276L195.5 142.321L195.429 144.103L198.205 147.201L198.859 150.178L200.652 151.658L201.546 154.725L201 156.904L198.188 157.635L194.267 161.036L192.712 159.789L191.112 160.22L188.905 161.817L188.268 164.992L186.673 164.593L184.593 165.984L182.789 165.151L178.933 161.44L178.428 158.263L178.908 157.215L177.915 153.853L175.272 155.464L174.443 156.914L172.111 156.733L170.399 158.077L169.448 157.861L168.28 158.666L168.237 160.189L167.419 159.574L165.339 161.419L164.418 160.32L165.015 159.587L164.942 157.93L167.603 156.358L166.862 154.682L167.099 151.59L164.683 152.416L164.916 153.277L162.525 154.778L160.78 154.44L159.884 155.7L159.073 155.021L158.263 156.323L157.355 155.932L157.409 157.433L155.872 157.62L153.583 153.955L153.925 151.445L152.937 151.123L151.976 149.296L149.487 148.042L150.318 146.642L148.073 144.352L146.709 143.861L146.366 144.78L144.361 145.319L142.503 147.265L141.492 147.294L140.645 148.149L138.689 147.327L137.794 149.405L136.968 149.591L136.313 148.414L134.959 147.644L134.398 148.03L134.092 146.981L132.521 145.755L131.722 146.346L131.439 144.053L129.664 144.298L128.52 143.39L127.455 143.739L125.119 142.216L123.954 139.432L123.008 139.499L121.825 137.999L122.543 134.86L121.805 135.196L121.098 134.538L120.436 134.753L119.7 137.178L116.729 137.763L115.427 136.227L114.434 136.136L112.169 137.161L109.934 136.926L106.566 139.787L105.477 142.253L101.33 143.212L100.998 144.456L97.0589 147.341L94.7871 145.787L93.0794 145.801L92.6959 147.857L94.9802 149.804L96.0975 151.752L95.6381 154.026L96.4189 155.655L94.9443 157.976L92.9745 161.037L91.2889 161.404L90.2957 163.4L85.0306 165.775L84.2236 168.271L83.905 167.101L83.2553 166.849L83.3849 166.078L81.7324 166.618L79.0564 166.171L75.3941 163.842L75.1927 163.184L73.776 163.522L72.1346 161.278L70.8062 160.865L69.1523 162.384L64.9948 160.722L61.0414 161.109L59.4179 156.778L60.4 155.164L59.6468 153.085L61.0014 148.907L59.411 149.487L58.6095 151.731L56.2218 152.316L54.5872 153.338L50.6062 152.922L48.6847 151.54L45.8018 150.157L43.6058 148.082L40.1738 146.838L37.2923 144.763H32.9003L31.9388 142.69L30.4284 141.306L28.5069 139.646L29.3304 136.19L28.0958 133.7L27.6834 129.414L29.1938 127.615L28.0958 123.19L28.7814 121.53L28.9193 119.456L26.8599 117.381L26.9978 115.445L28.3703 113.786L27.2709 109.499L25.2129 107.425L25.3494 103.414L24.9384 100.178L23.5659 96.7213L24.1149 93.2636V90.9121L25.8984 88.9762L28.9193 88.1466L31.2519 87.1793L31.3898 84.5513L33.1734 81.3702L35.0949 81.0936L39.7628 80.956L41.4098 79.7108L42.5078 75.5624L43.7437 72.9344V70.1689L41.2718 67.6798L37.8413 66.1581L35.0949 65.3284L33.4479 64.0832L32.4878 62.0097L33.0368 59.7972L34.9583 58.552L35.7818 56.8927L34.4093 53.8505L31.5264 53.9881L28.2324 53.5739L25.4874 52.7443L20.6829 52.3287L18.0745 49.9231L16.8399 47.4341L15.8785 43.8388L12.1734 42.0405L7.91793 41.0718L5.17155 42.8702L2.15342 43.0077L1.05404 41.3484L0.91748 38.3062L1.60442 36.7845L0.91748 34.572L1.46649 32.3595L2.83898 29.1784L6.13299 26.8284L9.56494 23.9238L12.7224 20.4661L15.7419 16.5943L16.9778 12.7225L19.7215 10.9255L23.9769 11.3397L29.3304 11.8928L35.3708 12.1694L38.2523 11.4773L35.6453 8.5741L33.3444 7.29554L34.4879 5.64175L37.2923 5.25401L39.7628 7.46787L43.3313 8.29615L45.1149 6.08508L47.5867 5.53196L49.9193 4.42433L51.8408 3.45707L54.8617 1.93531L56.9211 0.275955L59.9406 -0.000732422L62.2732 0.4148L65.8417 1.65862Z" fill="#D0D5DD" stroke="white" stroke-width="1.3794" mask="url(#path-1-inside-1_1151_2606)"/>
</svg>
