<svg width="131" height="207" viewBox="0 0 131 207" fill="none" xmlns="http://www.w3.org/2000/svg">
<mask id="path-1-inside-1_1156_4046" fill="white">
<path d="M1.51218 85.2313L0.661095 84.6143L1.73151 84.3878L1.6446 83.2009L3.7744 82.135L4.43651 81.1663L5.09311 82.5019L6.30836 82.5589L8.40643 81.5263L9.11269 79.4097L7.81881 79.172L8.67403 77.9838L9.23132 79.1804L9.75411 79.1554L9.18579 77.6948L11.4494 73.5033L10.4686 73.0155L9.13338 73.6659L8.50161 73.1295L10.4204 71.3937L11.9942 72.0955L11.9005 70.2986L12.6826 69.0575L12.3998 67.7679L10.0714 66.973L10.0341 66.2767L8.07261 65.9376L7.51119 66.6547L7.94156 65.9487L7.19945 64.9356L7.26979 63.304L7.7788 62.9607L8.31539 63.7418L8.53057 62.851L7.76638 62.6647L7.65741 61.1068L6.42837 60.9012L6.53182 59.5865L5.63245 60.3883L5.18139 59.8199L6.12352 59.5628L5.85316 58.3204L6.94288 59.6017L7.38429 58.0522L8.42987 57.9437L8.34297 58.4955L9.13199 58.8221L9.52374 57.2906L11.5156 56.5026L11.6591 54.814L12.255 55.8438L13.7971 55.6451L14.451 58.0952L16.2497 57.3781L16.4359 56.4428L17.8098 56.5124L16.9477 55.5131L17.9767 54.3833L18.036 53.1686L22.5632 51.4898L24.5509 51.5163L24.2089 48.9188L25.7138 48.256L25.8048 47.4249L24.6433 46.8134L24.9717 46.3478L27.6256 46.3312L27.6725 46.812L29.3623 46.1171L30.8272 48.388H32.2287L32.0424 49.34L32.986 49.3914L34.9185 48.3672L35.0827 45.9323L36.7241 46.0005L38.1518 45.2792L39.1988 45.6697L40.2637 45.0082L40.9741 46.2909L43.2211 45.6641L43.3784 44.33L44.3522 44.4717L44.3853 45.4849L45.3771 46.0463L46.231 45.767L46.1634 43.485L45.3413 43.4642L46.3413 42.6651L46.3441 41.7173L44.8861 39.4187L45.8709 38.2638L45.8061 36.6559L44.2488 35.3884L44.4557 34.2057L43.6391 33.9792L43.4584 32.9758L44.5343 32.7048L45.1054 30.1088L46.3165 30.7022L46.7096 32.0767L48.0338 31.7959L49.9195 33.3636L50.5664 31.7667L51.641 32.8897L52.3707 31.9349L52.5555 33.8639L53.6383 34.7588L57.2014 33.8444L57.8993 34.5782L59.1256 33.4789L60.3353 34.2502L60.6995 35.5746L60.6002 34.0126L62.6803 33.2287L63.5893 34.5657L65.5453 33.9778L65.795 35.1688L66.6447 35.1327L67.4062 33.39L66.0764 33.2162L66.3992 31.4179L65.2584 31.4818L65.1757 30.3756L66.453 29.6265L65.5412 29.6002L66.195 28.7566L65.4419 28.1395L65.2005 26.5538L67.6255 26.2703L68.002 25.0501L69.7511 24.5568L69.6656 22.953L70.7429 22.9015L70.7443 21.5757L72.1761 21.5424L72.1747 23.299L73.3652 21.2922L74.7721 23.734L75.5625 23.9744L75.7819 22.5749L76.6329 22.2428L76.2895 20.8809L77.6482 20.7238L78.382 19.5272L76.9185 18.5989L77.0109 17.3537L78.8041 18.2556L82.0857 16.8339L82.1216 13.2428L83.1879 13.0469L82.9672 12.0101L83.581 11.2986L82.2609 10.7205L83.1727 8.62887L84.1479 8.51908L85.1894 9.30426L85.446 8.66221L86.1632 9.61838L87.642 9.60735L87.2571 8.31765L88.8296 7.66306L89.4228 5.70493L90.4518 5.79392L90.1401 4.73491L91.5732 2.97134L91.4339 1.81092L93.663 0.435059L94.3762 1.15216L95.1721 0.62268L95.1749 2.05411L96.3405 2.42515L94.859 4.79746L97.0991 4.92396L97.9364 6.34289L99.2303 5.78003L99.2096 4.91841L100.378 5.38672L101.909 5.79392L100.792 8.15234L101.759 9.6324L101.84 11.2278L100.257 12.6162L101.6 13.942L103.157 14.4576L103.366 15.183L103.094 15.8807L102.509 15.5346L102.302 17.2023L101.396 17.0397L101.728 18.1876L101.037 18.1154L100.372 19.7789L99.6869 19.5135L99.251 20.2848L99.0661 20.8573L100.841 21.416L100.727 21.933L97.5019 23.6271L97.2012 26.9597L98.6482 27.4197L98.9834 28.1896L99.7282 27.2098L100.334 27.9311L101.53 27.5267L101.585 28.4398L104.295 29.2597L104.249 30.2534L103.211 30.0004L103.346 29.332L102.991 30.1589L102.139 30.3437L102.13 31.1234L101.05 30.8204L101.032 31.5681L99.2289 31.6376L99.9614 32.3394L99.7448 33.3081L98.9103 33.8542L97.5378 33.3581L97.0302 35.8485L97.6219 36.2237L95.4811 37.9248L96.0135 38.2569L94.8935 39.6828L97.8564 41.4242L98.9186 44.3495L97.5902 47.3208L98.1033 51.2454L97.1322 51.1231L96.7239 53.1952L97.9778 53.273L97.9268 54.2889L96.5267 54.7559L96.9998 55.516L98.0523 55.2367L97.9019 57.1281L95.8025 57.7007L96.4922 59.1294L95.4466 59.3434L95.0769 60.1453L93.0658 59.9243L92.932 60.4621L91.2918 60.6303L92.7209 62.5912L94.4038 63.293L96.3901 63.8059L98.7792 63.4112L101.584 64.5646L101.546 66.092L100.815 65.7654L99.9145 66.8216L98.9737 66.6659L98.5792 67.2093L98.6137 67.9765L99.2482 68.0057L98.4647 69.9555L98.553 71.2438L99.2096 71.6121L98.6702 73.8065L99.2289 74.6598L99.2096 77.1071L91.6864 75.9967L88.6406 76.5123L86.4033 77.7547L85.1411 79.7852L86.3426 80.0451L85.7453 82.7092L88.1054 84.9744L87.8516 85.9931L86.8474 85.1593L85.3411 85.7305L85.2639 89.7468L83.6844 89.5564L83.6403 90.0192L85.2859 91.6911L86.2722 95.089L87.6613 94.9264L87.8268 96.0493L88.7648 96.1744L89.2338 96.9708L87.984 98.1048L89.06 98.9261L89.0462 100.27L88.3068 100.458L88.94 101.122L86.7688 104.731L85.6763 104.568L85.846 103.857L84.5121 103.846L83.9672 104.421L80.9325 103.872L78.629 102.013L77.9737 102.594L78.2717 104.232L77.6716 105.632L79.5228 106.196L80.578 105.807L80.1242 110.593L78.1489 111.332L78.6607 112.668L77.5668 116.632L78.709 118.851L79.5131 118.99L80.7449 120.621L83.7245 120.328L82.8692 121.319L82.8058 122.68L81.9836 122.261L81.1188 122.956L81.0029 124.264L83.0527 125.827L82.3244 126.479L82.6982 127.435L85.926 127.452L86.6681 128.353L87.5275 128.236L87.7247 126.021L88.8862 124.521L91.1898 125.317L92.6106 124.719L92.565 126.361L94.8645 126.564L94.7528 127.736L95.5721 128.875L96.4936 128.275L95.3183 125.791L95.6259 124.905L97.2633 125.356L97.6205 126.478L98.8206 126.49L98.9406 130.092L95.7445 129.666L95.3694 130.73L94.5334 130.886L94.441 131.73L95.7459 131.058L95.9115 131.509L93.9113 133.909L95.5625 134.373L95.339 135.511L96.9267 135.522L96.2646 136.495L96.8343 137.295L95.808 138.17L95.7666 137.639L94.5514 137.672L94.7086 135.116L93.5458 133.852L88.7482 134.841L87.991 133.335L85.1783 133.004L84.7342 131.667L85.0666 129.442L82.8085 128.949L82.6733 129.646L81.3574 129.852L81.1339 130.686L82.385 130.8L83.7714 132.647L82.5037 133.914L85.5287 136.808L85.686 137.647L84.9935 137.768L83.5824 140.119L84.2804 142.257L84.8252 142.549L85.257 141.397L86.2308 142.367L87.2475 141.711L89.3069 141.895L89.1814 139.93L88.0737 139.077L89.1896 138.851L89.0007 137.575L89.609 137.051L89.66 138.766L90.4145 138.131L90.6049 138.718L91.2491 137.721L91.7291 139.372L93.3596 138.842L93.7375 139.78L94.8769 139.187L96.7556 139.501L96.2977 140.57L97.7061 140.635L97.484 144.244L98.4427 144.127L98.5696 143.321L99.2896 143.95L99.502 142.218L100.553 143.034L101.695 142.226L102.436 142.709L102.883 142.475L102.124 141.873L103.24 141.266L103.85 141.216L103.662 141.968L104.581 141.695L104.962 142.549L105.08 140.831L106.976 140.165L106.905 139.48L108.398 138.745L107.781 137.315L108.126 136.533L110.11 136.642L110.82 137.654L112.404 136.065L112.739 137.769L111.711 138.16L111.772 139.955L112.384 139.949L112.944 138.713L114.464 138.974L114.561 137.965L116.652 139.33L116.787 141.233L115.826 142.526L116.532 143.219L116.416 143.987L115.223 143.875L115.058 144.505L115.704 145.448L117.87 145.05L118.008 145.802L118.974 146.018L118.665 147.795L119.948 146.879L124.657 147.149L123.628 153.778L124.847 154.453L123.97 154.819L124.671 155.305L125.629 154.848L125.962 155.464L126.995 155.18L128.412 156.734L129.417 155.432L130.047 156.542L129.794 158.258L128.992 158.763L129.805 159.674L128.063 160.77L128.617 161.431L127.865 161.897L127.943 162.754L126.411 163.384L126.595 165.409L125.577 165.25L125.956 167.265L124.297 167.428L123.346 166.452L122.124 168.852L120.334 168.845L119.743 171.656L116.856 171.139L114.721 168.994L113.802 168.89L113.415 170.385L112.835 170.38L111.801 168.787L111.201 169.843L110.751 169.597L111.479 168.587L110.997 167.924L107.16 169.246L107.583 170.638L105.617 174.279L104.82 173.99L104.084 174.721L103.389 173.976L101.542 174.468L101.759 175.551L100.956 177.419L101.2 178.927L102.004 179.141L101.109 180.07L102.548 179.808L102.4 181.845L101.931 183.463L100.167 185.536L98.073 186.182L97.9419 187.946L105.469 188.98L106.685 190.805L104.403 193.631L103.566 195.752L98.4813 195.922L98.2647 197.588L97.5681 197.217L97.6688 198.678L96.5998 201.289L94.8741 200.459L93.91 201.044L92.7181 199.881L91.4739 199.76L91.0491 200.312L87.4613 200.921L87.6489 202.405L86.5605 202.044L86.1246 200.506L85.137 200.873L85.4059 200.306L84.6197 199.744L83.7051 199.8L83.3244 200.861L81.5947 200.326L79.5394 204.434L80.1863 205.682L79.7932 206.488L79.1931 205.818L77.164 205.425L71.7885 205.437L71.2202 203.656L70.1746 202.843L68.649 204.109L67.8434 203.985L67.0627 202.752L67.7124 202.28L67.3882 201.208L65.2902 201.878L63.4721 199.725L61.9272 199.828L60.9312 197.946L58.738 198.319L58.7339 194.79L55.4578 196.188L52.0589 195.674L50.5471 194.387L49.834 191.819L47.4476 192.087L47.002 190.958L45.8709 191.227L45.0819 189.712L43.4004 189.465L40.683 185.46L38.847 185.453L38.9119 183.075L37.3007 181.884L37.3297 180.564L38.9436 180.315L38.7119 179.23L36.5848 180.433L36.4124 179.42L34.8606 178.593L34.7364 177.232L36.2096 176.61L34.7323 175.826L33.1791 177.277L32.5597 175.427L31.339 175.666L30.8713 175.184L31.0934 173.91L29.2299 173.274L29.143 174.204L28.1236 174.392L28.1774 172.773L26.9483 172.935L27.0945 172.531L26.3028 172.324L26.9911 171.418L26.5193 170.528L22.9039 171.596L21.5728 168.694L17.9395 153.993L17.2332 145.489L15.3889 138.562L14.3296 136.178L13.2136 135.632L12.3488 133.911L11.4659 129.118L10.6231 127.917L8.0809 119.586L9.22027 118.74L8.39401 118.068L8.14434 119.015L6.80495 119.056L6.37319 116.642L5.65038 115.886L6.09179 115.489L5.56211 113.256L4.63929 112.268L3.7813 113.165L0.621094 110.75L1.4308 110.567L1.64736 109.328L1.10112 109.312L0.676271 107.85L1.88876 107.107L2.92883 107.452L2.83503 106.193L3.98131 107.08L5.66418 105.725L5.4214 105.003L6.59527 103.533L5.90282 101.856L6.22697 100.439L7.15946 99.2151L6.7208 98.0421L5.3014 97.0095L7.73051 95.952L7.34704 93.7228L6.02696 93.0821L6.02283 91.4478L5.26691 90.0553L6.15939 88.9602L5.2076 87.765L5.61866 86.4531L5.23519 85.1134L4.551 84.7437L4.02131 85.269L3.35507 84.3101L2.87227 85.1787L1.51218 85.2313Z"/>
</mask>
<path d="M1.51218 85.2313L0.661095 84.6143L1.73151 84.3878L1.6446 83.2009L3.7744 82.135L4.43651 81.1663L5.09311 82.5019L6.30836 82.5589L8.40643 81.5263L9.11269 79.4097L7.81881 79.172L8.67403 77.9838L9.23132 79.1804L9.75411 79.1554L9.18579 77.6948L11.4494 73.5033L10.4686 73.0155L9.13338 73.6659L8.50161 73.1295L10.4204 71.3937L11.9942 72.0955L11.9005 70.2986L12.6826 69.0575L12.3998 67.7679L10.0714 66.973L10.0341 66.2767L8.07261 65.9376L7.51119 66.6547L7.94156 65.9487L7.19945 64.9356L7.26979 63.304L7.7788 62.9607L8.31539 63.7418L8.53057 62.851L7.76638 62.6647L7.65741 61.1068L6.42837 60.9012L6.53182 59.5865L5.63245 60.3883L5.18139 59.8199L6.12352 59.5628L5.85316 58.3204L6.94288 59.6017L7.38429 58.0522L8.42987 57.9437L8.34297 58.4955L9.13199 58.8221L9.52374 57.2906L11.5156 56.5026L11.6591 54.814L12.255 55.8438L13.7971 55.6451L14.451 58.0952L16.2497 57.3781L16.4359 56.4428L17.8098 56.5124L16.9477 55.5131L17.9767 54.3833L18.036 53.1686L22.5632 51.4898L24.5509 51.5163L24.2089 48.9188L25.7138 48.256L25.8048 47.4249L24.6433 46.8134L24.9717 46.3478L27.6256 46.3312L27.6725 46.812L29.3623 46.1171L30.8272 48.388H32.2287L32.0424 49.34L32.986 49.3914L34.9185 48.3672L35.0827 45.9323L36.7241 46.0005L38.1518 45.2792L39.1988 45.6697L40.2637 45.0082L40.9741 46.2909L43.2211 45.6641L43.3784 44.33L44.3522 44.4717L44.3853 45.4849L45.3771 46.0463L46.231 45.767L46.1634 43.485L45.3413 43.4642L46.3413 42.6651L46.3441 41.7173L44.8861 39.4187L45.8709 38.2638L45.8061 36.6559L44.2488 35.3884L44.4557 34.2057L43.6391 33.9792L43.4584 32.9758L44.5343 32.7048L45.1054 30.1088L46.3165 30.7022L46.7096 32.0767L48.0338 31.7959L49.9195 33.3636L50.5664 31.7667L51.641 32.8897L52.3707 31.9349L52.5555 33.8639L53.6383 34.7588L57.2014 33.8444L57.8993 34.5782L59.1256 33.4789L60.3353 34.2502L60.6995 35.5746L60.6002 34.0126L62.6803 33.2287L63.5893 34.5657L65.5453 33.9778L65.795 35.1688L66.6447 35.1327L67.4062 33.39L66.0764 33.2162L66.3992 31.4179L65.2584 31.4818L65.1757 30.3756L66.453 29.6265L65.5412 29.6002L66.195 28.7566L65.4419 28.1395L65.2005 26.5538L67.6255 26.2703L68.002 25.0501L69.7511 24.5568L69.6656 22.953L70.7429 22.9015L70.7443 21.5757L72.1761 21.5424L72.1747 23.299L73.3652 21.2922L74.7721 23.734L75.5625 23.9744L75.7819 22.5749L76.6329 22.2428L76.2895 20.8809L77.6482 20.7238L78.382 19.5272L76.9185 18.5989L77.0109 17.3537L78.8041 18.2556L82.0857 16.8339L82.1216 13.2428L83.1879 13.0469L82.9672 12.0101L83.581 11.2986L82.2609 10.7205L83.1727 8.62887L84.1479 8.51908L85.1894 9.30426L85.446 8.66221L86.1632 9.61838L87.642 9.60735L87.2571 8.31765L88.8296 7.66306L89.4228 5.70493L90.4518 5.79392L90.1401 4.73491L91.5732 2.97134L91.4339 1.81092L93.663 0.435059L94.3762 1.15216L95.1721 0.62268L95.1749 2.05411L96.3405 2.42515L94.859 4.79746L97.0991 4.92396L97.9364 6.34289L99.2303 5.78003L99.2096 4.91841L100.378 5.38672L101.909 5.79392L100.792 8.15234L101.759 9.6324L101.84 11.2278L100.257 12.6162L101.6 13.942L103.157 14.4576L103.366 15.183L103.094 15.8807L102.509 15.5346L102.302 17.2023L101.396 17.0397L101.728 18.1876L101.037 18.1154L100.372 19.7789L99.6869 19.5135L99.251 20.2848L99.0661 20.8573L100.841 21.416L100.727 21.933L97.5019 23.6271L97.2012 26.9597L98.6482 27.4197L98.9834 28.1896L99.7282 27.2098L100.334 27.9311L101.53 27.5267L101.585 28.4398L104.295 29.2597L104.249 30.2534L103.211 30.0004L103.346 29.332L102.991 30.1589L102.139 30.3437L102.13 31.1234L101.05 30.8204L101.032 31.5681L99.2289 31.6376L99.9614 32.3394L99.7448 33.3081L98.9103 33.8542L97.5378 33.3581L97.0302 35.8485L97.6219 36.2237L95.4811 37.9248L96.0135 38.2569L94.8935 39.6828L97.8564 41.4242L98.9186 44.3495L97.5902 47.3208L98.1033 51.2454L97.1322 51.1231L96.7239 53.1952L97.9778 53.273L97.9268 54.2889L96.5267 54.7559L96.9998 55.516L98.0523 55.2367L97.9019 57.1281L95.8025 57.7007L96.4922 59.1294L95.4466 59.3434L95.0769 60.1453L93.0658 59.9243L92.932 60.4621L91.2918 60.6303L92.7209 62.5912L94.4038 63.293L96.3901 63.8059L98.7792 63.4112L101.584 64.5646L101.546 66.092L100.815 65.7654L99.9145 66.8216L98.9737 66.6659L98.5792 67.2093L98.6137 67.9765L99.2482 68.0057L98.4647 69.9555L98.553 71.2438L99.2096 71.6121L98.6702 73.8065L99.2289 74.6598L99.2096 77.1071L91.6864 75.9967L88.6406 76.5123L86.4033 77.7547L85.1411 79.7852L86.3426 80.0451L85.7453 82.7092L88.1054 84.9744L87.8516 85.9931L86.8474 85.1593L85.3411 85.7305L85.2639 89.7468L83.6844 89.5564L83.6403 90.0192L85.2859 91.6911L86.2722 95.089L87.6613 94.9264L87.8268 96.0493L88.7648 96.1744L89.2338 96.9708L87.984 98.1048L89.06 98.9261L89.0462 100.27L88.3068 100.458L88.94 101.122L86.7688 104.731L85.6763 104.568L85.846 103.857L84.5121 103.846L83.9672 104.421L80.9325 103.872L78.629 102.013L77.9737 102.594L78.2717 104.232L77.6716 105.632L79.5228 106.196L80.578 105.807L80.1242 110.593L78.1489 111.332L78.6607 112.668L77.5668 116.632L78.709 118.851L79.5131 118.99L80.7449 120.621L83.7245 120.328L82.8692 121.319L82.8058 122.68L81.9836 122.261L81.1188 122.956L81.0029 124.264L83.0527 125.827L82.3244 126.479L82.6982 127.435L85.926 127.452L86.6681 128.353L87.5275 128.236L87.7247 126.021L88.8862 124.521L91.1898 125.317L92.6106 124.719L92.565 126.361L94.8645 126.564L94.7528 127.736L95.5721 128.875L96.4936 128.275L95.3183 125.791L95.6259 124.905L97.2633 125.356L97.6205 126.478L98.8206 126.49L98.9406 130.092L95.7445 129.666L95.3694 130.73L94.5334 130.886L94.441 131.73L95.7459 131.058L95.9115 131.509L93.9113 133.909L95.5625 134.373L95.339 135.511L96.9267 135.522L96.2646 136.495L96.8343 137.295L95.808 138.17L95.7666 137.639L94.5514 137.672L94.7086 135.116L93.5458 133.852L88.7482 134.841L87.991 133.335L85.1783 133.004L84.7342 131.667L85.0666 129.442L82.8085 128.949L82.6733 129.646L81.3574 129.852L81.1339 130.686L82.385 130.8L83.7714 132.647L82.5037 133.914L85.5287 136.808L85.686 137.647L84.9935 137.768L83.5824 140.119L84.2804 142.257L84.8252 142.549L85.257 141.397L86.2308 142.367L87.2475 141.711L89.3069 141.895L89.1814 139.93L88.0737 139.077L89.1896 138.851L89.0007 137.575L89.609 137.051L89.66 138.766L90.4145 138.131L90.6049 138.718L91.2491 137.721L91.7291 139.372L93.3596 138.842L93.7375 139.78L94.8769 139.187L96.7556 139.501L96.2977 140.57L97.7061 140.635L97.484 144.244L98.4427 144.127L98.5696 143.321L99.2896 143.95L99.502 142.218L100.553 143.034L101.695 142.226L102.436 142.709L102.883 142.475L102.124 141.873L103.24 141.266L103.85 141.216L103.662 141.968L104.581 141.695L104.962 142.549L105.08 140.831L106.976 140.165L106.905 139.48L108.398 138.745L107.781 137.315L108.126 136.533L110.11 136.642L110.82 137.654L112.404 136.065L112.739 137.769L111.711 138.16L111.772 139.955L112.384 139.949L112.944 138.713L114.464 138.974L114.561 137.965L116.652 139.33L116.787 141.233L115.826 142.526L116.532 143.219L116.416 143.987L115.223 143.875L115.058 144.505L115.704 145.448L117.87 145.05L118.008 145.802L118.974 146.018L118.665 147.795L119.948 146.879L124.657 147.149L123.628 153.778L124.847 154.453L123.97 154.819L124.671 155.305L125.629 154.848L125.962 155.464L126.995 155.18L128.412 156.734L129.417 155.432L130.047 156.542L129.794 158.258L128.992 158.763L129.805 159.674L128.063 160.77L128.617 161.431L127.865 161.897L127.943 162.754L126.411 163.384L126.595 165.409L125.577 165.25L125.956 167.265L124.297 167.428L123.346 166.452L122.124 168.852L120.334 168.845L119.743 171.656L116.856 171.139L114.721 168.994L113.802 168.89L113.415 170.385L112.835 170.38L111.801 168.787L111.201 169.843L110.751 169.597L111.479 168.587L110.997 167.924L107.16 169.246L107.583 170.638L105.617 174.279L104.82 173.99L104.084 174.721L103.389 173.976L101.542 174.468L101.759 175.551L100.956 177.419L101.2 178.927L102.004 179.141L101.109 180.07L102.548 179.808L102.4 181.845L101.931 183.463L100.167 185.536L98.073 186.182L97.9419 187.946L105.469 188.98L106.685 190.805L104.403 193.631L103.566 195.752L98.4813 195.922L98.2647 197.588L97.5681 197.217L97.6688 198.678L96.5998 201.289L94.8741 200.459L93.91 201.044L92.7181 199.881L91.4739 199.76L91.0491 200.312L87.4613 200.921L87.6489 202.405L86.5605 202.044L86.1246 200.506L85.137 200.873L85.4059 200.306L84.6197 199.744L83.7051 199.8L83.3244 200.861L81.5947 200.326L79.5394 204.434L80.1863 205.682L79.7932 206.488L79.1931 205.818L77.164 205.425L71.7885 205.437L71.2202 203.656L70.1746 202.843L68.649 204.109L67.8434 203.985L67.0627 202.752L67.7124 202.28L67.3882 201.208L65.2902 201.878L63.4721 199.725L61.9272 199.828L60.9312 197.946L58.738 198.319L58.7339 194.79L55.4578 196.188L52.0589 195.674L50.5471 194.387L49.834 191.819L47.4476 192.087L47.002 190.958L45.8709 191.227L45.0819 189.712L43.4004 189.465L40.683 185.46L38.847 185.453L38.9119 183.075L37.3007 181.884L37.3297 180.564L38.9436 180.315L38.7119 179.23L36.5848 180.433L36.4124 179.42L34.8606 178.593L34.7364 177.232L36.2096 176.61L34.7323 175.826L33.1791 177.277L32.5597 175.427L31.339 175.666L30.8713 175.184L31.0934 173.91L29.2299 173.274L29.143 174.204L28.1236 174.392L28.1774 172.773L26.9483 172.935L27.0945 172.531L26.3028 172.324L26.9911 171.418L26.5193 170.528L22.9039 171.596L21.5728 168.694L17.9395 153.993L17.2332 145.489L15.3889 138.562L14.3296 136.178L13.2136 135.632L12.3488 133.911L11.4659 129.118L10.6231 127.917L8.0809 119.586L9.22027 118.74L8.39401 118.068L8.14434 119.015L6.80495 119.056L6.37319 116.642L5.65038 115.886L6.09179 115.489L5.56211 113.256L4.63929 112.268L3.7813 113.165L0.621094 110.75L1.4308 110.567L1.64736 109.328L1.10112 109.312L0.676271 107.85L1.88876 107.107L2.92883 107.452L2.83503 106.193L3.98131 107.08L5.66418 105.725L5.4214 105.003L6.59527 103.533L5.90282 101.856L6.22697 100.439L7.15946 99.2151L6.7208 98.0421L5.3014 97.0095L7.73051 95.952L7.34704 93.7228L6.02696 93.0821L6.02283 91.4478L5.26691 90.0553L6.15939 88.9602L5.2076 87.765L5.61866 86.4531L5.23519 85.1134L4.551 84.7437L4.02131 85.269L3.35507 84.3101L2.87227 85.1787L1.51218 85.2313Z" fill="#D0D5DD" stroke="white" stroke-width="1.3794" mask="url(#path-1-inside-1_1156_4046)"/>
<g opacity="0.1">
<rect x="41.9993" y="112" width="28.2793" height="28.2793" rx="14.1396" fill="#236DF8"/>
</g>
<rect x="47.655" y="117.654" width="16.9676" height="16.9676" rx="8.48379" fill="#73C4FF" fill-opacity="0.7"/>
<rect x="53.3108" y="123.311" width="5.65586" height="5.65586" rx="2.82793" fill="#236DF8"/>
</svg>
