<svg width="74" height="133" viewBox="0 0 74 133" fill="none" xmlns="http://www.w3.org/2000/svg">
<mask id="path-1-inside-1_1156_4045" fill="white">
<path d="M0.910889 1.59684L4.5263 0.529541L4.99805 1.41894L4.30974 2.3251L5.10152 2.53213L4.9553 2.93659L6.18433 2.77393L6.13054 4.39302L7.14991 4.20536L7.23682 3.27563L9.10039 3.91077L8.87831 5.18519L9.34593 5.66744L10.5667 5.42833L11.1861 7.27811L12.7392 5.82723L14.2166 6.61106L12.7434 7.23366L12.8675 8.5942L14.4194 9.42113L14.5918 10.4342L16.7188 9.23069L16.9506 10.3161L15.3367 10.5649L15.3077 11.8851L16.9188 13.0761L16.854 15.454L18.69 15.4609L21.4074 19.4661L23.0889 19.7134L23.8779 21.2283L25.009 20.9587L25.4546 22.0886L27.8409 21.8203L28.5541 24.3885L30.0659 25.6755L33.4648 26.1896L36.7408 24.7916L36.745 28.3201L38.9382 27.9477L39.9341 29.8294L41.4791 29.7265L43.2971 31.8792L45.3952 31.2093L45.7193 32.2808L45.0696 32.7533L45.8504 33.9861L45.889 35.0506L44.5965 35.0769L43.733 36.2485L42.2253 36.7918L41.4473 35.9497L40.1424 36.7891L40.5562 39.8799L41.6515 39.4407L42.8888 40.3218L43.2585 39.9077L45.4738 40.6484L46.5704 42.1869L48.3347 43.2111L49.1637 43.0652L49.2216 44.8121L46.5139 46.6368L46.6973 48.1183L47.7043 47.4526L51.6135 47.957L53.7475 46.6104L54.5737 47.2733L53.5805 49.1689L54.9544 49.8527L54.9075 52.0262L56.5063 52.1763L54.0247 52.5001L52.368 55.6562L57.2304 57.4921L57.8912 59.0847L59.2733 59.314L59.5396 60.1701L58.3271 62.9788L58.8209 64.3268L56.8677 64.4172L57.5822 65.6319L56.9353 70.6336L57.8594 72.2567L57.2911 74.1496L57.836 74.6665L58.5795 74.301L58.5216 74.9764L59.7685 76.2189L61.6542 76.6928L63.6102 75.5323L63.995 74.4358L67.2035 72.65L68.9126 72.8265L68.6919 73.8397L69.7333 75.3698L69.6175 76.3426L70.5968 76.7345L69.9995 79.3222L67.9208 80.1032L69.6616 82.2253L69.9775 84.1877L69.2754 84.4976L68.2477 86.7518L68.9567 87.2493L68.5305 88.261L69.2533 89.024L68.5553 89.2769L68.5098 90.9849L67.9815 91.1655L66.8835 94.3773L68.1553 94.4315L69.8616 95.5808L71.2852 94.7581L71.8769 95.6322L72.3418 94.6983L72.6204 96.7134L73.9405 97.5848L73.4301 98.9273L72.15 99.504L71.4879 102.527L70.7031 102.541L70.2037 103.611V106.014L69.3319 106.882L69.7692 107.941L68.1553 109.538L67.758 111.058L66.3166 111.781L67.7029 113.678L67.7097 114.593L68.4105 114.544L69.5154 116.245L68.6974 118.688L67.5966 119.879L66.9842 119.804L70.1554 125.653L69.6464 126.708L67.8836 126.942L68.547 128.568L66.391 130.297L67.1083 132.227L66.0186 131.921L65.2834 132.648L61.7728 130.103L51.866 116.917L49.3954 114.983L48.6009 111.586L43.3799 99.9473L40.4762 83.836L40.9342 83.7137L42.1605 86.0526L44.0351 88.0566L44.0378 91.6102L44.8889 92.2036L43.9344 96.7411L44.6876 97.2928V96.7203L48.1126 96.566L45.6338 95.5487L46.0421 94.2215L45.7855 93.0736L45.2476 93.1626L45.569 91.7131L44.6696 91.5171L44.5179 86.7837L43.4433 85.1786L42.9702 85.3328L43.3082 86.2222L42.8267 86.0818L40.8294 81.9418L41.2625 80.4896L39.5617 78.4994L40.6528 83.376L40.0914 83.49L36.4898 71.6382L31.0274 59.5336L29.5114 52.8781L25.9912 43.0137L24.4586 40.2134L22.573 39.3615L20.4073 33.3203L16.4457 28.7035L15.0098 28.0712L12.4261 23.7477L11.4081 23.2099L10.5653 23.7631L9.99562 21.1114L3.98006 9.16932L0.910889 1.59684Z"/>
</mask>
<path d="M0.910889 1.59684L4.5263 0.529541L4.99805 1.41894L4.30974 2.3251L5.10152 2.53213L4.9553 2.93659L6.18433 2.77393L6.13054 4.39302L7.14991 4.20536L7.23682 3.27563L9.10039 3.91077L8.87831 5.18519L9.34593 5.66744L10.5667 5.42833L11.1861 7.27811L12.7392 5.82723L14.2166 6.61106L12.7434 7.23366L12.8675 8.5942L14.4194 9.42113L14.5918 10.4342L16.7188 9.23069L16.9506 10.3161L15.3367 10.5649L15.3077 11.8851L16.9188 13.0761L16.854 15.454L18.69 15.4609L21.4074 19.4661L23.0889 19.7134L23.8779 21.2283L25.009 20.9587L25.4546 22.0886L27.8409 21.8203L28.5541 24.3885L30.0659 25.6755L33.4648 26.1896L36.7408 24.7916L36.745 28.3201L38.9382 27.9477L39.9341 29.8294L41.4791 29.7265L43.2971 31.8792L45.3952 31.2093L45.7193 32.2808L45.0696 32.7533L45.8504 33.9861L45.889 35.0506L44.5965 35.0769L43.733 36.2485L42.2253 36.7918L41.4473 35.9497L40.1424 36.7891L40.5562 39.8799L41.6515 39.4407L42.8888 40.3218L43.2585 39.9077L45.4738 40.6484L46.5704 42.1869L48.3347 43.2111L49.1637 43.0652L49.2216 44.8121L46.5139 46.6368L46.6973 48.1183L47.7043 47.4526L51.6135 47.957L53.7475 46.6104L54.5737 47.2733L53.5805 49.1689L54.9544 49.8527L54.9075 52.0262L56.5063 52.1763L54.0247 52.5001L52.368 55.6562L57.2304 57.4921L57.8912 59.0847L59.2733 59.314L59.5396 60.1701L58.3271 62.9788L58.8209 64.3268L56.8677 64.4172L57.5822 65.6319L56.9353 70.6336L57.8594 72.2567L57.2911 74.1496L57.836 74.6665L58.5795 74.301L58.5216 74.9764L59.7685 76.2189L61.6542 76.6928L63.6102 75.5323L63.995 74.4358L67.2035 72.65L68.9126 72.8265L68.6919 73.8397L69.7333 75.3698L69.6175 76.3426L70.5968 76.7345L69.9995 79.3222L67.9208 80.1032L69.6616 82.2253L69.9775 84.1877L69.2754 84.4976L68.2477 86.7518L68.9567 87.2493L68.5305 88.261L69.2533 89.024L68.5553 89.2769L68.5098 90.9849L67.9815 91.1655L66.8835 94.3773L68.1553 94.4315L69.8616 95.5808L71.2852 94.7581L71.8769 95.6322L72.3418 94.6983L72.6204 96.7134L73.9405 97.5848L73.4301 98.9273L72.15 99.504L71.4879 102.527L70.7031 102.541L70.2037 103.611V106.014L69.3319 106.882L69.7692 107.941L68.1553 109.538L67.758 111.058L66.3166 111.781L67.7029 113.678L67.7097 114.593L68.4105 114.544L69.5154 116.245L68.6974 118.688L67.5966 119.879L66.9842 119.804L70.1554 125.653L69.6464 126.708L67.8836 126.942L68.547 128.568L66.391 130.297L67.1083 132.227L66.0186 131.921L65.2834 132.648L61.7728 130.103L51.866 116.917L49.3954 114.983L48.6009 111.586L43.3799 99.9473L40.4762 83.836L40.9342 83.7137L42.1605 86.0526L44.0351 88.0566L44.0378 91.6102L44.8889 92.2036L43.9344 96.7411L44.6876 97.2928V96.7203L48.1126 96.566L45.6338 95.5487L46.0421 94.2215L45.7855 93.0736L45.2476 93.1626L45.569 91.7131L44.6696 91.5171L44.5179 86.7837L43.4433 85.1786L42.9702 85.3328L43.3082 86.2222L42.8267 86.0818L40.8294 81.9418L41.2625 80.4896L39.5617 78.4994L40.6528 83.376L40.0914 83.49L36.4898 71.6382L31.0274 59.5336L29.5114 52.8781L25.9912 43.0137L24.4586 40.2134L22.573 39.3615L20.4073 33.3203L16.4457 28.7035L15.0098 28.0712L12.4261 23.7477L11.4081 23.2099L10.5653 23.7631L9.99562 21.1114L3.98006 9.16932L0.910889 1.59684Z" fill="#D0D5DD" stroke="white" stroke-width="1.3794" mask="url(#path-1-inside-1_1156_4045)"/>
<g opacity="0.1">
<rect x="30.9993" y="56" width="28.2793" height="28.2793" rx="14.1396" fill="#236DF8"/>
</g>
<rect x="36.655" y="61.6543" width="16.9676" height="16.9676" rx="8.48379" fill="#73C4FF" fill-opacity="0.7"/>
<rect x="42.3108" y="67.3114" width="5.65586" height="5.65586" rx="2.82793" fill="#236DF8"/>
</svg>
