<svg width="239" height="197" viewBox="0 0 239 197" fill="none" xmlns="http://www.w3.org/2000/svg">
<mask id="path-1-inside-1_1159_4048" fill="white">
<path d="M44.0904 2.54643L45.6684 3.43309L48.241 3.11624L48.5969 2.12812L50.1156 1.76125L51.088 0.482671L52.7544 0.283936L52.8302 2.01139L54.1227 2.53114L55.1062 3.95563L54.4179 7.12146L54.6372 9.62718L55.8249 9.88842L56.0125 11.0183L62.7178 13.2433L65.9166 12.6318L70.4176 14.6636L72.0742 17.9378L75.0993 19.4513L77.4029 19.3039L77.4677 20.1239L79.1851 19.6889L80.2541 20.3185L82.2749 19.9696L84.5771 20.6437L86.3317 19.9446L88.1939 20.3991L94.3929 19.8001L96.7214 19.9752L99.1367 21.2579L100.473 20.5978L102.221 24.1611L101.793 24.8143L102.61 26.3597L102.44 26.9045L100.913 27.0934L102.607 29.5741L105.192 29.2628L105.759 29.8632L108.49 29.8007L110.695 28.6375L111.696 26.1179L115.623 26.2236L116.713 23.4385L115.658 21.8028L120.268 17.7197L120.488 16.9943L119.655 15.9756L120.374 15.4308L120.591 13.6464L121.694 13.7854L122.232 13.103L123.646 13.5449L128.59 9.74538L131.057 10.0414L131.453 9.6092L132.491 10.6446L132.987 9.90105L134.678 9.70367L134.767 8.50435L140.23 8.23334L142.156 10.4264L142.998 12.7278L142.988 14.7318L144.031 15.3488L142.872 15.7532L139.71 14.9194L138.539 15.649L139.156 17.5196L140.051 18.0157L140.563 20.4769L143.375 20.8884L143.963 20.8105L143.869 19.985L145.296 19.9905L145.765 20.6701L146.454 19.8752L146.863 21.0565L147.689 20.8814L148.152 20.2282L149.409 20.0725L149.58 19.4041L151.962 20.4783L153.605 20.192L160.263 16.7246L160.599 14.8527L163.149 14.4788L163.059 13.745L164.156 14.4566L165.1 13.8618L165.798 14.2426L166.333 12.9862L167.576 13.506L167.792 16.6232L170.059 15.7921L171.732 16.1882L172.261 17.0846L176.157 17.7753L176.928 16.8678L177.671 17.6989L178.03 17.0165L180.779 17.1457L181.239 16.6607L182.28 17.0707L182.534 16.2522L181.488 14.9722L182.164 14.8026L181.742 13.8048L184.087 12.9835L184.523 13.5213L186.791 13.5936L188.515 11.6841L190.596 11.987L190.85 9.71204L194.325 11.1143L195.645 11.2491L196.253 10.7237L198.354 11.2629L199.742 15.3043L202.942 14.9013L205.4 13.4893L208.994 15.7171L210.689 15.9186L211.283 14.9124L212.933 15.6003L214.955 14.9819L216.438 13.3504L218.554 12.5054L220.634 12.9417L223.822 16.0284L224.997 18.6008L224.356 19.5569L224.768 20.5158L225.837 20.6534L226.066 19.7139L227.141 19.8584L230.249 22.1223L232.079 21.9361L232.554 22.9451L231.467 24.4376L226.327 26.8377L225.635 29.185L226.04 31.0597L225.359 31.8992L226.277 34.2992L228.769 34.2437L228.875 39.4594L229.874 41.9859L227.78 42.8837L227.029 44.0441L227.904 45.0322L229.504 44.1886L231.092 44.4527L230.043 50.883L230.96 52.7939L228.774 53.6208L227.873 54.7687L224.181 55.629L225.076 57.2161L224.269 58.0611L224.495 58.6392L227.504 58.7962L228.727 59.6926L228.894 61.0518L228.876 63.4685L228.149 65.2016L226.997 65.2961L225.935 64.5303L224.855 65.1501L224.895 65.9673L227.061 66.1827L227.49 67.1096L225.589 68.908L224.604 68.7245L224.521 69.3902L226.189 69.4417L226.93 70.0712L226.672 68.4647L228.788 68.6301L228.708 70.0031L232.351 72.5338L232.092 74.9895L233.943 75.109L235.255 76.3389L237.022 76.5126L237.535 77.5396L238.507 77.8509L238.882 79.488L235.875 80.6832L237.522 82.7011L234.757 84.9734L233.005 85.072L232.523 83.7559L230.74 84.3479L229.518 81.4753L226.854 83.4933L225.739 85.7613L224.189 86.4326L224.286 87.9668L222.501 89.4205L222.422 91.4606L220.851 94.1387L220.849 95.9287L223.183 99.1334L221.106 100.939L220.113 101.094L220.845 102.37L218.95 102.995L218.576 103.663L217.685 103.041L216.32 103.646L213.477 100.88L211.156 100.341L210.06 98.9221L211.359 98.0647L211.23 93.088L210.698 92.3028L209.067 92.6919L209.022 90.5656L211.482 88.5311L210.817 86.8231L212.019 84.6453L212.343 81.474L211.395 79.5269L208.162 77.3033L206.926 75.5662L205.624 75.2729L202.719 76.1359L201.516 78.3206L200.2 77.8217L199.916 76.9489L197.83 78.5152L194.902 76.2527L193.321 76.4278L193.048 75.6718L191.288 74.9839L191.079 77.6146L190.219 78.6931L190.683 79.4255L189.38 79.6423L187.217 77.5785L184.777 77.2116L184.04 76.5334L182.934 76.8475L183.684 75.8274L183.349 73.8582L181.818 73.2897L180.168 73.64L179.787 70.5061L178.033 69.8793L176.058 70.2476L172.801 68.6897L170.566 68.5605L169.632 69.4374L169.121 68.7231L166.853 68.1074L166.462 66.7913L165.079 66.6689L164.596 65.6753L163.864 67.7029L165.159 68.0212L165.989 69.8084L165.341 71.8805L163.624 72.6143L163.159 73.4301L164.351 75.2409L164.355 76.236L163.429 76.6529L164.29 79.7756L160.63 81.1445L161.062 83.5974L160.28 86.5214L157.745 85.9572L156.847 86.3547L156.691 85.4638L153.895 83.3056L151.353 84.5049L151.383 85.0566L152.648 85.5736L151.54 85.9405L150.939 87.725L151.281 88.2211L150.492 89.6011L150.984 90.9964L149.671 90.6323L149.512 92.1818L148.488 91.8539L148.363 92.8781L148.65 94.3206L150.088 94.2914L149.959 95.299L151.144 95.2114L150.762 96.4635L151.948 96.5484L153.709 99.1833L150.674 99.6364L149.201 103.403L148.369 102.701L147.653 103.651L147.758 107.349L145.479 108.19L145.227 107.413L143.738 107.569L143.847 109.805L143.14 109.513L142.264 110.134L143.391 110.682L141.679 111.232L142.524 111.523L141.493 113.612L142.862 114.566L142.373 115.377L141.204 114.908L141.225 115.77L139.931 116.333L139.094 114.914L136.854 114.787L138.335 112.415L137.17 112.044L137.167 110.613L136.371 111.142L135.658 110.425L133.429 111.801L133.568 112.961L132.135 114.725L132.446 115.784L131.417 115.695L130.824 117.653L129.252 118.308L129.637 119.597L128.158 119.608L127.441 118.652L127.184 119.294L126.143 118.509L125.167 118.619L124.256 120.71L125.576 121.288L124.962 122L125.183 123.037L124.116 123.233L124.08 126.824L120.799 128.245L119.006 127.344L118.913 128.589L120.377 129.517L119.643 130.714L118.284 130.871L118.628 132.233L117.777 132.565L117.557 133.964L116.767 133.724L115.36 131.282L114.169 133.289L114.171 131.532L112.739 131.566L112.738 132.891L111.66 132.943L111.746 134.547L109.997 135.04L109.62 136.26L107.195 136.544L107.437 138.129L108.19 138.746L107.536 139.59L108.448 139.616L107.17 140.365L107.253 141.472L108.394 141.408L108.071 143.206L109.401 143.38L108.639 145.122L107.798 145.168L107.548 143.977L105.592 144.565L104.683 143.228L102.603 144.012L102.702 145.574L102.338 144.25L101.129 143.478L99.9023 144.578L99.2043 143.844L95.6413 144.758L94.5585 143.863L94.3736 141.934L93.6439 142.889L92.5694 141.766L91.9224 143.363L90.0368 141.795L88.7126 142.076L88.3194 140.702L87.1083 140.108L86.5373 142.704L85.4613 142.975L85.642 143.979L86.4586 144.205L86.2517 145.388L87.8091 146.655L87.8739 148.263L86.889 149.418L88.347 151.717L88.3443 152.665L87.3442 153.464L88.1663 153.485L88.2339 155.767L87.3801 156.046L86.3883 155.484L86.3552 154.471L85.3813 154.33L85.2241 155.664L82.977 156.29L82.2666 155.008L81.2017 155.669L80.1548 155.279L78.7271 156L77.0856 155.932L76.9215 158.367L74.9889 159.391L74.0454 159.339L74.2316 158.387H72.8301L71.3652 156.117L69.6755 156.812L69.6286 156.331L66.9746 156.347L66.6463 156.813L67.8078 157.424L67.7167 158.255L66.2118 158.918L66.5539 161.516L64.5662 161.489L60.039 163.168L59.9797 164.383L58.9506 165.513L59.8128 166.512L58.4389 166.442L58.2527 167.378L56.4539 168.095L55.8001 165.645L54.2579 165.843L53.662 164.814L53.5185 166.502L51.5267 167.29L51.1349 168.822L50.3459 168.495L50.4328 167.943L49.3872 168.052L48.9458 169.601L47.8561 168.32L48.1265 169.562L47.1843 169.819L47.6354 170.388L48.5348 169.586L48.4313 170.901L49.6604 171.106L49.7693 172.664L50.5335 172.85L50.3183 173.741L49.7817 172.96L49.2728 173.304L49.2024 174.935L49.9445 175.948L49.5141 176.654L50.0756 175.937L52.0371 176.276L52.0743 176.972L54.4027 177.767L54.6855 179.057L53.9034 180.298L53.9972 182.095L52.4233 181.393L50.5046 183.129L51.1363 183.665L52.4716 183.015L53.4523 183.503L51.1887 187.694L51.7571 189.155L51.2343 189.18L50.677 187.983L49.8218 189.172L51.1156 189.409L50.4094 191.526L48.3113 192.558L47.0961 192.501L46.4395 191.166L45.7774 192.135L43.6476 193.2L43.7345 194.387L42.664 194.614L43.5151 195.231L40.6819 196.603L39.839 196.405L38.9893 195.409L38.2996 192.489L36.4829 192.253L35.9933 190.807L35.0553 192.601L30.6412 193.003L29.7267 192.362L30.4798 192.112L28.0493 187.354L25.7236 186.602L24.9539 183.636L24.1511 183.086L24.5042 182.576L23.5814 178.73L22.2255 173.834L21.6241 173.776L22.7069 172.531L21.5606 172.757L21.5358 171.484L20.1315 169.255L20.1715 167.964L20.893 167.663L20.1467 166.616L20.813 165.492L20.2998 165.392L19.9867 160.401L19.0004 157.825L19.497 154.987L18.8239 154.97L19.1922 154.196L18.3425 153.735L19.6087 152.189L18.679 151.147L17.4514 146.497L16.4651 145.513L17.4127 145.395L17.5727 146.042L18.0459 145.26L16.9796 142.929L15.825 142.299L16.9396 141.271L16.3699 141.187L16.3134 139.249L14.9657 137.732L15.865 136.924L14.6691 135.265L14.2925 133.528L14.9022 132.862L13.5546 130.07L13.1932 127.378L12.8331 127.564L11.862 125.943L12.102 124.72L10.7061 122.564L11.0827 121.939L10.1598 120.224L10.6413 118.306L9.00529 117.536L9.13358 115.675L9.97501 115.717L10.4633 116.876L12.9904 117.476L12.6055 118.55L13.5435 119.63L13.3187 117.205L12.5738 116.013L10.793 115.92L9.58189 114.007L8.51423 113.442L8.86735 112.477L7.97626 109.852L8.9308 107.741L6.81343 103.013L7.22173 99.7223L8.57768 100.096L9.28394 99.0107L10.1433 100.174L10.495 99.5708L10.6716 97.8475L8.87563 98.3061L8.33766 96.7427L9.77501 96.5467L9.24531 95.3849L9.71845 94.5441L10.3999 94.8929L11.931 93.7756L11.0813 93.7019L10.793 91.9425L9.91846 91.9689L9.71017 92.9042L8.37904 94.0173L7.01619 93.6602L6.51134 96.063L5.44506 97.0817L5.90164 95.5363L4.9871 95.257L5.64508 92.9194L5.98993 93.1835L6.32649 92.5456L5.68508 92.444L5.9982 90.8709L4.64915 88.6612L4.59259 85.2063L5.19401 83.6067L3.99945 82.2378L3.62287 79.5709L4.64915 78.7009L4.82571 77.635L4.20774 78.3006L2.86006 77.2445L2.70005 75.4878L3.42976 75.4281L1.96208 69.3952L0.912354 68.0027L0.944073 67.4218L1.79379 67.2119L1.3041 65.1343L2.80489 63.9197L2.5566 60.9011L3.42286 58.8651L5.27678 59.2209L5.28229 58.4968L6.24373 58.6149L6.22304 57.3475L7.37484 56.1134L10.1447 56.5289L10.6137 57.7936L10.2247 59.0416L10.6868 59.5822L11.502 58.9137L11.2923 59.6698L12.5228 60.9845L12.749 60.0186L15.0264 60.4744L16.3644 61.4403L17.2431 59.3126L19.3439 58.4649L19.9812 56.6887L21.1854 56.957L21.6116 56.4983L21.8061 57.1363L23.4118 56.718L23.2241 52.2208L22.2972 51.045L23.4062 50.2987L25.456 46.413L24.9098 46.3185L24.8808 45.0733L23.7125 44.7175L22.6255 43.25L23.7 42.562L24.0973 41.1528L24.9318 40.9444L25.3884 42.915L26.5416 42.2841L28.5307 43.4445L29.3818 45.2081L30.3612 45.7307L31.2357 45.2359L32.5986 45.5764L35.2001 44.081L35.4043 42.4939L34.749 41.667L35.9312 41.6517L36.5657 40.5608L37.5851 40.7498L38.4127 40.1689L38.2844 37.142L36.8388 34.0457L37.1685 32.7129L34.5683 32.314L34.3173 31.4913L33.3683 31.8679L32.4248 30.4712L32.7255 28.6563L30.0508 28.8327L27.9817 26.9872L28.7004 26.7329L29.3708 28.0795L30.6674 27.475L32.2661 27.9058L32.4096 27.0108L34.7463 26.8621L35.0235 23.8978L36.7519 24.0534L38.3838 22.9639L38.5093 19.7077L38.9673 20.0274L41.2722 19.1768L41.8102 17.2367L43.0172 18.2902L43.5924 17.8079L46.2974 17.9483L46.4836 17.309L47.0795 17.8288L49.3334 16.8073L49.3596 15.3953L48.6989 14.6477L47.6713 15.5677L46.7471 15.1174L45.8863 15.7025L45.2532 14.8214L41.8874 14.8241L35.8526 16.8059L34.8042 13.6178L33.7393 12.7854L36.5699 12.1628L36.8802 10.4451L34.9987 8.49665L35.396 7.63086L34.4014 6.61357L44.0904 2.54643Z"/>
</mask>
<path d="M44.0904 2.54643L45.6684 3.43309L48.241 3.11624L48.5969 2.12812L50.1156 1.76125L51.088 0.482671L52.7544 0.283936L52.8302 2.01139L54.1227 2.53114L55.1062 3.95563L54.4179 7.12146L54.6372 9.62718L55.8249 9.88842L56.0125 11.0183L62.7178 13.2433L65.9166 12.6318L70.4176 14.6636L72.0742 17.9378L75.0993 19.4513L77.4029 19.3039L77.4677 20.1239L79.1851 19.6889L80.2541 20.3185L82.2749 19.9696L84.5771 20.6437L86.3317 19.9446L88.1939 20.3991L94.3929 19.8001L96.7214 19.9752L99.1367 21.2579L100.473 20.5978L102.221 24.1611L101.793 24.8143L102.61 26.3597L102.44 26.9045L100.913 27.0934L102.607 29.5741L105.192 29.2628L105.759 29.8632L108.49 29.8007L110.695 28.6375L111.696 26.1179L115.623 26.2236L116.713 23.4385L115.658 21.8028L120.268 17.7197L120.488 16.9943L119.655 15.9756L120.374 15.4308L120.591 13.6464L121.694 13.7854L122.232 13.103L123.646 13.5449L128.59 9.74538L131.057 10.0414L131.453 9.6092L132.491 10.6446L132.987 9.90105L134.678 9.70367L134.767 8.50435L140.23 8.23334L142.156 10.4264L142.998 12.7278L142.988 14.7318L144.031 15.3488L142.872 15.7532L139.71 14.9194L138.539 15.649L139.156 17.5196L140.051 18.0157L140.563 20.4769L143.375 20.8884L143.963 20.8105L143.869 19.985L145.296 19.9905L145.765 20.6701L146.454 19.8752L146.863 21.0565L147.689 20.8814L148.152 20.2282L149.409 20.0725L149.58 19.4041L151.962 20.4783L153.605 20.192L160.263 16.7246L160.599 14.8527L163.149 14.4788L163.059 13.745L164.156 14.4566L165.1 13.8618L165.798 14.2426L166.333 12.9862L167.576 13.506L167.792 16.6232L170.059 15.7921L171.732 16.1882L172.261 17.0846L176.157 17.7753L176.928 16.8678L177.671 17.6989L178.03 17.0165L180.779 17.1457L181.239 16.6607L182.28 17.0707L182.534 16.2522L181.488 14.9722L182.164 14.8026L181.742 13.8048L184.087 12.9835L184.523 13.5213L186.791 13.5936L188.515 11.6841L190.596 11.987L190.85 9.71204L194.325 11.1143L195.645 11.2491L196.253 10.7237L198.354 11.2629L199.742 15.3043L202.942 14.9013L205.4 13.4893L208.994 15.7171L210.689 15.9186L211.283 14.9124L212.933 15.6003L214.955 14.9819L216.438 13.3504L218.554 12.5054L220.634 12.9417L223.822 16.0284L224.997 18.6008L224.356 19.5569L224.768 20.5158L225.837 20.6534L226.066 19.7139L227.141 19.8584L230.249 22.1223L232.079 21.9361L232.554 22.9451L231.467 24.4376L226.327 26.8377L225.635 29.185L226.04 31.0597L225.359 31.8992L226.277 34.2992L228.769 34.2437L228.875 39.4594L229.874 41.9859L227.78 42.8837L227.029 44.0441L227.904 45.0322L229.504 44.1886L231.092 44.4527L230.043 50.883L230.96 52.7939L228.774 53.6208L227.873 54.7687L224.181 55.629L225.076 57.2161L224.269 58.0611L224.495 58.6392L227.504 58.7962L228.727 59.6926L228.894 61.0518L228.876 63.4685L228.149 65.2016L226.997 65.2961L225.935 64.5303L224.855 65.1501L224.895 65.9673L227.061 66.1827L227.49 67.1096L225.589 68.908L224.604 68.7245L224.521 69.3902L226.189 69.4417L226.93 70.0712L226.672 68.4647L228.788 68.6301L228.708 70.0031L232.351 72.5338L232.092 74.9895L233.943 75.109L235.255 76.3389L237.022 76.5126L237.535 77.5396L238.507 77.8509L238.882 79.488L235.875 80.6832L237.522 82.7011L234.757 84.9734L233.005 85.072L232.523 83.7559L230.74 84.3479L229.518 81.4753L226.854 83.4933L225.739 85.7613L224.189 86.4326L224.286 87.9668L222.501 89.4205L222.422 91.4606L220.851 94.1387L220.849 95.9287L223.183 99.1334L221.106 100.939L220.113 101.094L220.845 102.37L218.95 102.995L218.576 103.663L217.685 103.041L216.32 103.646L213.477 100.88L211.156 100.341L210.06 98.9221L211.359 98.0647L211.23 93.088L210.698 92.3028L209.067 92.6919L209.022 90.5656L211.482 88.5311L210.817 86.8231L212.019 84.6453L212.343 81.474L211.395 79.5269L208.162 77.3033L206.926 75.5662L205.624 75.2729L202.719 76.1359L201.516 78.3206L200.2 77.8217L199.916 76.9489L197.83 78.5152L194.902 76.2527L193.321 76.4278L193.048 75.6718L191.288 74.9839L191.079 77.6146L190.219 78.6931L190.683 79.4255L189.38 79.6423L187.217 77.5785L184.777 77.2116L184.04 76.5334L182.934 76.8475L183.684 75.8274L183.349 73.8582L181.818 73.2897L180.168 73.64L179.787 70.5061L178.033 69.8793L176.058 70.2476L172.801 68.6897L170.566 68.5605L169.632 69.4374L169.121 68.7231L166.853 68.1074L166.462 66.7913L165.079 66.6689L164.596 65.6753L163.864 67.7029L165.159 68.0212L165.989 69.8084L165.341 71.8805L163.624 72.6143L163.159 73.4301L164.351 75.2409L164.355 76.236L163.429 76.6529L164.29 79.7756L160.63 81.1445L161.062 83.5974L160.28 86.5214L157.745 85.9572L156.847 86.3547L156.691 85.4638L153.895 83.3056L151.353 84.5049L151.383 85.0566L152.648 85.5736L151.54 85.9405L150.939 87.725L151.281 88.2211L150.492 89.6011L150.984 90.9964L149.671 90.6323L149.512 92.1818L148.488 91.8539L148.363 92.8781L148.65 94.3206L150.088 94.2914L149.959 95.299L151.144 95.2114L150.762 96.4635L151.948 96.5484L153.709 99.1833L150.674 99.6364L149.201 103.403L148.369 102.701L147.653 103.651L147.758 107.349L145.479 108.19L145.227 107.413L143.738 107.569L143.847 109.805L143.14 109.513L142.264 110.134L143.391 110.682L141.679 111.232L142.524 111.523L141.493 113.612L142.862 114.566L142.373 115.377L141.204 114.908L141.225 115.77L139.931 116.333L139.094 114.914L136.854 114.787L138.335 112.415L137.17 112.044L137.167 110.613L136.371 111.142L135.658 110.425L133.429 111.801L133.568 112.961L132.135 114.725L132.446 115.784L131.417 115.695L130.824 117.653L129.252 118.308L129.637 119.597L128.158 119.608L127.441 118.652L127.184 119.294L126.143 118.509L125.167 118.619L124.256 120.71L125.576 121.288L124.962 122L125.183 123.037L124.116 123.233L124.08 126.824L120.799 128.245L119.006 127.344L118.913 128.589L120.377 129.517L119.643 130.714L118.284 130.871L118.628 132.233L117.777 132.565L117.557 133.964L116.767 133.724L115.36 131.282L114.169 133.289L114.171 131.532L112.739 131.566L112.738 132.891L111.66 132.943L111.746 134.547L109.997 135.04L109.62 136.26L107.195 136.544L107.437 138.129L108.19 138.746L107.536 139.59L108.448 139.616L107.17 140.365L107.253 141.472L108.394 141.408L108.071 143.206L109.401 143.38L108.639 145.122L107.798 145.168L107.548 143.977L105.592 144.565L104.683 143.228L102.603 144.012L102.702 145.574L102.338 144.25L101.129 143.478L99.9023 144.578L99.2043 143.844L95.6413 144.758L94.5585 143.863L94.3736 141.934L93.6439 142.889L92.5694 141.766L91.9224 143.363L90.0368 141.795L88.7126 142.076L88.3194 140.702L87.1083 140.108L86.5373 142.704L85.4613 142.975L85.642 143.979L86.4586 144.205L86.2517 145.388L87.8091 146.655L87.8739 148.263L86.889 149.418L88.347 151.717L88.3443 152.665L87.3442 153.464L88.1663 153.485L88.2339 155.767L87.3801 156.046L86.3883 155.484L86.3552 154.471L85.3813 154.33L85.2241 155.664L82.977 156.29L82.2666 155.008L81.2017 155.669L80.1548 155.279L78.7271 156L77.0856 155.932L76.9215 158.367L74.9889 159.391L74.0454 159.339L74.2316 158.387H72.8301L71.3652 156.117L69.6755 156.812L69.6286 156.331L66.9746 156.347L66.6463 156.813L67.8078 157.424L67.7167 158.255L66.2118 158.918L66.5539 161.516L64.5662 161.489L60.039 163.168L59.9797 164.383L58.9506 165.513L59.8128 166.512L58.4389 166.442L58.2527 167.378L56.4539 168.095L55.8001 165.645L54.2579 165.843L53.662 164.814L53.5185 166.502L51.5267 167.29L51.1349 168.822L50.3459 168.495L50.4328 167.943L49.3872 168.052L48.9458 169.601L47.8561 168.32L48.1265 169.562L47.1843 169.819L47.6354 170.388L48.5348 169.586L48.4313 170.901L49.6604 171.106L49.7693 172.664L50.5335 172.85L50.3183 173.741L49.7817 172.96L49.2728 173.304L49.2024 174.935L49.9445 175.948L49.5141 176.654L50.0756 175.937L52.0371 176.276L52.0743 176.972L54.4027 177.767L54.6855 179.057L53.9034 180.298L53.9972 182.095L52.4233 181.393L50.5046 183.129L51.1363 183.665L52.4716 183.015L53.4523 183.503L51.1887 187.694L51.7571 189.155L51.2343 189.18L50.677 187.983L49.8218 189.172L51.1156 189.409L50.4094 191.526L48.3113 192.558L47.0961 192.501L46.4395 191.166L45.7774 192.135L43.6476 193.2L43.7345 194.387L42.664 194.614L43.5151 195.231L40.6819 196.603L39.839 196.405L38.9893 195.409L38.2996 192.489L36.4829 192.253L35.9933 190.807L35.0553 192.601L30.6412 193.003L29.7267 192.362L30.4798 192.112L28.0493 187.354L25.7236 186.602L24.9539 183.636L24.1511 183.086L24.5042 182.576L23.5814 178.73L22.2255 173.834L21.6241 173.776L22.7069 172.531L21.5606 172.757L21.5358 171.484L20.1315 169.255L20.1715 167.964L20.893 167.663L20.1467 166.616L20.813 165.492L20.2998 165.392L19.9867 160.401L19.0004 157.825L19.497 154.987L18.8239 154.97L19.1922 154.196L18.3425 153.735L19.6087 152.189L18.679 151.147L17.4514 146.497L16.4651 145.513L17.4127 145.395L17.5727 146.042L18.0459 145.26L16.9796 142.929L15.825 142.299L16.9396 141.271L16.3699 141.187L16.3134 139.249L14.9657 137.732L15.865 136.924L14.6691 135.265L14.2925 133.528L14.9022 132.862L13.5546 130.07L13.1932 127.378L12.8331 127.564L11.862 125.943L12.102 124.72L10.7061 122.564L11.0827 121.939L10.1598 120.224L10.6413 118.306L9.00529 117.536L9.13358 115.675L9.97501 115.717L10.4633 116.876L12.9904 117.476L12.6055 118.55L13.5435 119.63L13.3187 117.205L12.5738 116.013L10.793 115.92L9.58189 114.007L8.51423 113.442L8.86735 112.477L7.97626 109.852L8.9308 107.741L6.81343 103.013L7.22173 99.7223L8.57768 100.096L9.28394 99.0107L10.1433 100.174L10.495 99.5708L10.6716 97.8475L8.87563 98.3061L8.33766 96.7427L9.77501 96.5467L9.24531 95.3849L9.71845 94.5441L10.3999 94.8929L11.931 93.7756L11.0813 93.7019L10.793 91.9425L9.91846 91.9689L9.71017 92.9042L8.37904 94.0173L7.01619 93.6602L6.51134 96.063L5.44506 97.0817L5.90164 95.5363L4.9871 95.257L5.64508 92.9194L5.98993 93.1835L6.32649 92.5456L5.68508 92.444L5.9982 90.8709L4.64915 88.6612L4.59259 85.2063L5.19401 83.6067L3.99945 82.2378L3.62287 79.5709L4.64915 78.7009L4.82571 77.635L4.20774 78.3006L2.86006 77.2445L2.70005 75.4878L3.42976 75.4281L1.96208 69.3952L0.912354 68.0027L0.944073 67.4218L1.79379 67.2119L1.3041 65.1343L2.80489 63.9197L2.5566 60.9011L3.42286 58.8651L5.27678 59.2209L5.28229 58.4968L6.24373 58.6149L6.22304 57.3475L7.37484 56.1134L10.1447 56.5289L10.6137 57.7936L10.2247 59.0416L10.6868 59.5822L11.502 58.9137L11.2923 59.6698L12.5228 60.9845L12.749 60.0186L15.0264 60.4744L16.3644 61.4403L17.2431 59.3126L19.3439 58.4649L19.9812 56.6887L21.1854 56.957L21.6116 56.4983L21.8061 57.1363L23.4118 56.718L23.2241 52.2208L22.2972 51.045L23.4062 50.2987L25.456 46.413L24.9098 46.3185L24.8808 45.0733L23.7125 44.7175L22.6255 43.25L23.7 42.562L24.0973 41.1528L24.9318 40.9444L25.3884 42.915L26.5416 42.2841L28.5307 43.4445L29.3818 45.2081L30.3612 45.7307L31.2357 45.2359L32.5986 45.5764L35.2001 44.081L35.4043 42.4939L34.749 41.667L35.9312 41.6517L36.5657 40.5608L37.5851 40.7498L38.4127 40.1689L38.2844 37.142L36.8388 34.0457L37.1685 32.7129L34.5683 32.314L34.3173 31.4913L33.3683 31.8679L32.4248 30.4712L32.7255 28.6563L30.0508 28.8327L27.9817 26.9872L28.7004 26.7329L29.3708 28.0795L30.6674 27.475L32.2661 27.9058L32.4096 27.0108L34.7463 26.8621L35.0235 23.8978L36.7519 24.0534L38.3838 22.9639L38.5093 19.7077L38.9673 20.0274L41.2722 19.1768L41.8102 17.2367L43.0172 18.2902L43.5924 17.8079L46.2974 17.9483L46.4836 17.309L47.0795 17.8288L49.3334 16.8073L49.3596 15.3953L48.6989 14.6477L47.6713 15.5677L46.7471 15.1174L45.8863 15.7025L45.2532 14.8214L41.8874 14.8241L35.8526 16.8059L34.8042 13.6178L33.7393 12.7854L36.5699 12.1628L36.8802 10.4451L34.9987 8.49665L35.396 7.63086L34.4014 6.61357L44.0904 2.54643Z" fill="#D0D5DD" stroke="white" stroke-width="1.3794" mask="url(#path-1-inside-1_1159_4048)"/>
<g opacity="0.1">
<rect x="60.9993" y="70" width="28.2793" height="28.2793" rx="14.1396" fill="#236DF8"/>
</g>
<rect x="66.655" y="75.6543" width="16.9676" height="16.9676" rx="8.48379" fill="#73C4FF" fill-opacity="0.7"/>
<rect x="72.3108" y="81.3114" width="5.65586" height="5.65586" rx="2.82793" fill="#236DF8"/>
</svg>
