<svg width="87" height="36" viewBox="0 0 87 36" fill="none" xmlns="http://www.w3.org/2000/svg">
<mask id="path-1-inside-1_1162_4058" fill="white">
<path d="M2.13371 19.0518L6.38364 17.1937L2.78203 12.9299L3.96282 12.6228L4.59043 11.6625L4.28284 10.0545L6.12294 9.33606L6.51607 8.73429L6.01951 8.31182L9.30935 5.65464L11.1536 6.19523L15.2477 5.23355L16.4215 4.07587L17.332 3.95215L18.2603 4.76098L19.6659 3.91742L21.3157 5.75882L20.6839 7.74756L22.702 5.70183L24.0455 6.42175L23.3972 7.23197L23.9241 7.66139L25.6939 5.9909L27.465 5.78244L27.2664 7.13747L28.3492 7.35982L29.2679 5.94784L30.0459 6.3967L31.3811 5.96173L32.424 7.19859L32.3302 6.23691L33.1054 6.09513L33.8185 8.03937L35.6021 8.01151L34.7814 10.1267L36.176 9.27203L37.0271 9.14965L36.1994 9.91264L36.5856 10.1864L40.4314 8.94397L39.9541 11.6026L40.3031 13.1035L41.2232 13.3008L42.7171 12.5462L44.3903 9.59301L46.8553 9.08159L47.5919 9.52212L49.9313 8.49788L50.0555 7.95868L49.4223 8.673L48.4678 8.55063L50.1024 6.86351L49.2444 6.95797L51.3866 3.34188L53.0115 3.68652L53.1798 5.53904L52.406 6.34093L54.0861 7.45272L55.5551 5.8865L55.8752 2.5011L58.416 0.583252L60.0479 1.26003L59.8851 2.72762L61.3859 4.42308L63.3764 3.08615L65.1599 3.35161L67.4787 2.93052L68.7822 1.8479L70.5975 2.39405L72.2197 1.85901L68.1491 6.1853L68.3601 7.24704L70.1451 7.39989L68.8277 8.58536L68.0567 10.431L68.276 14.9573L70.2471 13.5329L73.2666 13.2438L74.7536 12.3321L76.1427 13.0437L76.1124 14.3417L77.0752 14.6169L78.1222 16.5277L79.736 16.878L80.1664 18.5318L81.0341 18.6304L82.5032 17.5144L82.2507 19.2697L80.0188 21.5127L80.9058 21.3779L81.223 23.1443L82.5266 22.5425L82.6949 23.343L83.0894 23.1262L84.3708 24.4757L84.9171 24.2741L85.5957 25.7473L86.284 25.8349L86.5103 27.3497L85.7143 28.4962L86.862 29.4565L82.8921 30.8074L81.5845 32.7058L78.7842 31.9914L79.3126 33.2839L77.6187 33.0129L77.0117 35.2796L75.933 35.4477L73.6598 34.7987L73.6791 33.9663L70.3782 33.3673L65.5751 30.396L57.336 31.0895L56.4987 30.7198L56.2421 31.6343L55.1841 31.3924L53.3702 32.5446L52.246 31.808L52.5867 30.8449L48.4485 32.1888L46.8815 31.0311L44.6441 30.9616L42.6646 29.936L37.1415 30.1542L30.9177 31.4772L28.563 30.5878L27.2305 31.5314L25.8884 30.9797L20.8039 30.8713L18.9459 31.8483L15.7443 30.282L9.20866 29.2133L5.05252 26.7785L1.09777 27.0133L1.47714 26.5478L0.733643 24.1435L1.6992 21.2376L2.41786 20.8345L2.13371 19.0518Z"/>
</mask>
<path d="M2.13371 19.0518L6.38364 17.1937L2.78203 12.9299L3.96282 12.6228L4.59043 11.6625L4.28284 10.0545L6.12294 9.33606L6.51607 8.73429L6.01951 8.31182L9.30935 5.65464L11.1536 6.19523L15.2477 5.23355L16.4215 4.07587L17.332 3.95215L18.2603 4.76098L19.6659 3.91742L21.3157 5.75882L20.6839 7.74756L22.702 5.70183L24.0455 6.42175L23.3972 7.23197L23.9241 7.66139L25.6939 5.9909L27.465 5.78244L27.2664 7.13747L28.3492 7.35982L29.2679 5.94784L30.0459 6.3967L31.3811 5.96173L32.424 7.19859L32.3302 6.23691L33.1054 6.09513L33.8185 8.03937L35.6021 8.01151L34.7814 10.1267L36.176 9.27203L37.0271 9.14965L36.1994 9.91264L36.5856 10.1864L40.4314 8.94397L39.9541 11.6026L40.3031 13.1035L41.2232 13.3008L42.7171 12.5462L44.3903 9.59301L46.8553 9.08159L47.5919 9.52212L49.9313 8.49788L50.0555 7.95868L49.4223 8.673L48.4678 8.55063L50.1024 6.86351L49.2444 6.95797L51.3866 3.34188L53.0115 3.68652L53.1798 5.53904L52.406 6.34093L54.0861 7.45272L55.5551 5.8865L55.8752 2.5011L58.416 0.583252L60.0479 1.26003L59.8851 2.72762L61.3859 4.42308L63.3764 3.08615L65.1599 3.35161L67.4787 2.93052L68.7822 1.8479L70.5975 2.39405L72.2197 1.85901L68.1491 6.1853L68.3601 7.24704L70.1451 7.39989L68.8277 8.58536L68.0567 10.431L68.276 14.9573L70.2471 13.5329L73.2666 13.2438L74.7536 12.3321L76.1427 13.0437L76.1124 14.3417L77.0752 14.6169L78.1222 16.5277L79.736 16.878L80.1664 18.5318L81.0341 18.6304L82.5032 17.5144L82.2507 19.2697L80.0188 21.5127L80.9058 21.3779L81.223 23.1443L82.5266 22.5425L82.6949 23.343L83.0894 23.1262L84.3708 24.4757L84.9171 24.2741L85.5957 25.7473L86.284 25.8349L86.5103 27.3497L85.7143 28.4962L86.862 29.4565L82.8921 30.8074L81.5845 32.7058L78.7842 31.9914L79.3126 33.2839L77.6187 33.0129L77.0117 35.2796L75.933 35.4477L73.6598 34.7987L73.6791 33.9663L70.3782 33.3673L65.5751 30.396L57.336 31.0895L56.4987 30.7198L56.2421 31.6343L55.1841 31.3924L53.3702 32.5446L52.246 31.808L52.5867 30.8449L48.4485 32.1888L46.8815 31.0311L44.6441 30.9616L42.6646 29.936L37.1415 30.1542L30.9177 31.4772L28.563 30.5878L27.2305 31.5314L25.8884 30.9797L20.8039 30.8713L18.9459 31.8483L15.7443 30.282L9.20866 29.2133L5.05252 26.7785L1.09777 27.0133L1.47714 26.5478L0.733643 24.1435L1.6992 21.2376L2.41786 20.8345L2.13371 19.0518Z" fill="#D0D5DD" stroke="white" stroke-width="1.3794" mask="url(#path-1-inside-1_1162_4058)"/>
<g opacity="0.1">
<rect x="42.9993" y="7" width="28.2793" height="28.2793" rx="14.1396" fill="#236DF8"/>
</g>
<rect x="48.655" y="12.6542" width="16.9676" height="16.9676" rx="8.48379" fill="#73C4FF" fill-opacity="0.7"/>
<rect x="54.3108" y="18.3115" width="5.65586" height="5.65586" rx="2.82793" fill="#236DF8"/>
</svg>
