<svg width="52" height="60" viewBox="0 0 52 60" fill="none" xmlns="http://www.w3.org/2000/svg">
<mask id="path-1-inside-1_1151_2612" fill="white">
<path d="M15.1968 12.5786L15.2769 13.5472L16.2604 13.657L16.0948 14.6632L17.5267 14.4589L19.0661 16.0099L21.5145 10.904H22.2429L24.8692 7.57275L24.7272 6.50124L23.6223 6.47337L23.7629 5.17955L27.2652 4.27621L29.3812 4.65558L30.6876 4.18309L30.809 3.38815L32.8684 4.55552L33.0449 5.42135L34.3913 5.71042L35.0092 4.69869L36.0134 4.78902L36.59 6.4623L38.666 6.09539L39.4385 6.64714L42.5228 5.1031L42.8042 3.49655L44.0732 2.5696L44.9781 2.71832L46.9314 0.129211L47.5852 0.333503L47.0196 1.82888L47.5728 1.85675L46.4334 3.7176L46.4817 6.06209L48.6639 7.56997L50.0902 7.76037L49.8419 9.15568L48.6129 10.0812L47.2886 15.5707L51.9166 18.1028L51.8172 21.6592L50.6889 23.1587L51.1482 24.3011L48.8032 27.4933L48.0252 31.3262L46.2955 31.5041L45.7327 34.1822L43.8263 35.9916L42.7904 38.6057L42.0345 38.7808L42.0497 40.9002L40.9352 41.5825L41.4551 42.226L39.8095 43.5115L39.8564 44.986L37.9708 48.944L37.4687 52.8575L36.0438 56.229L35.3168 56.3139L35.0479 58.9182L33.9263 59.2351L33.1594 57.6272L29.0515 55.8344L27.6998 55.6162L25.0706 56.4792L23.3671 53.9582L19.4303 53.8081L18.9364 55.2229L17.7832 54.5878L16.3832 55.9303L15.0479 55.0839L13.5043 51.7499L11.7263 51.1648L11.1539 51.4025L11.2518 52.5671L9.83104 52.6255L8.88059 53.5052L9.20751 52.3503L8.6723 51.5553L7.97292 51.597L7.76741 52.6741L6.41428 52.517L5.78107 51.4678L4.42373 52.8311L3.80441 50.9966L3.05956 51.3858L0.827637 50.62L2.15324 47.6015L1.74634 45.3668L2.76161 43.3697L2.13118 43.2613L2.21259 41.8743L1.52424 41.4685L2.6402 41.217L2.54229 38.4889L3.6085 36.4516L3.27333 36.0138L4.59893 35.7358L3.68713 35.3328L4.5341 32.8146L3.70094 31.7L4.60583 30.6953L4.68034 28.5328L5.05281 28.2118L5.92596 29.1693L7.2088 28.4842L7.20324 27.043L8.12472 26.3801L8.82267 25.0557L8.43918 24.4164L9.08611 24.0175L8.69436 21.8648L9.25306 20.8795L10.3055 20.9323L11.2049 19.4036L12.7346 14.6062L15.1968 12.5786Z"/>
</mask>
<path d="M15.1968 12.5786L15.2769 13.5472L16.2604 13.657L16.0948 14.6632L17.5267 14.4589L19.0661 16.0099L21.5145 10.904H22.2429L24.8692 7.57275L24.7272 6.50124L23.6223 6.47337L23.7629 5.17955L27.2652 4.27621L29.3812 4.65558L30.6876 4.18309L30.809 3.38815L32.8684 4.55552L33.0449 5.42135L34.3913 5.71042L35.0092 4.69869L36.0134 4.78902L36.59 6.4623L38.666 6.09539L39.4385 6.64714L42.5228 5.1031L42.8042 3.49655L44.0732 2.5696L44.9781 2.71832L46.9314 0.129211L47.5852 0.333503L47.0196 1.82888L47.5728 1.85675L46.4334 3.7176L46.4817 6.06209L48.6639 7.56997L50.0902 7.76037L49.8419 9.15568L48.6129 10.0812L47.2886 15.5707L51.9166 18.1028L51.8172 21.6592L50.6889 23.1587L51.1482 24.3011L48.8032 27.4933L48.0252 31.3262L46.2955 31.5041L45.7327 34.1822L43.8263 35.9916L42.7904 38.6057L42.0345 38.7808L42.0497 40.9002L40.9352 41.5825L41.4551 42.226L39.8095 43.5115L39.8564 44.986L37.9708 48.944L37.4687 52.8575L36.0438 56.229L35.3168 56.3139L35.0479 58.9182L33.9263 59.2351L33.1594 57.6272L29.0515 55.8344L27.6998 55.6162L25.0706 56.4792L23.3671 53.9582L19.4303 53.8081L18.9364 55.2229L17.7832 54.5878L16.3832 55.9303L15.0479 55.0839L13.5043 51.7499L11.7263 51.1648L11.1539 51.4025L11.2518 52.5671L9.83104 52.6255L8.88059 53.5052L9.20751 52.3503L8.6723 51.5553L7.97292 51.597L7.76741 52.6741L6.41428 52.517L5.78107 51.4678L4.42373 52.8311L3.80441 50.9966L3.05956 51.3858L0.827637 50.62L2.15324 47.6015L1.74634 45.3668L2.76161 43.3697L2.13118 43.2613L2.21259 41.8743L1.52424 41.4685L2.6402 41.217L2.54229 38.4889L3.6085 36.4516L3.27333 36.0138L4.59893 35.7358L3.68713 35.3328L4.5341 32.8146L3.70094 31.7L4.60583 30.6953L4.68034 28.5328L5.05281 28.2118L5.92596 29.1693L7.2088 28.4842L7.20324 27.043L8.12472 26.3801L8.82267 25.0557L8.43918 24.4164L9.08611 24.0175L8.69436 21.8648L9.25306 20.8795L10.3055 20.9323L11.2049 19.4036L12.7346 14.6062L15.1968 12.5786Z" fill="#D0D5DD" stroke="white" stroke-width="1.3794" mask="url(#path-1-inside-1_1151_2612)"/>
</svg>
