<svg width="255" height="184" viewBox="0 0 255 184" fill="none" xmlns="http://www.w3.org/2000/svg">
<mask id="path-1-inside-1_1162_4064" fill="white">
<path d="M121.434 1.3943L122.909 1.88486L123.521 0.486792L125.522 0.151855L126.631 1.757L127.673 1.51659L128.392 2.62699L131.715 3.93614L134.406 3.56089L136.033 2.55749L136.252 3.23429L136.775 2.80626L137.506 3.71376L138.807 3.68314L140.351 5.6538L141.478 5.37167L142.754 5.90949L142.459 7.01295L144.055 6.30418L144.415 8.70289L143.663 9.88137L144.001 9.61457L144.193 10.6291L144.846 10.6069L146.011 12.1703L145.651 13.6977L147.912 14.0618L147.637 14.9554L146.759 14.9331L146.469 16.7134L148.115 17.286L147.592 17.6043L147.908 18.2199L146.962 18.3519L146.665 19.6277L146.193 19.1371L145.321 19.8028L145.899 20.9034L144.841 20.859L144.683 22.0459L143.599 22.1099L144.272 23.4162L142.596 23.9263L144.343 25.7746L142.644 27.2186L142.218 30.0383L140.683 31.1224L140.865 32.5816L139.823 32.8957L140.265 34.8677L138.802 33.8727L138.444 34.2562L139.12 34.3521L139.069 34.8607L136.94 36.477L138.804 38.8729L138.627 40.4753L134.926 41.4523L134.106 42.3654L132.951 41.6135L132.158 42.4084L129.417 41.833L128.52 42.8045L127.773 42.4223L127.177 43.416L127.524 45.1879L126.273 46.1246L125.413 45.9175L124.913 47.6422L123.909 48.4816L124.942 49.7018L124.27 50.5245L125.342 50.9414L125.614 52.6022L126.862 53.5069L126.504 54.2296L128.268 55.0648L127.455 55.5623L128.166 56.3517L126.792 56.2961L124.84 57.6303L124.833 60.4792L120.152 64.2371L120.106 65.0237L121.411 66.4273L121.739 68.5217L123.128 71.0774L122.852 74.5434L121.721 75.6691L123.161 77.1506L123.083 78.0664L125.799 80.0232L124.789 81.8062L126.338 83.5225L127.93 82.8207L129.969 79.7647L132.079 80.9362L134.697 84.4912L135.557 84.8275L136.519 84.2132L136.914 84.6746L137.329 84.0645L138.237 86.548L138.867 85.5947L140.754 85.1889L141.589 82.7081L143.295 81.0446L143.801 78.2582L141.612 77.4494L141.764 76.3668L142.252 76.8851L143.281 76.4891L140.837 71.9501L137.809 73.433L137.017 73.055L136.746 71.3039L137.68 69.8975L137.453 67.0041L137.915 66.3662L137.451 64.8875L134.677 63.5797L134.252 62.2442L133.339 61.5855L133.912 58.5016L132.62 57.3398L131.795 52.2005L129.719 51.0721L128.487 51.817L127.716 51.2388L128.098 50.7427L128.862 51.0998L129.588 50.1132L129.821 50.7441L130.538 50.6663L131.012 50.0256L130.54 48.8596L132.014 49.214L131.578 47.8118L132.365 47.9271L132.802 47.128L133.528 47.4671L134.224 46.265L135.179 46.1441L135.63 46.75L134.697 47.5505L134.333 47.0308L134.373 48.0592L135.849 48.3552L135.983 49.1807L137.448 49.007L136.834 47.267L138.849 46.7L137.179 46.5902L136.302 45.6466L136.507 44.4486L137.222 45.2352L139.339 45.5701L139.797 45.9329L138.877 46.1913L139.467 46.6347L140.128 45.5229L139.295 44.1498L140.671 43.6912L140.623 42.6433L141.663 42.5683L141.851 43.1464L142.252 42.5558L142.574 43.4716L141.837 43.8052L142.394 45.1101L141.458 46.1719L142.205 46.7667L143.101 46.429L143.632 48.4427L142.192 49.2182L141.146 48.465L142.263 48.4066L142.789 47.6687L140.636 48.0703L139.567 49.2071L139.732 49.8408L138.244 50.4023L137.993 50.9526L138.813 50.8817L138.64 51.8059L139.682 53.1428L140.685 49.4531L142.161 49.8616L142.89 49.2794L143.386 51.3501L142.538 52.0699L141.612 51.6961L141.124 52.6217L140.667 52.291L140.551 55.1621L142.76 53.4291L144.131 54.2046L144.098 52.9955L143.419 52.6384L144.396 51.6127L144.601 52.5327L145.881 53.2526L144.961 54.5048L144.88 55.8918L145.495 56.0516L146.686 54.313L147.729 55.2205L147.366 55.8751L147.982 56.9271L149.429 56.7061L149.068 55.9181L149.589 55.6374L150.211 56.8312L151.136 56.7478L151.283 55.9681L150.428 55.7263L151.062 55.3233L151.736 55.5693L151.762 56.5657L153.007 56.2072L153.334 55.6137L152.303 54.1587L152.152 52.5368L153.856 54.0489L154.271 53.6195L153.755 53.1191L154.072 51.7475L153.205 52.0949L152.561 51.1874L151.743 51.7906L151.763 50.5481L152.762 49.5892L154.241 49.8185L153.803 51.0665L154.443 51.9837L154.861 51.0582L156.244 52.1811L157.459 51.3917L158.412 51.8253L157.511 51.8532L156.583 53.2735L157.035 53.6737L156.079 53.7946L155.336 55.0259L155.777 56.8409L156.239 56.0223L156.699 57.0312L157.776 56.171L157.55 57.3884L158.397 57.822L160.582 54.7924L161.28 55.7597L161.658 55.522L161.516 56.2669L165.782 55.8694L168.967 57.3189L168.729 56.2044L169.433 55.6638L168.713 52.7898L170.309 52.2547L170.628 53.0066L171.469 51.7753L173.034 51.8795L173.726 49.4948L175.533 49.089L176.688 49.6462L178.553 48.1981L178.726 47.1558L180.208 47.5171L180.515 46.7542L182.1 48.0814L181.907 51.2319L184.043 52.876L184.65 52.7009L185.363 54.9022L183.272 55.8375L180.836 59.4995L182.27 60.3639L183.489 59.6329L184.163 60.1541L183.689 58.6212L185.852 57.8443L186.705 59.0381L187.397 59.0187L187.564 57.6053L186.876 57.1995L187.839 57.2384L188.818 58.3043L189.368 57.5455L190.649 58.1598L190.297 55.5054L191.388 56.5269L190.491 57.13L192.079 58.0875L192.742 57.8527L192.577 58.7351L194.126 58.1709L195.533 58.4947L195.534 57.7734L194.069 57.3371L194.072 56.5407L193.329 56.0849L196.216 55.7875L197.028 56.9424L197.275 54.3088L198.481 54.2157L199.257 55.3442L198.104 56.5157L198.268 58.1959L196.998 59.2132L197.619 60.5237L195.939 61.3659L196.29 62.2387L197.235 62.5542L198.677 62.097L199.117 62.3929L199.038 61.8468L200.179 61.3437L200.71 62.8363L202.488 62.6209L202.278 61.9232L204.209 61.9886L205.827 63.9092L206.665 61.7899L207.749 62.5473L207.328 62.7238L208.142 62.5542L207.828 60.6016L209.557 58.2794L209.098 57.0939L209.774 55.1066L210.85 55.1622L211.089 56.7507L211.04 55.24L211.53 54.9551L213.3 56.5325L214.425 56.1975L214.66 56.9383L213.578 57.0231L215.97 58.0724L216.66 57.0537L215.657 56.0851L216.308 55.5986L217.152 55.8766L216.716 54.4896L218.358 54.2117L218.802 55.09L219.877 55.3651L219.101 56.1087L219.364 57.2649L219.812 56.5478L220.251 57.1676L219.15 57.9167L219.455 58.5254L221.023 57.9195L221.693 59.0674L223.151 58.9104L224.791 60.1417L225.952 59.847L227.59 60.6948L227.948 60.1583L228.339 62.6696L227.888 63.894L229.699 65.8688L231.019 65.2281L234.119 67.0918H235.482L236.537 66.0634L236.047 66.6971L236.927 67.4351L236.347 67.4087L235.871 68.7706L237.052 69.1181L236.639 68.3732L237.312 68.3829L237.258 67.895L237.761 68.2981L237.914 67.6171L237.518 70.9955L238.185 71.1081L238.483 70.4633L239.438 70.9858L239.366 72.7772L240.401 72.4575L242.693 73.283L242.475 70.5453L243.362 69.8309L243.84 70.7329L245.849 70.7189L246.161 71.5597L249.877 70.0171L250.974 70.8037L250.952 71.8043L252.904 71.7599L252.826 73.2191L253.873 73.2205L254.002 74.7187L252.421 75.0744L251.454 74.6061L251.544 75.9694L252.148 76.4003L251.298 80.0428L252.84 80.4277L252.944 82.9862L252.533 84.7735L251.87 85.182L251.68 87.8545L250.25 87.2375L249.861 87.9879L251.334 89.7001L253.004 89.7918L252.304 91.5818L253.901 92.096L254.203 93.4288L252.48 94.7198L249.836 95.1757L249.706 96.8003L247.798 97.8648L246.106 97.8259L246.601 98.7723L245.785 99.0864L244.161 98.2275L240.357 98.4722L238.25 97.8954L237.409 98.3693L236.632 97.5772L236.766 96.9115L235.567 97.9566L232.189 97.9371L230.899 96.5904L229.455 96.9157L228.466 96.2791L226.632 97.819L224.603 98.2123L222.767 97.3089L222.88 96.7224L221.107 94.6142L219.633 95.2035L219.284 96.8892L220.21 97.6133L220.474 99.5006L221.467 100.043L221.849 101.072L220.573 103.001L219.711 102.98L219.406 104.905L218.455 105.265L218.667 106.328L219.493 106.469L219.532 107.845L220.143 108.366L220.903 107.065L222.016 107.325L223.256 105.934L225.237 106.616L225.888 107.704L228.463 107.05L230.189 110.802L231.341 110.475L231.298 111.595L232.199 111.912L233.723 111.288L234.08 112.606L234.858 112.417L236.246 113.565L236.349 114.852L234.992 116.643L235.24 119.346L234.225 120.541L232.817 120.131L231.574 121.286L229.091 121.358L228.524 122.516L229.153 125.151L226.836 126.474L226.731 127.231L224.219 127.778L223.973 129.008L224.649 131.131L223.561 132.39L224.027 134.362L223.386 134.85L222.878 133.968L222.419 134.8L220.961 135.353L220.735 137.328L220.009 137.474L219.784 138.266L216.991 138.235L215.858 139.697L214.652 139.677L214.94 140.509L214.258 140.137L213.454 141.325L212.94 139.321L211.327 138.726L210.78 140.059L209.957 139.504L208.309 141.001L207.203 139.796L205.179 141.332L205.29 145.919L204.448 147.409L202.564 147.957L202.459 150.971L201.161 151.535L202.11 152.09L201.978 153.195L200.947 153.293L200.575 151.587L199.428 151.395L197.55 156.333L196.761 156.46L197.283 157.121L197.143 161.198L196.551 162.984L194.581 162.657L193.875 164.094L193.607 167.986L194.213 171.553L192.086 175.942L190.255 176.128L187.146 173.864L186.073 173.718L185.844 174.658L184.775 174.522L184.361 173.561L185.004 172.605L183.829 170.033L180.642 166.946L178.562 166.51L176.446 167.355L174.963 168.986L172.941 169.605L171.29 168.917L170.697 169.923L169 169.721L165.407 167.495L162.947 168.907L159.747 169.31L158.36 165.267L156.257 164.729L155.649 165.255L154.33 165.12L150.856 163.718L150.602 165.993L148.52 165.69L146.796 167.599L144.527 167.527L144.091 166.991L141.746 167.811L142.168 168.808L141.492 168.978L142.538 170.258L142.284 171.076L141.243 170.666L140.782 171.152L138.033 171.022L137.674 171.705L136.931 170.875L136.159 171.782L132.264 171.092L131.736 170.195L130.061 169.799L127.795 170.63L127.578 167.513L126.335 166.993L125.799 168.25L125.101 167.868L124.157 168.462L123.061 167.751L123.15 168.486L120.601 168.858L120.266 170.73L113.608 174.198L111.965 174.484L109.583 173.41L109.412 174.078L108.155 174.235L107.691 174.887L106.865 175.062L106.457 173.882L105.767 174.677L105.298 173.998L103.87 173.992L103.964 174.816L103.377 174.894L100.564 174.483L100.052 172.023L99.157 171.525L98.5405 169.656L99.7116 168.925L102.873 169.759L104.032 169.355L102.989 168.736L102.999 166.732L102.156 164.431L100.23 162.238L94.7664 162.509L94.6767 163.708L92.9856 163.905L92.489 164.649L91.4517 163.614L91.0558 164.044L88.5895 163.75L83.6457 167.549L82.2318 167.107L81.6938 167.79L80.5903 167.651L80.3738 169.435L79.6551 169.98L80.4882 170.999L80.2689 171.725L75.659 175.807L76.7142 177.443L75.6245 180.228L71.6987 180.122L70.6973 182.64L68.493 183.804L65.7604 183.866L65.1934 183.267L62.6098 183.577L60.9159 181.096L62.4429 180.907L62.6126 180.364L61.7946 178.817L62.2222 178.165L60.4745 174.601L59.1379 175.261L56.7225 173.978L54.3941 173.803L48.1951 174.402L46.3315 173.946L44.5769 174.645L42.2747 173.971L40.2539 174.32L39.1849 173.69L37.4675 174.124L37.4013 173.306L35.0977 173.453L32.074 171.939L30.416 168.665L25.9164 166.633L22.7162 167.245L16.0123 165.021L15.8233 163.89L14.6356 163.63L14.4177 161.124L15.1047 157.959L14.1211 156.533L12.8286 156.013L12.7528 154.286L11.0864 154.484L10.114 155.763L8.59664 156.128L8.23937 157.116L5.66679 157.433L4.09014 156.547L4.31635 155.536L2.69556 154.63L5.09296 152.411L4.33981 151.822L3.63494 152.063L3.41975 148.467L2.06242 148.185L2.51899 147.505L1.58239 146.19L1.95207 143.861L3.10662 143.504L3.7508 144.734L5.39091 145.058L5.84473 143.629L6.4296 143.914L7.32345 142.616L8.36904 142.79L7.20896 141.58L5.78266 141.455L5.38401 140.181L5.26539 141.236L4.52464 141.611L4.0391 140.843L3.42527 141.965L2.85695 140.494L2.12863 140.563L2.33554 139.221L1.11339 139.775L0.874756 139.225L1.80171 137.894L4.30119 138.941L7.53587 134.951L10.9678 134.99L11.5127 132.257L13.7032 128.245L12.91 126.191L11.4354 126.965L10.3278 125.906L9.73879 124.912L10.5816 124.431L9.19392 121.832L11.1692 120.283L14.666 121.012L15.6316 119.65L17.4317 119.25L19.1959 117.468L20.5354 117.681L21.4057 117.134L21.4085 116.485L19.9436 116.789L20.7257 116.176L20.1202 115.242L18.5352 115.634L16.3875 114.337L15.855 114.917L14.8398 113.46L16.3544 111.916L16.4482 110.504L17.5862 109.28L18.7794 109.184L20.1063 107.945L21.0581 108.046L22.541 106.545L23.0583 106.987L24.2859 106.352L26.0364 104.181L27.0089 103.946L26.0819 102.29L27.0323 100.646L26.0254 96.25L26.4778 94.2933L28.5469 91.3178L25.3177 85.492L26.0309 84.8513L25.6971 83.9633L24.9867 83.3601L21.6113 83.2977L22.5024 82.2136L22.5989 80.4737L24.6529 77.4315L23.5024 77.6025L23.4611 76.6742L22.3672 76.9215L20.4319 76.046L21.7258 74.6576L21.472 73.3151L22.6886 72.8704L22.4969 72.0435L23.4679 70.9317L22.261 70.4203L22.9548 66.9835L25.6557 71.4515L27.0999 71.2903L27.6572 70.0034L28.7455 69.7602L28.5593 68.351L29.3345 68.3496L28.9538 66.9696L26.3523 67.2531L24.6653 66.4276L24.3853 67.078L24.588 65.1476L23.6555 62.7462L24.3122 61.2856L24.915 62.4765L25.4198 62.0693L26.2364 62.7503L26.4419 63.9163L30.0022 64.9559L30.376 64.2318L32.1816 64.0052L32.0906 61.5704L33.4962 60.731L33.3445 59.0133L38.7283 59.0981L38.9007 59.6624L37.9599 60.2572L38.4952 61.6427L37.8123 63.6426L36.7157 61.2078L36.4398 61.6803L37.2123 62.9172L36.2991 63.9845L37.7378 64.6293L38.1627 64.0692L40.9988 63.8872L40.7932 64.8072L37.5778 66.4193L36.804 65.1394L35.3156 64.9587L35.9667 63.7941L35.2011 63.9747L34.7611 63.3382L34.5625 64.1582L36.0233 65.6605L34.7101 66.5291L34.1059 67.8618L35.0135 69.3169L36.466 68.9889L41.7974 70.2453L45.5522 69.3086L46.4598 70.3995L50.6849 67.9674L52.9692 69.0792L52.634 70.9374L53.2589 71.5238L52.663 72.7885L52.9582 73.3513L53.6823 72.8024L55.2397 74.1212L54.9279 74.7355L55.4604 75.3317L54.4796 76.0877L55.0783 76.6339L54.9969 77.7874L53.2147 78.9701L51.5939 77.1828L50.369 78.6699L50.558 79.2758L49.7386 79.405L50.0573 81.2256L50.8422 82.4083L52.1733 82.6376L52.6257 84.4484L51.0849 85.2587L50.2187 87.8352L51.1649 87.8547L51.5498 88.7802L52.8837 88.7302L52.8257 89.8684L51.2615 90.2922L50.7539 92.324L48.9745 93.2385L48.0723 91.197L47.0778 92.2643L45.6087 92.5158L45.1204 91.5402L43.6017 90.7161L42.1699 92.8702L41.9312 94.7672L44.937 96.692L45.3866 97.2757L44.8059 97.7676L45.5701 98.5765L47.5702 98.5264L48.5137 99.8328L48.5993 97.9788L49.4779 97.9857L49.8035 96.7475L48.9082 96.1485L49.0296 95.2966L50.3994 95.7399L51.187 96.8837L51.6822 96.2361L53.601 95.5634L54.1196 95.9123L56.9267 94.3822L56.4756 91.4554L58.9806 89.8627L61.5146 89.2401L61.1283 86.0354L62.0856 84.5331L61.7546 83.2142L62.9809 81.7466L63.5795 82.3998L63.2457 83.2295L63.8499 85.3877L65.7893 85.4225L67.0639 84.219L69.5923 85.6852L69.8572 85.0654L70.7124 85.3878L71.1952 84.925L72.9705 87.0804L74.3651 86.5329L73.9623 85.895L74.8741 84.9708L74.6051 84.3483L75.3541 84.5831L75.4217 83.9271L77.6343 83.2211L77.9101 84.3719L77.0921 86.1285L77.8701 86.8261L79.4261 86.8053L80.7572 88.4452L82.3421 87.8559L83.6112 88.1047L84.0788 86.2786L84.8968 85.7213L82.8677 83.6659L81.8856 81.5187L82.207 77.3759L81.1462 75.301L82.6373 74.8243L83.0236 75.5901L83.985 75.0092L84.0361 76.7852L85.4996 77.6386L86.5438 77.0966L87.4239 75.4789L87.9536 75.5512L88.3688 74.1712L88.217 71.8628L87.2708 69.6837L85.6913 69.0208L85.1065 67.9451L83.8843 68.54L82.0911 68.426L80.771 66.2121L81.64 65.5617L84.3795 65.256L85.0251 64.5208L84.0126 64.0414L84.2154 63.1214L83.3588 63.0282L82.2952 60.1362L86.319 57.9126L88.7315 58.6144L89.8061 58.2586L91.3979 56.8328L94.074 56.6563L95.2451 57.7861L98.008 56.8467L97.7831 54.4535L98.5708 54.2979L98.2356 53.2347L96.5969 51.7797L97.2369 50.2287L96.2148 50.0578L96.9348 47.2588L95.3154 46.5084L94.6712 46.9198L92.8601 48.5249L92.4242 50.5108L88.6805 49.6061L87.199 50.8416L85.3092 50.9667L84.8209 51.6644L83.4167 50.1593L81.967 49.8994L79.862 50.4859L79.7654 49.7173L77.2908 49.4199L75.023 48.0274L74.6313 46.6668L73.9195 46.3167L72.6491 43.5121L72.3746 38.926L71.4201 38.2131L71.5538 37.4723L72.9471 36.9637L72.9098 34.9069L74.7403 32.4567L75.7183 32.5638L76.2824 31.3422L78.8012 31.5451L79.6399 30.9169L79.4523 30.2846L80.9076 29.9219L81.887 28.0457L81.6028 27.4565L83.2595 25.4038L86.0969 24.1447L87.5039 22.5479L89.1481 22.2588L90.082 20.7399L92.3649 20.7579L94.8726 18.8804L96.1637 16.8903L98.9874 16.6401L98.8508 15.2851L101.599 15.0266L105.781 12.0081L107.116 12.1401L107.993 10.8143L109.976 10.5058L110.189 9.04795L111.893 8.38646L112.332 7.02865L113.871 6.93693L115.151 5.71951L117.852 6.35461L117.95 4.57018L118.728 4.03515L118.259 2.66069L120.462 2.83996L120.023 1.68787L121.434 1.3943Z"/>
</mask>
<path d="M121.434 1.3943L122.909 1.88486L123.521 0.486792L125.522 0.151855L126.631 1.757L127.673 1.51659L128.392 2.62699L131.715 3.93614L134.406 3.56089L136.033 2.55749L136.252 3.23429L136.775 2.80626L137.506 3.71376L138.807 3.68314L140.351 5.6538L141.478 5.37167L142.754 5.90949L142.459 7.01295L144.055 6.30418L144.415 8.70289L143.663 9.88137L144.001 9.61457L144.193 10.6291L144.846 10.6069L146.011 12.1703L145.651 13.6977L147.912 14.0618L147.637 14.9554L146.759 14.9331L146.469 16.7134L148.115 17.286L147.592 17.6043L147.908 18.2199L146.962 18.3519L146.665 19.6277L146.193 19.1371L145.321 19.8028L145.899 20.9034L144.841 20.859L144.683 22.0459L143.599 22.1099L144.272 23.4162L142.596 23.9263L144.343 25.7746L142.644 27.2186L142.218 30.0383L140.683 31.1224L140.865 32.5816L139.823 32.8957L140.265 34.8677L138.802 33.8727L138.444 34.2562L139.12 34.3521L139.069 34.8607L136.94 36.477L138.804 38.8729L138.627 40.4753L134.926 41.4523L134.106 42.3654L132.951 41.6135L132.158 42.4084L129.417 41.833L128.52 42.8045L127.773 42.4223L127.177 43.416L127.524 45.1879L126.273 46.1246L125.413 45.9175L124.913 47.6422L123.909 48.4816L124.942 49.7018L124.27 50.5245L125.342 50.9414L125.614 52.6022L126.862 53.5069L126.504 54.2296L128.268 55.0648L127.455 55.5623L128.166 56.3517L126.792 56.2961L124.84 57.6303L124.833 60.4792L120.152 64.2371L120.106 65.0237L121.411 66.4273L121.739 68.5217L123.128 71.0774L122.852 74.5434L121.721 75.6691L123.161 77.1506L123.083 78.0664L125.799 80.0232L124.789 81.8062L126.338 83.5225L127.93 82.8207L129.969 79.7647L132.079 80.9362L134.697 84.4912L135.557 84.8275L136.519 84.2132L136.914 84.6746L137.329 84.0645L138.237 86.548L138.867 85.5947L140.754 85.1889L141.589 82.7081L143.295 81.0446L143.801 78.2582L141.612 77.4494L141.764 76.3668L142.252 76.8851L143.281 76.4891L140.837 71.9501L137.809 73.433L137.017 73.055L136.746 71.3039L137.68 69.8975L137.453 67.0041L137.915 66.3662L137.451 64.8875L134.677 63.5797L134.252 62.2442L133.339 61.5855L133.912 58.5016L132.62 57.3398L131.795 52.2005L129.719 51.0721L128.487 51.817L127.716 51.2388L128.098 50.7427L128.862 51.0998L129.588 50.1132L129.821 50.7441L130.538 50.6663L131.012 50.0256L130.54 48.8596L132.014 49.214L131.578 47.8118L132.365 47.9271L132.802 47.128L133.528 47.4671L134.224 46.265L135.179 46.1441L135.63 46.75L134.697 47.5505L134.333 47.0308L134.373 48.0592L135.849 48.3552L135.983 49.1807L137.448 49.007L136.834 47.267L138.849 46.7L137.179 46.5902L136.302 45.6466L136.507 44.4486L137.222 45.2352L139.339 45.5701L139.797 45.9329L138.877 46.1913L139.467 46.6347L140.128 45.5229L139.295 44.1498L140.671 43.6912L140.623 42.6433L141.663 42.5683L141.851 43.1464L142.252 42.5558L142.574 43.4716L141.837 43.8052L142.394 45.1101L141.458 46.1719L142.205 46.7667L143.101 46.429L143.632 48.4427L142.192 49.2182L141.146 48.465L142.263 48.4066L142.789 47.6687L140.636 48.0703L139.567 49.2071L139.732 49.8408L138.244 50.4023L137.993 50.9526L138.813 50.8817L138.64 51.8059L139.682 53.1428L140.685 49.4531L142.161 49.8616L142.89 49.2794L143.386 51.3501L142.538 52.0699L141.612 51.6961L141.124 52.6217L140.667 52.291L140.551 55.1621L142.76 53.4291L144.131 54.2046L144.098 52.9955L143.419 52.6384L144.396 51.6127L144.601 52.5327L145.881 53.2526L144.961 54.5048L144.88 55.8918L145.495 56.0516L146.686 54.313L147.729 55.2205L147.366 55.8751L147.982 56.9271L149.429 56.7061L149.068 55.9181L149.589 55.6374L150.211 56.8312L151.136 56.7478L151.283 55.9681L150.428 55.7263L151.062 55.3233L151.736 55.5693L151.762 56.5657L153.007 56.2072L153.334 55.6137L152.303 54.1587L152.152 52.5368L153.856 54.0489L154.271 53.6195L153.755 53.1191L154.072 51.7475L153.205 52.0949L152.561 51.1874L151.743 51.7906L151.763 50.5481L152.762 49.5892L154.241 49.8185L153.803 51.0665L154.443 51.9837L154.861 51.0582L156.244 52.1811L157.459 51.3917L158.412 51.8253L157.511 51.8532L156.583 53.2735L157.035 53.6737L156.079 53.7946L155.336 55.0259L155.777 56.8409L156.239 56.0223L156.699 57.0312L157.776 56.171L157.55 57.3884L158.397 57.822L160.582 54.7924L161.28 55.7597L161.658 55.522L161.516 56.2669L165.782 55.8694L168.967 57.3189L168.729 56.2044L169.433 55.6638L168.713 52.7898L170.309 52.2547L170.628 53.0066L171.469 51.7753L173.034 51.8795L173.726 49.4948L175.533 49.089L176.688 49.6462L178.553 48.1981L178.726 47.1558L180.208 47.5171L180.515 46.7542L182.1 48.0814L181.907 51.2319L184.043 52.876L184.65 52.7009L185.363 54.9022L183.272 55.8375L180.836 59.4995L182.27 60.3639L183.489 59.6329L184.163 60.1541L183.689 58.6212L185.852 57.8443L186.705 59.0381L187.397 59.0187L187.564 57.6053L186.876 57.1995L187.839 57.2384L188.818 58.3043L189.368 57.5455L190.649 58.1598L190.297 55.5054L191.388 56.5269L190.491 57.13L192.079 58.0875L192.742 57.8527L192.577 58.7351L194.126 58.1709L195.533 58.4947L195.534 57.7734L194.069 57.3371L194.072 56.5407L193.329 56.0849L196.216 55.7875L197.028 56.9424L197.275 54.3088L198.481 54.2157L199.257 55.3442L198.104 56.5157L198.268 58.1959L196.998 59.2132L197.619 60.5237L195.939 61.3659L196.29 62.2387L197.235 62.5542L198.677 62.097L199.117 62.3929L199.038 61.8468L200.179 61.3437L200.71 62.8363L202.488 62.6209L202.278 61.9232L204.209 61.9886L205.827 63.9092L206.665 61.7899L207.749 62.5473L207.328 62.7238L208.142 62.5542L207.828 60.6016L209.557 58.2794L209.098 57.0939L209.774 55.1066L210.85 55.1622L211.089 56.7507L211.04 55.24L211.53 54.9551L213.3 56.5325L214.425 56.1975L214.66 56.9383L213.578 57.0231L215.97 58.0724L216.66 57.0537L215.657 56.0851L216.308 55.5986L217.152 55.8766L216.716 54.4896L218.358 54.2117L218.802 55.09L219.877 55.3651L219.101 56.1087L219.364 57.2649L219.812 56.5478L220.251 57.1676L219.15 57.9167L219.455 58.5254L221.023 57.9195L221.693 59.0674L223.151 58.9104L224.791 60.1417L225.952 59.847L227.59 60.6948L227.948 60.1583L228.339 62.6696L227.888 63.894L229.699 65.8688L231.019 65.2281L234.119 67.0918H235.482L236.537 66.0634L236.047 66.6971L236.927 67.4351L236.347 67.4087L235.871 68.7706L237.052 69.1181L236.639 68.3732L237.312 68.3829L237.258 67.895L237.761 68.2981L237.914 67.6171L237.518 70.9955L238.185 71.1081L238.483 70.4633L239.438 70.9858L239.366 72.7772L240.401 72.4575L242.693 73.283L242.475 70.5453L243.362 69.8309L243.84 70.7329L245.849 70.7189L246.161 71.5597L249.877 70.0171L250.974 70.8037L250.952 71.8043L252.904 71.7599L252.826 73.2191L253.873 73.2205L254.002 74.7187L252.421 75.0744L251.454 74.6061L251.544 75.9694L252.148 76.4003L251.298 80.0428L252.84 80.4277L252.944 82.9862L252.533 84.7735L251.87 85.182L251.68 87.8545L250.25 87.2375L249.861 87.9879L251.334 89.7001L253.004 89.7918L252.304 91.5818L253.901 92.096L254.203 93.4288L252.48 94.7198L249.836 95.1757L249.706 96.8003L247.798 97.8648L246.106 97.8259L246.601 98.7723L245.785 99.0864L244.161 98.2275L240.357 98.4722L238.25 97.8954L237.409 98.3693L236.632 97.5772L236.766 96.9115L235.567 97.9566L232.189 97.9371L230.899 96.5904L229.455 96.9157L228.466 96.2791L226.632 97.819L224.603 98.2123L222.767 97.3089L222.88 96.7224L221.107 94.6142L219.633 95.2035L219.284 96.8892L220.21 97.6133L220.474 99.5006L221.467 100.043L221.849 101.072L220.573 103.001L219.711 102.98L219.406 104.905L218.455 105.265L218.667 106.328L219.493 106.469L219.532 107.845L220.143 108.366L220.903 107.065L222.016 107.325L223.256 105.934L225.237 106.616L225.888 107.704L228.463 107.05L230.189 110.802L231.341 110.475L231.298 111.595L232.199 111.912L233.723 111.288L234.08 112.606L234.858 112.417L236.246 113.565L236.349 114.852L234.992 116.643L235.24 119.346L234.225 120.541L232.817 120.131L231.574 121.286L229.091 121.358L228.524 122.516L229.153 125.151L226.836 126.474L226.731 127.231L224.219 127.778L223.973 129.008L224.649 131.131L223.561 132.39L224.027 134.362L223.386 134.85L222.878 133.968L222.419 134.8L220.961 135.353L220.735 137.328L220.009 137.474L219.784 138.266L216.991 138.235L215.858 139.697L214.652 139.677L214.94 140.509L214.258 140.137L213.454 141.325L212.94 139.321L211.327 138.726L210.78 140.059L209.957 139.504L208.309 141.001L207.203 139.796L205.179 141.332L205.29 145.919L204.448 147.409L202.564 147.957L202.459 150.971L201.161 151.535L202.11 152.09L201.978 153.195L200.947 153.293L200.575 151.587L199.428 151.395L197.55 156.333L196.761 156.46L197.283 157.121L197.143 161.198L196.551 162.984L194.581 162.657L193.875 164.094L193.607 167.986L194.213 171.553L192.086 175.942L190.255 176.128L187.146 173.864L186.073 173.718L185.844 174.658L184.775 174.522L184.361 173.561L185.004 172.605L183.829 170.033L180.642 166.946L178.562 166.51L176.446 167.355L174.963 168.986L172.941 169.605L171.29 168.917L170.697 169.923L169 169.721L165.407 167.495L162.947 168.907L159.747 169.31L158.36 165.267L156.257 164.729L155.649 165.255L154.33 165.12L150.856 163.718L150.602 165.993L148.52 165.69L146.796 167.599L144.527 167.527L144.091 166.991L141.746 167.811L142.168 168.808L141.492 168.978L142.538 170.258L142.284 171.076L141.243 170.666L140.782 171.152L138.033 171.022L137.674 171.705L136.931 170.875L136.159 171.782L132.264 171.092L131.736 170.195L130.061 169.799L127.795 170.63L127.578 167.513L126.335 166.993L125.799 168.25L125.101 167.868L124.157 168.462L123.061 167.751L123.15 168.486L120.601 168.858L120.266 170.73L113.608 174.198L111.965 174.484L109.583 173.41L109.412 174.078L108.155 174.235L107.691 174.887L106.865 175.062L106.457 173.882L105.767 174.677L105.298 173.998L103.87 173.992L103.964 174.816L103.377 174.894L100.564 174.483L100.052 172.023L99.157 171.525L98.5405 169.656L99.7116 168.925L102.873 169.759L104.032 169.355L102.989 168.736L102.999 166.732L102.156 164.431L100.23 162.238L94.7664 162.509L94.6767 163.708L92.9856 163.905L92.489 164.649L91.4517 163.614L91.0558 164.044L88.5895 163.75L83.6457 167.549L82.2318 167.107L81.6938 167.79L80.5903 167.651L80.3738 169.435L79.6551 169.98L80.4882 170.999L80.2689 171.725L75.659 175.807L76.7142 177.443L75.6245 180.228L71.6987 180.122L70.6973 182.64L68.493 183.804L65.7604 183.866L65.1934 183.267L62.6098 183.577L60.9159 181.096L62.4429 180.907L62.6126 180.364L61.7946 178.817L62.2222 178.165L60.4745 174.601L59.1379 175.261L56.7225 173.978L54.3941 173.803L48.1951 174.402L46.3315 173.946L44.5769 174.645L42.2747 173.971L40.2539 174.32L39.1849 173.69L37.4675 174.124L37.4013 173.306L35.0977 173.453L32.074 171.939L30.416 168.665L25.9164 166.633L22.7162 167.245L16.0123 165.021L15.8233 163.89L14.6356 163.63L14.4177 161.124L15.1047 157.959L14.1211 156.533L12.8286 156.013L12.7528 154.286L11.0864 154.484L10.114 155.763L8.59664 156.128L8.23937 157.116L5.66679 157.433L4.09014 156.547L4.31635 155.536L2.69556 154.63L5.09296 152.411L4.33981 151.822L3.63494 152.063L3.41975 148.467L2.06242 148.185L2.51899 147.505L1.58239 146.19L1.95207 143.861L3.10662 143.504L3.7508 144.734L5.39091 145.058L5.84473 143.629L6.4296 143.914L7.32345 142.616L8.36904 142.79L7.20896 141.58L5.78266 141.455L5.38401 140.181L5.26539 141.236L4.52464 141.611L4.0391 140.843L3.42527 141.965L2.85695 140.494L2.12863 140.563L2.33554 139.221L1.11339 139.775L0.874756 139.225L1.80171 137.894L4.30119 138.941L7.53587 134.951L10.9678 134.99L11.5127 132.257L13.7032 128.245L12.91 126.191L11.4354 126.965L10.3278 125.906L9.73879 124.912L10.5816 124.431L9.19392 121.832L11.1692 120.283L14.666 121.012L15.6316 119.65L17.4317 119.25L19.1959 117.468L20.5354 117.681L21.4057 117.134L21.4085 116.485L19.9436 116.789L20.7257 116.176L20.1202 115.242L18.5352 115.634L16.3875 114.337L15.855 114.917L14.8398 113.46L16.3544 111.916L16.4482 110.504L17.5862 109.28L18.7794 109.184L20.1063 107.945L21.0581 108.046L22.541 106.545L23.0583 106.987L24.2859 106.352L26.0364 104.181L27.0089 103.946L26.0819 102.29L27.0323 100.646L26.0254 96.25L26.4778 94.2933L28.5469 91.3178L25.3177 85.492L26.0309 84.8513L25.6971 83.9633L24.9867 83.3601L21.6113 83.2977L22.5024 82.2136L22.5989 80.4737L24.6529 77.4315L23.5024 77.6025L23.4611 76.6742L22.3672 76.9215L20.4319 76.046L21.7258 74.6576L21.472 73.3151L22.6886 72.8704L22.4969 72.0435L23.4679 70.9317L22.261 70.4203L22.9548 66.9835L25.6557 71.4515L27.0999 71.2903L27.6572 70.0034L28.7455 69.7602L28.5593 68.351L29.3345 68.3496L28.9538 66.9696L26.3523 67.2531L24.6653 66.4276L24.3853 67.078L24.588 65.1476L23.6555 62.7462L24.3122 61.2856L24.915 62.4765L25.4198 62.0693L26.2364 62.7503L26.4419 63.9163L30.0022 64.9559L30.376 64.2318L32.1816 64.0052L32.0906 61.5704L33.4962 60.731L33.3445 59.0133L38.7283 59.0981L38.9007 59.6624L37.9599 60.2572L38.4952 61.6427L37.8123 63.6426L36.7157 61.2078L36.4398 61.6803L37.2123 62.9172L36.2991 63.9845L37.7378 64.6293L38.1627 64.0692L40.9988 63.8872L40.7932 64.8072L37.5778 66.4193L36.804 65.1394L35.3156 64.9587L35.9667 63.7941L35.2011 63.9747L34.7611 63.3382L34.5625 64.1582L36.0233 65.6605L34.7101 66.5291L34.1059 67.8618L35.0135 69.3169L36.466 68.9889L41.7974 70.2453L45.5522 69.3086L46.4598 70.3995L50.6849 67.9674L52.9692 69.0792L52.634 70.9374L53.2589 71.5238L52.663 72.7885L52.9582 73.3513L53.6823 72.8024L55.2397 74.1212L54.9279 74.7355L55.4604 75.3317L54.4796 76.0877L55.0783 76.6339L54.9969 77.7874L53.2147 78.9701L51.5939 77.1828L50.369 78.6699L50.558 79.2758L49.7386 79.405L50.0573 81.2256L50.8422 82.4083L52.1733 82.6376L52.6257 84.4484L51.0849 85.2587L50.2187 87.8352L51.1649 87.8547L51.5498 88.7802L52.8837 88.7302L52.8257 89.8684L51.2615 90.2922L50.7539 92.324L48.9745 93.2385L48.0723 91.197L47.0778 92.2643L45.6087 92.5158L45.1204 91.5402L43.6017 90.7161L42.1699 92.8702L41.9312 94.7672L44.937 96.692L45.3866 97.2757L44.8059 97.7676L45.5701 98.5765L47.5702 98.5264L48.5137 99.8328L48.5993 97.9788L49.4779 97.9857L49.8035 96.7475L48.9082 96.1485L49.0296 95.2966L50.3994 95.7399L51.187 96.8837L51.6822 96.2361L53.601 95.5634L54.1196 95.9123L56.9267 94.3822L56.4756 91.4554L58.9806 89.8627L61.5146 89.2401L61.1283 86.0354L62.0856 84.5331L61.7546 83.2142L62.9809 81.7466L63.5795 82.3998L63.2457 83.2295L63.8499 85.3877L65.7893 85.4225L67.0639 84.219L69.5923 85.6852L69.8572 85.0654L70.7124 85.3878L71.1952 84.925L72.9705 87.0804L74.3651 86.5329L73.9623 85.895L74.8741 84.9708L74.6051 84.3483L75.3541 84.5831L75.4217 83.9271L77.6343 83.2211L77.9101 84.3719L77.0921 86.1285L77.8701 86.8261L79.4261 86.8053L80.7572 88.4452L82.3421 87.8559L83.6112 88.1047L84.0788 86.2786L84.8968 85.7213L82.8677 83.6659L81.8856 81.5187L82.207 77.3759L81.1462 75.301L82.6373 74.8243L83.0236 75.5901L83.985 75.0092L84.0361 76.7852L85.4996 77.6386L86.5438 77.0966L87.4239 75.4789L87.9536 75.5512L88.3688 74.1712L88.217 71.8628L87.2708 69.6837L85.6913 69.0208L85.1065 67.9451L83.8843 68.54L82.0911 68.426L80.771 66.2121L81.64 65.5617L84.3795 65.256L85.0251 64.5208L84.0126 64.0414L84.2154 63.1214L83.3588 63.0282L82.2952 60.1362L86.319 57.9126L88.7315 58.6144L89.8061 58.2586L91.3979 56.8328L94.074 56.6563L95.2451 57.7861L98.008 56.8467L97.7831 54.4535L98.5708 54.2979L98.2356 53.2347L96.5969 51.7797L97.2369 50.2287L96.2148 50.0578L96.9348 47.2588L95.3154 46.5084L94.6712 46.9198L92.8601 48.5249L92.4242 50.5108L88.6805 49.6061L87.199 50.8416L85.3092 50.9667L84.8209 51.6644L83.4167 50.1593L81.967 49.8994L79.862 50.4859L79.7654 49.7173L77.2908 49.4199L75.023 48.0274L74.6313 46.6668L73.9195 46.3167L72.6491 43.5121L72.3746 38.926L71.4201 38.2131L71.5538 37.4723L72.9471 36.9637L72.9098 34.9069L74.7403 32.4567L75.7183 32.5638L76.2824 31.3422L78.8012 31.5451L79.6399 30.9169L79.4523 30.2846L80.9076 29.9219L81.887 28.0457L81.6028 27.4565L83.2595 25.4038L86.0969 24.1447L87.5039 22.5479L89.1481 22.2588L90.082 20.7399L92.3649 20.7579L94.8726 18.8804L96.1637 16.8903L98.9874 16.6401L98.8508 15.2851L101.599 15.0266L105.781 12.0081L107.116 12.1401L107.993 10.8143L109.976 10.5058L110.189 9.04795L111.893 8.38646L112.332 7.02865L113.871 6.93693L115.151 5.71951L117.852 6.35461L117.95 4.57018L118.728 4.03515L118.259 2.66069L120.462 2.83996L120.023 1.68787L121.434 1.3943Z" fill="#D0D5DD" stroke="white" stroke-width="1.3794" mask="url(#path-1-inside-1_1162_4064)"/>
<g opacity="0.1">
<rect x="114.999" y="106" width="28.2793" height="28.2793" rx="14.1396" fill="#236DF8"/>
</g>
<rect x="120.655" y="111.654" width="16.9676" height="16.9676" rx="8.48379" fill="#73C4FF" fill-opacity="0.7"/>
<rect x="126.311" y="117.311" width="5.65586" height="5.65586" rx="2.82793" fill="#236DF8"/>
</svg>
