<svg width="35" height="82" viewBox="0 0 35 82" fill="none" xmlns="http://www.w3.org/2000/svg">
<mask id="path-1-inside-1_1151_2614" fill="white">
<path d="M1.20044 9.27844L4.82962 9.23541L5.24069 12.4304L6.51939 12.7807L6.66286 12.1191L7.98294 11.6369L8.5347 9.46471L10.2934 9.22847L10.6604 6.71025L12.5791 6.00703L14.731 0.731567L16.5711 5.27882L17.5505 4.5881L18.7726 4.74794L18.9561 4.16146L19.6527 4.7146L21.5245 4.46859L22.2129 4.8744L22.1314 6.26138L22.7619 6.36977L21.7466 8.36685L22.1535 10.6016L20.8279 13.6201L23.0598 14.3858L23.8047 13.9967L24.424 15.8311L25.7813 14.4678L26.4145 15.5171L27.7677 15.6741L27.9732 14.5971L28.6726 14.5554L29.2078 15.3504L28.8809 16.5052L29.8313 15.6255L31.252 15.5672L31.1665 17.6726L33.0232 19.4654L33.215 24.8006L34.3516 27.3035L32.9804 35.1653L33.4702 36.5926L32.0728 37.6488L32.9087 41.7499L32.3086 44.0777L32.877 44.446L30.1072 48.6208L28.8216 48.6013L27.1249 46.9086L25.3482 47.3102L25.2406 48.7792L26.3718 51.3447L25.5165 51.5309L24.8654 54.5731L24.3757 54.7579L24.7647 56.8342L24.1592 57.9279L25.6793 61.3897L24.7358 63.4924L25.3703 63.8621L25.613 65.6382L27.02 66.7625L27.5318 71.9615L25.7579 72.4159L26.4145 73.8682L25.9703 74.5506L23.7329 73.5527L22.857 73.9433L23.4032 76.9284L21.8928 76.9243L21.777 80.614L21.1631 80.646L20.2334 79.1799L19.5368 79.5662L18.9368 81.7912L17.6912 78.0736L17.0235 78.1348L13.364 75.3497L12.8288 75.4831L12.3957 79.5536L10.2383 80.835L10.1031 78.3154L9.10577 76.0835L9.60238 75.7541L10.2479 76.3267L10.3596 74.7145L7.98156 62.5335L7.98846 59.5956L7.40223 57.0732L6.62838 56.6451L5.85041 54.4202L5.55796 52.1466L5.13448 52.355L4.80344 51.3127L3.47506 50.8499L4.00201 46.9753L3.19781 45.473L3.06125 41.3316L4.43375 41.0634L3.40059 38.6438L3.61713 37.3958L1.96739 33.8881L1.30253 29.1088L0.761803 28.9573L1.16045 26.9783L0.387948 25.8429L0.124512 23.1134L0.914906 23.0565L0.568666 22.0364L1.06527 21.3276L1.88046 21.5055L2.19635 20.0505L1.62805 18.5079L2.13569 17.5878L1.7053 16.1592L2.36052 12.607L1.20044 9.27844Z"/>
</mask>
<path d="M1.20044 9.27844L4.82962 9.23541L5.24069 12.4304L6.51939 12.7807L6.66286 12.1191L7.98294 11.6369L8.5347 9.46471L10.2934 9.22847L10.6604 6.71025L12.5791 6.00703L14.731 0.731567L16.5711 5.27882L17.5505 4.5881L18.7726 4.74794L18.9561 4.16146L19.6527 4.7146L21.5245 4.46859L22.2129 4.8744L22.1314 6.26138L22.7619 6.36977L21.7466 8.36685L22.1535 10.6016L20.8279 13.6201L23.0598 14.3858L23.8047 13.9967L24.424 15.8311L25.7813 14.4678L26.4145 15.5171L27.7677 15.6741L27.9732 14.5971L28.6726 14.5554L29.2078 15.3504L28.8809 16.5052L29.8313 15.6255L31.252 15.5672L31.1665 17.6726L33.0232 19.4654L33.215 24.8006L34.3516 27.3035L32.9804 35.1653L33.4702 36.5926L32.0728 37.6488L32.9087 41.7499L32.3086 44.0777L32.877 44.446L30.1072 48.6208L28.8216 48.6013L27.1249 46.9086L25.3482 47.3102L25.2406 48.7792L26.3718 51.3447L25.5165 51.5309L24.8654 54.5731L24.3757 54.7579L24.7647 56.8342L24.1592 57.9279L25.6793 61.3897L24.7358 63.4924L25.3703 63.8621L25.613 65.6382L27.02 66.7625L27.5318 71.9615L25.7579 72.4159L26.4145 73.8682L25.9703 74.5506L23.7329 73.5527L22.857 73.9433L23.4032 76.9284L21.8928 76.9243L21.777 80.614L21.1631 80.646L20.2334 79.1799L19.5368 79.5662L18.9368 81.7912L17.6912 78.0736L17.0235 78.1348L13.364 75.3497L12.8288 75.4831L12.3957 79.5536L10.2383 80.835L10.1031 78.3154L9.10577 76.0835L9.60238 75.7541L10.2479 76.3267L10.3596 74.7145L7.98156 62.5335L7.98846 59.5956L7.40223 57.0732L6.62838 56.6451L5.85041 54.4202L5.55796 52.1466L5.13448 52.355L4.80344 51.3127L3.47506 50.8499L4.00201 46.9753L3.19781 45.473L3.06125 41.3316L4.43375 41.0634L3.40059 38.6438L3.61713 37.3958L1.96739 33.8881L1.30253 29.1088L0.761803 28.9573L1.16045 26.9783L0.387948 25.8429L0.124512 23.1134L0.914906 23.0565L0.568666 22.0364L1.06527 21.3276L1.88046 21.5055L2.19635 20.0505L1.62805 18.5079L2.13569 17.5878L1.7053 16.1592L2.36052 12.607L1.20044 9.27844Z" fill="#D0D5DD" stroke="white" stroke-width="1.3794" mask="url(#path-1-inside-1_1151_2614)"/>
</svg>
