<svg width="56" height="60" viewBox="0 0 56 60" fill="none" xmlns="http://www.w3.org/2000/svg">
<mask id="path-1-inside-1_1151_2615" fill="white">
<path d="M53.9062 0.679016L55.0138 5.61818L53.5889 6.46174L54.2855 6.92035L54.4732 8.61724L55.3325 8.97438L54.5035 10.6602L55.1228 12.2486L52.7282 14.4111L52.7226 15.6632L50.2011 19.5197L51.3267 20.5398L51.2867 21.4682L52.1805 21.9018L51.7612 26.7158L52.3764 27.5052L51.6688 28.9658L51.7419 30.8739L53.6234 31.8217L51.335 35.4337L49.321 36.4982L48.881 37.3363L48.7072 38.5259L49.779 42.0419L46.4588 45.0479L45.9415 46.906L45.0546 47.4841L45.5166 48.318L43.9125 48.5251L42.8475 50.618L39.09 51.7604L37.6637 51.57L35.4816 50.0621L35.4332 47.7176L36.5726 45.8567L36.0195 45.8289L36.5851 44.3335L35.9312 44.1292L33.978 46.7183L33.0731 46.5696L31.8041 47.4966L31.5227 49.1031L28.4383 50.6471L27.6658 50.0954L25.5898 50.4623L25.0132 48.789L24.0091 48.6987L23.3911 49.7104L22.0448 49.4213L21.8682 48.5556L19.8088 47.3882L19.6874 48.1831L18.3811 48.6556L16.2651 48.2762L12.7628 49.1795L12.6221 50.4734L13.727 50.5013L13.8691 51.5727L11.2427 54.904H10.5144L8.06597 60.0099L6.52652 58.4589L5.09467 58.6632L5.26027 57.657L4.27674 57.5473L4.19668 56.5786L3.55808 55.4612L4.31808 54.3189L3.84635 52.5636L1.94143 51.62L0.0888672 48.9697L2.85457 46.2542L4.94438 45.4496L7.06307 42.1003L10.8813 39.2777L10.3668 37.3223L12.2193 36.4551L12.8317 35.5018L13.5629 37.314L13.0277 39.3527L13.4883 40.3798L14.8319 38.8288L15.9989 39.3652L16.9561 38.0228L18.7908 36.993L18.0818 34.1718L19.1287 32.0691L19.5246 28.8268L22.5041 23.8863L24.4546 23.3096L24.7718 19.5531L27.3761 16.3747L27.7527 16.2038L27.8714 18.8999L28.5252 19.4752L29.5239 17.998L30.9199 17.2322L31.164 14.5778L32.7393 13.8955L32.8979 12.7822L35.1242 11.4509L35.9795 12.0957L36.8306 10.5323L37.5285 11.2021L39.2114 10.7491L42.5496 8.36843L44.976 4.26732L46.1856 3.62942L47.8478 4.72871L48.8783 4.49662L51.4385 3.14855L53.9062 0.679016Z"/>
</mask>
<path d="M53.9062 0.679016L55.0138 5.61818L53.5889 6.46174L54.2855 6.92035L54.4732 8.61724L55.3325 8.97438L54.5035 10.6602L55.1228 12.2486L52.7282 14.4111L52.7226 15.6632L50.2011 19.5197L51.3267 20.5398L51.2867 21.4682L52.1805 21.9018L51.7612 26.7158L52.3764 27.5052L51.6688 28.9658L51.7419 30.8739L53.6234 31.8217L51.335 35.4337L49.321 36.4982L48.881 37.3363L48.7072 38.5259L49.779 42.0419L46.4588 45.0479L45.9415 46.906L45.0546 47.4841L45.5166 48.318L43.9125 48.5251L42.8475 50.618L39.09 51.7604L37.6637 51.57L35.4816 50.0621L35.4332 47.7176L36.5726 45.8567L36.0195 45.8289L36.5851 44.3335L35.9312 44.1292L33.978 46.7183L33.0731 46.5696L31.8041 47.4966L31.5227 49.1031L28.4383 50.6471L27.6658 50.0954L25.5898 50.4623L25.0132 48.789L24.0091 48.6987L23.3911 49.7104L22.0448 49.4213L21.8682 48.5556L19.8088 47.3882L19.6874 48.1831L18.3811 48.6556L16.2651 48.2762L12.7628 49.1795L12.6221 50.4734L13.727 50.5013L13.8691 51.5727L11.2427 54.904H10.5144L8.06597 60.0099L6.52652 58.4589L5.09467 58.6632L5.26027 57.657L4.27674 57.5473L4.19668 56.5786L3.55808 55.4612L4.31808 54.3189L3.84635 52.5636L1.94143 51.62L0.0888672 48.9697L2.85457 46.2542L4.94438 45.4496L7.06307 42.1003L10.8813 39.2777L10.3668 37.3223L12.2193 36.4551L12.8317 35.5018L13.5629 37.314L13.0277 39.3527L13.4883 40.3798L14.8319 38.8288L15.9989 39.3652L16.9561 38.0228L18.7908 36.993L18.0818 34.1718L19.1287 32.0691L19.5246 28.8268L22.5041 23.8863L24.4546 23.3096L24.7718 19.5531L27.3761 16.3747L27.7527 16.2038L27.8714 18.8999L28.5252 19.4752L29.5239 17.998L30.9199 17.2322L31.164 14.5778L32.7393 13.8955L32.8979 12.7822L35.1242 11.4509L35.9795 12.0957L36.8306 10.5323L37.5285 11.2021L39.2114 10.7491L42.5496 8.36843L44.976 4.26732L46.1856 3.62942L47.8478 4.72871L48.8783 4.49662L51.4385 3.14855L53.9062 0.679016Z" fill="#D0D5DD" stroke="white" stroke-width="1.3794" mask="url(#path-1-inside-1_1151_2615)"/>
</svg>
