<svg width="177" height="148" viewBox="0 0 177 148" fill="none" xmlns="http://www.w3.org/2000/svg">
<mask id="path-1-inside-1_1162_4062" fill="white">
<path d="M158.521 56.2647L162.025 56.2856L162.298 57.9949L160.349 58.1534L157.783 60.0045L157.306 59.3402L156.35 59.5445L157.024 60.3714L155.721 60.174L157.119 56.6761L158.521 56.2647ZM75.7016 1.83408L79.5267 3.39757L80.0316 5.58639L81.2344 6.49806L82.749 6.43833L83.9822 7.57652L87.9328 7.2166L88.5618 6.26881L89.4211 6.12425L89.3936 5.42664L90.8364 4.98745L97.1085 5.15285L97.3651 4.30091L98.9542 4.14945L99.6701 4.79011L100.941 4.26201L101.438 5.05139L102.983 4.01743L103.194 4.39819L106.309 3.15994L106.643 7.22216L107.189 7.45701L107.046 8.30061L107.799 8.29645L107.811 9.0386L106.542 9.61115L105.192 14.6156L103.924 15.4675L104.574 15.6148L105.775 14.6545L107.264 15.0061L107.94 16.0359L108.999 15.9108L109.439 16.6043L109.486 15.9817L110.592 16.7627L111.176 18.1011L113.172 14.7698L113.834 14.2112L114.848 14.3793L114.994 13.287L115.893 13.1605L120.085 15.4091L121.572 15.7885L123.117 15.2938L124.182 16.5904L127.662 14.6517L128.491 15.7093L127.255 15.7024L126.472 18.4319L130.649 19.1531L130.846 17.9621L131.723 17.516L133.394 14.7115L134.152 12.3295L132.509 10.5131L134.631 8.5494L133.625 8.43132L133.972 7.82261L133.177 7.54882L133.996 6.39535L133.635 4.85413L132.04 3.86463L132.496 2.49297L134.019 1.84255L134.494 0.494507L136.482 2.95851L141.463 4.19121L143.568 7.3223L145.897 8.694L146.041 8.01163L147.818 7.46126L148.756 8.79819L150.087 8.81061L150.447 9.53049L152.025 9.95162L152.185 10.8313L154.254 11.3914L154.043 13.633L156.205 13.3064L157.408 15.1437L161.024 15.5106L162.768 16.8225L163.251 18.4485L162.2 20.9973L163.132 22.312L164.993 22.4662L164.961 20.9834L166.832 20.2774L167.095 18.9405L169.04 19.5339L169.836 23.913L172.427 24.7899L172.947 25.589L175.07 25.5626L175.049 26.5549L175.854 27.2359L175.503 29.1732L176.177 30.3016L173.231 32.2653L168.059 32.175L165.548 33.423L161.714 36.4526L159.147 39.3864L157.133 43.1873L157.158 44.9106L161.394 54.7096L161.031 55.8618L158.834 55.4671L157.285 56.2662L155.722 60.1741L157.075 60.3506L156.383 59.5474L157.307 59.3403L157.783 60.0045L160.35 58.1534L162.259 58.6301L163.563 58.1924L156.034 63.5582L154.446 67.5995L155.899 68.0081L155.93 69.4229L153.018 71.9661L149.369 73.6101L145.269 78.9579L144.611 80.7798L143.262 80.4977L141.768 78.2019L140.536 78.4423L140.213 79.2497L141.898 79.3289L143.898 81.5039L123.668 88.101L115.638 92.1854L108.556 97.1551L106.374 99.5997L101.982 102.813L99.4163 105.45L97.6038 108.576L96.3926 107.826L95.6657 107.102L95.9043 106.134L94.8339 105.963L94.7236 107.031L92.7207 106.97L93.529 108.419L94.5222 108.28L94.5318 109.16L93.3249 109.082L92.602 110.362L91.9799 108.769L89.766 110.119L89.2529 111.333L87.6196 110.334L88.3562 111.77L87.6334 112.652L88.0321 113.397L87.1203 114.239L86.1809 113.929L86.8265 114.496L85.7809 114.328L86.3616 114.817L86.0982 115.311L85.3367 114.831L85.2278 117.115L80.004 117.611L79.1846 118.45L77.9956 118.559L76.4148 116.802L73.8946 116.973L71.8848 116.306L69.4847 110.5L68.1135 111.415L69.2833 113.576L68.2943 113.258L67.1383 111.208L67.6418 110.393L66.8859 110.251L64.7561 106.054L63.9188 107.072L64.2112 108.056L63.4705 109.231L62.5366 108.495L62.1021 110.59L61.0648 110.416L61.011 109.935L61.5917 109.996L61.3531 108.773L61.0138 109.131L60.4248 108.376L60.0247 108.623L60.5613 110.106L60.4648 110.745L59.7116 110.766L59.913 112.417L58.5653 110.872L56.7597 110.452L55.5748 111.069L56.259 113.294L56.7431 112.067L57.7391 113.1L56.7694 112.99L58.6371 115.054L58.2039 115.929L57.1238 115.89L57.048 116.865L54.8327 117.184L54.4451 118.181L53.096 117.912L52.6822 119.437L52.5856 118.632L50.6007 117.709L48.2336 121.321L47.0956 121.783L46.9935 123.327L48.3205 123.387L47.5384 123.952L47.6998 124.562L49.3413 124.867L47.206 127.718L47.8432 128.495L48.4447 128.187L48.304 129.825L47.257 129.546L44.8168 130.555L43.6388 130.082L43.4305 128.684L42.2843 128.775L40.9628 127.873L40.3007 128.473L40.7931 129.228L40.0358 131.172L36.9101 132.528L35.9887 134.29L34.6562 133.031L34.532 131.913L35.5376 130.705L35.2259 130.028L33.3389 129.393L33.8755 127.927L33.194 128.028L32.9912 125.906L32.2988 125.973L31.5732 124.901L28.3178 128.772L28.9869 130.016L27.5426 131.599L29.2351 131.924L28.6241 132.909L27.6144 133.15L27.4971 134.685L26.726 135.297L28.4309 137.001L28.2116 137.444L27.5123 136.917L27.4088 140.019L26.7081 140.1L26.4874 139.364L25.5935 139.781L25.6018 141.663L24.8638 141.866L23.0071 140.928L22.5147 139.923L18.5972 139.488L16.4922 141.488L12.1402 143.19L10.9057 144.49L9.31386 145.47L8.88347 144.75L8.15513 144.989L6.6571 146.859L5.43219 146.48L2.90378 147.24L2.27474 146.576L0.124268 147.126L0.380842 144.74L1.63471 145.019L2.79202 142.161L2.69271 140.382L3.69691 138.439L4.09968 136.464L3.58519 135.658L4.25418 133.366L6.14399 132.081L8.02825 131.782L8.0117 130.923L10.5181 130.738L11.0146 128.73L13.7817 125.628L14.9045 125.16L15.2453 124.068L16.3515 124.223L16.5723 123.382L14.6618 122.336L14.5749 121.44L16.3667 122.097L16.9516 120.211L18.8579 119.351L20.1531 119.555L20.236 118.22L21.6126 118.164L22.5381 117.148L22.8733 113.959L24.8018 113.496L24.3838 110.312L23.4899 108.915L24.01 107.987L23.6527 107.163L22.4981 106.888L23.0472 105.897L22.2664 102.631L23.174 100.97L21.9519 99.6762L22.6899 99.5525L23.1713 97.9682L21.3312 97.775L20.5449 95.1387L18.5338 95.386L19.2193 94.2562L18.9724 89.1808L19.6152 86.7488L17.3144 86.3597L16.7433 84.5461L13.5459 82.9062L13.19 81.6137L14.0342 78.9676L16.1943 76.9289L18.5931 79.7681L19.56 78.541L23.0416 80.7521L24.5479 80.1364L27.6902 85.3076L29.1151 83.715L30.6614 83.0618L35.0259 84.2459L34.3831 85.5425L34.7817 87.1212L36.5335 85.4508L38.1792 85.277L38.6068 84.0541L38.1171 83.362L38.3185 80.3796L36.1321 80.0766L35.1679 80.52L29.1758 78.2436L28.831 75.6253L29.8324 73.8492L29.5869 71.9605L30.2848 71.3615L29.26 69.7411L30.2821 66.9561L29.7304 65.4885L29.0958 66.1306L28.8765 64.3614L27.2461 63.0009L28.522 60.8315L27.5661 56.6748L27.8971 52.796L29.4793 53.4603L29.8862 54.5735L31.1428 54.6554L31.9112 52.1914L33.8534 51.0143L35.8563 48.068L35.4824 46.9965L36.5115 46.046L36.2494 44.57L39.6082 44.2504L40.6649 44.8855L41.3477 44.2866L43.276 44.5812L45.4928 43.7612L47.9343 45.5165L50.2227 46.0696L52.2518 45.0009L53.0684 41.1346L54.692 40.3439L54.1002 39.5142L54.5596 37.5686L57.5846 38.6581L58.3888 38.3954L58.1322 36.8097L56.8756 35.4256L56.4245 33.8246L57.7556 30.1793L59.5033 29.0425L59.8358 30.4141L60.7545 29.7804L58.884 28.2434L60.7434 26.1713L60.2551 24.8885L60.9406 23.8976L62.2566 24.5397L62.1035 23.3556L63.6415 22.9901L63.2677 22.1104L64.1036 20.8958L62.7421 20.2301L62.2166 19.2531L62.309 16.3861L64.0981 16.0693L62.9104 14.8727L65.4113 11.1009L66.7755 10.4477L68.5026 10.5312L71.6283 7.37509L75.7623 6.62738L76.841 3.61028L74.9498 2.41787L75.0657 1.79805L75.7016 1.83408Z"/>
</mask>
<path d="M158.521 56.2647L162.025 56.2856L162.298 57.9949L160.349 58.1534L157.783 60.0045L157.306 59.3402L156.35 59.5445L157.024 60.3714L155.721 60.174L157.119 56.6761L158.521 56.2647ZM75.7016 1.83408L79.5267 3.39757L80.0316 5.58639L81.2344 6.49806L82.749 6.43833L83.9822 7.57652L87.9328 7.2166L88.5618 6.26881L89.4211 6.12425L89.3936 5.42664L90.8364 4.98745L97.1085 5.15285L97.3651 4.30091L98.9542 4.14945L99.6701 4.79011L100.941 4.26201L101.438 5.05139L102.983 4.01743L103.194 4.39819L106.309 3.15994L106.643 7.22216L107.189 7.45701L107.046 8.30061L107.799 8.29645L107.811 9.0386L106.542 9.61115L105.192 14.6156L103.924 15.4675L104.574 15.6148L105.775 14.6545L107.264 15.0061L107.94 16.0359L108.999 15.9108L109.439 16.6043L109.486 15.9817L110.592 16.7627L111.176 18.1011L113.172 14.7698L113.834 14.2112L114.848 14.3793L114.994 13.287L115.893 13.1605L120.085 15.4091L121.572 15.7885L123.117 15.2938L124.182 16.5904L127.662 14.6517L128.491 15.7093L127.255 15.7024L126.472 18.4319L130.649 19.1531L130.846 17.9621L131.723 17.516L133.394 14.7115L134.152 12.3295L132.509 10.5131L134.631 8.5494L133.625 8.43132L133.972 7.82261L133.177 7.54882L133.996 6.39535L133.635 4.85413L132.04 3.86463L132.496 2.49297L134.019 1.84255L134.494 0.494507L136.482 2.95851L141.463 4.19121L143.568 7.3223L145.897 8.694L146.041 8.01163L147.818 7.46126L148.756 8.79819L150.087 8.81061L150.447 9.53049L152.025 9.95162L152.185 10.8313L154.254 11.3914L154.043 13.633L156.205 13.3064L157.408 15.1437L161.024 15.5106L162.768 16.8225L163.251 18.4485L162.2 20.9973L163.132 22.312L164.993 22.4662L164.961 20.9834L166.832 20.2774L167.095 18.9405L169.04 19.5339L169.836 23.913L172.427 24.7899L172.947 25.589L175.07 25.5626L175.049 26.5549L175.854 27.2359L175.503 29.1732L176.177 30.3016L173.231 32.2653L168.059 32.175L165.548 33.423L161.714 36.4526L159.147 39.3864L157.133 43.1873L157.158 44.9106L161.394 54.7096L161.031 55.8618L158.834 55.4671L157.285 56.2662L155.722 60.1741L157.075 60.3506L156.383 59.5474L157.307 59.3403L157.783 60.0045L160.35 58.1534L162.259 58.6301L163.563 58.1924L156.034 63.5582L154.446 67.5995L155.899 68.0081L155.93 69.4229L153.018 71.9661L149.369 73.6101L145.269 78.9579L144.611 80.7798L143.262 80.4977L141.768 78.2019L140.536 78.4423L140.213 79.2497L141.898 79.3289L143.898 81.5039L123.668 88.101L115.638 92.1854L108.556 97.1551L106.374 99.5997L101.982 102.813L99.4163 105.45L97.6038 108.576L96.3926 107.826L95.6657 107.102L95.9043 106.134L94.8339 105.963L94.7236 107.031L92.7207 106.97L93.529 108.419L94.5222 108.28L94.5318 109.16L93.3249 109.082L92.602 110.362L91.9799 108.769L89.766 110.119L89.2529 111.333L87.6196 110.334L88.3562 111.77L87.6334 112.652L88.0321 113.397L87.1203 114.239L86.1809 113.929L86.8265 114.496L85.7809 114.328L86.3616 114.817L86.0982 115.311L85.3367 114.831L85.2278 117.115L80.004 117.611L79.1846 118.45L77.9956 118.559L76.4148 116.802L73.8946 116.973L71.8848 116.306L69.4847 110.5L68.1135 111.415L69.2833 113.576L68.2943 113.258L67.1383 111.208L67.6418 110.393L66.8859 110.251L64.7561 106.054L63.9188 107.072L64.2112 108.056L63.4705 109.231L62.5366 108.495L62.1021 110.59L61.0648 110.416L61.011 109.935L61.5917 109.996L61.3531 108.773L61.0138 109.131L60.4248 108.376L60.0247 108.623L60.5613 110.106L60.4648 110.745L59.7116 110.766L59.913 112.417L58.5653 110.872L56.7597 110.452L55.5748 111.069L56.259 113.294L56.7431 112.067L57.7391 113.1L56.7694 112.99L58.6371 115.054L58.2039 115.929L57.1238 115.89L57.048 116.865L54.8327 117.184L54.4451 118.181L53.096 117.912L52.6822 119.437L52.5856 118.632L50.6007 117.709L48.2336 121.321L47.0956 121.783L46.9935 123.327L48.3205 123.387L47.5384 123.952L47.6998 124.562L49.3413 124.867L47.206 127.718L47.8432 128.495L48.4447 128.187L48.304 129.825L47.257 129.546L44.8168 130.555L43.6388 130.082L43.4305 128.684L42.2843 128.775L40.9628 127.873L40.3007 128.473L40.7931 129.228L40.0358 131.172L36.9101 132.528L35.9887 134.29L34.6562 133.031L34.532 131.913L35.5376 130.705L35.2259 130.028L33.3389 129.393L33.8755 127.927L33.194 128.028L32.9912 125.906L32.2988 125.973L31.5732 124.901L28.3178 128.772L28.9869 130.016L27.5426 131.599L29.2351 131.924L28.6241 132.909L27.6144 133.15L27.4971 134.685L26.726 135.297L28.4309 137.001L28.2116 137.444L27.5123 136.917L27.4088 140.019L26.7081 140.1L26.4874 139.364L25.5935 139.781L25.6018 141.663L24.8638 141.866L23.0071 140.928L22.5147 139.923L18.5972 139.488L16.4922 141.488L12.1402 143.19L10.9057 144.49L9.31386 145.47L8.88347 144.75L8.15513 144.989L6.6571 146.859L5.43219 146.48L2.90378 147.24L2.27474 146.576L0.124268 147.126L0.380842 144.74L1.63471 145.019L2.79202 142.161L2.69271 140.382L3.69691 138.439L4.09968 136.464L3.58519 135.658L4.25418 133.366L6.14399 132.081L8.02825 131.782L8.0117 130.923L10.5181 130.738L11.0146 128.73L13.7817 125.628L14.9045 125.16L15.2453 124.068L16.3515 124.223L16.5723 123.382L14.6618 122.336L14.5749 121.44L16.3667 122.097L16.9516 120.211L18.8579 119.351L20.1531 119.555L20.236 118.22L21.6126 118.164L22.5381 117.148L22.8733 113.959L24.8018 113.496L24.3838 110.312L23.4899 108.915L24.01 107.987L23.6527 107.163L22.4981 106.888L23.0472 105.897L22.2664 102.631L23.174 100.97L21.9519 99.6762L22.6899 99.5525L23.1713 97.9682L21.3312 97.775L20.5449 95.1387L18.5338 95.386L19.2193 94.2562L18.9724 89.1808L19.6152 86.7488L17.3144 86.3597L16.7433 84.5461L13.5459 82.9062L13.19 81.6137L14.0342 78.9676L16.1943 76.9289L18.5931 79.7681L19.56 78.541L23.0416 80.7521L24.5479 80.1364L27.6902 85.3076L29.1151 83.715L30.6614 83.0618L35.0259 84.2459L34.3831 85.5425L34.7817 87.1212L36.5335 85.4508L38.1792 85.277L38.6068 84.0541L38.1171 83.362L38.3185 80.3796L36.1321 80.0766L35.1679 80.52L29.1758 78.2436L28.831 75.6253L29.8324 73.8492L29.5869 71.9605L30.2848 71.3615L29.26 69.7411L30.2821 66.9561L29.7304 65.4885L29.0958 66.1306L28.8765 64.3614L27.2461 63.0009L28.522 60.8315L27.5661 56.6748L27.8971 52.796L29.4793 53.4603L29.8862 54.5735L31.1428 54.6554L31.9112 52.1914L33.8534 51.0143L35.8563 48.068L35.4824 46.9965L36.5115 46.046L36.2494 44.57L39.6082 44.2504L40.6649 44.8855L41.3477 44.2866L43.276 44.5812L45.4928 43.7612L47.9343 45.5165L50.2227 46.0696L52.2518 45.0009L53.0684 41.1346L54.692 40.3439L54.1002 39.5142L54.5596 37.5686L57.5846 38.6581L58.3888 38.3954L58.1322 36.8097L56.8756 35.4256L56.4245 33.8246L57.7556 30.1793L59.5033 29.0425L59.8358 30.4141L60.7545 29.7804L58.884 28.2434L60.7434 26.1713L60.2551 24.8885L60.9406 23.8976L62.2566 24.5397L62.1035 23.3556L63.6415 22.9901L63.2677 22.1104L64.1036 20.8958L62.7421 20.2301L62.2166 19.2531L62.309 16.3861L64.0981 16.0693L62.9104 14.8727L65.4113 11.1009L66.7755 10.4477L68.5026 10.5312L71.6283 7.37509L75.7623 6.62738L76.841 3.61028L74.9498 2.41787L75.0657 1.79805L75.7016 1.83408Z" fill="#D0D5DD"/>
<path d="M158.521 56.2647L158.525 55.575L158.424 55.5744L158.327 55.6029L158.521 56.2647ZM162.025 56.2856L162.706 56.1767L162.613 55.5993L162.029 55.5959L162.025 56.2856ZM162.298 57.9949L162.354 58.6824L163.096 58.622L162.979 57.8861L162.298 57.9949ZM160.349 58.1534L160.293 57.4659L160.101 57.4815L159.945 57.594L160.349 58.1534ZM157.783 60.0045L157.223 60.4069L157.626 60.968L158.186 60.5639L157.783 60.0045ZM157.306 59.3402L157.866 58.9378L157.603 58.5715L157.161 58.6657L157.306 59.3402ZM156.35 59.5445L156.206 58.87L155.102 59.1059L155.815 59.9804L156.35 59.5445ZM157.024 60.3714L156.921 61.0533L158.689 61.321L157.559 59.9354L157.024 60.3714ZM155.721 60.174L155.08 59.918L154.757 60.7257L155.617 60.856L155.721 60.174ZM157.119 56.6761L156.925 56.0143L156.603 56.1087L156.479 56.42L157.119 56.6761ZM75.7016 1.83408L75.9626 1.19566L75.8558 1.15201L75.7407 1.14549L75.7016 1.83408ZM79.5267 3.39757L80.1987 3.24255L80.1184 2.89435L79.7876 2.75914L79.5267 3.39757ZM80.0316 5.58639L79.3595 5.74142L79.4157 5.98503L79.615 6.13605L80.0316 5.58639ZM81.2344 6.49806L80.8178 7.04772L81.0147 7.19697L81.2616 7.18723L81.2344 6.49806ZM82.749 6.43833L83.2168 5.93151L83.007 5.73792L82.7218 5.74917L82.749 6.43833ZM83.9822 7.57652L83.5144 8.08334L83.7396 8.29118L84.0447 8.26338L83.9822 7.57652ZM87.9328 7.2166L87.9954 7.90346L88.3246 7.87346L88.5075 7.59798L87.9328 7.2166ZM88.5618 6.26881L88.4474 5.58867L88.1525 5.63827L87.9871 5.88744L88.5618 6.26881ZM89.4211 6.12425L89.5355 6.8044L90.1343 6.70368L90.1103 6.09701L89.4211 6.12425ZM89.3936 5.42664L89.1927 4.76683L88.6834 4.92187L88.7044 5.45388L89.3936 5.42664ZM90.8364 4.98745L90.8546 4.29799L90.7427 4.29504L90.6356 4.32764L90.8364 4.98745ZM97.1085 5.15285L97.0903 5.84231L97.617 5.85619L97.7689 5.35174L97.1085 5.15285ZM97.3651 4.30091L97.2997 3.61432L96.8383 3.65829L96.7047 4.10202L97.3651 4.30091ZM98.9542 4.14945L99.4141 3.63549L99.1892 3.43422L98.8887 3.46286L98.9542 4.14945ZM99.6701 4.79011L99.2102 5.30407L99.5338 5.59368L99.9349 5.42697L99.6701 4.79011ZM100.941 4.26201L101.524 3.89404L101.213 3.40171L100.676 3.62514L100.941 4.26201ZM101.438 5.05139L100.855 5.41937L101.233 6.01869L101.822 5.62457L101.438 5.05139ZM102.983 4.01743L103.587 3.68305L103.223 3.02715L102.6 3.44426L102.983 4.01743ZM103.194 4.39819L102.591 4.73258L102.885 5.26326L103.449 5.0391L103.194 4.39819ZM106.309 3.15994L106.997 3.10345L106.92 2.1748L106.054 2.51903L106.309 3.15994ZM106.643 7.22216L105.956 7.27865L105.99 7.69197L106.371 7.85578L106.643 7.22216ZM107.189 7.45701L107.869 7.57264L107.96 7.03772L107.462 6.82339L107.189 7.45701ZM107.046 8.30061L106.366 8.18498L106.228 8.99485L107.05 8.9903L107.046 8.30061ZM107.799 8.29645L108.488 8.28491L108.477 7.60298L107.795 7.60676L107.799 8.29645ZM107.811 9.0386L108.095 9.66728L108.508 9.48069L108.501 9.02706L107.811 9.0386ZM106.542 9.61115L106.259 8.98247L105.961 9.11659L105.876 9.43146L106.542 9.61115ZM105.192 14.6156L105.577 15.1881L105.791 15.0443L105.858 14.7953L105.192 14.6156ZM103.924 15.4675L103.539 14.8951L102.213 15.7867L103.772 16.1402L103.924 15.4675ZM104.574 15.6148L104.421 16.2875L104.745 16.3609L105.004 16.1536L104.574 15.6148ZM105.775 14.6545L105.934 13.9833L105.607 13.9061L105.345 14.1158L105.775 14.6545ZM107.264 15.0061L107.84 14.6277L107.69 14.398L107.422 14.3349L107.264 15.0061ZM107.94 16.0359L107.363 16.4144L107.597 16.7709L108.021 16.7209L107.94 16.0359ZM108.999 15.9108L109.581 15.5413L109.349 15.175L108.918 15.2259L108.999 15.9108ZM109.439 16.6043L108.857 16.9738L109.971 18.7294L110.127 16.6561L109.439 16.6043ZM109.486 15.9817L109.884 15.4183L108.89 14.7164L108.798 15.9299L109.486 15.9817ZM110.592 16.7627L111.224 16.4871L111.147 16.3105L110.99 16.1993L110.592 16.7627ZM111.176 18.1011L110.543 18.3767L111.079 19.6046L111.767 18.4556L111.176 18.1011ZM113.172 14.7698L112.727 14.2427L112.639 14.3168L112.58 14.4153L113.172 14.7698ZM113.834 14.2112L113.947 13.5308L113.632 13.4787L113.389 13.6841L113.834 14.2112ZM114.848 14.3793L114.735 15.0597L115.437 15.1761L115.531 14.4708L114.848 14.3793ZM114.994 13.287L114.898 12.604L114.38 12.6769L114.31 13.1955L114.994 13.287ZM115.893 13.1605L116.219 12.5527L116.021 12.4461L115.797 12.4775L115.893 13.1605ZM120.085 15.4091L119.759 16.0169L119.833 16.0566L119.915 16.0774L120.085 15.4091ZM121.572 15.7885L121.402 16.4568L121.594 16.5058L121.783 16.4454L121.572 15.7885ZM123.117 15.2938L123.65 14.856L123.353 14.4941L122.907 14.6369L123.117 15.2938ZM124.182 16.5904L123.649 17.0281L124.015 17.4732L124.518 17.1929L124.182 16.5904ZM127.662 14.6517L128.205 14.2262L127.842 13.7623L127.327 14.0492L127.662 14.6517ZM128.491 15.7093L128.487 16.399L129.914 16.407L129.034 15.2838L128.491 15.7093ZM127.255 15.7024L127.259 15.0127L126.737 15.0098L126.592 15.5121L127.255 15.7024ZM126.472 18.4319L125.809 18.2416L125.597 18.9806L126.354 19.1115L126.472 18.4319ZM130.649 19.1531L130.531 19.8328L131.216 19.9509L131.329 19.2658L130.649 19.1531ZM130.846 17.9621L130.533 17.3473L130.222 17.5054L130.165 17.8494L130.846 17.9621ZM131.723 17.516L132.036 18.1308L132.214 18.0404L132.316 17.869L131.723 17.516ZM133.394 14.7115L133.986 15.0644L134.027 14.9963L134.051 14.9208L133.394 14.7115ZM134.152 12.3295L134.81 12.5388L134.93 12.1609L134.664 11.8668L134.152 12.3295ZM132.509 10.5131L132.041 10.0069L131.541 10.4701L131.998 10.9757L132.509 10.5131ZM134.631 8.5494L135.1 9.05556L136.198 8.03895L134.711 7.86441L134.631 8.5494ZM133.625 8.43132L133.026 8.09035L132.511 8.99495L133.545 9.11632L133.625 8.43132ZM133.972 7.82261L134.571 8.16359L134.982 7.44127L134.196 7.17055L133.972 7.82261ZM133.177 7.54882L132.615 7.14941L132.081 7.90067L132.952 8.20089L133.177 7.54882ZM133.996 6.39535L134.559 6.79476L134.739 6.54097L134.668 6.2379L133.996 6.39535ZM133.635 4.85413L134.307 4.69668L134.241 4.41866L133.999 4.2681L133.635 4.85413ZM132.04 3.86463L131.386 3.64738L131.215 4.16378L131.677 4.45066L132.04 3.86463ZM132.496 2.49297L132.225 1.8587L131.939 1.98077L131.841 2.27572L132.496 2.49297ZM134.019 1.84255L134.289 2.47682L134.568 2.35782L134.669 2.07214L134.019 1.84255ZM134.494 0.494507L135.031 0.0614682L134.255 -0.900275L133.844 0.264911L134.494 0.494507ZM136.482 2.95851L135.945 3.39155L136.091 3.57224L136.316 3.62801L136.482 2.95851ZM141.463 4.19121L142.036 3.80641L141.887 3.58562L141.629 3.5217L141.463 4.19121ZM143.568 7.3223L142.996 7.7071L143.083 7.83707L143.218 7.91655L143.568 7.3223ZM145.897 8.694L145.547 9.28825L146.372 9.77473L146.571 8.83718L145.897 8.694ZM146.041 8.01163L145.837 7.35281L145.451 7.47256L145.367 7.86845L146.041 8.01163ZM147.818 7.46126L148.383 7.06514L148.094 6.65375L147.614 6.80245L147.818 7.46126ZM148.756 8.79819L148.191 9.19431L148.395 9.48455L148.75 9.48786L148.756 8.79819ZM150.087 8.81061L150.704 8.50212L150.515 8.12487L150.094 8.12094L150.087 8.81061ZM150.447 9.53049L149.83 9.83898L149.969 10.1168L150.269 10.1969L150.447 9.53049ZM152.025 9.95162L152.704 9.82819L152.626 9.39798L152.203 9.28524L152.025 9.95162ZM152.185 10.8313L151.507 10.9547L151.585 11.3832L152.005 11.497L152.185 10.8313ZM154.254 11.3914L154.941 11.456L154.995 10.8775L154.435 10.7256L154.254 11.3914ZM154.043 13.633L153.357 13.5684L153.274 14.4468L154.146 14.315L154.043 13.633ZM156.205 13.3064L156.782 12.9286L156.539 12.5583L156.102 12.6245L156.205 13.3064ZM157.408 15.1437L156.831 15.5215L157.011 15.7967L157.338 15.8299L157.408 15.1437ZM161.024 15.5106L161.439 14.9594L161.285 14.8438L161.094 14.8244L161.024 15.5106ZM162.768 16.8225L163.429 16.6262L163.364 16.4081L163.183 16.2714L162.768 16.8225ZM163.251 18.4485L163.888 18.7114L163.981 18.486L163.912 18.2522L163.251 18.4485ZM162.2 20.9973L161.562 20.7343L161.417 21.086L161.637 21.3963L162.2 20.9973ZM163.132 22.312L162.57 22.711L162.755 22.9728L163.075 22.9993L163.132 22.312ZM164.993 22.4662L164.936 23.1536L165.699 23.2168L165.683 22.4515L164.993 22.4662ZM164.961 20.9834L164.718 20.3381L164.261 20.5104L164.272 20.9981L164.961 20.9834ZM166.832 20.2774L167.075 20.9226L167.434 20.7872L167.508 20.4107L166.832 20.2774ZM167.095 18.9405L167.296 18.2808L166.566 18.0579L166.418 18.8071L167.095 18.9405ZM169.04 19.5339L169.719 19.4105L169.644 18.9969L169.241 18.8742L169.04 19.5339ZM169.836 23.913L169.157 24.0363L169.23 24.436L169.615 24.5662L169.836 23.913ZM172.427 24.7899L173.005 24.4137L172.874 24.2132L172.648 24.1366L172.427 24.7899ZM172.947 25.589L172.369 25.9651L172.576 26.2833L172.955 26.2786L172.947 25.589ZM175.07 25.5626L175.759 25.577L175.774 24.8641L175.061 24.873L175.07 25.5626ZM175.049 26.5549L174.359 26.5405L174.352 26.8693L174.604 27.0816L175.049 26.5549ZM175.854 27.2359L176.533 27.3591L176.604 26.9667L176.3 26.7092L175.854 27.2359ZM175.503 29.1732L174.824 29.05L174.778 29.3048L174.911 29.5271L175.503 29.1732ZM176.177 30.3016L176.56 30.8756L177.106 30.5114L176.769 29.9478L176.177 30.3016ZM173.231 32.2653L173.219 32.9549L173.434 32.9587L173.613 32.8393L173.231 32.2653ZM168.059 32.175L168.071 31.4854L167.903 31.4825L167.753 31.5573L168.059 32.175ZM165.548 33.423L165.241 32.8053L165.176 32.8373L165.12 32.8819L165.548 33.423ZM161.714 36.4526L161.286 35.9115L161.237 35.9508L161.195 35.9985L161.714 36.4526ZM159.147 39.3864L158.628 38.9322L158.575 38.9926L158.538 39.0635L159.147 39.3864ZM157.133 43.1873L156.524 42.8644L156.441 43.0205L156.444 43.1973L157.133 43.1873ZM157.158 44.9106L156.468 44.9205L156.47 45.058L156.525 45.1843L157.158 44.9106ZM161.394 54.7096L162.052 54.9168L162.129 54.6718L162.027 54.436L161.394 54.7096ZM161.031 55.8618L160.909 56.5406L161.507 56.6479L161.689 56.0689L161.031 55.8618ZM158.834 55.4671L158.956 54.7882L158.726 54.7469L158.518 54.8541L158.834 55.4671ZM157.285 56.2662L156.969 55.6532L156.74 55.7712L156.645 56.0101L157.285 56.2662ZM155.722 60.1741L155.082 59.918L154.752 60.7431L155.633 60.858L155.722 60.1741ZM157.075 60.3506L156.986 61.0345L158.777 61.2681L157.598 59.9003L157.075 60.3506ZM156.383 59.5474L156.232 58.8743L155.109 59.126L155.86 59.9977L156.383 59.5474ZM157.307 59.3403L157.868 58.9386L157.602 58.5675L157.156 58.6673L157.307 59.3403ZM160.35 58.1534L160.517 57.4843L160.206 57.4067L159.947 57.594L160.35 58.1534ZM162.259 58.6301L162.092 59.2993L162.288 59.3481L162.479 59.2839L162.259 58.6301ZM163.563 58.1924L163.963 58.754L163.343 57.5386L163.563 58.1924ZM156.034 63.5582L155.633 62.9965L155.467 63.1154L155.392 63.306L156.034 63.5582ZM154.446 67.5995L153.804 67.3473L153.525 68.057L154.259 68.2635L154.446 67.5995ZM155.899 68.0081L156.588 67.9927L156.577 67.4824L156.085 67.3442L155.899 68.0081ZM155.93 69.4229L156.384 69.9423L156.627 69.73L156.62 69.4074L155.93 69.4229ZM153.018 71.9661L153.302 72.5949L153.395 72.5529L153.472 72.4856L153.018 71.9661ZM149.369 73.6101L149.085 72.9813L148.927 73.0527L148.821 73.1905L149.369 73.6101ZM145.269 78.9579L144.722 78.5383L144.657 78.6231L144.62 78.7236L145.269 78.9579ZM144.611 80.7798L144.47 81.4549L145.056 81.5776L145.26 81.0141L144.611 80.7798ZM143.262 80.4977L142.684 80.8739L142.84 81.1141L143.121 81.1728L143.262 80.4977ZM141.768 78.2019L142.346 77.8257L142.092 77.4358L141.636 77.5249L141.768 78.2019ZM140.536 78.4423L140.404 77.7654L140.035 77.8374L139.896 78.1863L140.536 78.4423ZM140.213 79.2497L139.573 78.9938L139.214 79.8932L140.181 79.9387L140.213 79.2497ZM141.898 79.3289L142.405 78.8621L142.213 78.6533L141.93 78.64L141.898 79.3289ZM143.898 81.5039L144.112 82.1596L145.132 81.8269L144.405 81.037L143.898 81.5039ZM123.668 88.101L123.454 87.4453L123.403 87.4619L123.355 87.4862L123.668 88.101ZM115.638 92.1854L115.325 91.5707L115.282 91.5928L115.242 91.6209L115.638 92.1854ZM108.556 97.1551L108.16 96.5906L108.095 96.6364L108.042 96.6958L108.556 97.1551ZM106.374 99.5997L106.781 100.156L106.84 100.113L106.888 100.059L106.374 99.5997ZM101.982 102.813L101.575 102.256L101.528 102.29L101.488 102.332L101.982 102.813ZM99.4163 105.45L98.9219 104.97L98.8624 105.031L98.8196 105.104L99.4163 105.45ZM97.6038 108.576L97.2405 109.162L97.8441 109.536L98.2004 108.922L97.6038 108.576ZM96.3926 107.826L95.9059 108.314L95.9621 108.37L96.0294 108.412L96.3926 107.826ZM95.6657 107.102L94.9961 106.936L94.9026 107.315L95.179 107.59L95.6657 107.102ZM95.9043 106.134L96.574 106.299L96.7536 105.571L96.0131 105.453L95.9043 106.134ZM94.8339 105.963L94.9427 105.282L94.2228 105.167L94.1479 105.892L94.8339 105.963ZM94.7236 107.031L94.7025 107.72L95.3437 107.74L95.4096 107.102L94.7236 107.031ZM92.7207 106.97L92.7417 106.28L91.5258 106.243L92.1183 107.305L92.7207 106.97ZM93.529 108.419L92.9266 108.755L93.1567 109.168L93.6246 109.102L93.529 108.419ZM94.5222 108.28L95.2118 108.272L95.2032 107.488L94.4266 107.597L94.5222 108.28ZM94.5318 109.16L94.4875 109.848L95.2297 109.896L95.2215 109.152L94.5318 109.16ZM93.3249 109.082L93.3692 108.394L92.9372 108.366L92.7243 108.743L93.3249 109.082ZM92.602 110.362L91.9596 110.613L92.4882 111.966L93.2026 110.701L92.602 110.362ZM91.9799 108.769L92.6224 108.518L92.3232 107.752L91.621 108.18L91.9799 108.769ZM89.766 110.119L89.407 109.53L89.2172 109.646L89.1306 109.85L89.766 110.119ZM89.2529 111.333L88.8929 111.922L89.5764 112.34L89.8882 111.602L89.2529 111.333ZM87.6196 110.334L87.9796 109.746L85.8851 108.464L87.006 110.649L87.6196 110.334ZM88.3562 111.77L88.8898 112.207L89.1762 111.857L88.9699 111.455L88.3562 111.77ZM87.6334 112.652L87.0999 112.215L86.808 112.572L87.0254 112.978L87.6334 112.652ZM88.0321 113.397L88.5001 113.904L88.8918 113.542L88.6402 113.072L88.0321 113.397ZM87.1203 114.239L86.9042 114.894L87.2899 115.021L87.5883 114.746L87.1203 114.239ZM86.1809 113.929L86.397 113.274L85.7258 114.448L86.1809 113.929ZM86.8265 114.496L86.717 115.177L89.0796 115.557L87.2817 113.978L86.8265 114.496ZM85.7809 114.328L85.8905 113.647L83.4328 113.252L85.3366 114.856L85.7809 114.328ZM86.3616 114.817L86.97 115.142L87.2331 114.65L86.806 114.29L86.3616 114.817ZM86.0982 115.311L85.7307 115.894L86.3576 116.289L86.7065 115.636L86.0982 115.311ZM85.3367 114.831L85.7042 114.248L84.7041 113.618L84.6478 114.798L85.3367 114.831ZM85.2278 117.115L85.293 117.801L85.8882 117.745L85.9167 117.148L85.2278 117.115ZM80.004 117.611L79.9388 116.924L79.687 116.948L79.5104 117.129L80.004 117.611ZM79.1846 118.45L79.2472 119.137L79.5005 119.114L79.6782 118.932L79.1846 118.45ZM77.9956 118.559L77.4829 119.02L77.7141 119.277L78.0582 119.245L77.9956 118.559ZM76.4148 116.802L76.9275 116.341L76.703 116.091L76.3681 116.114L76.4148 116.802ZM73.8946 116.973L73.6774 117.627L73.806 117.67L73.9413 117.661L73.8946 116.973ZM71.8848 116.306L71.2475 116.569L71.368 116.861L71.6676 116.96L71.8848 116.306ZM69.4847 110.5L70.122 110.236L69.8008 109.459L69.1016 109.926L69.4847 110.5ZM68.1135 111.415L67.7305 110.842L67.2078 111.191L67.507 111.744L68.1135 111.415ZM69.2833 113.576L69.072 114.233L70.7078 114.759L69.8898 113.248L69.2833 113.576ZM68.2943 113.258L67.6935 113.597L67.8261 113.832L68.083 113.915L68.2943 113.258ZM67.1383 111.208L66.5514 110.846L66.3376 111.192L66.5375 111.547L67.1383 111.208ZM67.6418 110.393L68.2287 110.755L68.7563 109.9L67.7689 109.715L67.6418 110.393ZM66.8859 110.251L66.2709 110.563L66.4247 110.866L66.7588 110.929L66.8859 110.251ZM64.7561 106.054L65.3711 105.742L64.8935 104.8L64.2233 105.616L64.7561 106.054ZM63.9188 107.072L63.386 106.634L63.1533 106.918L63.2577 107.269L63.9188 107.072ZM64.2112 108.056L64.7946 108.424L64.9614 108.16L64.8723 107.86L64.2112 108.056ZM63.4705 109.231L63.0438 109.773L63.6454 110.246L64.0538 109.599L63.4705 109.231ZM62.5366 108.495L62.9633 107.954L62.0877 107.264L61.8613 108.355L62.5366 108.495ZM62.1021 110.59L61.9882 111.27L62.6426 111.38L62.7774 110.73L62.1021 110.59ZM61.0648 110.416L60.3794 110.493L60.4373 111.01L60.9509 111.096L61.0648 110.416ZM61.011 109.935L61.0832 109.249L60.2302 109.16L60.3256 110.012L61.011 109.935ZM61.5917 109.996L61.5196 110.682L62.4474 110.78L62.2687 109.864L61.5917 109.996ZM61.3531 108.773L62.03 108.641L61.774 107.329L60.8531 108.298L61.3531 108.773ZM61.0138 109.131L60.4701 109.555L60.9625 110.186L61.5138 109.606L61.0138 109.131ZM60.4248 108.376L60.9685 107.952L60.588 107.464L60.062 107.789L60.4248 108.376ZM60.0247 108.623L59.662 108.037L59.1856 108.331L59.3762 108.858L60.0247 108.623ZM60.5613 110.106L61.2433 110.209L61.2694 110.036L61.2099 109.871L60.5613 110.106ZM60.4648 110.745L60.4838 111.435L61.0605 111.419L61.1467 110.848L60.4648 110.745ZM59.7116 110.766L59.6925 110.077L58.9353 110.098L59.027 110.85L59.7116 110.766ZM59.913 112.417L59.3932 112.871L60.8696 114.564L60.5976 112.334L59.913 112.417ZM58.5653 110.872L59.0852 110.419L58.9386 110.251L58.7215 110.2L58.5653 110.872ZM56.7597 110.452L56.9159 109.78L56.6674 109.723L56.4412 109.84L56.7597 110.452ZM55.5748 111.069L55.2562 110.458L54.7467 110.723L54.9156 111.272L55.5748 111.069ZM56.259 113.294L55.5998 113.497L56.1782 115.378L56.9006 113.547L56.259 113.294ZM56.7431 112.067L57.2395 111.588L56.4951 110.816L56.1016 111.814L56.7431 112.067ZM57.7391 113.1L57.6615 113.785L59.5663 114.001L58.2355 112.621L57.7391 113.1ZM56.7694 112.99L56.8469 112.305L55.0331 112.099L56.258 113.453L56.7694 112.99ZM58.6371 115.054L59.2553 115.359L59.4634 114.939L59.1484 114.591L58.6371 115.054ZM58.2039 115.929L58.1791 116.618L58.6245 116.634L58.8221 116.235L58.2039 115.929ZM57.1238 115.89L57.1487 115.201L56.4876 115.177L56.4362 115.837L57.1238 115.89ZM57.048 116.865L57.1465 117.547L57.6928 117.468L57.7356 116.918L57.048 116.865ZM54.8327 117.184L54.7342 116.502L54.3358 116.559L54.1899 116.934L54.8327 117.184ZM54.4451 118.181L54.3106 118.857L54.8781 118.97L55.0878 118.431L54.4451 118.181ZM53.096 117.912L53.2305 117.236L52.5991 117.11L52.4304 117.732L53.096 117.912ZM52.6822 119.437L51.9974 119.519L53.3478 119.618L52.6822 119.437ZM52.5856 118.632L53.2704 118.55L53.2247 118.169L52.8764 118.007L52.5856 118.632ZM50.6007 117.709L50.8914 117.084L50.3507 116.833L50.0238 117.331L50.6007 117.709ZM48.2336 121.321L48.4928 121.961L48.6924 121.88L48.8105 121.699L48.2336 121.321ZM47.0956 121.783L46.8365 121.144L46.4359 121.306L46.4074 121.737L47.0956 121.783ZM46.9935 123.327L46.3053 123.281L46.2589 123.984L46.9625 124.016L46.9935 123.327ZM48.3205 123.387L48.7247 123.945L50.3272 122.786L48.3515 122.698L48.3205 123.387ZM47.5384 123.952L47.1343 123.393L46.7506 123.671L46.8717 124.128L47.5384 123.952ZM47.6998 124.562L47.033 124.739L47.1447 125.161L47.574 125.24L47.6998 124.562ZM49.3413 124.867L49.8934 125.28L50.559 124.391L49.467 124.188L49.3413 124.867ZM47.206 127.718L46.6539 127.305L46.3298 127.738L46.6727 128.156L47.206 127.718ZM47.8432 128.495L47.31 128.933L47.6629 129.363L48.158 129.109L47.8432 128.495ZM48.4447 128.187L49.1318 128.246L49.2384 127.004L48.1299 127.573L48.4447 128.187ZM48.304 129.825L48.1262 130.492L48.9208 130.704L48.9912 129.884L48.304 129.825ZM47.257 129.546L47.4348 128.879L47.2092 128.819L46.9935 128.909L47.257 129.546ZM44.8168 130.555L44.5601 131.195L44.8208 131.299L45.0804 131.192L44.8168 130.555ZM43.6388 130.082L42.9567 130.184L43.0149 130.575L43.3821 130.722L43.6388 130.082ZM43.4305 128.684L44.1127 128.583L44.0179 127.946L43.3763 127.997L43.4305 128.684ZM42.2843 128.775L41.8954 129.344L42.0962 129.481L42.3384 129.462L42.2843 128.775ZM40.9628 127.873L41.3516 127.303L40.9024 126.996L40.4995 127.362L40.9628 127.873ZM40.3007 128.473L39.8374 127.962L39.4016 128.357L39.7231 128.85L40.3007 128.473ZM40.7931 129.228L41.4358 129.478L41.5645 129.148L41.3707 128.851L40.7931 129.228ZM40.0358 131.172L40.3104 131.805L40.5741 131.69L40.6785 131.422L40.0358 131.172ZM36.9101 132.528L36.6356 131.896L36.4119 131.993L36.2989 132.209L36.9101 132.528ZM35.9887 134.29L35.515 134.792L36.1775 135.418L36.5999 134.61L35.9887 134.29ZM34.6562 133.031L33.9707 133.107L33.9986 133.359L34.1825 133.533L34.6562 133.031ZM34.532 131.913L34.002 131.471L33.8142 131.697L33.8465 131.989L34.532 131.913ZM35.5376 130.705L36.0676 131.146L36.3462 130.812L36.1641 130.416L35.5376 130.705ZM35.2259 130.028L35.8523 129.74L35.7278 129.469L35.4459 129.374L35.2259 130.028ZM33.3389 129.393L32.6912 129.156L32.4479 129.821L33.1189 130.047L33.3389 129.393ZM33.8755 127.927L34.5232 128.164L34.9222 127.074L33.7738 127.245L33.8755 127.927ZM33.194 128.028L32.5074 128.094L32.5766 128.818L33.2957 128.711L33.194 128.028ZM32.9912 125.906L33.6778 125.841L33.6122 125.153L32.925 125.22L32.9912 125.906ZM32.2988 125.973L31.7277 126.36L31.9573 126.699L32.365 126.66L32.2988 125.973ZM31.5732 124.901L32.1443 124.515L31.6327 123.759L31.0454 124.458L31.5732 124.901ZM28.3178 128.772L27.79 128.328L27.4886 128.686L27.7104 129.099L28.3178 128.772ZM28.9869 130.016L29.4964 130.481L29.8258 130.119L29.5943 129.689L28.9869 130.016ZM27.5426 131.599L27.0331 131.134L26.2031 132.044L27.4125 132.276L27.5426 131.599ZM29.2351 131.924L29.8213 132.287L30.3495 131.436L29.3653 131.247L29.2351 131.924ZM28.6241 132.909L28.7838 133.58L29.0604 133.514L29.2102 133.273L28.6241 132.909ZM27.6144 133.15L27.4546 132.479L26.965 132.595L26.9267 133.097L27.6144 133.15ZM27.4971 134.685L27.9256 135.226L28.1618 135.038L28.1848 134.738L27.4971 134.685ZM26.726 135.297L26.2975 134.756L25.6909 135.237L26.2385 135.785L26.726 135.297ZM28.4309 137.001L29.0491 137.306L29.2687 136.863L28.9185 136.513L28.4309 137.001ZM28.2116 137.444L27.7967 137.995L28.461 138.495L28.8298 137.75L28.2116 137.444ZM27.5123 136.917L27.9272 136.366L26.8672 135.568L26.823 136.894L27.5123 136.917ZM27.4088 140.019L27.4876 140.704L28.0783 140.636L28.0981 140.042L27.4088 140.019ZM26.7081 140.1L26.0475 140.298L26.2135 140.851L26.7868 140.785L26.7081 140.1ZM26.4874 139.364L27.1479 139.166L26.9186 138.402L26.1958 138.739L26.4874 139.364ZM25.5935 139.781L25.302 139.156L24.9019 139.343L24.9038 139.784L25.5935 139.781ZM25.6018 141.663L25.7847 142.328L26.2938 142.188L26.2915 141.66L25.6018 141.663ZM24.8638 141.866L24.5528 142.482L24.7902 142.602L25.0467 142.531L24.8638 141.866ZM23.0071 140.928L22.3878 141.231L22.4896 141.439L22.6961 141.544L23.0071 140.928ZM22.5147 139.923L23.134 139.62L22.9673 139.279L22.5908 139.238L22.5147 139.923ZM18.5972 139.488L18.6733 138.803L18.3546 138.767L18.1222 138.988L18.5972 139.488ZM16.4922 141.488L16.7435 142.13L16.8693 142.081L16.9673 141.988L16.4922 141.488ZM12.1402 143.19L11.889 142.548L11.746 142.604L11.6402 142.715L12.1402 143.19ZM10.9057 144.49L11.2672 145.077L11.3438 145.03L11.4057 144.965L10.9057 144.49ZM9.31386 145.47L8.72189 145.824L9.0804 146.423L9.67538 146.057L9.31386 145.47ZM8.88347 144.75L9.47544 144.396L9.19243 143.922L8.66842 144.094L8.88347 144.75ZM8.15513 144.989L7.94007 144.333L7.74507 144.397L7.61678 144.558L8.15513 144.989ZM6.6571 146.859L6.45303 147.518L6.90179 147.657L7.19545 147.29L6.6571 146.859ZM5.43219 146.48L5.63626 145.821L5.43519 145.759L5.23361 145.819L5.43219 146.48ZM2.90378 147.24L2.40299 147.714L2.69527 148.023L3.10236 147.901L2.90378 147.24ZM2.27474 146.576L2.77553 146.102L2.49666 145.807L2.10375 145.908L2.27474 146.576ZM0.124268 147.126L-0.56148 147.052L-0.667753 148.041L0.295256 147.794L0.124268 147.126ZM0.380842 144.74L0.530823 144.067L-0.222403 143.899L-0.304905 144.666L0.380842 144.74ZM1.63471 145.019L1.48473 145.693L2.05483 145.82L2.27401 145.278L1.63471 145.019ZM2.79202 142.161L3.43131 142.419L3.48925 142.276L3.48064 142.122L2.79202 142.161ZM2.69271 140.382L2.08001 140.065L1.99359 140.232L2.00408 140.42L2.69271 140.382ZM3.69691 138.439L4.30961 138.756L4.35357 138.671L4.3727 138.577L3.69691 138.439ZM4.09968 136.464L4.77547 136.602L4.83127 136.328L4.68105 136.093L4.09968 136.464ZM3.58519 135.658L2.92312 135.465L2.8354 135.765L3.00382 136.029L3.58519 135.658ZM4.25418 133.366L3.86626 132.796L3.6615 132.935L3.59211 133.173L4.25418 133.366ZM6.14399 132.081L6.03597 131.4L5.88362 131.424L5.75607 131.511L6.14399 132.081ZM8.02825 131.782L8.13627 132.463L8.72939 132.369L8.71782 131.769L8.02825 131.782ZM8.0117 130.923L7.96098 130.235L7.30955 130.283L7.32213 130.936L8.0117 130.923ZM10.5181 130.738L10.5688 131.426L11.0675 131.389L11.1876 130.904L10.5181 130.738ZM11.0146 128.73L10.4999 128.271L10.3861 128.399L10.3451 128.565L11.0146 128.73ZM13.7817 125.628L13.5162 124.992L13.3714 125.052L13.267 125.169L13.7817 125.628ZM14.9045 125.16L15.1701 125.796L15.4671 125.673L15.563 125.365L14.9045 125.16ZM15.2453 124.068L15.3414 123.385L14.7613 123.303L14.5869 123.862L15.2453 124.068ZM16.3515 124.223L16.2554 124.906L16.8629 124.992L17.0186 124.398L16.3515 124.223ZM16.5723 123.382L17.2394 123.558L17.3762 123.036L16.9036 122.778L16.5723 123.382ZM14.6618 122.336L13.9753 122.403L14.0105 122.766L14.3304 122.941L14.6618 122.336ZM14.5749 121.44L14.8124 120.792L13.7826 120.414L13.8884 121.506L14.5749 121.44ZM16.3667 122.097L16.1292 122.744L16.8105 122.994L17.0254 122.301L16.3667 122.097ZM16.9516 120.211L16.6679 119.582L16.3848 119.71L16.2928 120.007L16.9516 120.211ZM18.8579 119.351L18.9654 118.67L18.7619 118.637L18.5742 118.722L18.8579 119.351ZM20.1531 119.555L20.0457 120.236L20.7946 120.354L20.8415 119.598L20.1531 119.555ZM20.236 118.22L20.2081 117.53L19.5861 117.556L19.5476 118.177L20.236 118.22ZM21.6126 118.164L21.6404 118.853L21.9283 118.841L22.1224 118.628L21.6126 118.164ZM22.5381 117.148L23.048 117.613L23.2004 117.445L23.2241 117.22L22.5381 117.148ZM22.8733 113.959L22.7124 113.288L22.2384 113.402L22.1874 113.886L22.8733 113.959ZM24.8018 113.496L24.9627 114.166L25.5664 114.022L25.4856 113.406L24.8018 113.496ZM24.3838 110.312L25.0676 110.222L25.0476 110.07L24.9647 109.94L24.3838 110.312ZM23.4899 108.915L22.8882 108.578L22.6862 108.939L22.909 109.287L23.4899 108.915ZM24.01 107.987L24.6117 108.324L24.7786 108.026L24.6428 107.713L24.01 107.987ZM23.6527 107.163L24.2855 106.888L24.1483 106.572L23.8126 106.492L23.6527 107.163ZM22.4981 106.888L21.8949 106.553L21.4546 107.348L22.3383 107.559L22.4981 106.888ZM23.0472 105.897L23.6505 106.231L23.7802 105.997L23.718 105.736L23.0472 105.897ZM22.2664 102.631L21.6612 102.3L21.5339 102.533L21.5956 102.791L22.2664 102.631ZM23.174 100.97L23.7793 101.301L24.0197 100.861L23.6754 100.496L23.174 100.97ZM21.9519 99.6762L21.8378 98.996L20.5627 99.2099L21.4505 100.15L21.9519 99.6762ZM22.6899 99.5525L22.804 100.233L23.2255 100.162L23.3498 99.753L22.6899 99.5525ZM23.1713 97.9682L23.8312 98.1687L24.0741 97.3695L23.2433 97.2822L23.1713 97.9682ZM21.3312 97.775L20.6702 97.9721L20.8017 98.4129L21.2592 98.4609L21.3312 97.775ZM20.5449 95.1387L21.2059 94.9416L21.0393 94.383L20.4607 94.4541L20.5449 95.1387ZM18.5338 95.386L17.9441 95.0282L17.2063 96.2442L18.618 96.0706L18.5338 95.386ZM19.2193 94.2562L19.809 94.6139L19.9185 94.4335L19.9082 94.2226L19.2193 94.2562ZM18.9724 89.1808L18.3056 89.0046L18.2783 89.1077L18.2835 89.2143L18.9724 89.1808ZM19.6152 86.7488L20.282 86.925L20.475 86.1947L19.7302 86.0688L19.6152 86.7488ZM17.3144 86.3597L16.6565 86.5668L16.7833 86.9693L17.1994 87.0397L17.3144 86.3597ZM16.7433 84.5461L17.4011 84.3389L17.3146 84.0639L17.058 83.9324L16.7433 84.5461ZM13.5459 82.9062L12.8809 83.0892L12.9614 83.3815L13.2311 83.5199L13.5459 82.9062ZM13.19 81.6137L12.5329 81.4041L12.4706 81.5992L12.525 81.7968L13.19 81.6137ZM14.0342 78.9676L13.5608 78.466L13.4312 78.5883L13.3771 78.758L14.0342 78.9676ZM16.1943 76.9289L16.7211 76.4838L16.2508 75.9271L15.7209 76.4273L16.1943 76.9289ZM18.5931 79.7681L18.0662 80.2132L18.6117 80.8588L19.1348 80.195L18.5931 79.7681ZM19.56 78.541L19.9298 77.9588L19.4039 77.6248L19.0183 78.1141L19.56 78.541ZM23.0416 80.7521L22.6719 81.3343L22.9727 81.5253L23.3026 81.3905L23.0416 80.7521ZM24.5479 80.1364L25.1373 79.7783L24.8317 79.2753L24.287 79.498L24.5479 80.1364ZM27.6902 85.3076L27.1008 85.6658L27.5839 86.4608L28.2042 85.7675L27.6902 85.3076ZM29.1151 83.715L28.8467 83.0797L28.7043 83.1398L28.6011 83.2551L29.1151 83.715ZM30.6614 83.0618L30.842 82.3961L30.6123 82.3338L30.3931 82.4264L30.6614 83.0618ZM35.0259 84.2459L35.6438 84.5522L36.0167 83.8L35.2065 83.5802L35.0259 84.2459ZM34.3831 85.5425L33.7651 85.2362L33.652 85.4644L33.7143 85.7114L34.3831 85.5425ZM34.7817 87.1212L34.113 87.2901L34.4023 88.436L35.2577 87.6204L34.7817 87.1212ZM36.5335 85.4508L36.4611 84.7649L36.2276 84.7895L36.0576 84.9516L36.5335 85.4508ZM38.1792 85.277L38.2516 85.9629L38.6861 85.9171L38.8302 85.5047L38.1792 85.277ZM38.6068 84.0541L39.2579 84.2817L39.3752 83.946L39.1698 83.6557L38.6068 84.0541ZM38.1171 83.362L37.429 83.3155L37.4124 83.5602L37.5541 83.7603L38.1171 83.362ZM38.3185 80.3796L39.0066 80.4261L39.0499 79.7847L38.4132 79.6964L38.3185 80.3796ZM36.1321 80.0766L36.2268 79.3935L36.0272 79.3658L35.844 79.45L36.1321 80.0766ZM35.1679 80.52L34.923 81.1647L35.1933 81.2674L35.456 81.1466L35.1679 80.52ZM29.1758 78.2436L28.492 78.3336L28.5458 78.742L28.9309 78.8883L29.1758 78.2436ZM28.831 75.6253L28.2302 75.2865L28.1171 75.4871L28.1472 75.7153L28.831 75.6253ZM29.8324 73.8492L30.4332 74.188L30.546 73.988L30.5164 73.7603L29.8324 73.8492ZM29.5869 71.9605L29.1377 71.4371L28.8549 71.6799L28.903 72.0495L29.5869 71.9605ZM30.2848 71.3615L30.734 71.8849L31.1864 71.4967L30.8678 70.9929L30.2848 71.3615ZM29.26 69.7411L28.6125 69.5035L28.4954 69.8225L28.6771 70.1098L29.26 69.7411ZM30.2821 66.9561L30.9296 67.1937L31.0179 66.9532L30.9277 66.7134L30.2821 66.9561ZM29.7304 65.4885L30.3759 65.2458L29.9969 64.2377L29.2398 65.0037L29.7304 65.4885ZM29.0958 66.1306L28.4113 66.2154L28.5864 67.6272L29.5864 66.6154L29.0958 66.1306ZM28.8765 64.3614L29.5609 64.2766L29.5274 64.0063L29.3184 63.8319L28.8765 64.3614ZM27.2461 63.0009L26.6516 62.6512L26.3549 63.1555L26.8042 63.5304L27.2461 63.0009ZM28.522 60.8315L29.1165 61.1812L29.2557 60.9445L29.1942 60.6769L28.522 60.8315ZM27.5661 56.6748L26.8789 56.6161L26.8697 56.7239L26.8939 56.8293L27.5661 56.6748ZM27.8971 52.796L28.1641 52.1601L27.2905 51.7933L27.2099 52.7374L27.8971 52.796ZM29.4793 53.4603L30.1271 53.2235L30.0238 52.9409L29.7463 52.8244L29.4793 53.4603ZM29.8862 54.5735L29.2384 54.8102L29.3927 55.2324L29.8413 55.2617L29.8862 54.5735ZM31.1428 54.6554L31.098 55.3437L31.6397 55.379L31.8013 54.8607L31.1428 54.6554ZM31.9112 52.1914L31.5537 51.6016L31.3305 51.7369L31.2528 51.9861L31.9112 52.1914ZM33.8534 51.0143L34.2108 51.6041L34.3393 51.5263L34.4237 51.402L33.8534 51.0143ZM35.8563 48.068L36.4266 48.4558L36.6218 48.1687L36.5075 47.8409L35.8563 48.068ZM35.4824 46.9965L35.0144 46.4899L34.6823 46.7967L34.8312 47.2237L35.4824 46.9965ZM36.5115 46.046L36.9795 46.5526L37.2565 46.2967L37.1905 45.9254L36.5115 46.046ZM36.2494 44.57L36.184 43.8834L35.4396 43.9543L35.5703 44.6906L36.2494 44.57ZM39.6082 44.2504L39.9635 43.6593L39.7689 43.5423L39.5429 43.5638L39.6082 44.2504ZM40.6649 44.8855L40.3096 45.4767L40.7411 45.7361L41.1197 45.404L40.6649 44.8855ZM41.3477 44.2866L41.4518 43.6048L41.1343 43.5563L40.8928 43.7681L41.3477 44.2866ZM43.276 44.5812L43.1719 45.263L43.3481 45.2899L43.5153 45.2281L43.276 44.5812ZM45.4928 43.7612L45.8954 43.2012L45.5975 42.9871L45.2535 43.1144L45.4928 43.7612ZM47.9343 45.5165L47.5317 46.0765L47.6412 46.1552L47.7723 46.1869L47.9343 45.5165ZM50.2227 46.0696L50.0607 46.74L50.3138 46.8011L50.5441 46.6798L50.2227 46.0696ZM52.2518 45.0009L52.5732 45.6111L52.8597 45.4602L52.9266 45.1434L52.2518 45.0009ZM53.0684 41.1346L52.7664 40.5146L52.4633 40.6622L52.3936 40.9921L53.0684 41.1346ZM54.692 40.3439L54.994 40.9639L55.7268 40.607L55.2535 39.9434L54.692 40.3439ZM54.1002 39.5142L53.429 39.3557L53.3571 39.6601L53.5387 39.9147L54.1002 39.5142ZM54.5596 37.5686L54.7933 36.9197L54.066 36.6577L53.8883 37.4101L54.5596 37.5686ZM57.5846 38.6581L57.3509 39.307L57.5736 39.3872L57.7987 39.3137L57.5846 38.6581ZM58.3888 38.3954L58.6029 39.0511L59.1639 38.8679L59.0696 38.2853L58.3888 38.3954ZM58.1322 36.8097L58.8131 36.6996L58.7804 36.4976L58.6429 36.3461L58.1322 36.8097ZM56.8756 35.4256L56.2117 35.6126L56.2558 35.7689L56.3649 35.8892L56.8756 35.4256ZM56.4245 33.8246L55.7766 33.588L55.7002 33.7972L55.7607 34.0116L56.4245 33.8246ZM57.7556 30.1793L57.3796 29.6011L57.1867 29.7266L57.1078 29.9427L57.7556 30.1793ZM59.5033 29.0425L60.1736 28.88L59.9441 27.933L59.1273 28.4643L59.5033 29.0425ZM59.8358 30.4141L59.1655 30.5766L59.4017 31.5514L60.2274 30.9819L59.8358 30.4141ZM60.7545 29.7804L61.1461 30.3482L61.8994 29.8285L61.1923 29.2475L60.7545 29.7804ZM58.884 28.2434L58.3706 27.7827L57.8895 28.3189L58.4461 28.7762L58.884 28.2434ZM60.7434 26.1713L61.2567 26.6319L61.5376 26.3189L61.388 25.9259L60.7434 26.1713ZM60.2551 24.8885L59.6879 24.4961L59.4814 24.7947L59.6105 25.1339L60.2551 24.8885ZM60.9406 23.8976L61.2431 23.2778L60.7106 23.018L60.3735 23.5052L60.9406 23.8976ZM62.2566 24.5397L61.9542 25.1596L63.1048 25.721L62.9406 24.4513L62.2566 24.5397ZM62.1035 23.3556L61.944 22.6846L61.3399 22.8282L61.4195 23.4441L62.1035 23.3556ZM63.6415 22.9901L63.801 23.6611L64.5958 23.4723L64.2763 22.7204L63.6415 22.9901ZM63.2677 22.1104L62.6996 21.7194L62.4848 22.0315L62.6329 22.3802L63.2677 22.1104ZM64.1036 20.8958L64.6718 21.2868L65.1254 20.6277L64.4066 20.2762L64.1036 20.8958ZM62.7421 20.2301L62.1347 20.5568L62.2399 20.7522L62.4392 20.8497L62.7421 20.2301ZM62.2166 19.2531L61.5273 19.2309L61.5213 19.4164L61.6092 19.5799L62.2166 19.2531ZM62.309 16.3861L62.1887 15.707L61.6377 15.8046L61.6197 16.3639L62.309 16.3861ZM64.0981 16.0693L64.2184 16.7484L65.5158 16.5186L64.5876 15.5834L64.0981 16.0693ZM62.9104 14.8727L62.3356 14.4915L62.0251 14.9598L62.4209 15.3585L62.9104 14.8727ZM65.4113 11.1009L65.1135 10.4789L64.9417 10.5611L64.8365 10.7198L65.4113 11.1009ZM66.7755 10.4477L66.8088 9.75882L66.6348 9.75041L66.4777 9.82565L66.7755 10.4477ZM68.5026 10.5312L68.4693 11.2201L68.7763 11.2349L68.9926 11.0165L68.5026 10.5312ZM71.6283 7.37509L71.5055 6.6964L71.2914 6.73514L71.1382 6.88977L71.6283 7.37509ZM75.7623 6.62738L75.8851 7.30607L76.2775 7.2351L76.4118 6.85957L75.7623 6.62738ZM76.841 3.61028L77.4904 3.84247L77.6766 3.32179L77.2089 3.02687L76.841 3.61028ZM74.9498 2.41787L74.2719 2.29111L74.1858 2.75149L74.582 3.00128L74.9498 2.41787ZM75.0657 1.79805L75.1048 1.10945L74.4993 1.07514L74.3878 1.67129L75.0657 1.79805ZM158.517 56.9544L162.02 56.9752L162.029 55.5959L158.525 55.575L158.517 56.9544ZM161.343 56.3944L161.617 58.1038L162.979 57.8861L162.706 56.1767L161.343 56.3944ZM162.242 57.3075L160.293 57.4659L160.404 58.8408L162.354 58.6824L162.242 57.3075ZM159.945 57.594L157.379 59.4452L158.186 60.5638L160.752 58.7127L159.945 57.594ZM158.343 59.6021L157.866 58.9378L156.745 59.7426L157.223 60.4069L158.343 59.6021ZM157.161 58.6657L156.206 58.87L156.494 60.219L157.45 60.0147L157.161 58.6657ZM155.815 59.9804L156.49 60.8073L157.559 59.9354L156.884 59.1085L155.815 59.9804ZM157.127 59.6895L155.824 59.4921L155.617 60.856L156.921 61.0533L157.127 59.6895ZM156.361 60.4301L157.76 56.9322L156.479 56.42L155.08 59.918L156.361 60.4301ZM157.314 57.3379L158.715 56.9265L158.327 55.6029L156.925 56.0143L157.314 57.3379ZM75.4407 2.47251L79.2657 4.036L79.7876 2.75914L75.9626 1.19566L75.4407 2.47251ZM78.8546 3.55259L79.3595 5.74142L80.7036 5.43137L80.1987 3.24255L78.8546 3.55259ZM79.615 6.13605L80.8178 7.04772L81.651 5.94841L80.4482 5.03674L79.615 6.13605ZM81.2616 7.18723L82.7762 7.1275L82.7218 5.74917L81.2072 5.8089L81.2616 7.18723ZM82.2812 6.94515L83.5144 8.08334L84.45 7.06971L83.2168 5.93151L82.2812 6.94515ZM84.0447 8.26338L87.9954 7.90346L87.8702 6.52975L83.9196 6.88967L84.0447 8.26338ZM88.5075 7.59798L89.1365 6.65019L87.9871 5.88744L87.3581 6.83523L88.5075 7.59798ZM88.6762 6.94895L89.5355 6.8044L89.3067 5.44411L88.4474 5.58867L88.6762 6.94895ZM90.1103 6.09701L90.0827 5.3994L88.7044 5.45388L88.732 6.15149L90.1103 6.09701ZM89.5944 6.08645L91.0372 5.64726L90.6356 4.32764L89.1927 4.76683L89.5944 6.08645ZM90.8182 5.67691L97.0903 5.84231L97.1267 4.46339L90.8546 4.29799L90.8182 5.67691ZM97.7689 5.35174L98.0255 4.4998L96.7047 4.10202L96.4481 4.95396L97.7689 5.35174ZM97.4305 4.9875L99.0196 4.83604L98.8887 3.46286L97.2997 3.61432L97.4305 4.9875ZM98.4943 4.66341L99.2102 5.30407L100.13 4.27615L99.4141 3.63549L98.4943 4.66341ZM99.9349 5.42697L101.205 4.89888L100.676 3.62514L99.4054 4.15324L99.9349 5.42697ZM100.357 4.62999L100.855 5.41937L102.022 4.68342L101.524 3.89404L100.357 4.62999ZM101.822 5.62457L103.367 4.59061L102.6 3.44426L101.055 4.47822L101.822 5.62457ZM102.38 4.35182L102.591 4.73258L103.798 4.0638L103.587 3.68305L102.38 4.35182ZM103.449 5.0391L106.564 3.80085L106.054 2.51903L102.94 3.75728L103.449 5.0391ZM105.622 3.21643L105.956 7.27865L107.33 7.16567L106.997 3.10345L105.622 3.21643ZM106.371 7.85578L106.917 8.09063L107.462 6.82339L106.915 6.58854L106.371 7.85578ZM106.509 7.34138L106.366 8.18498L107.726 8.41624L107.869 7.57264L106.509 7.34138ZM107.05 8.9903L107.803 8.98614L107.795 7.60676L107.042 7.61092L107.05 8.9903ZM107.109 8.30799L107.122 9.05014L108.501 9.02706L108.488 8.28491L107.109 8.30799ZM107.528 8.40992L106.259 8.98247L106.826 10.2398L108.095 9.66728L107.528 8.40992ZM105.876 9.43146L104.526 14.436L105.858 14.7953L107.208 9.79083L105.876 9.43146ZM104.807 14.0432L103.539 14.8951L104.309 16.04L105.577 15.1881L104.807 14.0432ZM103.772 16.1402L104.421 16.2875L104.726 14.9422L104.077 14.7949L103.772 16.1402ZM105.004 16.1536L106.206 15.1933L105.345 14.1158L104.143 15.0761L105.004 16.1536ZM105.617 15.3258L107.105 15.6773L107.422 14.3349L105.934 13.9833L105.617 15.3258ZM106.687 15.3846L107.363 16.4144L108.516 15.6575L107.84 14.6277L106.687 15.3846ZM108.021 16.7209L109.08 16.5957L108.918 15.2259L107.859 15.351L108.021 16.7209ZM108.417 16.2803L108.857 16.9738L110.021 16.2348L109.581 15.5413L108.417 16.2803ZM110.127 16.6561L110.174 16.0335L108.798 15.9299L108.751 16.5525L110.127 16.6561ZM109.088 16.5451L110.194 17.3262L110.99 16.1993L109.884 15.4183L109.088 16.5451ZM109.96 17.0384L110.543 18.3767L111.808 17.8254L111.224 16.4871L109.96 17.0384ZM111.767 18.4556L113.763 15.1243L112.58 14.4153L110.584 17.7466L111.767 18.4556ZM113.616 15.297L114.279 14.7383L113.389 13.6841L112.727 14.2427L113.616 15.297ZM113.721 14.8916L114.735 15.0597L114.96 13.6989L113.947 13.5308L113.721 14.8916ZM115.531 14.4708L115.677 13.3785L114.31 13.1955L114.164 14.2878L115.531 14.4708ZM115.09 13.97L115.989 13.8435L115.797 12.4775L114.898 12.604L115.09 13.97ZM115.567 13.7683L119.759 16.0169L120.411 14.8013L116.219 12.5527L115.567 13.7683ZM119.915 16.0774L121.402 16.4568L121.743 15.1202L120.256 14.7408L119.915 16.0774ZM121.783 16.4454L123.327 15.9506L122.907 14.6369L121.362 15.1317L121.783 16.4454ZM122.584 15.7315L123.649 17.0281L124.715 16.1527L123.65 14.856L122.584 15.7315ZM124.518 17.1929L127.998 15.2542L127.327 14.0492L123.846 15.9879L124.518 17.1929ZM127.119 15.0772L127.948 16.1348L129.034 15.2838L128.205 14.2262L127.119 15.0772ZM128.495 15.0196L127.259 15.0127L127.251 16.3921L128.487 16.399L128.495 15.0196ZM126.592 15.5121L125.809 18.2416L127.135 18.6221L127.918 15.8927L126.592 15.5121ZM126.354 19.1115L130.531 19.8328L130.766 18.4735L126.589 17.7522L126.354 19.1115ZM131.329 19.2658L131.526 18.0748L130.165 17.8494L129.968 19.0404L131.329 19.2658ZM131.159 18.5769L132.036 18.1308L131.411 16.9012L130.533 17.3473L131.159 18.5769ZM132.316 17.869L133.986 15.0644L132.801 14.3586L131.131 17.1631L132.316 17.869ZM134.051 14.9208L134.81 12.5388L133.495 12.1202L132.737 14.5022L134.051 14.9208ZM134.664 11.8668L133.021 10.0504L131.998 10.9757L133.641 12.7921L134.664 11.8668ZM132.978 11.0193L135.1 9.05556L134.163 8.04324L132.041 10.0069L132.978 11.0193ZM134.711 7.86441L133.706 7.74633L133.545 9.11632L134.551 9.2344L134.711 7.86441ZM134.225 8.77229L134.571 8.16359L133.372 7.48164L133.026 8.09035L134.225 8.77229ZM134.196 7.17055L133.402 6.89675L132.952 8.20089L133.747 8.47468L134.196 7.17055ZM133.739 7.94823L134.559 6.79476L133.434 5.99594L132.615 7.14941L133.739 7.94823ZM134.668 6.2379L134.307 4.69668L132.964 5.01159L133.325 6.55281L134.668 6.2379ZM133.999 4.2681L132.404 3.27859L131.677 4.45066L133.271 5.44017L133.999 4.2681ZM132.695 4.08187L133.15 2.71022L131.841 2.27572L131.386 3.64738L132.695 4.08187ZM132.767 3.12724L134.289 2.47682L133.748 1.20828L132.225 1.8587L132.767 3.12724ZM134.669 2.07214L135.145 0.724103L133.844 0.264911L133.368 1.61295L134.669 2.07214ZM133.958 0.927545L135.945 3.39155L137.019 2.52547L135.031 0.0614682L133.958 0.927545ZM136.316 3.62801L141.297 4.86071L141.629 3.5217L136.648 2.28901L136.316 3.62801ZM140.891 4.576L142.996 7.7071L144.141 6.93751L142.036 3.80641L140.891 4.576ZM143.218 7.91655L145.547 9.28825L146.247 8.09975L143.918 6.72805L143.218 7.91655ZM146.571 8.83718L146.716 8.1548L145.367 7.86845L145.222 8.55083L146.571 8.83718ZM146.245 8.67044L148.022 8.12008L147.614 6.80245L145.837 7.35281L146.245 8.67044ZM147.253 7.85738L148.191 9.19431L149.321 8.40207L148.383 7.06514L147.253 7.85738ZM148.75 9.48786L150.081 9.50028L150.094 8.12094L148.763 8.10852L148.75 9.48786ZM149.47 9.11909L149.83 9.83898L151.064 9.222L150.704 8.50212L149.47 9.11909ZM150.269 10.1969L151.847 10.618L152.203 9.28524L150.625 8.86411L150.269 10.1969ZM151.347 10.075L151.507 10.9547L152.864 10.7079L152.704 9.82819L151.347 10.075ZM152.005 11.497L154.074 12.0571L154.435 10.7256L152.365 10.1656L152.005 11.497ZM153.568 11.3267L153.357 13.5684L154.73 13.6977L154.941 11.456L153.568 11.3267ZM154.146 14.315L156.308 13.9884L156.102 12.6245L153.94 12.9511L154.146 14.315ZM155.628 13.6842L156.831 15.5215L157.985 14.7659L156.782 12.9286L155.628 13.6842ZM157.338 15.8299L160.955 16.1967L161.094 14.8244L157.477 14.4575L157.338 15.8299ZM160.61 16.0617L162.353 17.3736L163.183 16.2714L161.439 14.9594L160.61 16.0617ZM162.107 17.0188L162.59 18.6448L163.912 18.2522L163.429 16.6262L162.107 17.0188ZM162.613 18.1855L161.562 20.7343L162.837 21.2602L163.888 18.7114L162.613 18.1855ZM161.637 21.3963L162.57 22.711L163.695 21.913L162.762 20.5983L161.637 21.3963ZM163.075 22.9993L164.936 23.1536L165.05 21.7789L163.189 21.6246L163.075 22.9993ZM165.683 22.4515L165.651 20.9686L164.272 20.9981L164.303 22.481L165.683 22.4515ZM165.205 21.6286L167.075 20.9226L166.588 19.6321L164.718 20.3381L165.205 21.6286ZM167.508 20.4107L167.772 19.0738L166.418 18.8071L166.155 20.144L167.508 20.4107ZM166.894 19.6001L168.839 20.1936L169.241 18.8742L167.296 18.2808L166.894 19.6001ZM168.362 19.6572L169.157 24.0363L170.515 23.7896L169.719 19.4105L168.362 19.6572ZM169.615 24.5662L172.205 25.4431L172.648 24.1366L170.057 23.2597L169.615 24.5662ZM171.849 25.166L172.369 25.9651L173.525 25.2128L173.005 24.4137L171.849 25.166ZM172.955 26.2786L175.078 26.2523L175.061 24.873L172.938 24.8993L172.955 26.2786ZM174.38 25.5482L174.359 26.5405L175.738 26.5693L175.759 25.577L174.38 25.5482ZM174.604 27.0816L175.409 27.7626L176.3 26.7092L175.494 26.0282L174.604 27.0816ZM175.176 27.1127L174.824 29.05L176.181 29.2964L176.533 27.3591L175.176 27.1127ZM174.911 29.5271L175.585 30.6555L176.769 29.9478L176.095 28.8193L174.911 29.5271ZM175.795 29.7277L172.848 31.6914L173.613 32.8393L176.56 30.8756L175.795 29.7277ZM173.243 31.5757L168.071 31.4854L168.047 32.8646L173.219 32.9549L173.243 31.5757ZM167.753 31.5573L165.241 32.8053L165.854 34.0406L168.366 32.7927L167.753 31.5573ZM165.12 32.8819L161.286 35.9115L162.142 36.9937L165.975 33.9641L165.12 32.8819ZM161.195 35.9985L158.628 38.9322L159.666 39.8406L162.233 36.9068L161.195 35.9985ZM158.538 39.0635L156.524 42.8644L157.743 43.5102L159.757 39.7093L158.538 39.0635ZM156.444 43.1973L156.468 44.9205L157.848 44.9007L157.823 43.1774L156.444 43.1973ZM156.525 45.1843L160.761 54.9833L162.027 54.436L157.791 44.6369L156.525 45.1843ZM160.736 54.5025L160.373 55.6546L161.689 56.0689L162.052 54.9168L160.736 54.5025ZM161.153 55.1829L158.956 54.7882L158.712 56.1459L160.909 56.5406L161.153 55.1829ZM158.518 54.8541L156.969 55.6532L157.601 56.8791L159.15 56.08L158.518 54.8541ZM156.645 56.0101L155.082 59.918L156.362 60.4302L157.925 56.5223L156.645 56.0101ZM155.633 60.858L156.986 61.0345L157.164 59.6667L155.811 59.4902L155.633 60.858ZM157.598 59.9003L156.905 59.097L155.86 59.9977L156.553 60.801L157.598 59.9003ZM156.534 60.2204L157.458 60.0133L157.156 58.6673L156.232 58.8743L156.534 60.2204ZM156.746 59.742L157.222 60.4062L158.344 59.6028L157.868 58.9386L156.746 59.742ZM158.186 60.5639L160.753 58.7129L159.947 57.594L157.379 59.4451L158.186 60.5639ZM160.183 58.8226L162.092 59.2993L162.426 57.961L160.517 57.4843L160.183 58.8226ZM162.479 59.2839L163.782 58.8462L163.343 57.5386L162.039 57.9763L162.479 59.2839ZM163.162 57.6307L155.633 62.9965L156.434 64.1198L163.963 58.754L163.162 57.6307ZM155.392 63.306L153.804 67.3473L155.088 67.8517L156.676 63.8104L155.392 63.306ZM154.259 68.2635L155.712 68.672L156.085 67.3442L154.633 66.9356L154.259 68.2635ZM155.209 68.0236L155.241 69.4383L156.62 69.4074L156.588 67.9927L155.209 68.0236ZM155.477 68.9034L152.565 71.4466L153.472 72.4856L156.384 69.9423L155.477 68.9034ZM152.735 71.3372L149.085 72.9813L149.652 74.239L153.302 72.5949L152.735 71.3372ZM148.821 73.1905L144.722 78.5383L145.816 79.3775L149.916 74.0298L148.821 73.1905ZM144.62 78.7236L143.962 80.5456L145.26 81.0141L145.918 79.1922L144.62 78.7236ZM144.752 80.1048L143.403 79.8226L143.121 81.1728L144.47 81.4549L144.752 80.1048ZM143.84 80.1216L142.346 77.8257L141.19 78.578L142.684 80.8739L143.84 80.1216ZM141.636 77.5249L140.404 77.7654L140.668 79.1192L141.9 78.8788L141.636 77.5249ZM139.896 78.1863L139.573 78.9938L140.854 79.5057L141.177 78.6983L139.896 78.1863ZM140.181 79.9387L141.865 80.0179L141.93 78.64L140.246 78.5608L140.181 79.9387ZM141.39 79.7958L143.39 81.9707L144.405 81.037L142.405 78.8621L141.39 79.7958ZM143.684 80.8481L123.454 87.4453L123.881 88.7567L144.112 82.1596L143.684 80.8481ZM123.355 87.4862L115.325 91.5707L115.951 92.8001L123.98 88.7157L123.355 87.4862ZM115.242 91.6209L108.16 96.5906L108.952 97.7197L116.034 92.75L115.242 91.6209ZM108.042 96.6958L105.859 99.1404L106.888 100.059L109.071 97.6144L108.042 96.6958ZM105.967 99.043L101.575 102.256L102.389 103.369L106.781 100.156L105.967 99.043ZM101.488 102.332L98.9219 104.97L99.9107 105.931L102.476 103.294L101.488 102.332ZM98.8196 105.104L97.0071 108.23L98.2004 108.922L100.013 105.796L98.8196 105.104ZM97.967 107.99L96.7559 107.239L96.0294 108.412L97.2405 109.162L97.967 107.99ZM96.8794 107.337L96.1524 106.613L95.179 107.59L95.9059 108.314L96.8794 107.337ZM96.3353 107.267L96.574 106.299L95.2347 105.969L94.9961 106.936L96.3353 107.267ZM96.0131 105.453L94.9427 105.282L94.7252 106.644L95.7956 106.815L96.0131 105.453ZM94.1479 105.892L94.0375 106.96L95.4096 107.102L95.52 106.034L94.1479 105.892ZM94.7446 106.341L92.7417 106.28L92.6996 107.659L94.7025 107.72L94.7446 106.341ZM92.1183 107.305L92.9266 108.755L94.1314 108.083L93.323 106.634L92.1183 107.305ZM93.6246 109.102L94.6178 108.963L94.4266 107.597L93.4334 107.736L93.6246 109.102ZM93.8325 108.288L93.8422 109.167L95.2215 109.152L95.2118 108.272L93.8325 108.288ZM94.5762 108.471L93.3692 108.394L93.2805 109.77L94.4875 109.848L94.5762 108.471ZM92.7243 108.743L92.0015 110.023L93.2026 110.701L93.9254 109.421L92.7243 108.743ZM93.2445 110.111L92.6224 108.518L91.3375 109.02L91.9596 110.613L93.2445 110.111ZM91.621 108.18L89.407 109.53L90.1249 110.708L92.3389 109.358L91.621 108.18ZM89.1306 109.85L88.6175 111.065L89.8882 111.602L90.4013 110.387L89.1306 109.85ZM89.6128 110.745L87.9796 109.746L87.2597 110.922L88.8929 111.922L89.6128 110.745ZM87.006 110.649L87.7426 112.085L88.9699 111.455L88.2333 110.019L87.006 110.649ZM87.8227 111.333L87.0999 112.215L88.167 113.089L88.8898 112.207L87.8227 111.333ZM87.0254 112.978L87.424 113.723L88.6402 113.072L88.2415 112.327L87.0254 112.978ZM87.5641 112.89L86.6523 113.733L87.5883 114.746L88.5001 113.904L87.5641 112.89ZM87.3364 113.584L86.397 113.274L85.9648 114.584L86.9042 114.894L87.3364 113.584ZM85.7258 114.448L86.3714 115.015L87.2817 113.978L86.6361 113.411L85.7258 114.448ZM86.936 113.815L85.8905 113.647L85.6714 115.009L86.717 115.177L86.936 113.815ZM85.3366 114.856L85.9173 115.345L86.806 114.29L86.2253 113.801L85.3366 114.856ZM85.7533 114.493L85.4898 114.986L86.7065 115.636L86.97 115.142L85.7533 114.493ZM86.4657 114.727L85.7042 114.248L84.9692 115.415L85.7307 115.894L86.4657 114.727ZM84.6478 114.798L84.5389 117.082L85.9167 117.148L86.0257 114.864L84.6478 114.798ZM85.1626 116.428L79.9388 116.924L80.0692 118.297L85.293 117.801L85.1626 116.428ZM79.5104 117.129L78.6911 117.968L79.6782 118.932L80.4975 118.093L79.5104 117.129ZM79.122 117.763L77.933 117.872L78.0582 119.245L79.2472 119.137L79.122 117.763ZM78.5082 118.097L76.9275 116.341L75.9021 117.263L77.4829 119.02L78.5082 118.097ZM76.3681 116.114L73.848 116.285L73.9413 117.661L76.4615 117.49L76.3681 116.114ZM74.1119 116.318L72.1021 115.651L71.6676 116.96L73.6774 117.627L74.1119 116.318ZM72.5222 116.042L70.122 110.236L68.8473 110.763L71.2475 116.569L72.5222 116.042ZM69.1016 109.926L67.7305 110.842L68.4966 111.989L69.8677 111.073L69.1016 109.926ZM67.507 111.744L68.6767 113.905L69.8898 113.248L68.7201 111.087L67.507 111.744ZM69.4945 112.92L68.5055 112.602L68.083 113.915L69.072 114.233L69.4945 112.92ZM68.895 112.919L67.7391 110.87L66.5375 111.547L67.6935 113.597L68.895 112.919ZM67.7252 111.571L68.2287 110.755L67.0549 110.03L66.5514 110.846L67.7252 111.571ZM67.7689 109.715L67.013 109.573L66.7588 110.929L67.5147 111.07L67.7689 109.715ZM67.5009 109.939L65.3711 105.742L64.1411 106.366L66.2709 110.563L67.5009 109.939ZM64.2233 105.616L63.386 106.634L64.4516 107.51L65.2889 106.492L64.2233 105.616ZM63.2577 107.269L63.5501 108.253L64.8723 107.86L64.5799 106.876L63.2577 107.269ZM63.6279 107.688L62.8871 108.863L64.0538 109.599L64.7946 108.424L63.6279 107.688ZM63.8971 108.689L62.9633 107.954L62.11 109.037L63.0438 109.773L63.8971 108.689ZM61.8613 108.355L61.4268 110.45L62.7774 110.73L63.2119 108.636L61.8613 108.355ZM62.216 109.91L61.1788 109.736L60.9509 111.096L61.9882 111.27L62.216 109.91ZM61.7503 110.339L61.6965 109.859L60.3256 110.012L60.3794 110.493L61.7503 110.339ZM60.9388 110.621L61.5196 110.682L61.6639 109.31L61.0832 109.249L60.9388 110.621ZM62.2687 109.864L62.03 108.641L60.6762 108.906L60.9148 110.128L62.2687 109.864ZM60.8531 108.298L60.5137 108.656L61.5138 109.606L61.8531 109.248L60.8531 108.298ZM61.5575 108.706L60.9685 107.952L59.8811 108.8L60.4701 109.555L61.5575 108.706ZM60.062 107.789L59.662 108.037L60.3875 109.21L60.7875 108.963L60.062 107.789ZM59.3762 108.858L59.9128 110.341L61.2099 109.871L60.6733 108.389L59.3762 108.858ZM59.8794 110.003L59.7828 110.642L61.1467 110.848L61.2433 110.209L59.8794 110.003ZM60.4457 110.056L59.6925 110.077L59.7307 111.456L60.4838 111.435L60.4457 110.056ZM59.027 110.85L59.2284 112.501L60.5976 112.334L60.3962 110.683L59.027 110.85ZM60.4328 111.964L59.0852 110.419L58.0455 111.325L59.3932 112.871L60.4328 111.964ZM58.7215 110.2L56.9159 109.78L56.6036 111.124L58.4092 111.544L58.7215 110.2ZM56.4412 109.84L55.2562 110.458L55.8934 111.681L57.0783 111.064L56.4412 109.84ZM54.9156 111.272L55.5998 113.497L56.9182 113.092L56.234 110.867L54.9156 111.272ZM56.9006 113.547L57.3847 112.32L56.1016 111.814L55.6174 113.041L56.9006 113.547ZM56.2467 112.546L57.2427 113.578L58.2355 112.621L57.2395 111.588L56.2467 112.546ZM57.8167 112.414L56.8469 112.305L56.6918 113.675L57.6615 113.785L57.8167 112.414ZM56.258 113.453L58.1257 115.516L59.1484 114.591L57.2807 112.527L56.258 113.453ZM58.0189 114.748L57.5858 115.623L58.8221 116.235L59.2553 115.359L58.0189 114.748ZM58.2288 115.24L57.1487 115.201L57.099 116.58L58.1791 116.618L58.2288 115.24ZM56.4362 115.837L56.3604 116.811L57.7356 116.918L57.8115 115.944L56.4362 115.837ZM56.9495 116.182L54.7342 116.502L54.9312 117.867L57.1465 117.547L56.9495 116.182ZM54.1899 116.934L53.8023 117.931L55.0878 118.431L55.4755 117.434L54.1899 116.934ZM54.5796 117.504L53.2305 117.236L52.9615 118.589L54.3106 118.857L54.5796 117.504ZM52.4304 117.732L52.0166 119.256L53.3478 119.618L53.7616 118.093L52.4304 117.732ZM53.367 119.355L53.2704 118.55L51.9009 118.714L51.9974 119.519L53.367 119.355ZM52.8764 118.007L50.8914 117.084L50.3099 118.335L52.2949 119.258L52.8764 118.007ZM50.0238 117.331L47.6568 120.943L48.8105 121.699L51.1776 118.088L50.0238 117.331ZM47.9745 120.682L46.8365 121.144L47.3548 122.422L48.4928 121.961L47.9745 120.682ZM46.4074 121.737L46.3053 123.281L47.6817 123.372L47.7838 121.828L46.4074 121.737ZM46.9625 124.016L48.2895 124.076L48.3515 122.698L47.0246 122.638L46.9625 124.016ZM47.9164 122.828L47.1343 123.393L47.9426 124.511L48.7247 123.945L47.9164 122.828ZM46.8717 124.128L47.033 124.739L48.3666 124.386L48.2052 123.776L46.8717 124.128ZM47.574 125.24L49.2155 125.545L49.467 124.188L47.8255 123.884L47.574 125.24ZM48.7892 124.453L46.6539 127.305L47.758 128.132L49.8934 125.28L48.7892 124.453ZM46.6727 128.156L47.31 128.933L48.3765 128.058L47.7392 127.281L46.6727 128.156ZM48.158 129.109L48.7595 128.8L48.1299 127.573L47.5284 127.882L48.158 129.109ZM47.7575 128.128L47.6168 129.766L48.9912 129.884L49.1318 128.246L47.7575 128.128ZM48.4818 129.159L47.4348 128.879L47.0792 130.212L48.1262 130.492L48.4818 129.159ZM46.9935 128.909L44.5533 129.917L45.0804 131.192L47.5205 130.183L46.9935 128.909ZM45.0736 129.915L43.8956 129.442L43.3821 130.722L44.5601 131.195L45.0736 129.915ZM44.321 129.981L44.1127 128.583L42.7484 128.786L42.9567 130.184L44.321 129.981ZM43.3763 127.997L42.2301 128.087L42.3384 129.462L43.4847 129.372L43.3763 127.997ZM42.6731 128.205L41.3516 127.303L40.574 128.442L41.8954 129.344L42.6731 128.205ZM40.4995 127.362L39.8374 127.962L40.764 128.984L41.4261 128.384L40.4995 127.362ZM39.7231 128.85L40.2155 129.605L41.3707 128.851L40.8783 128.096L39.7231 128.85ZM40.1505 128.977L39.3932 130.922L40.6785 131.422L41.4358 129.478L40.1505 128.977ZM39.7613 130.539L36.6356 131.896L37.1847 133.161L40.3104 131.805L39.7613 130.539ZM36.2989 132.209L35.3775 133.971L36.5999 134.61L37.5213 132.848L36.2989 132.209ZM36.4624 133.789L35.1299 132.53L34.1825 133.533L35.515 134.792L36.4624 133.789ZM35.3417 132.955L35.2175 131.837L33.8465 131.989L33.9707 133.107L35.3417 132.955ZM35.0621 132.354L36.0676 131.146L35.0076 130.264L34.002 131.471L35.0621 132.354ZM36.1641 130.416L35.8523 129.74L34.5994 130.317L34.9112 130.993L36.1641 130.416ZM35.4459 129.374L33.5589 128.739L33.1189 130.047L35.0058 130.682L35.4459 129.374ZM33.9866 129.63L34.5232 128.164L33.2278 127.69L32.6912 129.156L33.9866 129.63ZM33.7738 127.245L33.0924 127.346L33.2957 128.711L33.9771 128.609L33.7738 127.245ZM33.8806 127.963L33.6778 125.841L32.3047 125.972L32.5074 128.094L33.8806 127.963ZM32.925 125.22L32.2326 125.286L32.365 126.66L33.0574 126.593L32.925 125.22ZM32.8699 125.586L32.1443 124.515L31.0021 125.288L31.7277 126.36L32.8699 125.586ZM31.0454 124.458L27.79 128.328L28.8457 129.216L32.1011 125.345L31.0454 124.458ZM27.7104 129.099L28.3795 130.342L29.5943 129.689L28.9252 128.445L27.7104 129.099ZM28.4774 129.551L27.0331 131.134L28.0521 132.064L29.4964 130.481L28.4774 129.551ZM27.4125 132.276L29.105 132.601L29.3653 131.247L27.6728 130.921L27.4125 132.276ZM28.649 131.56L28.0379 132.546L29.2102 133.273L29.8213 132.287L28.649 131.56ZM28.4643 132.238L27.4546 132.479L27.7741 133.821L28.7838 133.58L28.4643 132.238ZM26.9267 133.097L26.8094 134.633L28.1848 134.738L28.3021 133.202L26.9267 133.097ZM27.0685 134.145L26.2975 134.756L27.1546 135.837L27.9256 135.226L27.0685 134.145ZM26.2385 135.785L27.9434 137.488L28.9185 136.513L27.2135 134.809L26.2385 135.785ZM27.8128 136.695L27.5934 137.138L28.8298 137.75L29.0491 137.306L27.8128 136.695ZM28.6266 136.893L27.9272 136.366L27.0974 137.468L27.7967 137.995L28.6266 136.893ZM26.823 136.894L26.7195 139.996L28.0981 140.042L28.2016 136.94L26.823 136.894ZM27.3301 139.334L26.6293 139.414L26.7868 140.785L27.4876 140.704L27.3301 139.334ZM27.3687 139.901L27.1479 139.166L25.8268 139.563L26.0475 140.298L27.3687 139.901ZM26.1958 138.739L25.302 139.156L25.885 140.406L26.7789 139.99L26.1958 138.739ZM24.9038 139.784L24.9121 141.666L26.2915 141.66L26.2832 139.778L24.9038 139.784ZM25.4189 140.998L24.6809 141.201L25.0467 142.531L25.7847 142.328L25.4189 140.998ZM25.1748 141.25L23.3182 140.312L22.6961 141.544L24.5528 142.482L25.1748 141.25ZM23.6264 140.624L23.134 139.62L21.8954 140.227L22.3878 141.231L23.6264 140.624ZM22.5908 139.238L18.6733 138.803L18.5211 140.174L22.4386 140.609L22.5908 139.238ZM18.1222 138.988L16.0172 140.988L16.9673 141.988L19.0722 139.988L18.1222 138.988ZM16.241 140.846L11.889 142.548L12.3915 143.833L16.7435 142.13L16.241 140.846ZM11.6402 142.715L10.4057 144.015L11.4057 144.965L12.6402 143.665L11.6402 142.715ZM10.5442 143.902L8.95233 144.882L9.67538 146.057L11.2672 145.077L10.5442 143.902ZM9.90583 145.116L9.47544 144.396L8.2915 145.104L8.72189 145.824L9.90583 145.116ZM8.66842 144.094L7.94007 144.333L8.37018 145.644L9.09853 145.405L8.66842 144.094ZM7.61678 144.558L6.11875 146.428L7.19545 147.29L8.69348 145.42L7.61678 144.558ZM6.86117 146.201L5.63626 145.821L5.22812 147.139L6.45303 147.518L6.86117 146.201ZM5.23361 145.819L2.7052 146.58L3.10236 147.901L5.63077 147.14L5.23361 145.819ZM3.40457 146.766L2.77553 146.102L1.77395 147.05L2.40299 147.714L3.40457 146.766ZM2.10375 145.908L-0.0467213 146.458L0.295256 147.794L2.44573 147.244L2.10375 145.908ZM0.810015 147.2L1.06659 144.814L-0.304905 144.666L-0.56148 147.052L0.810015 147.2ZM0.230862 145.413L1.48473 145.693L1.78469 144.346L0.530823 144.067L0.230862 145.413ZM2.27401 145.278L3.43131 142.419L2.15272 141.902L0.995414 144.761L2.27401 145.278ZM3.48064 142.122L3.38134 140.343L2.00408 140.42L2.10339 142.199L3.48064 142.122ZM3.30541 140.698L4.30961 138.756L3.08421 138.122L2.08001 140.065L3.30541 140.698ZM4.3727 138.577L4.77547 136.602L3.4239 136.326L3.02112 138.301L4.3727 138.577ZM4.68105 136.093L4.16655 135.287L3.00382 136.029L3.51832 136.835L4.68105 136.093ZM4.24725 135.851L4.91624 133.56L3.59211 133.173L2.92312 135.465L4.24725 135.851ZM4.6421 133.937L6.53191 132.651L5.75607 131.511L3.86626 132.796L4.6421 133.937ZM6.25201 132.762L8.13627 132.463L7.92023 131.101L6.03597 131.4L6.25201 132.762ZM8.71782 131.769L8.70128 130.91L7.32213 130.936L7.33868 131.795L8.71782 131.769ZM8.06243 131.611L10.5688 131.426L10.4673 130.05L7.96098 130.235L8.06243 131.611ZM11.1876 130.904L11.6842 128.896L10.3451 128.565L9.84852 130.573L11.1876 130.904ZM11.5293 129.189L14.2964 126.087L13.267 125.169L10.4999 128.271L11.5293 129.189ZM14.0472 126.265L15.1701 125.796L14.639 124.523L13.5162 124.992L14.0472 126.265ZM15.563 125.365L15.9037 124.273L14.5869 123.862L14.2461 124.955L15.563 125.365ZM15.1492 124.751L16.2554 124.906L16.4477 123.54L15.3414 123.385L15.1492 124.751ZM17.0186 124.398L17.2394 123.558L15.9052 123.207L15.6844 124.048L17.0186 124.398ZM16.9036 122.778L14.9931 121.731L14.3304 122.941L16.2409 123.987L16.9036 122.778ZM15.3483 122.269L15.2614 121.373L13.8884 121.506L13.9753 122.403L15.3483 122.269ZM14.3373 122.087L16.1292 122.744L16.6042 121.449L14.8124 120.792L14.3373 122.087ZM17.0254 122.301L17.6103 120.415L16.2928 120.007L15.708 121.893L17.0254 122.301ZM17.2353 120.84L19.1416 119.979L18.5742 118.722L16.6679 119.582L17.2353 120.84ZM18.7504 120.032L20.0457 120.236L20.2606 118.874L18.9654 118.67L18.7504 120.032ZM20.8415 119.598L20.9243 118.262L19.5476 118.177L19.4648 119.512L20.8415 119.598ZM20.2638 118.909L21.6404 118.853L21.5848 117.475L20.2081 117.53L20.2638 118.909ZM22.1224 118.628L23.048 117.613L22.0283 116.684L21.1027 117.699L22.1224 118.628ZM23.2241 117.22L23.5593 114.031L22.1874 113.886L21.8522 117.076L23.2241 117.22ZM23.0343 114.629L24.9627 114.166L24.6408 112.825L22.7124 113.288L23.0343 114.629ZM25.4856 113.406L25.0676 110.222L23.7 110.402L24.1179 113.586L25.4856 113.406ZM24.9647 109.94L24.0708 108.543L22.909 109.287L23.8029 110.684L24.9647 109.94ZM24.0916 109.252L24.6117 108.324L23.4083 107.65L22.8882 108.578L24.0916 109.252ZM24.6428 107.713L24.2855 106.888L23.0199 107.437L23.3772 108.261L24.6428 107.713ZM23.8126 106.492L22.658 106.217L22.3383 107.559L23.4928 107.834L23.8126 106.492ZM23.1014 107.222L23.6505 106.231L22.4439 105.562L21.8949 106.553L23.1014 107.222ZM23.718 105.736L22.9372 102.47L21.5956 102.791L22.3764 106.057L23.718 105.736ZM22.8716 102.962L23.7793 101.301L22.5688 100.639L21.6612 102.3L22.8716 102.962ZM23.6754 100.496L22.4533 99.2026L21.4505 100.15L22.6727 101.444L23.6754 100.496ZM22.066 100.356L22.804 100.233L22.5758 98.8723L21.8378 98.996L22.066 100.356ZM23.3498 99.753L23.8312 98.1687L22.5114 97.7677L22.03 99.3519L23.3498 99.753ZM23.2433 97.2822L21.4032 97.0891L21.2592 98.4609L23.0993 98.6541L23.2433 97.2822ZM21.9921 97.5779L21.2059 94.9416L19.884 95.3358L20.6702 97.9721L21.9921 97.5779ZM20.4607 94.4541L18.4496 94.7015L18.618 96.0706L20.6291 95.8232L20.4607 94.4541ZM19.1234 95.7438L19.809 94.6139L18.6297 93.8984L17.9441 95.0282L19.1234 95.7438ZM19.9082 94.2226L19.6613 89.1473L18.2835 89.2143L18.5304 94.2897L19.9082 94.2226ZM19.6392 89.3571L20.282 86.925L18.9484 86.5726L18.3056 89.0046L19.6392 89.3571ZM19.7302 86.0688L17.4294 85.6796L17.1994 87.0397L19.5002 87.4288L19.7302 86.0688ZM17.9722 86.1525L17.4011 84.3389L16.0854 84.7532L16.6565 86.5668L17.9722 86.1525ZM17.058 83.9324L13.8606 82.2925L13.2311 83.5199L16.4285 85.1597L17.058 83.9324ZM14.2108 82.7231L13.8549 81.4306L12.525 81.7968L12.8809 83.0892L14.2108 82.7231ZM13.847 81.8233L14.6912 79.1772L13.3771 78.758L12.5329 81.4041L13.847 81.8233ZM14.5076 79.4692L16.6677 77.4304L15.7209 76.4273L13.5608 78.466L14.5076 79.4692ZM15.6674 77.374L18.0662 80.2132L19.1199 79.323L16.7211 76.4838L15.6674 77.374ZM19.1348 80.195L20.1017 78.9678L19.0183 78.1141L18.0513 79.3412L19.1348 80.195ZM19.1903 79.1232L22.6719 81.3343L23.4114 80.1699L19.9298 77.9588L19.1903 79.1232ZM23.3026 81.3905L24.8089 80.7748L24.287 79.498L22.7807 80.1136L23.3026 81.3905ZM23.9585 80.4946L27.1008 85.6658L28.2796 84.9494L25.1373 79.7783L23.9585 80.4946ZM28.2042 85.7675L29.6291 84.1749L28.6011 83.2551L27.1762 84.8477L28.2042 85.7675ZM29.3835 84.3503L30.9298 83.6971L30.3931 82.4264L28.8467 83.0797L29.3835 84.3503ZM30.4809 83.7274L34.8453 84.9115L35.2065 83.5802L30.842 82.3961L30.4809 83.7274ZM34.4079 83.9395L33.7651 85.2362L35.001 85.8488L35.6438 84.5522L34.4079 83.9395ZM33.7143 85.7114L34.113 87.2901L35.4504 86.9524L35.0518 85.3736L33.7143 85.7114ZM35.2577 87.6204L37.0095 85.9499L36.0576 84.9516L34.3057 86.6221L35.2577 87.6204ZM36.6059 86.1367L38.2516 85.9629L38.1068 84.5912L36.4611 84.7649L36.6059 86.1367ZM38.8302 85.5047L39.2579 84.2817L37.9557 83.8264L37.5281 85.0494L38.8302 85.5047ZM39.1698 83.6557L38.6801 82.9636L37.5541 83.7603L38.0438 84.4524L39.1698 83.6557ZM38.8052 83.4084L39.0066 80.4261L37.6304 80.3331L37.429 83.3155L38.8052 83.4084ZM38.4132 79.6964L36.2268 79.3935L36.0375 80.7598L38.2238 81.0628L38.4132 79.6964ZM35.844 79.45L34.8798 79.8933L35.456 81.1466L36.4203 80.7033L35.844 79.45ZM35.4129 79.8752L29.4208 77.5988L28.9309 78.8883L34.923 81.1647L35.4129 79.8752ZM29.8596 78.1535L29.5148 75.5352L28.1472 75.7153L28.492 78.3336L29.8596 78.1535ZM29.4318 75.964L30.4332 74.188L29.2317 73.5105L28.2302 75.2865L29.4318 75.964ZM30.5164 73.7603L30.2708 71.8716L28.903 72.0495L29.1485 73.9381L30.5164 73.7603ZM30.0361 72.4839L30.734 71.8849L29.8357 70.8382L29.1377 71.4371L30.0361 72.4839ZM30.8678 70.9929L29.8429 69.3724L28.6771 70.1098L29.7019 71.7302L30.8678 70.9929ZM29.9075 69.9787L30.9296 67.1937L29.6346 66.7185L28.6125 69.5035L29.9075 69.9787ZM30.9277 66.7134L30.3759 65.2458L29.0848 65.7312L29.6365 67.1988L30.9277 66.7134ZM29.2398 65.0037L28.6053 65.6458L29.5864 66.6154L30.2209 65.9734L29.2398 65.0037ZM29.7803 66.0457L29.5609 64.2766L28.192 64.4463L28.4113 66.2154L29.7803 66.0457ZM29.3184 63.8319L27.688 62.4713L26.8042 63.5304L28.4346 64.891L29.3184 63.8319ZM27.8406 63.3505L29.1165 61.1812L27.9275 60.4818L26.6516 62.6512L27.8406 63.3505ZM29.1942 60.6769L28.2382 56.5202L26.8939 56.8293L27.8498 60.9861L29.1942 60.6769ZM28.2533 56.7334L28.5843 52.8547L27.2099 52.7374L26.8789 56.6161L28.2533 56.7334ZM27.6301 53.4319L29.2123 54.0962L29.7463 52.8244L28.1641 52.1601L27.6301 53.4319ZM28.8315 53.6971L29.2384 54.8102L30.534 54.3367L30.1271 53.2235L28.8315 53.6971ZM29.8413 55.2617L31.098 55.3437L31.1877 53.9672L29.9311 53.8852L29.8413 55.2617ZM31.8013 54.8607L32.5696 52.3967L31.2528 51.9861L30.4844 54.4501L31.8013 54.8607ZM32.2687 52.7812L34.2108 51.6041L33.4959 50.4245L31.5537 51.6016L32.2687 52.7812ZM34.4237 51.402L36.4266 48.4558L35.2859 47.6803L33.283 50.6265L34.4237 51.402ZM36.5075 47.8409L36.1336 46.7693L34.8312 47.2237L35.205 48.2952L36.5075 47.8409ZM35.9504 47.5032L36.9795 46.5526L36.0435 45.5393L35.0144 46.4899L35.9504 47.5032ZM37.1905 45.9254L36.9285 44.4494L35.5703 44.6906L35.8324 46.1665L37.1905 45.9254ZM36.3147 45.2566L39.6736 44.937L39.5429 43.5638L36.184 43.8834L36.3147 45.2566ZM39.2529 44.8415L40.3096 45.4767L41.0202 44.2944L39.9635 43.6593L39.2529 44.8415ZM41.1197 45.404L41.8025 44.805L40.8928 43.7681L40.21 44.3671L41.1197 45.404ZM41.2435 44.9683L43.1719 45.263L43.3802 43.8994L41.4518 43.6048L41.2435 44.9683ZM43.5153 45.2281L45.732 44.4081L45.2535 43.1144L43.0368 43.9343L43.5153 45.2281ZM45.0902 44.3213L47.5317 46.0765L48.3369 44.9565L45.8954 43.2012L45.0902 44.3213ZM47.7723 46.1869L50.0607 46.74L50.3848 45.3992L48.0963 44.8461L47.7723 46.1869ZM50.5441 46.6798L52.5732 45.6111L51.9304 44.3907L49.9013 45.4593L50.5441 46.6798ZM52.9266 45.1434L53.7432 41.2771L52.3936 40.9921L51.577 44.8584L52.9266 45.1434ZM53.3704 41.7547L54.994 40.9639L54.39 39.7238L52.7664 40.5146L53.3704 41.7547ZM55.2535 39.9434L54.6617 39.1137L53.5387 39.9147L54.1305 40.7443L55.2535 39.9434ZM54.7715 39.6727L55.2308 37.727L53.8883 37.4101L53.429 39.3557L54.7715 39.6727ZM54.3259 38.2174L57.3509 39.307L57.8183 38.0092L54.7933 36.9197L54.3259 38.2174ZM57.7987 39.3137L58.6029 39.0511L58.1747 37.7398L57.3705 38.0025L57.7987 39.3137ZM59.0696 38.2853L58.8131 36.6996L57.4514 36.9199L57.7079 38.5056L59.0696 38.2853ZM58.6429 36.3461L57.3862 34.962L56.3649 35.8892L57.6216 37.2733L58.6429 36.3461ZM57.5394 35.2385L57.0884 33.6375L55.7607 34.0116L56.2117 35.6126L57.5394 35.2385ZM57.0724 34.0611L58.4035 30.4158L57.1078 29.9427L55.7766 33.588L57.0724 34.0611ZM58.1317 30.7574L59.8794 29.6206L59.1273 28.4643L57.3796 29.6011L58.1317 30.7574ZM58.833 29.2049L59.1655 30.5766L60.5061 30.2517L60.1736 28.88L58.833 29.2049ZM60.2274 30.9819L61.1461 30.3482L60.3628 29.2127L59.4441 29.8464L60.2274 30.9819ZM61.1923 29.2475L59.3218 27.7105L58.4461 28.7762L60.3166 30.3133L61.1923 29.2475ZM59.3973 28.704L61.2567 26.6319L60.2301 25.7106L58.3706 27.7827L59.3973 28.704ZM61.388 25.9259L60.8997 24.6432L59.6105 25.1339L60.0989 26.4167L61.388 25.9259ZM60.8223 25.2809L61.5078 24.29L60.3735 23.5052L59.6879 24.4961L60.8223 25.2809ZM60.6382 24.5175L61.9542 25.1596L62.559 23.9199L61.2431 23.2778L60.6382 24.5175ZM62.9406 24.4513L62.7875 23.2672L61.4195 23.4441L61.5726 24.6282L62.9406 24.4513ZM62.263 24.0267L63.801 23.6611L63.4821 22.3191L61.944 22.6846L62.263 24.0267ZM64.2763 22.7204L63.9025 21.8407L62.6329 22.3802L63.0068 23.2599L64.2763 22.7204ZM63.8359 22.5014L64.6718 21.2868L63.5354 20.5048L62.6996 21.7194L63.8359 22.5014ZM64.4066 20.2762L63.0451 19.6105L62.4392 20.8497L63.8007 21.5154L64.4066 20.2762ZM63.3495 19.9034L62.824 18.9264L61.6092 19.5799L62.1347 20.5568L63.3495 19.9034ZM62.906 19.2754L62.9984 16.4083L61.6197 16.3639L61.5273 19.2309L62.906 19.2754ZM62.4293 17.0652L64.2184 16.7484L63.9778 15.3901L62.1887 15.707L62.4293 17.0652ZM64.5876 15.5834L63.4 14.3868L62.4209 15.3585L63.6086 16.5551L64.5876 15.5834ZM63.4853 15.2538L65.9861 11.4821L64.8365 10.7198L62.3356 14.4915L63.4853 15.2538ZM65.7092 11.723L67.0734 11.0698L66.4777 9.82565L65.1135 10.4789L65.7092 11.723ZM66.7422 11.1366L68.4693 11.2201L68.5359 9.8423L66.8088 9.75882L66.7422 11.1366ZM68.9926 11.0165L72.1183 7.86042L71.1382 6.88977L68.0125 10.0459L68.9926 11.0165ZM71.751 8.05378L75.8851 7.30607L75.6396 5.9487L71.5055 6.6964L71.751 8.05378ZM76.4118 6.85957L77.4904 3.84247L76.1916 3.37809L75.1129 6.3952L76.4118 6.85957ZM77.2089 3.02687L75.3177 1.83446L74.582 3.00128L76.4732 4.1937L77.2089 3.02687ZM75.6278 2.54463L75.7437 1.92481L74.3878 1.67129L74.2719 2.29111L75.6278 2.54463ZM75.0267 2.48665L75.6626 2.52268L75.7407 1.14549L75.1048 1.10945L75.0267 2.48665Z" fill="white" mask="url(#path-1-inside-1_1162_4062)"/>
<g opacity="0.1">
<rect x="83.9993" y="36" width="28.2793" height="28.2793" rx="14.1396" fill="#236DF8"/>
</g>
<rect x="89.655" y="41.6543" width="16.9676" height="16.9676" rx="8.48379" fill="#73C4FF" fill-opacity="0.7"/>
<rect x="95.3108" y="47.3114" width="5.65586" height="5.65586" rx="2.82793" fill="#236DF8"/>
</svg>
