<svg width="89" height="104" viewBox="0 0 89 104" fill="none" xmlns="http://www.w3.org/2000/svg">
<mask id="path-1-inside-1_1159_4052" fill="white">
<path d="M57.9444 0.975403L57.3223 3.3213L59.6672 6.44683L57.1167 7.73233L54.0131 11.3484L50.726 12.6868L50.6584 14.3809L51.8598 15.0813L49.4611 17.9191L50.0321 18.4542L51.4998 18.0734L52.6682 18.6084L55.3952 20.9015L58.5789 22.4219L60.8011 27.0345L59.3679 26.9441L61.7046 32.7518L66.058 40.6497L65.5242 42.4217L66.4263 43.111L66.6153 44.2867L70.1741 43.8642L70.1714 43.0846L71.3466 42.7191L70.7452 41.0444L71.9963 40.5955L72.1108 39.7228L72.5757 41.4252L74.5689 44.3117L74.0737 45.0969L75.1027 44.17L75.7331 45.4166L76.4752 45.0886L76.5856 45.7918L77.136 45.0594L77.0725 46.028L78.0988 45.1886L78.9968 46.1781L78.3898 47.3483L79.7003 46.9842L79.9734 47.4623L78.6726 48.4823L78.6409 50.3474L79.6934 50.938L78.9209 52.8545L79.2409 54.5207L82.2011 55.898L83.855 57.8228L83.8316 58.8303L85.5269 60.3132L86.0773 61.6626L85.5393 62.6299L84.5268 62.5382L84.6137 61.8906L83.8385 62.1852L83.5516 61.443L81.568 62.7564L82.597 64.916L84.5627 65.811L85.2979 65.2551L85.731 66.2668L86.5228 65.4761L86.418 66.7769L88.0015 68.1527L87.1808 70.147L88.2001 70.8988L87.2925 72.0232L87.2897 73.4838L88.4015 75.2446L87.0428 76.216V75.3252L85.662 73.7256L84.9696 74.4649L83.5088 73.5588L81.8425 75.0778L82.1653 76.0326L82.9501 76.2174L82.2756 77.1138L81.1045 77.3473L79.234 79.2026L77.4381 79.393L77.0022 80.659L78.4878 79.6751L79.2975 80.5312L79.074 81.0606L80.0741 81.3692L79.721 84.7268L78.9802 85.5773L78.2795 85.7483L77.6477 84.9575L76.0945 85.6982L75.798 85.0117L74.6793 84.8922L73.4695 81.4915L72.6267 82.1294L73.2226 82.9841L72.886 83.9945L71.0349 83.2676L71.7011 83.9903L70.9494 84.6407L68.8775 84.2793L67.5119 82.9438L67.745 83.7429L67.1284 83.7457L68.9879 84.763L67.3533 86.9921L67.8457 87.3534L67.1381 87.712L67.5119 90.1274L66.4263 90.6444L66.956 91.9813L68.6127 92.6344L64.9862 95.0582L63.8675 94.7455L62.655 96.7161L62.1336 96.4034L60.6108 97.2262L58.1389 96.7022L56.6877 94.5259L55.736 94.6996L55.0297 94.0909L53.133 94.6496L52.8889 96.4313L50.8074 95.8309L50.457 96.7245L49.1728 96.851L48.8155 96.0769L47.5258 96.2701L45.5781 94.676L43.6869 97.8947L42.433 98.477L42.8689 99.6291L41.924 99.2483L40.8508 101.266L41.5419 101.986L41.2991 102.664L39.2025 103.394L39.1376 101.384L37.7541 100.602L37.3072 99.5137L38.3886 98.6799L38.3431 97.4319L39.419 96.5369L38.0148 93.6476L37.2368 94.2772L37.1982 95.571L35.3539 94.7149L35.8422 94.0534L35.096 93.2905L35.7595 92.4955L35.1981 91.096L34.6408 92.2996L32.4586 93.0542L30.3164 89.9592L29.4363 90.2956L29.3273 89.3172L28.4073 89.6257L27.0086 88.507L24.7794 89.534L23.8208 89.2866L22.3503 90.8501L22.5559 91.4449L18.8618 90.1524L0.730972 89.2602L0.83719 86.6934L2.91181 84.2071L2.90078 81.7347L2.65662 79.5014L0.155762 75.9173L1.0841 74.2996L1.79036 74.1607L2.00554 72.7501L2.79594 72.9293L3.40288 71.4868L4.85539 70.2874L6.11477 70.5181L5.83476 69.6607L6.54929 68.9727L6.50239 67.7136L7.01829 67.9527L7.29141 67.0618L8.23216 67.0465L10.5771 64.1183L12.0117 63.7612L11.4448 62.4882L12.4614 61.992L12.1248 61.425L13.0021 59.8074L14.3553 59.8671L14.4284 58.5302L15.8892 57.8353L17.4617 55.8118L19.4122 54.8821L19.9971 52.382L21.8496 53.0741L23.2842 52.5835L23.9256 51.4383L23.4318 50.2487L22.0993 50.5642L21.8193 50.0319L20.9792 50.1556L20.7792 51.4453L19.8108 51.7705L19.5653 50.5503L18.4439 49.9819L18.6328 45.4527L19.8095 44.5675L22.4138 39.0905L21.9627 38.183L20.2122 37.673L21.3103 36.5737L21.2247 35.4271L18.8094 30.1545L18.8328 29.3957L19.8067 29.1219L19.9391 26.5467L21.2082 24.5983L21.8523 24.7567L22.9283 23.499L24.1808 23.2711L24.3518 22.144L25.1243 22.8458L25.465 22.3386L27.2389 22.2399L27.5051 20.796L28.8542 19.8927L29.0652 18.9838L30.6116 18.4668L32.8917 19.7273L36.1057 17.8803L37.4975 18.3876L38.39 16.7241L39.6549 17.733L43.2344 12.6869L43.3462 11.5195L42.0564 9.1708L44.7325 9.6183L46.385 9.0777L46.2553 9.849L46.905 10.1006L47.2237 11.2707L48.0306 8.77472L53.2958 6.39966L54.289 4.404L55.9746 4.03711L57.9444 0.975403Z"/>
</mask>
<path d="M57.9444 0.975403L57.3223 3.3213L59.6672 6.44683L57.1167 7.73233L54.0131 11.3484L50.726 12.6868L50.6584 14.3809L51.8598 15.0813L49.4611 17.9191L50.0321 18.4542L51.4998 18.0734L52.6682 18.6084L55.3952 20.9015L58.5789 22.4219L60.8011 27.0345L59.3679 26.9441L61.7046 32.7518L66.058 40.6497L65.5242 42.4217L66.4263 43.111L66.6153 44.2867L70.1741 43.8642L70.1714 43.0846L71.3466 42.7191L70.7452 41.0444L71.9963 40.5955L72.1108 39.7228L72.5757 41.4252L74.5689 44.3117L74.0737 45.0969L75.1027 44.17L75.7331 45.4166L76.4752 45.0886L76.5856 45.7918L77.136 45.0594L77.0725 46.028L78.0988 45.1886L78.9968 46.1781L78.3898 47.3483L79.7003 46.9842L79.9734 47.4623L78.6726 48.4823L78.6409 50.3474L79.6934 50.938L78.9209 52.8545L79.2409 54.5207L82.2011 55.898L83.855 57.8228L83.8316 58.8303L85.5269 60.3132L86.0773 61.6626L85.5393 62.6299L84.5268 62.5382L84.6137 61.8906L83.8385 62.1852L83.5516 61.443L81.568 62.7564L82.597 64.916L84.5627 65.811L85.2979 65.2551L85.731 66.2668L86.5228 65.4761L86.418 66.7769L88.0015 68.1527L87.1808 70.147L88.2001 70.8988L87.2925 72.0232L87.2897 73.4838L88.4015 75.2446L87.0428 76.216V75.3252L85.662 73.7256L84.9696 74.4649L83.5088 73.5588L81.8425 75.0778L82.1653 76.0326L82.9501 76.2174L82.2756 77.1138L81.1045 77.3473L79.234 79.2026L77.4381 79.393L77.0022 80.659L78.4878 79.6751L79.2975 80.5312L79.074 81.0606L80.0741 81.3692L79.721 84.7268L78.9802 85.5773L78.2795 85.7483L77.6477 84.9575L76.0945 85.6982L75.798 85.0117L74.6793 84.8922L73.4695 81.4915L72.6267 82.1294L73.2226 82.9841L72.886 83.9945L71.0349 83.2676L71.7011 83.9903L70.9494 84.6407L68.8775 84.2793L67.5119 82.9438L67.745 83.7429L67.1284 83.7457L68.9879 84.763L67.3533 86.9921L67.8457 87.3534L67.1381 87.712L67.5119 90.1274L66.4263 90.6444L66.956 91.9813L68.6127 92.6344L64.9862 95.0582L63.8675 94.7455L62.655 96.7161L62.1336 96.4034L60.6108 97.2262L58.1389 96.7022L56.6877 94.5259L55.736 94.6996L55.0297 94.0909L53.133 94.6496L52.8889 96.4313L50.8074 95.8309L50.457 96.7245L49.1728 96.851L48.8155 96.0769L47.5258 96.2701L45.5781 94.676L43.6869 97.8947L42.433 98.477L42.8689 99.6291L41.924 99.2483L40.8508 101.266L41.5419 101.986L41.2991 102.664L39.2025 103.394L39.1376 101.384L37.7541 100.602L37.3072 99.5137L38.3886 98.6799L38.3431 97.4319L39.419 96.5369L38.0148 93.6476L37.2368 94.2772L37.1982 95.571L35.3539 94.7149L35.8422 94.0534L35.096 93.2905L35.7595 92.4955L35.1981 91.096L34.6408 92.2996L32.4586 93.0542L30.3164 89.9592L29.4363 90.2956L29.3273 89.3172L28.4073 89.6257L27.0086 88.507L24.7794 89.534L23.8208 89.2866L22.3503 90.8501L22.5559 91.4449L18.8618 90.1524L0.730972 89.2602L0.83719 86.6934L2.91181 84.2071L2.90078 81.7347L2.65662 79.5014L0.155762 75.9173L1.0841 74.2996L1.79036 74.1607L2.00554 72.7501L2.79594 72.9293L3.40288 71.4868L4.85539 70.2874L6.11477 70.5181L5.83476 69.6607L6.54929 68.9727L6.50239 67.7136L7.01829 67.9527L7.29141 67.0618L8.23216 67.0465L10.5771 64.1183L12.0117 63.7612L11.4448 62.4882L12.4614 61.992L12.1248 61.425L13.0021 59.8074L14.3553 59.8671L14.4284 58.5302L15.8892 57.8353L17.4617 55.8118L19.4122 54.8821L19.9971 52.382L21.8496 53.0741L23.2842 52.5835L23.9256 51.4383L23.4318 50.2487L22.0993 50.5642L21.8193 50.0319L20.9792 50.1556L20.7792 51.4453L19.8108 51.7705L19.5653 50.5503L18.4439 49.9819L18.6328 45.4527L19.8095 44.5675L22.4138 39.0905L21.9627 38.183L20.2122 37.673L21.3103 36.5737L21.2247 35.4271L18.8094 30.1545L18.8328 29.3957L19.8067 29.1219L19.9391 26.5467L21.2082 24.5983L21.8523 24.7567L22.9283 23.499L24.1808 23.2711L24.3518 22.144L25.1243 22.8458L25.465 22.3386L27.2389 22.2399L27.5051 20.796L28.8542 19.8927L29.0652 18.9838L30.6116 18.4668L32.8917 19.7273L36.1057 17.8803L37.4975 18.3876L38.39 16.7241L39.6549 17.733L43.2344 12.6869L43.3462 11.5195L42.0564 9.1708L44.7325 9.6183L46.385 9.0777L46.2553 9.849L46.905 10.1006L47.2237 11.2707L48.0306 8.77472L53.2958 6.39966L54.289 4.404L55.9746 4.03711L57.9444 0.975403Z" fill="#D0D5DD" stroke="white" stroke-width="1.3794" mask="url(#path-1-inside-1_1159_4052)"/>
<g opacity="0.1">
<rect x="29.9993" y="50" width="28.2793" height="28.2793" rx="14.1396" fill="#236DF8"/>
</g>
<rect x="35.655" y="55.6542" width="16.9676" height="16.9676" rx="8.48379" fill="#73C4FF" fill-opacity="0.7"/>
<rect x="41.3108" y="61.3115" width="5.65586" height="5.65586" rx="2.82793" fill="#236DF8"/>
</svg>
