<svg width="78" height="177" viewBox="0 0 78 177" fill="none" xmlns="http://www.w3.org/2000/svg">
<path d="M3.50159 174.169L3.14154 173.309L3.71072 173.427L4.28047 173.545L4.11032 172.989L3.92554 172.384L4.74893 172.706L4.96658 172.791L5.12623 172.62L5.51573 172.204L6.5777 172.412L6.49388 176.556L6.05652 176.553L5.95613 175.297L5.93863 175.078L5.73282 175.001L3.50159 174.169ZM5.25227 146.695L5.12561 146.473L4.95785 146.179L4.66088 146.341L4.2808 146.549L4.24746 146.023L4.21467 145.506L3.75035 145.736L3.04329 146.086L3.21087 145.787L3.48538 145.298L3.57452 145.139L3.56167 145.113L3.76912 144.917L5.34172 143.431L6.03887 143.844L5.25227 146.695ZM2.95295 146.131L2.5946 146.308L1.7516 145.78L2.04769 145.284L2.67461 145.87L2.95295 146.131ZM2.73537 143.7L2.35386 143.59L2.631 143.108L2.84575 143.732L2.73537 143.7ZM1.79465 141.902L2.03548 142.287L1.53592 142.154L1.79465 141.902ZM74.886 0.919933L74.6463 0.814108L74.8664 0.6721L74.886 0.919933Z" fill="#D0D5DD" stroke="white" stroke-width="0.6897"/>
</svg>
