<svg width="254" height="232" viewBox="0 0 254 232" fill="none" xmlns="http://www.w3.org/2000/svg">
<mask id="path-1-inside-1_1159_4050" fill="white">
<path d="M129.901 0.73468L129.912 3.20704L127.837 5.69329L127.731 8.26013L145.862 9.15234L145.458 10.342L146.284 10.5129L146.858 11.747L144.309 14.3528L144.503 15.805L146.058 15.894L147.814 14.9879L148.356 15.5091L147.233 21.8171L148.615 23.0275L147.59 25.3053L146.547 25.0413L146.152 25.6069L146.215 26.4227L146.981 26.6339L148.105 28.5101L148.077 29.6344L149.407 29.5385L149.648 28.1724L152.722 28.7158L155.162 27.119L157.646 28.4281L158.395 31.1742L159.49 31.5119L160.901 31.0005L162.004 32.8155L162.874 33.0045L164.946 31.6148L166.202 32.7321L168.968 30.7921L168.844 32.6988L169.72 33.024L170.087 32.0803L171.175 31.8372L171.319 34.2595L170.178 35.7937L171.19 36.2635L170.741 38.1883L172.174 38.3731L172.302 39.9685L174.508 40.1589L174.664 41.3305L173.236 42.9565L174.573 45.9194L174.145 47.5357L175.022 48.7698L175.796 53.2461L177.596 53.6547L177.915 55.5072L182.221 58.4173L181.993 60.0628L185.426 60.5228L186.383 61.3372L187.316 62.9938L189.165 64.2279L188.947 65.5162L190.156 66.0915L189.927 66.7919L191.308 68.3582L190.503 68.7098L190.541 67.9454L189.426 67.7828L186.78 70.383L188.107 70.8194L188.179 71.7853L189.077 70.5359L189.654 71.0237L188.779 71.6616L188.916 72.2453L187.758 72.4343L188.352 73.1153L187.367 73.4154L188.247 73.9519L187.561 75.5153L186.849 75.0512L186.419 75.6418L186.571 76.1755L187.972 76.4215L187.558 77.8807L190.059 78.4324L191.168 77.7584L193.618 79.754L195.072 78.6589L194.2 77.9071L194.36 76.7578L193.43 76.2324L193.807 74.3396L193.099 73.4821L194.8 72.4107L193.745 71.5059L195.876 71.1238L196.767 71.5171L197.206 72.5983L198.479 72.2675L198.864 71.0168L197.213 70.1357L198.893 69.2365L196.683 67.5855L198.325 67.6313L199.504 68.921L202.224 68.3734L202.999 69.9535L201.935 69.7798L201.579 70.3941L202.995 71.3266L201.728 71.8213L204.175 72.1674L204.166 74.4146L205.921 73.1263L207.685 72.8247L207.43 70.2759L211.48 68.2914L211.764 66.507L213.184 66.0122L216.396 68.7264L215.151 73.5266L215.164 75.9114L215.734 76.1017L215.382 78.8784L214.722 78.9299L214.153 82.2583L215.033 83.2423L214.062 83.2896L214.688 84.6237L215.6 84.0831L216.649 84.6696L217.313 81.9054L219.788 82.0124L219.445 81.1842L218.097 80.7144L218.606 79.3427L221.154 80.7686L221.874 80.2655L221.85 79.4886L222.718 79.7152L222.372 80.4921L223.097 79.2802L224.193 80.4629L225.081 79.472L225.464 79.7833L226.282 80.3906L226.095 82.6573L227.219 83.3924L227.386 84.8044L226.486 86.1538L227.611 86.7501L227.041 87.4783L227.178 88.8194L228.543 89.2599L228.947 90.5232L229.905 91.0374L229.489 92.2326L229.972 93.0873L231.859 93.6682L234.091 95.4484L235.233 94.9051L234.585 96.3004L236.102 98.3085L235.967 99.0117L236.934 99.5621L236.403 100.368L234.974 100.599L234.56 102.075L231.892 102.982L232.556 103.891L233.835 103.54L233.596 104.876L235.617 105.571L236.944 104.4L237.817 106.065L238.358 106.063L238.478 105.05L239.302 105.335L238.763 106.458L236.239 106.925L229.699 110.391L230.183 111.943L229.877 113.533L230.907 113.551L230.445 114.291L231.746 113.635L231.389 112.959L231.88 111.009L232.535 111.85L234.956 111.501L238.17 109.927L238.26 108.789L239.256 108.097L243.203 109.663L243.486 108.525L244.7 109.328L246.569 108.976L247.012 110.591L247.757 110.138L247.595 108.821L249.306 109.16L249.591 107.593L252.303 108.059L252.611 107.57L253.948 108.558L252.919 109.884L251.895 109.691L252.434 111.394L251.023 111.688L251.462 112.84L249.259 112.66L249.728 114.035L248.95 114.57L248.852 116.354L246.151 115.719L244.871 116.937L243.332 117.028L242.893 118.386L241.189 119.048L240.976 120.506L238.993 120.814L238.116 122.14L236.781 122.008L232.599 125.026L229.851 125.285L229.987 126.64L227.164 126.89L225.873 128.88L223.365 130.758L221.082 130.74L220.148 132.259L218.504 132.548L217.097 134.144L214.259 135.404L212.603 137.456L212.887 138.045L211.908 139.922L210.452 140.284L210.64 140.917L209.801 141.545L207.282 141.342L206.718 142.564L205.74 142.456L203.91 144.907L203.947 146.963L202.554 147.472L202.42 148.213L203.375 148.926L203.649 153.512L204.92 156.316L205.631 156.667L206.023 158.027L208.291 159.42L210.765 159.717L210.862 160.486L212.967 159.899L214.417 160.159L215.821 161.664L216.309 160.966L218.199 160.841L219.68 159.606L223.424 160.511L223.86 158.525L225.671 156.919L226.315 156.508L227.935 157.259L227.215 160.058L228.237 160.228L227.597 161.779L229.236 163.234L229.571 164.298L228.783 164.453L229.008 166.846L226.245 167.786L225.074 166.656L222.398 166.833L220.806 168.258L219.732 168.614L217.319 167.912L213.295 170.136L214.359 173.028L215.215 173.121L215.013 174.041L216.025 174.521L215.38 175.256L212.64 175.561L211.771 176.212L213.091 178.426L214.884 178.54L216.106 177.945L216.691 179.021L218.271 179.683L219.217 181.863L219.369 184.171L218.954 185.551L218.424 185.479L217.544 187.096L216.5 187.638L215.036 186.785L214.985 185.009L214.024 185.59L213.637 184.824L212.146 185.301L213.207 187.376L212.886 191.518L213.868 193.666L215.897 195.721L215.079 196.278L214.611 198.104L213.342 197.856L211.757 198.445L210.426 196.805L208.87 196.826L208.092 196.128L208.91 194.372L208.634 193.221L206.422 193.927L206.354 194.583L205.605 194.348L205.874 194.971L204.962 195.895L205.365 196.533L203.97 197.08L202.195 194.925L201.712 195.387L200.857 195.065L200.592 195.685L198.064 194.219L196.789 195.422L194.85 195.387L194.246 193.229L194.58 192.4L193.981 191.746L192.755 193.214L193.086 194.533L192.128 196.035L192.515 199.24L189.981 199.862L187.476 201.455L187.927 204.382L185.12 205.912L184.601 205.563L182.682 206.236L182.187 206.883L181.399 205.74L180.03 205.296L179.908 206.148L180.803 206.747L180.478 207.986L179.599 207.979L179.514 209.833L178.57 208.526L176.57 208.576L175.806 207.767L176.387 207.275L175.937 206.692L172.931 204.767L173.17 202.87L174.602 200.716L176.12 201.54L176.609 202.516L178.078 202.264L179.072 201.197L179.974 203.238L181.754 202.324L182.261 200.292L183.826 199.868L183.884 198.73L182.55 198.78L182.165 197.854L181.219 197.835L182.085 195.258L183.626 194.448L183.173 192.637L181.842 192.408L181.057 191.225L180.739 189.405L181.558 189.276L181.369 188.67L182.594 187.183L184.215 188.97L185.997 187.787L186.078 186.634L185.48 186.087L186.46 185.331L185.928 184.735L186.24 184.121L184.682 182.802L183.958 183.351L183.663 182.788L184.259 181.524L183.634 180.937L183.969 179.079L181.685 177.967L177.46 180.399L176.552 179.308L172.797 180.245L167.466 178.989L166.014 179.317L165.106 177.862L165.71 176.529L167.023 175.66L165.562 174.158L165.761 173.338L166.201 173.974L166.967 173.794L166.316 174.958L167.804 175.139L168.578 176.419L171.793 174.807L171.999 173.887L169.163 174.069L168.738 174.629L167.299 173.984L168.212 172.917L167.44 171.68L167.716 171.207L168.812 173.642L169.495 171.643L168.96 170.257L169.901 169.662L169.728 169.098L164.344 169.013L164.496 170.731L163.091 171.57L163.182 174.005L161.376 174.232L161.002 174.956L157.442 173.916L157.236 172.75L156.42 172.069L155.915 172.476L155.312 171.285L154.656 172.746L155.588 175.147L155.385 177.078L155.665 176.427L157.352 177.253L159.954 176.969L160.335 178.349L159.559 178.351L159.746 179.76L158.657 180.003L158.1 181.29L156.656 181.451L153.955 176.983L153.261 180.42L154.468 180.931L153.497 182.043L153.689 182.87L152.472 183.315L152.726 184.657L151.432 186.046L153.367 186.921L154.461 186.674L154.502 187.602L155.653 187.431L153.599 190.473L153.502 192.213L152.611 193.297L155.987 193.36L156.697 193.963L157.031 194.851L156.318 195.492L159.547 201.318L157.478 204.293L157.025 206.25L158.032 210.646L157.082 212.29L158.009 213.946L157.036 214.181L155.286 216.352L154.058 216.987L153.541 216.545L152.058 218.046L151.106 217.944L149.779 219.184L148.586 219.28L147.448 220.504L147.354 221.916L145.84 223.46L146.855 224.917L147.387 224.337L149.535 225.634L151.12 225.242L151.726 226.176L150.944 226.789L152.408 226.484L152.406 227.133L151.535 227.681L150.196 227.468L148.432 229.25L146.632 229.65L145.666 231.012L142.169 230.282L140.194 231.832L139.032 230.816L139.195 230.071L137.979 227.884L136.867 227.764L136.158 229.016L134.541 228.18L134.737 225.328L133.81 224.498L132.158 224.489L131.817 223.346L130.607 223.18L130.037 221.934L129.352 222.048L129.109 223.06L127.821 223.196L126.026 219.741L124.609 220.125L124.08 219.369L122.965 220.817L122.332 219.456L120.86 219.939L120.27 219.562L121.011 217.932L120.395 216.545L121.078 214.182L118.667 213.158L116.825 214.376L116.682 211.642L115.838 211.464L114.14 209.242L112.853 209.642L112.471 208.985L112.454 206.631L114.261 204.44L113.694 202.559L113.945 200.641L112.672 199.471L112.782 198.198L111.676 198.612L111.599 199.924L110.402 201.391L109.097 201.919L107.742 200.628L108.461 199.147L105.295 197.867L104.386 196.396L106.183 192.498L107.214 192.7L107.57 191.364L108.092 191.662L108.681 190.694L108.091 190.354L106.906 191.139L104.452 189.748L105.127 188.736L104.724 186.56L103.473 187.498L102.368 186.953L102.008 187.327L100.939 190.088L101.751 190.717L99.8009 191.912L98.1898 190.658L94.275 190.803L93.1467 188.96L93.2557 187.754L90.1161 187.267L88.8485 186.175L87.5767 187.973L87.7836 189.257L86.5407 189.345L85.7324 187.648L85.8993 186.258L84.3985 186.431L83.4578 184.724L81.6439 185.172L80.3707 183.844L81.1859 183.213L82.5363 183.632L83.3378 182.637L82.2205 182.931L79.7637 182.167L79.2051 182.813L77.8988 182.752L75.5745 181.535L75.5842 180.124L74.6379 179.845L71.5108 182.362L70.8156 181.069L69.5562 180.82L69.0334 183.08L67.6871 182.519L67.3188 180.969L63.3503 182.154L62.0522 180.963L58.3472 180.862L55.3083 182.523L54.3828 181.519L52.8447 182.97L47.3409 180.645L42.673 172.554L41.1957 165.864L37.503 161.998L36.8616 160.205L34.8394 158.016L35.2339 153.915L34.6022 148.143L33.1883 147.84L30.8557 148.801L26.912 149.216L23.4456 148.013L18.1459 140.199L17.7555 136.03L20.3571 130.51L20.6826 122.703L20.215 120.636L17.2838 119.064L11.8876 119.655L10.0406 119.296L7.34107 117.299L1.15446 114.235L0.463379 112.363L1.31447 105.527L3.18907 100.696L11.3855 92.9705L13.5304 89.731L15.8409 87.9716L18.4839 81.0826L19.9033 78.8841L25.945 73.1792L29.3397 72.3342L31.6171 72.7998L34.7787 76.2574L34.9608 78.7215L37.2492 82.7059L40.9033 83.3201L52.1288 78.6269L56.078 77.8459L63.2551 77.7416L70.159 74.8454L71.1963 69.2878L73.0033 66.6598L78.4478 61.6957L81.8411 51.5909L84.2302 48.3194L93.6612 42.6659L100.315 39.6155L102 35.6366L104.575 32.2623L109.833 22.0352L113.3 9.33577L119.646 6.51041L124.729 5.04007L129.901 0.73468Z"/>
</mask>
<path d="M129.901 0.73468L129.912 3.20704L127.837 5.69329L127.731 8.26013L145.862 9.15234L145.458 10.342L146.284 10.5129L146.858 11.747L144.309 14.3528L144.503 15.805L146.058 15.894L147.814 14.9879L148.356 15.5091L147.233 21.8171L148.615 23.0275L147.59 25.3053L146.547 25.0413L146.152 25.6069L146.215 26.4227L146.981 26.6339L148.105 28.5101L148.077 29.6344L149.407 29.5385L149.648 28.1724L152.722 28.7158L155.162 27.119L157.646 28.4281L158.395 31.1742L159.49 31.5119L160.901 31.0005L162.004 32.8155L162.874 33.0045L164.946 31.6148L166.202 32.7321L168.968 30.7921L168.844 32.6988L169.72 33.024L170.087 32.0803L171.175 31.8372L171.319 34.2595L170.178 35.7937L171.19 36.2635L170.741 38.1883L172.174 38.3731L172.302 39.9685L174.508 40.1589L174.664 41.3305L173.236 42.9565L174.573 45.9194L174.145 47.5357L175.022 48.7698L175.796 53.2461L177.596 53.6547L177.915 55.5072L182.221 58.4173L181.993 60.0628L185.426 60.5228L186.383 61.3372L187.316 62.9938L189.165 64.2279L188.947 65.5162L190.156 66.0915L189.927 66.7919L191.308 68.3582L190.503 68.7098L190.541 67.9454L189.426 67.7828L186.78 70.383L188.107 70.8194L188.179 71.7853L189.077 70.5359L189.654 71.0237L188.779 71.6616L188.916 72.2453L187.758 72.4343L188.352 73.1153L187.367 73.4154L188.247 73.9519L187.561 75.5153L186.849 75.0512L186.419 75.6418L186.571 76.1755L187.972 76.4215L187.558 77.8807L190.059 78.4324L191.168 77.7584L193.618 79.754L195.072 78.6589L194.2 77.9071L194.36 76.7578L193.43 76.2324L193.807 74.3396L193.099 73.4821L194.8 72.4107L193.745 71.5059L195.876 71.1238L196.767 71.5171L197.206 72.5983L198.479 72.2675L198.864 71.0168L197.213 70.1357L198.893 69.2365L196.683 67.5855L198.325 67.6313L199.504 68.921L202.224 68.3734L202.999 69.9535L201.935 69.7798L201.579 70.3941L202.995 71.3266L201.728 71.8213L204.175 72.1674L204.166 74.4146L205.921 73.1263L207.685 72.8247L207.43 70.2759L211.48 68.2914L211.764 66.507L213.184 66.0122L216.396 68.7264L215.151 73.5266L215.164 75.9114L215.734 76.1017L215.382 78.8784L214.722 78.9299L214.153 82.2583L215.033 83.2423L214.062 83.2896L214.688 84.6237L215.6 84.0831L216.649 84.6696L217.313 81.9054L219.788 82.0124L219.445 81.1842L218.097 80.7144L218.606 79.3427L221.154 80.7686L221.874 80.2655L221.85 79.4886L222.718 79.7152L222.372 80.4921L223.097 79.2802L224.193 80.4629L225.081 79.472L225.464 79.7833L226.282 80.3906L226.095 82.6573L227.219 83.3924L227.386 84.8044L226.486 86.1538L227.611 86.7501L227.041 87.4783L227.178 88.8194L228.543 89.2599L228.947 90.5232L229.905 91.0374L229.489 92.2326L229.972 93.0873L231.859 93.6682L234.091 95.4484L235.233 94.9051L234.585 96.3004L236.102 98.3085L235.967 99.0117L236.934 99.5621L236.403 100.368L234.974 100.599L234.56 102.075L231.892 102.982L232.556 103.891L233.835 103.54L233.596 104.876L235.617 105.571L236.944 104.4L237.817 106.065L238.358 106.063L238.478 105.05L239.302 105.335L238.763 106.458L236.239 106.925L229.699 110.391L230.183 111.943L229.877 113.533L230.907 113.551L230.445 114.291L231.746 113.635L231.389 112.959L231.88 111.009L232.535 111.85L234.956 111.501L238.17 109.927L238.26 108.789L239.256 108.097L243.203 109.663L243.486 108.525L244.7 109.328L246.569 108.976L247.012 110.591L247.757 110.138L247.595 108.821L249.306 109.16L249.591 107.593L252.303 108.059L252.611 107.57L253.948 108.558L252.919 109.884L251.895 109.691L252.434 111.394L251.023 111.688L251.462 112.84L249.259 112.66L249.728 114.035L248.95 114.57L248.852 116.354L246.151 115.719L244.871 116.937L243.332 117.028L242.893 118.386L241.189 119.048L240.976 120.506L238.993 120.814L238.116 122.14L236.781 122.008L232.599 125.026L229.851 125.285L229.987 126.64L227.164 126.89L225.873 128.88L223.365 130.758L221.082 130.74L220.148 132.259L218.504 132.548L217.097 134.144L214.259 135.404L212.603 137.456L212.887 138.045L211.908 139.922L210.452 140.284L210.64 140.917L209.801 141.545L207.282 141.342L206.718 142.564L205.74 142.456L203.91 144.907L203.947 146.963L202.554 147.472L202.42 148.213L203.375 148.926L203.649 153.512L204.92 156.316L205.631 156.667L206.023 158.027L208.291 159.42L210.765 159.717L210.862 160.486L212.967 159.899L214.417 160.159L215.821 161.664L216.309 160.966L218.199 160.841L219.68 159.606L223.424 160.511L223.86 158.525L225.671 156.919L226.315 156.508L227.935 157.259L227.215 160.058L228.237 160.228L227.597 161.779L229.236 163.234L229.571 164.298L228.783 164.453L229.008 166.846L226.245 167.786L225.074 166.656L222.398 166.833L220.806 168.258L219.732 168.614L217.319 167.912L213.295 170.136L214.359 173.028L215.215 173.121L215.013 174.041L216.025 174.521L215.38 175.256L212.64 175.561L211.771 176.212L213.091 178.426L214.884 178.54L216.106 177.945L216.691 179.021L218.271 179.683L219.217 181.863L219.369 184.171L218.954 185.551L218.424 185.479L217.544 187.096L216.5 187.638L215.036 186.785L214.985 185.009L214.024 185.59L213.637 184.824L212.146 185.301L213.207 187.376L212.886 191.518L213.868 193.666L215.897 195.721L215.079 196.278L214.611 198.104L213.342 197.856L211.757 198.445L210.426 196.805L208.87 196.826L208.092 196.128L208.91 194.372L208.634 193.221L206.422 193.927L206.354 194.583L205.605 194.348L205.874 194.971L204.962 195.895L205.365 196.533L203.97 197.08L202.195 194.925L201.712 195.387L200.857 195.065L200.592 195.685L198.064 194.219L196.789 195.422L194.85 195.387L194.246 193.229L194.58 192.4L193.981 191.746L192.755 193.214L193.086 194.533L192.128 196.035L192.515 199.24L189.981 199.862L187.476 201.455L187.927 204.382L185.12 205.912L184.601 205.563L182.682 206.236L182.187 206.883L181.399 205.74L180.03 205.296L179.908 206.148L180.803 206.747L180.478 207.986L179.599 207.979L179.514 209.833L178.57 208.526L176.57 208.576L175.806 207.767L176.387 207.275L175.937 206.692L172.931 204.767L173.17 202.87L174.602 200.716L176.12 201.54L176.609 202.516L178.078 202.264L179.072 201.197L179.974 203.238L181.754 202.324L182.261 200.292L183.826 199.868L183.884 198.73L182.55 198.78L182.165 197.854L181.219 197.835L182.085 195.258L183.626 194.448L183.173 192.637L181.842 192.408L181.057 191.225L180.739 189.405L181.558 189.276L181.369 188.67L182.594 187.183L184.215 188.97L185.997 187.787L186.078 186.634L185.48 186.087L186.46 185.331L185.928 184.735L186.24 184.121L184.682 182.802L183.958 183.351L183.663 182.788L184.259 181.524L183.634 180.937L183.969 179.079L181.685 177.967L177.46 180.399L176.552 179.308L172.797 180.245L167.466 178.989L166.014 179.317L165.106 177.862L165.71 176.529L167.023 175.66L165.562 174.158L165.761 173.338L166.201 173.974L166.967 173.794L166.316 174.958L167.804 175.139L168.578 176.419L171.793 174.807L171.999 173.887L169.163 174.069L168.738 174.629L167.299 173.984L168.212 172.917L167.44 171.68L167.716 171.207L168.812 173.642L169.495 171.643L168.96 170.257L169.901 169.662L169.728 169.098L164.344 169.013L164.496 170.731L163.091 171.57L163.182 174.005L161.376 174.232L161.002 174.956L157.442 173.916L157.236 172.75L156.42 172.069L155.915 172.476L155.312 171.285L154.656 172.746L155.588 175.147L155.385 177.078L155.665 176.427L157.352 177.253L159.954 176.969L160.335 178.349L159.559 178.351L159.746 179.76L158.657 180.003L158.1 181.29L156.656 181.451L153.955 176.983L153.261 180.42L154.468 180.931L153.497 182.043L153.689 182.87L152.472 183.315L152.726 184.657L151.432 186.046L153.367 186.921L154.461 186.674L154.502 187.602L155.653 187.431L153.599 190.473L153.502 192.213L152.611 193.297L155.987 193.36L156.697 193.963L157.031 194.851L156.318 195.492L159.547 201.318L157.478 204.293L157.025 206.25L158.032 210.646L157.082 212.29L158.009 213.946L157.036 214.181L155.286 216.352L154.058 216.987L153.541 216.545L152.058 218.046L151.106 217.944L149.779 219.184L148.586 219.28L147.448 220.504L147.354 221.916L145.84 223.46L146.855 224.917L147.387 224.337L149.535 225.634L151.12 225.242L151.726 226.176L150.944 226.789L152.408 226.484L152.406 227.133L151.535 227.681L150.196 227.468L148.432 229.25L146.632 229.65L145.666 231.012L142.169 230.282L140.194 231.832L139.032 230.816L139.195 230.071L137.979 227.884L136.867 227.764L136.158 229.016L134.541 228.18L134.737 225.328L133.81 224.498L132.158 224.489L131.817 223.346L130.607 223.18L130.037 221.934L129.352 222.048L129.109 223.06L127.821 223.196L126.026 219.741L124.609 220.125L124.08 219.369L122.965 220.817L122.332 219.456L120.86 219.939L120.27 219.562L121.011 217.932L120.395 216.545L121.078 214.182L118.667 213.158L116.825 214.376L116.682 211.642L115.838 211.464L114.14 209.242L112.853 209.642L112.471 208.985L112.454 206.631L114.261 204.44L113.694 202.559L113.945 200.641L112.672 199.471L112.782 198.198L111.676 198.612L111.599 199.924L110.402 201.391L109.097 201.919L107.742 200.628L108.461 199.147L105.295 197.867L104.386 196.396L106.183 192.498L107.214 192.7L107.57 191.364L108.092 191.662L108.681 190.694L108.091 190.354L106.906 191.139L104.452 189.748L105.127 188.736L104.724 186.56L103.473 187.498L102.368 186.953L102.008 187.327L100.939 190.088L101.751 190.717L99.8009 191.912L98.1898 190.658L94.275 190.803L93.1467 188.96L93.2557 187.754L90.1161 187.267L88.8485 186.175L87.5767 187.973L87.7836 189.257L86.5407 189.345L85.7324 187.648L85.8993 186.258L84.3985 186.431L83.4578 184.724L81.6439 185.172L80.3707 183.844L81.1859 183.213L82.5363 183.632L83.3378 182.637L82.2205 182.931L79.7637 182.167L79.2051 182.813L77.8988 182.752L75.5745 181.535L75.5842 180.124L74.6379 179.845L71.5108 182.362L70.8156 181.069L69.5562 180.82L69.0334 183.08L67.6871 182.519L67.3188 180.969L63.3503 182.154L62.0522 180.963L58.3472 180.862L55.3083 182.523L54.3828 181.519L52.8447 182.97L47.3409 180.645L42.673 172.554L41.1957 165.864L37.503 161.998L36.8616 160.205L34.8394 158.016L35.2339 153.915L34.6022 148.143L33.1883 147.84L30.8557 148.801L26.912 149.216L23.4456 148.013L18.1459 140.199L17.7555 136.03L20.3571 130.51L20.6826 122.703L20.215 120.636L17.2838 119.064L11.8876 119.655L10.0406 119.296L7.34107 117.299L1.15446 114.235L0.463379 112.363L1.31447 105.527L3.18907 100.696L11.3855 92.9705L13.5304 89.731L15.8409 87.9716L18.4839 81.0826L19.9033 78.8841L25.945 73.1792L29.3397 72.3342L31.6171 72.7998L34.7787 76.2574L34.9608 78.7215L37.2492 82.7059L40.9033 83.3201L52.1288 78.6269L56.078 77.8459L63.2551 77.7416L70.159 74.8454L71.1963 69.2878L73.0033 66.6598L78.4478 61.6957L81.8411 51.5909L84.2302 48.3194L93.6612 42.6659L100.315 39.6155L102 35.6366L104.575 32.2623L109.833 22.0352L113.3 9.33577L119.646 6.51041L124.729 5.04007L129.901 0.73468Z" fill="#D0D5DD" stroke="white" stroke-width="1.3794" mask="url(#path-1-inside-1_1159_4050)"/>
<g opacity="0.1">
<rect x="108.999" y="94" width="28.2793" height="28.2793" rx="14.1396" fill="#236DF8"/>
</g>
<rect x="114.655" y="99.6542" width="16.9676" height="16.9676" rx="8.48379" fill="#73C4FF" fill-opacity="0.7"/>
<rect x="120.311" y="105.311" width="5.65586" height="5.65586" rx="2.82793" fill="#236DF8"/>
</svg>
