<svg width="29" height="35" viewBox="0 0 29 35" fill="none" xmlns="http://www.w3.org/2000/svg">
<path d="M19.3182 1.28097L19.3093 1.22447L19.5017 1.42386L20.1085 2.22848L20.2106 2.36395L20.3803 2.36568L22.6907 2.38936L24.8437 4.23428L24.9347 6.69058L24.9431 6.91744L25.1548 6.99941L25.7273 7.22108L26.3274 8.94977L25.5061 10.2764L25.4589 10.3526L25.4548 10.4422L25.2386 15.1717L22.9963 18.4864L22.9117 18.6114L22.9461 18.7583L24.1669 23.9698L24.1945 24.0874L24.2894 24.1621L27.3503 26.5721L26.8366 27.8541L24.1619 28.6959L23.9643 28.7581L23.9264 28.9618L23.5696 30.8799L22.6313 31.9687L22.1541 32.1605L21.1564 30.9925L20.9505 30.7515L20.693 30.9364L20.0938 31.3667L19.2168 30.6953L19.1266 30.6262L19.013 30.6243L17.2791 30.5951L17.2237 30.5941L17.1708 30.6106L16.0673 30.9539L15.7442 31.0544L15.8386 31.3793L16.0385 32.0677L13.5237 34.048L10.6872 33.3613L10.2031 32.693L10.0816 32.5253L9.8765 32.5537L7.90537 32.8266L6.93637 32.3397L6.80265 32.2725L6.66224 32.3243L5.1056 32.8983L3.92352 32.2536L3.63615 30.4897L3.60318 30.2873L3.40961 30.2197L2.07551 29.7532L3.44947 26.2862L3.51355 26.1245L3.4216 25.9769L2.77334 24.9359L2.88231 24.082L3.71944 23.4788L3.95032 23.3125L3.83081 23.0542L2.85074 20.9362L7.21891 11.4527L7.30302 11.27L7.18555 11.1069L6.69239 10.4219L7.21648 10.0627L7.41929 9.92375L7.35401 9.68671L7.20781 9.15584L7.16525 9.0013L7.01966 8.93421L5.21313 8.10174L5.06616 6.19565L5.21534 6.05482L6.4364 6.60829L6.61126 6.68755L6.77074 6.58068L7.66563 5.98099L7.88641 6.32284L8.04848 6.57379L8.31998 6.44916L11.1276 5.16026L12.2912 5.49829L12.4658 5.549L12.6063 5.43362L15.184 3.31665L16.6473 3.51594L16.9401 3.55581L17.0244 3.2726L17.4222 1.93588L19.0453 1.37525L19.3182 1.28097Z" fill="#D0D5DD" stroke="white" stroke-width="0.6897"/>
<g opacity="0.1">
<rect x="-0.000732422" y="5" width="28.2793" height="28.2793" rx="14.1396" fill="#236DF8"/>
</g>
<rect x="5.65503" y="10.6542" width="16.9676" height="16.9676" rx="8.48379" fill="#73C4FF" fill-opacity="0.7"/>
<rect x="11.3108" y="16.3115" width="5.65586" height="5.65586" rx="2.82793" fill="#236DF8"/>
</svg>
