<svg width="132" height="125" viewBox="0 0 132 125" fill="none" xmlns="http://www.w3.org/2000/svg">
<mask id="path-1-inside-1_1162_4067" fill="white">
<path d="M9.38077 50.3823L9.87045 49.5721L8.5021 48.6188L9.53251 46.53L8.68693 46.2395L10.3988 45.6878L9.27181 45.1416L10.1477 44.5204L10.8567 44.8123L10.7478 42.5748L12.2361 42.4191L12.4886 43.1946L14.7673 42.3538L14.6625 38.6557L15.377 37.7051L16.2088 38.407L17.682 34.6408L20.7181 34.1877L18.9566 31.5527L17.7703 31.4679L18.1524 30.2157L16.9675 30.302L17.0958 29.2958L15.6584 29.3249L15.3715 27.8824L15.4943 26.8581L16.5205 27.1861L16.6778 25.6366L17.991 25.9992L17.4985 24.6053L18.2876 23.2239L17.9455 22.7278L18.5469 20.9434L19.6545 20.5765L18.3896 20.0595L18.3593 19.5078L20.9015 18.3071L23.6976 20.4653L23.8534 21.3561L24.7514 20.9572L27.2868 21.5229L28.0689 18.5989L27.6371 16.1474L31.2953 14.7771L30.4359 11.6543L31.3615 11.2374L31.356 10.2437L30.1642 8.4329L30.6291 7.61712L32.3464 6.88335L32.9947 4.80987L32.1643 3.02264L30.8691 2.70439L31.6029 0.676758L32.0857 1.67043L33.4692 1.79125L33.8582 3.10873L36.126 3.72438L36.6391 4.43875L37.573 3.5618L39.8076 3.69104L43.0644 5.24897L45.0397 4.88067L46.7943 5.50744L47.175 8.64131L48.8247 8.29108L50.3545 8.8595L50.6897 10.8287L49.9393 11.8502L51.0456 11.5361L51.7822 12.2143L54.2223 12.5812L56.3852 14.6464L57.6888 14.4282L57.2239 13.6958L58.0846 12.6174L58.2943 9.98658L60.0544 10.6745L60.3262 11.4305L61.907 11.2554L64.8354 13.5179L66.9211 11.9517L67.2052 12.8244L68.5212 13.3234L69.724 11.1387L72.6291 10.2756L73.9312 10.5689L75.1671 12.3061L78.4005 14.5297L79.3481 16.4767L79.024 19.6481L77.8225 21.8258L78.4874 23.5352L76.0293 25.5697L76.0734 27.6961L77.7052 27.3069L78.2363 28.0921L78.366 33.0688L77.0666 33.9276L78.1646 35.3452L80.4847 35.8844L83.3277 38.65L84.6919 38.0455L85.583 38.6681L85.9568 37.9996L87.8521 37.3742L89.9985 41.3892L94.087 40.1176L98.3963 43.4502L98.9191 44.8705L100.308 45.9753L100.08 46.484L101.107 46.7995L100.81 47.5944L101.628 50.0528L102.885 51.519L101.301 52.5919L101.339 54.0261L103.168 54.1915L104.082 52.1263L105.177 52.9435L104.62 53.2367L105.019 55.213L108.244 54.1345L107.386 56.7847L109.94 65.6388L111.128 65.7431L113.611 63.728L116.338 64.9579L120.119 65.126L122.27 64.5757L122.897 65.24L125.426 64.4798L126.651 64.8592L128.149 62.99L128.878 62.751L129.307 63.4695L130.899 62.4897L131.895 63.7307L131.594 64.3561L125.653 67.5706L125.496 68.7296L123.526 71.7037L124.125 72.3152L123.482 73.2352L123.252 75.9799L121.005 78.6232L119.74 78.7566L118.378 77.7449L116.717 79.8837L114.246 79.8155L113.703 82.5311L110.347 83.0981L108.75 84.132L106.27 83.4789L106.5 85.1521L105.259 85.1411L104.926 88.029L104.165 88.7906L101.083 87.6134L98.5963 87.8997L99.0887 86.913L96.3023 85.3927L94.4526 86.3043L94.0511 88.0471L93.0125 89.0532L92.2703 88.817L91.5351 87.2216L90.7254 87.8567L91.3517 89.1421L90.4716 90.4541L94.2125 92.0634L94.3146 91.1337L96.9962 91.7882L97.0707 93.3781L96.4416 93.5254L96.1409 94.8623L97.5714 95.9811L96.3796 96.7329L93.3063 95.913L93.1959 95.1486L91.6689 94.1091L90.8965 95.2765L90.4826 93.9521L89.346 93.467L88.8287 90.9016L87.6976 89.2464L85.9389 89.1714L85.3858 88.2083L83.9925 90.0108L81.4517 90.6167L80.4034 92.3705L79.8875 93.7005L81.0834 94.0271L82.14 95.2001L81.511 97.268L78.9191 100.38L77.2997 100.508L76.1382 98.6842L74.6485 98.9176L73.6264 97.7391L69.964 99.7765L65.6079 100.728L63.5691 102.177L58.9357 102.81L57.7577 104.417L57.566 112.511L56.3507 113.189L52.1449 112.327L49.1006 113.634L48.5213 114.248L48.6675 116.558L47.575 116.408L47.2936 115.115L46.5694 115.005L46.5308 117.093L44.7555 119.012L42.9843 118.922L40.1938 116.747L38.5206 118.027L34.09 117.287L31.5077 118.846L29.7876 118.781L29.2483 121.855L27.5751 122.715L27.1309 124.262L26.0094 124.264L25.5404 124.918L24.2148 124.396L23.4231 122.667L22.4299 123.955L19.1331 122.852L16.5785 123.772L14.1783 123.132L12.5286 123.435L11.0098 122.376L8.21103 122.103L8.23035 119.655L7.6717 118.802L8.20966 116.608L7.55444 116.239L7.46616 114.951L8.24829 113.001L7.61514 112.971L7.57928 112.205L7.97378 111.661L8.91315 111.817L9.81529 110.762L10.5464 111.089L10.5836 109.562L7.77929 108.408L5.39016 108.803L3.40382 108.29L1.72097 107.588L0.290527 105.627L1.93202 105.459L2.06582 104.921L4.07836 105.144L4.44666 104.342L5.49224 104.126L4.80393 102.698L6.90336 102.125L7.0551 100.232L6.00261 100.513L5.52948 99.7527L6.9282 99.2858L6.98061 98.2685L5.72674 98.1921L6.13505 96.1199L7.10477 96.2408L6.59301 92.3161L7.92137 89.3449L6.85922 86.4195L3.89628 84.6781L5.01635 83.2522L4.4839 82.9187L6.62473 81.2191L6.03296 80.8438L6.54058 78.3534L7.9131 78.8509L8.74763 78.3048L8.96419 77.3361L8.23172 76.6343L10.0332 76.5648L10.0525 75.8171L11.1326 76.1201L11.1423 75.3404L11.9934 75.157L12.3492 74.33L12.2141 74.9985L13.2514 75.2515L13.2983 74.2578L10.5877 73.4379L10.5326 72.5248L9.33663 72.9292L8.7297 72.2079L7.98483 73.1891L7.64962 72.4192L6.20402 71.9592L6.50471 68.6252L9.72977 66.9325L9.84288 66.4141L8.06759 65.8554L8.25243 65.2829L8.68831 64.5115L9.37387 64.7784L10.0388 63.1135L10.7312 63.1857L10.3988 62.0378L11.3037 62.2004L11.5119 60.5327L12.0968 60.8788L12.3672 60.1811L12.1589 59.4557L10.6029 58.9401L9.25939 57.6129L10.8429 56.2245L10.7616 54.6291L9.79597 53.149L10.9133 50.7892L9.38077 50.3823Z"/>
</mask>
<path d="M9.38077 50.3823L9.87045 49.5721L8.5021 48.6188L9.53251 46.53L8.68693 46.2395L10.3988 45.6878L9.27181 45.1416L10.1477 44.5204L10.8567 44.8123L10.7478 42.5748L12.2361 42.4191L12.4886 43.1946L14.7673 42.3538L14.6625 38.6557L15.377 37.7051L16.2088 38.407L17.682 34.6408L20.7181 34.1877L18.9566 31.5527L17.7703 31.4679L18.1524 30.2157L16.9675 30.302L17.0958 29.2958L15.6584 29.3249L15.3715 27.8824L15.4943 26.8581L16.5205 27.1861L16.6778 25.6366L17.991 25.9992L17.4985 24.6053L18.2876 23.2239L17.9455 22.7278L18.5469 20.9434L19.6545 20.5765L18.3896 20.0595L18.3593 19.5078L20.9015 18.3071L23.6976 20.4653L23.8534 21.3561L24.7514 20.9572L27.2868 21.5229L28.0689 18.5989L27.6371 16.1474L31.2953 14.7771L30.4359 11.6543L31.3615 11.2374L31.356 10.2437L30.1642 8.4329L30.6291 7.61712L32.3464 6.88335L32.9947 4.80987L32.1643 3.02264L30.8691 2.70439L31.6029 0.676758L32.0857 1.67043L33.4692 1.79125L33.8582 3.10873L36.126 3.72438L36.6391 4.43875L37.573 3.5618L39.8076 3.69104L43.0644 5.24897L45.0397 4.88067L46.7943 5.50744L47.175 8.64131L48.8247 8.29108L50.3545 8.8595L50.6897 10.8287L49.9393 11.8502L51.0456 11.5361L51.7822 12.2143L54.2223 12.5812L56.3852 14.6464L57.6888 14.4282L57.2239 13.6958L58.0846 12.6174L58.2943 9.98658L60.0544 10.6745L60.3262 11.4305L61.907 11.2554L64.8354 13.5179L66.9211 11.9517L67.2052 12.8244L68.5212 13.3234L69.724 11.1387L72.6291 10.2756L73.9312 10.5689L75.1671 12.3061L78.4005 14.5297L79.3481 16.4767L79.024 19.6481L77.8225 21.8258L78.4874 23.5352L76.0293 25.5697L76.0734 27.6961L77.7052 27.3069L78.2363 28.0921L78.366 33.0688L77.0666 33.9276L78.1646 35.3452L80.4847 35.8844L83.3277 38.65L84.6919 38.0455L85.583 38.6681L85.9568 37.9996L87.8521 37.3742L89.9985 41.3892L94.087 40.1176L98.3963 43.4502L98.9191 44.8705L100.308 45.9753L100.08 46.484L101.107 46.7995L100.81 47.5944L101.628 50.0528L102.885 51.519L101.301 52.5919L101.339 54.0261L103.168 54.1915L104.082 52.1263L105.177 52.9435L104.62 53.2367L105.019 55.213L108.244 54.1345L107.386 56.7847L109.94 65.6388L111.128 65.7431L113.611 63.728L116.338 64.9579L120.119 65.126L122.27 64.5757L122.897 65.24L125.426 64.4798L126.651 64.8592L128.149 62.99L128.878 62.751L129.307 63.4695L130.899 62.4897L131.895 63.7307L131.594 64.3561L125.653 67.5706L125.496 68.7296L123.526 71.7037L124.125 72.3152L123.482 73.2352L123.252 75.9799L121.005 78.6232L119.74 78.7566L118.378 77.7449L116.717 79.8837L114.246 79.8155L113.703 82.5311L110.347 83.0981L108.75 84.132L106.27 83.4789L106.5 85.1521L105.259 85.1411L104.926 88.029L104.165 88.7906L101.083 87.6134L98.5963 87.8997L99.0887 86.913L96.3023 85.3927L94.4526 86.3043L94.0511 88.0471L93.0125 89.0532L92.2703 88.817L91.5351 87.2216L90.7254 87.8567L91.3517 89.1421L90.4716 90.4541L94.2125 92.0634L94.3146 91.1337L96.9962 91.7882L97.0707 93.3781L96.4416 93.5254L96.1409 94.8623L97.5714 95.9811L96.3796 96.7329L93.3063 95.913L93.1959 95.1486L91.6689 94.1091L90.8965 95.2765L90.4826 93.9521L89.346 93.467L88.8287 90.9016L87.6976 89.2464L85.9389 89.1714L85.3858 88.2083L83.9925 90.0108L81.4517 90.6167L80.4034 92.3705L79.8875 93.7005L81.0834 94.0271L82.14 95.2001L81.511 97.268L78.9191 100.38L77.2997 100.508L76.1382 98.6842L74.6485 98.9176L73.6264 97.7391L69.964 99.7765L65.6079 100.728L63.5691 102.177L58.9357 102.81L57.7577 104.417L57.566 112.511L56.3507 113.189L52.1449 112.327L49.1006 113.634L48.5213 114.248L48.6675 116.558L47.575 116.408L47.2936 115.115L46.5694 115.005L46.5308 117.093L44.7555 119.012L42.9843 118.922L40.1938 116.747L38.5206 118.027L34.09 117.287L31.5077 118.846L29.7876 118.781L29.2483 121.855L27.5751 122.715L27.1309 124.262L26.0094 124.264L25.5404 124.918L24.2148 124.396L23.4231 122.667L22.4299 123.955L19.1331 122.852L16.5785 123.772L14.1783 123.132L12.5286 123.435L11.0098 122.376L8.21103 122.103L8.23035 119.655L7.6717 118.802L8.20966 116.608L7.55444 116.239L7.46616 114.951L8.24829 113.001L7.61514 112.971L7.57928 112.205L7.97378 111.661L8.91315 111.817L9.81529 110.762L10.5464 111.089L10.5836 109.562L7.77929 108.408L5.39016 108.803L3.40382 108.29L1.72097 107.588L0.290527 105.627L1.93202 105.459L2.06582 104.921L4.07836 105.144L4.44666 104.342L5.49224 104.126L4.80393 102.698L6.90336 102.125L7.0551 100.232L6.00261 100.513L5.52948 99.7527L6.9282 99.2858L6.98061 98.2685L5.72674 98.1921L6.13505 96.1199L7.10477 96.2408L6.59301 92.3161L7.92137 89.3449L6.85922 86.4195L3.89628 84.6781L5.01635 83.2522L4.4839 82.9187L6.62473 81.2191L6.03296 80.8438L6.54058 78.3534L7.9131 78.8509L8.74763 78.3048L8.96419 77.3361L8.23172 76.6343L10.0332 76.5648L10.0525 75.8171L11.1326 76.1201L11.1423 75.3404L11.9934 75.157L12.3492 74.33L12.2141 74.9985L13.2514 75.2515L13.2983 74.2578L10.5877 73.4379L10.5326 72.5248L9.33663 72.9292L8.7297 72.2079L7.98483 73.1891L7.64962 72.4192L6.20402 71.9592L6.50471 68.6252L9.72977 66.9325L9.84288 66.4141L8.06759 65.8554L8.25243 65.2829L8.68831 64.5115L9.37387 64.7784L10.0388 63.1135L10.7312 63.1857L10.3988 62.0378L11.3037 62.2004L11.5119 60.5327L12.0968 60.8788L12.3672 60.1811L12.1589 59.4557L10.6029 58.9401L9.25939 57.6129L10.8429 56.2245L10.7616 54.6291L9.79597 53.149L10.9133 50.7892L9.38077 50.3823Z" fill="#D0D5DD" stroke="white" stroke-width="1.3794" mask="url(#path-1-inside-1_1162_4067)"/>
<g opacity="0.1">
<rect x="38.9993" y="45" width="28.2793" height="28.2793" rx="14.1396" fill="#236DF8"/>
</g>
<rect x="44.655" y="50.6543" width="16.9676" height="16.9676" rx="8.48379" fill="#73C4FF" fill-opacity="0.7"/>
<rect x="50.3108" y="56.3114" width="5.65586" height="5.65586" rx="2.82793" fill="#236DF8"/>
</svg>
