<svg width="120" height="162" viewBox="0 0 120 162" fill="none" xmlns="http://www.w3.org/2000/svg">
<mask id="path-1-inside-1_1156_4044" fill="white">
<path d="M89.271 124.507L89.9289 125.002L89.3344 125.855L89.6641 126.459L92.9526 129.494L88.8778 126.899L86.4473 126.688L86.1507 126.004L86.6156 125.572L87.9784 125.54L89.271 124.507ZM57.7475 23.6525L57.9365 24.7615L56.8578 25.7649L59.011 25.4522L59.7628 26.6057L62.0112 27.8231L64.6472 27.6577L64.5907 26.3292L65.4832 26.2985L65.6239 25.1089L66.1177 25.159L66.275 25.1076L66.5177 25.8149L67.1895 25.6398L67.1288 23.9109L68.1799 23.1147L69.4434 18.7147L70.049 18.7203L69.0958 16.9456L70.1773 15.7878L71.4091 16.1895L71.6601 14.6539L72.9181 14.9721L76.6729 13.7616L76.8425 15.7337L78.0771 15.7657L77.1764 15.2765L77.7805 14.3078L79.6634 14.0479L82.247 15.8977L84.6624 16.1006L85.7079 13.8061L86.5563 13.2336L86.5577 12.2941L87.9743 12.1259L89.1454 13.4407L90.4917 12.4665L90.2958 11.4783L92.4905 10.7543L92.4284 10.1289L93.1181 9.88431L92.8463 9.49661L92.1166 10.0219L92.5263 7.96642L91.0697 7.32159L92.6367 6.71154L95.7238 7.084L96.0976 8.38889L97.008 9.03515L99.5571 7.94975L99.6951 9.50772L100.352 9.37571L100.141 10.1623L101.126 9.73285L101.748 10.5319L102.917 9.68419L101.08 8.23609L102.028 7.32858L102.77 7.94428L103.362 7.2827L104.831 7.30905L106.977 6.3432L107.787 5.21056L107.178 4.31274L108.067 3.9098L108.027 2.91751L108.995 2.67428L109.298 1.83346L110.169 1.9307L110.074 1.41511L108.845 1.16918L108.959 0.58826L111.134 0.350586L113.521 2.09748L115.78 2.15726L117.099 4.76443L118.142 5.35083L118.14 3.77492L119.088 8.20822L117.765 12.1828L116.491 22.7477L113.667 32.0297L105.806 44.0093L104.443 47.6838L103.295 47.0042L101.534 48.6691L100.921 46.8903L101.986 46.5345L101.469 46.0967L100.636 46.597L99.862 45.3587L98.8619 46.3329L100.44 46.7541L99.8371 47.8019L100.641 48.034L101.186 49.1319L100.912 49.6211L99.9723 48.7428L99.284 49.8963L100.577 50.7051L101.905 50.0477L101.972 51.1137L102.828 50.6468L103.366 51.589L102.115 58.8101L104.457 64.9707L104.93 76.1318L103.396 75.8316L102.876 76.3875L101.389 75.8066L101.782 77.0921L100.572 76.842L101.243 78.443L103.614 79.3268L103.739 80.8973L104.833 80.9069L105.643 96.1134L104.384 96.7332L101.705 96.7415L91.3897 95.5172L88.7675 97.1654L86.8666 100.584L86.8501 102.118L87.9729 103.708L84.7313 106.806L83.7699 109.088L80.08 113.374L78.364 116.33L77.3129 120.066L78.5006 122.232L82.0856 125.331L85.7507 125.883L82.9602 126.518L78.9572 126.151L76.5915 126.615L72.3885 128.015L72.1236 128.56L70.3745 128.494L69.9248 129.041L70.358 129.513L68.0723 130.286L63.2361 130.854L57.4137 135.318L56.2495 137.576L55.9212 140.81L56.7792 140.664L58.022 141.477L56.266 141.615L54.4052 144.319L54.1638 146.375L55.3832 146.155L55.1432 148.835L53.2576 151.092L52.8093 152.244L53.3141 152.527L45.7191 156.104L44.0666 158.174L39.1256 159.39L38.4111 161.116L31.6258 159.819L25.2874 154.648L26.0227 153.921L27.1124 154.227L26.3951 152.296L28.5511 150.568L27.8876 148.942L29.6505 148.708L30.1595 147.653L26.9882 141.804L27.6007 141.879L28.7015 140.688L29.5194 138.245L28.4145 136.544L27.7138 136.592L27.7069 135.678L26.3206 133.781L27.7621 133.058L28.1593 131.538L29.7732 129.941L29.336 128.882L30.2078 128.014V125.611L30.7071 124.541L31.492 124.527L32.1541 121.504L33.4342 120.927L33.9446 119.585L32.6245 118.713L32.3458 116.698L31.881 117.632L31.2892 116.758L29.8657 117.581L28.1593 116.431L26.8875 116.377L27.9856 113.166L28.5139 112.985L28.5594 111.277L29.2574 111.024L28.5346 110.261L28.9608 109.249L28.2518 108.752L29.2794 106.498L29.9815 106.188L29.6657 104.225L27.9249 102.103L30.0036 101.322L30.6009 98.7345L29.6215 98.3426L29.7374 97.3697L28.6959 95.8396L28.9166 94.8265L27.2076 94.65L23.9991 96.4358L23.6142 97.5323L21.6582 98.6927L19.7726 98.2189L18.5256 96.9764L18.5835 96.301L17.84 96.6665L17.2952 96.1495L17.8635 94.2567L16.9393 92.6335L17.5863 87.6319L16.8717 86.4171L18.8249 86.3268L18.3311 84.9788L19.5436 82.1701L19.2774 81.314L17.8952 81.0847L17.2345 79.4921L12.3721 77.6562L14.0288 74.5001L16.5103 74.1763L14.9116 74.0262L14.9585 71.8527L13.5846 71.1689L14.5778 69.2733L13.7515 68.6104L11.6176 69.957L7.70835 69.4525L6.70139 70.1182L6.51794 68.6368L9.2257 66.812L9.16778 65.0651L8.33874 65.211L6.5745 64.1868L5.47788 62.6484L3.26255 61.9077L2.89287 62.3218L1.65556 61.4407L0.560309 61.8799L0.146484 58.789L1.4514 57.9496L2.22937 58.7918L3.73706 58.2484L4.60057 57.0769L5.89307 57.0506L5.85444 55.986L6.66001 56.1097L8.18564 54.8437L9.23121 55.6567L9.79953 57.4384L15.1751 57.4259L17.2041 57.8192L17.8042 58.4891L18.1973 57.683L17.5504 56.435L19.6057 52.327L21.3355 52.862L21.7162 51.8016L22.6307 51.7447L23.417 52.3075L23.148 52.8746L24.1356 52.5077L24.5715 54.0447L25.6599 54.406L25.4723 52.9218L29.0601 52.3131L29.485 51.7614L30.7292 51.8824L31.921 53.0456L32.8852 52.4604L34.6108 53.2901L35.6798 50.6788L35.5791 49.2182L36.2757 49.5892L36.4923 47.923L41.5768 47.7534L42.4141 45.6326L44.6956 42.8059L43.4804 40.9812L35.953 39.9472L36.084 38.1837L38.1779 37.5374L39.9422 35.4639L40.4112 33.8463L40.5588 31.8089L39.1201 32.0716L40.0153 31.1418L39.2111 30.9278L38.967 29.42L39.7698 27.5522L39.5532 26.4695L41.4002 25.9775L42.0954 26.7224L42.8307 25.9914L43.628 26.2805L45.5936 22.6394L45.1715 21.2469L49.0076 19.9252L49.4904 20.5881L48.7621 21.5984L49.2118 21.8444L49.8118 20.7883L50.8464 22.3809L51.4257 22.3864L51.8133 20.8911L52.732 20.9953L54.8673 23.1397L57.7475 23.6525Z"/>
</mask>
<path d="M89.271 124.507L89.9289 125.002L89.3344 125.855L89.6641 126.459L92.9526 129.494L88.8778 126.899L86.4473 126.688L86.1507 126.004L86.6156 125.572L87.9784 125.54L89.271 124.507ZM57.7475 23.6525L57.9365 24.7615L56.8578 25.7649L59.011 25.4522L59.7628 26.6057L62.0112 27.8231L64.6472 27.6577L64.5907 26.3292L65.4832 26.2985L65.6239 25.1089L66.1177 25.159L66.275 25.1076L66.5177 25.8149L67.1895 25.6398L67.1288 23.9109L68.1799 23.1147L69.4434 18.7147L70.049 18.7203L69.0958 16.9456L70.1773 15.7878L71.4091 16.1895L71.6601 14.6539L72.9181 14.9721L76.6729 13.7616L76.8425 15.7337L78.0771 15.7657L77.1764 15.2765L77.7805 14.3078L79.6634 14.0479L82.247 15.8977L84.6624 16.1006L85.7079 13.8061L86.5563 13.2336L86.5577 12.2941L87.9743 12.1259L89.1454 13.4407L90.4917 12.4665L90.2958 11.4783L92.4905 10.7543L92.4284 10.1289L93.1181 9.88431L92.8463 9.49661L92.1166 10.0219L92.5263 7.96642L91.0697 7.32159L92.6367 6.71154L95.7238 7.084L96.0976 8.38889L97.008 9.03515L99.5571 7.94975L99.6951 9.50772L100.352 9.37571L100.141 10.1623L101.126 9.73285L101.748 10.5319L102.917 9.68419L101.08 8.23609L102.028 7.32858L102.77 7.94428L103.362 7.2827L104.831 7.30905L106.977 6.3432L107.787 5.21056L107.178 4.31274L108.067 3.9098L108.027 2.91751L108.995 2.67428L109.298 1.83346L110.169 1.9307L110.074 1.41511L108.845 1.16918L108.959 0.58826L111.134 0.350586L113.521 2.09748L115.78 2.15726L117.099 4.76443L118.142 5.35083L118.14 3.77492L119.088 8.20822L117.765 12.1828L116.491 22.7477L113.667 32.0297L105.806 44.0093L104.443 47.6838L103.295 47.0042L101.534 48.6691L100.921 46.8903L101.986 46.5345L101.469 46.0967L100.636 46.597L99.862 45.3587L98.8619 46.3329L100.44 46.7541L99.8371 47.8019L100.641 48.034L101.186 49.1319L100.912 49.6211L99.9723 48.7428L99.284 49.8963L100.577 50.7051L101.905 50.0477L101.972 51.1137L102.828 50.6468L103.366 51.589L102.115 58.8101L104.457 64.9707L104.93 76.1318L103.396 75.8316L102.876 76.3875L101.389 75.8066L101.782 77.0921L100.572 76.842L101.243 78.443L103.614 79.3268L103.739 80.8973L104.833 80.9069L105.643 96.1134L104.384 96.7332L101.705 96.7415L91.3897 95.5172L88.7675 97.1654L86.8666 100.584L86.8501 102.118L87.9729 103.708L84.7313 106.806L83.7699 109.088L80.08 113.374L78.364 116.33L77.3129 120.066L78.5006 122.232L82.0856 125.331L85.7507 125.883L82.9602 126.518L78.9572 126.151L76.5915 126.615L72.3885 128.015L72.1236 128.56L70.3745 128.494L69.9248 129.041L70.358 129.513L68.0723 130.286L63.2361 130.854L57.4137 135.318L56.2495 137.576L55.9212 140.81L56.7792 140.664L58.022 141.477L56.266 141.615L54.4052 144.319L54.1638 146.375L55.3832 146.155L55.1432 148.835L53.2576 151.092L52.8093 152.244L53.3141 152.527L45.7191 156.104L44.0666 158.174L39.1256 159.39L38.4111 161.116L31.6258 159.819L25.2874 154.648L26.0227 153.921L27.1124 154.227L26.3951 152.296L28.5511 150.568L27.8876 148.942L29.6505 148.708L30.1595 147.653L26.9882 141.804L27.6007 141.879L28.7015 140.688L29.5194 138.245L28.4145 136.544L27.7138 136.592L27.7069 135.678L26.3206 133.781L27.7621 133.058L28.1593 131.538L29.7732 129.941L29.336 128.882L30.2078 128.014V125.611L30.7071 124.541L31.492 124.527L32.1541 121.504L33.4342 120.927L33.9446 119.585L32.6245 118.713L32.3458 116.698L31.881 117.632L31.2892 116.758L29.8657 117.581L28.1593 116.431L26.8875 116.377L27.9856 113.166L28.5139 112.985L28.5594 111.277L29.2574 111.024L28.5346 110.261L28.9608 109.249L28.2518 108.752L29.2794 106.498L29.9815 106.188L29.6657 104.225L27.9249 102.103L30.0036 101.322L30.6009 98.7345L29.6215 98.3426L29.7374 97.3697L28.6959 95.8396L28.9166 94.8265L27.2076 94.65L23.9991 96.4358L23.6142 97.5323L21.6582 98.6927L19.7726 98.2189L18.5256 96.9764L18.5835 96.301L17.84 96.6665L17.2952 96.1495L17.8635 94.2567L16.9393 92.6335L17.5863 87.6319L16.8717 86.4171L18.8249 86.3268L18.3311 84.9788L19.5436 82.1701L19.2774 81.314L17.8952 81.0847L17.2345 79.4921L12.3721 77.6562L14.0288 74.5001L16.5103 74.1763L14.9116 74.0262L14.9585 71.8527L13.5846 71.1689L14.5778 69.2733L13.7515 68.6104L11.6176 69.957L7.70835 69.4525L6.70139 70.1182L6.51794 68.6368L9.2257 66.812L9.16778 65.0651L8.33874 65.211L6.5745 64.1868L5.47788 62.6484L3.26255 61.9077L2.89287 62.3218L1.65556 61.4407L0.560309 61.8799L0.146484 58.789L1.4514 57.9496L2.22937 58.7918L3.73706 58.2484L4.60057 57.0769L5.89307 57.0506L5.85444 55.986L6.66001 56.1097L8.18564 54.8437L9.23121 55.6567L9.79953 57.4384L15.1751 57.4259L17.2041 57.8192L17.8042 58.4891L18.1973 57.683L17.5504 56.435L19.6057 52.327L21.3355 52.862L21.7162 51.8016L22.6307 51.7447L23.417 52.3075L23.148 52.8746L24.1356 52.5077L24.5715 54.0447L25.6599 54.406L25.4723 52.9218L29.0601 52.3131L29.485 51.7614L30.7292 51.8824L31.921 53.0456L32.8852 52.4604L34.6108 53.2901L35.6798 50.6788L35.5791 49.2182L36.2757 49.5892L36.4923 47.923L41.5768 47.7534L42.4141 45.6326L44.6956 42.8059L43.4804 40.9812L35.953 39.9472L36.084 38.1837L38.1779 37.5374L39.9422 35.4639L40.4112 33.8463L40.5588 31.8089L39.1201 32.0716L40.0153 31.1418L39.2111 30.9278L38.967 29.42L39.7698 27.5522L39.5532 26.4695L41.4002 25.9775L42.0954 26.7224L42.8307 25.9914L43.628 26.2805L45.5936 22.6394L45.1715 21.2469L49.0076 19.9252L49.4904 20.5881L48.7621 21.5984L49.2118 21.8444L49.8118 20.7883L50.8464 22.3809L51.4257 22.3864L51.8133 20.8911L52.732 20.9953L54.8673 23.1397L57.7475 23.6525Z" fill="#D0D5DD" stroke="white" stroke-width="1.3794" mask="url(#path-1-inside-1_1156_4044)"/>
<g opacity="0.1">
<rect x="45.9993" y="76" width="28.2793" height="28.2793" rx="14.1396" fill="#236DF8"/>
</g>
<rect x="51.655" y="81.6543" width="16.9676" height="16.9676" rx="8.48379" fill="#73C4FF" fill-opacity="0.7"/>
<rect x="57.3108" y="87.3114" width="5.65586" height="5.65586" rx="2.82793" fill="#236DF8"/>
</svg>
