<svg width="35" height="51" viewBox="0 0 35 51" fill="none" xmlns="http://www.w3.org/2000/svg">
<mask id="path-1-inside-1_1151_2623" fill="white">
<path d="M29.9822 0.666271L31.3051 1.26248L31.3064 2.65223L32.5038 5.22741L30.7809 9.35635L33.2004 9.27856L34.3604 12.607L33.7052 16.1591L34.1356 17.5878L33.628 18.5078L34.1963 20.0504L33.8804 21.5055L33.0652 21.3276L32.5686 22.0364L32.9148 23.0564L32.1244 23.1134L32.3879 25.8429L31.7796 25.9846L31.1036 28.0956L30.9202 26.9005L30.0209 26.4154L29.8415 25.4051L29.3449 25.494L26.6744 28.4959L25.3019 28.0748L24.1611 25.8081L23.5418 25.8722L22.9694 27.3216L23.917 33.6158L22.9556 34.0355L22.9542 35.0292L21.8479 34.9082L20.2257 36.2076L18.1332 40.0558L19.8823 45.8037L19.296 46.6084L18.2366 46.7099L16.6655 49.1573L15.9234 48.7209L14.5895 49.0558L13.2239 50.1857L12.1535 49.6729L10.1244 43.9902L10.512 43.0785L9.45399 42.8645L9.79194 42.1294L9.03324 40.7924L7.99318 40.7828L6.98763 43.1606L7.94355 46.9421L6.66345 46.7906L5.29786 43.8458L5.35439 40.8536L4.60677 39.6626L5.04402 39.2971L4.34329 38.7051L5.1613 37.4015L4.32536 37.6489L3.08668 33.3866L1.73208 32.5013L2.05348 31.5354L1.51827 31.5465L0.547201 29.8357L0.414767 27.6761L1.50173 28.4223L1.82313 27.141L0.327881 27.0257L0.38993 25.5011L1.40516 25.0634L2.24384 25.4803L3.1984 22.3339L2.47284 20.9553L2.9625 20.0033L2.55147 19.5183L3.73635 19.5933L3.60808 18.4106L3.95015 17.795L4.41089 18.123L4.60677 17.3044L6.6786 17.9923L7.2083 15.6326L6.67448 13.7898L11.5024 14.8473L14.0681 14.008L14.8226 11.3146L14.4723 10.4655L15.035 9.95546L15.5372 11.8928L16.8889 12.7474L17.7676 12.7154L17.2269 9.42455L19.3084 10.6378L20.2298 10.0221L20.0643 10.9922L21.4079 12.9156L22.0327 12.7502L22.9569 8.7769L22.3376 6.61308L23.397 5.96131L24.5019 7.07172L23.8866 4.93287L28.0772 5.08576L28.6525 3.79606L29.6236 3.59038L29.0359 1.38489L29.1353 0.623291L29.9822 0.666271Z"/>
</mask>
<path d="M29.9822 0.666271L31.3051 1.26248L31.3064 2.65223L32.5038 5.22741L30.7809 9.35635L33.2004 9.27856L34.3604 12.607L33.7052 16.1591L34.1356 17.5878L33.628 18.5078L34.1963 20.0504L33.8804 21.5055L33.0652 21.3276L32.5686 22.0364L32.9148 23.0564L32.1244 23.1134L32.3879 25.8429L31.7796 25.9846L31.1036 28.0956L30.9202 26.9005L30.0209 26.4154L29.8415 25.4051L29.3449 25.494L26.6744 28.4959L25.3019 28.0748L24.1611 25.8081L23.5418 25.8722L22.9694 27.3216L23.917 33.6158L22.9556 34.0355L22.9542 35.0292L21.8479 34.9082L20.2257 36.2076L18.1332 40.0558L19.8823 45.8037L19.296 46.6084L18.2366 46.7099L16.6655 49.1573L15.9234 48.7209L14.5895 49.0558L13.2239 50.1857L12.1535 49.6729L10.1244 43.9902L10.512 43.0785L9.45399 42.8645L9.79194 42.1294L9.03324 40.7924L7.99318 40.7828L6.98763 43.1606L7.94355 46.9421L6.66345 46.7906L5.29786 43.8458L5.35439 40.8536L4.60677 39.6626L5.04402 39.2971L4.34329 38.7051L5.1613 37.4015L4.32536 37.6489L3.08668 33.3866L1.73208 32.5013L2.05348 31.5354L1.51827 31.5465L0.547201 29.8357L0.414767 27.6761L1.50173 28.4223L1.82313 27.141L0.327881 27.0257L0.38993 25.5011L1.40516 25.0634L2.24384 25.4803L3.1984 22.3339L2.47284 20.9553L2.9625 20.0033L2.55147 19.5183L3.73635 19.5933L3.60808 18.4106L3.95015 17.795L4.41089 18.123L4.60677 17.3044L6.6786 17.9923L7.2083 15.6326L6.67448 13.7898L11.5024 14.8473L14.0681 14.008L14.8226 11.3146L14.4723 10.4655L15.035 9.95546L15.5372 11.8928L16.8889 12.7474L17.7676 12.7154L17.2269 9.42455L19.3084 10.6378L20.2298 10.0221L20.0643 10.9922L21.4079 12.9156L22.0327 12.7502L22.9569 8.7769L22.3376 6.61308L23.397 5.96131L24.5019 7.07172L23.8866 4.93287L28.0772 5.08576L28.6525 3.79606L29.6236 3.59038L29.0359 1.38489L29.1353 0.623291L29.9822 0.666271Z" fill="#D0D5DD" stroke="white" stroke-width="1.3794" mask="url(#path-1-inside-1_1151_2623)"/>
</svg>
