<svg width="219" height="214" viewBox="0 0 219 214" fill="none" xmlns="http://www.w3.org/2000/svg">
<mask id="path-1-inside-1_1159_4055" fill="white">
<path d="M14.7588 0.712307L16.8141 0.498291L19.0253 2.91782L25.3981 5.99472L22.7138 10.5058L21.9786 11.2632L21.2089 10.9172L20.3757 12.6474L20.8006 13.3812L19.5826 14.6792L20.0116 15.3421L19.2239 16.4331L19.6667 17.1502L18.7715 18.5427L20.5813 21.4222L20.3799 23.7403L21.4544 24.2559L21.3855 24.8744L22.4379 25.2941L23.7346 24.2059L25.9899 24.092L26.7072 27.1341L25.9857 27.0673L25.8547 27.9206L26.9072 27.9998L27.0313 29.4048L28.4411 29.1797L28.6452 27.8331L29.746 27.5412L31.393 25.0688L32.9641 23.9362L34.058 24.1349L36.9561 21.065L39.2901 21.8572L41.4557 22.8925L42.6034 26.7907L44.8532 28.874L50.0591 31.7271L54.0276 32.3872L52.5033 34.508L51.3088 35.3112L50.7363 34.8221L50.1542 36.6023L49.2466 35.9213L47.99 36.9984L50.4729 38.9718L51.9957 38.8579L53.3393 40.8049L53.3765 42.5282L54.6456 42.5616L55.1642 41.9918L56.7436 43.6136L57.0306 41.8097L60.0294 43.2328L60.2073 45.2215L61.028 45.8191L60.8225 46.7586L62.144 46.5529L64.8835 49.0683L66.4132 49.0905L66.6381 48.493L67.1388 49.5992L67.8437 49.7576L68.1264 52.2828L70.899 52.0368L71.7419 51.0695L72.1598 52.6121L73.9682 51.8575L75.4883 52.5315L76.8167 51.4628L78.6154 51.0945L79.6017 52.0521L78.872 53.9491L79.8114 53.7226L80.0596 52.6483L80.9135 52.665L81.5356 53.5224L80.5231 53.8421L82.2763 54.0575L81.9204 54.5981L82.886 56.3506L84.1992 56.9134L85.5207 56.1963L86.2959 54.6856L85.8683 54.1325L87.2173 53.1458L88.5871 53.1792L91.4149 55.6043L92.4122 55.5209L92.5749 56.4617L94.324 57.4248L95.5489 59.5066L98.2029 59.7776L100.123 62.3181L100.489 61.6037L99.7147 58.5769L101.599 57.832L102.836 59.4358L104.456 59.3495L105.108 61.1548L107.351 61.8636L107.961 63.2228L110.171 64.3693L110.47 63.7022L111.413 64.1025L111.58 65.085L113.452 66.1843L114.556 65.6159L115.061 66.8764L116.359 67.8131L120.137 68.6122L120.775 70.9678L123.314 73.9808L123.33 74.9146L122.777 74.973L123.523 75.5887L123.236 76.0737L124.777 75.7846L124.887 74.6464L126.874 75.1301L128.031 76.5754L127.87 77.7428L132.077 80.4014L134.332 80.8905L139.611 85.1278L140.8 85.0459L142.015 82.782L144.89 82.9599L146.494 84.8764L148.948 85.5921L155.894 90.9662L163.378 89.5584L163.489 91.4137L164.763 93.9722L164.16 96.6989L169.78 96.7712L170.489 97.8496L172.797 98.4708L177.247 98.2999L180.614 102.301L182.185 101.917L183.642 99.6521L182.924 98.9156L183.42 98.1859L183.043 97.4688L189.562 97.7968L196.544 101.658L195.691 102.578L196.433 102.953L198.225 102.493L198.484 103.182L197.684 104.639L199.316 105.433L200.016 106.559L198.88 110.053L201.228 109.972L200.363 110.847L201.808 111.623L201.977 114.31L201.349 114.935L202.007 115.288L202.132 116.59L203.23 117.061L203.535 116.294L204.697 116.724L204.432 117.758L205.508 118.444L206.672 117.262L207.592 117.54L207.915 119.282L207.116 120.956L207.387 121.524L207.773 121.856L209.236 121.079L210.034 123.314L212.245 123.736L212.597 125.162L208.49 126.063L202.992 124.655L203.012 126.056L202.01 127.871L199.884 128.245L199.549 128.999L197.807 128.692L197.809 130.885L200.109 131.391L200.946 130.944L202.71 133.01L205.578 133.349L205.876 135.188L205.231 137.484L203.893 136.967L202.921 138.28L200.963 137.652L201.154 140.733L202.047 142.198L203.259 142.299L205.46 144.588L205.429 145.682L206.457 145.39L209.187 147.115L210.776 146.717L212.42 147.618L212.853 148.87L215.895 149.342L215.846 150.738L216.699 150.636L218.539 152.032L217.971 153.106L218.838 154.144L216.674 153.884L216.578 155.566L215.975 155.284L216.104 154.202L215.777 155.556L214.732 155.764L213.588 154.589L212.234 155.07L211.602 153.489L210.196 153.621L209.83 155.955L208.818 155.788L208.876 156.288L206.489 156.028L206.24 154.944L204.909 154.059L203.356 154.4L202.641 155.195L202.839 157.06L198.234 159.594L196.332 162.313L195.15 162.563L195.962 163.493L194.692 163.662L194.837 164.322L193.754 165.062L192.904 164.335L192.082 165.117L191.81 164.799L191.252 165.366L191.649 165.594L190.53 165.7L189.726 166.931L188.045 167.615L187.331 167.312L185.046 169.413L183.573 169.499L182.964 170.85L181.85 171.109L181.437 171.67L182.073 173.498L180.941 176.912L181.683 177.13L181.975 181.593L183.026 182.789L182.923 184.347L184.839 185.969L185.61 185.826L185.636 186.846L186.588 187.63L186.12 188.568L187.387 189.38L186.14 192.534L183.104 193.356L182.768 194.804L183.308 196.296L184.167 196.451L184.788 197.692L182.608 199.284L183.359 200.827L181.097 206.048L180.101 206.949L179.725 208.522L177.993 209.595L177.227 211.756L174.256 213.115L169.987 213.187L166.203 210.429L165.901 209.096L164.304 208.582L165.005 206.792L163.334 206.7L161.861 204.988L162.25 204.237L163.68 204.854L163.871 202.182L164.533 201.773L164.944 199.986L164.84 197.428L163.298 197.043L164.148 193.4L163.544 192.969L163.454 191.606L164.421 192.074L166.002 191.718L165.874 190.22L164.827 190.219L164.904 188.76L162.952 188.804L162.974 187.804L161.877 187.017L158.161 188.56L157.85 187.719L155.84 187.733L155.362 186.831L154.476 187.545L154.693 190.283L152.401 189.457L151.366 189.777L151.438 187.986L150.484 187.463L150.186 188.108L149.518 187.995L149.914 184.617L149.761 185.298L149.259 184.895L149.312 185.383L148.639 185.373L149.052 186.118L147.871 185.77L148.347 184.408L148.928 184.435L148.048 183.697L148.537 183.063L147.482 184.092H146.119L143.02 182.228L141.7 182.869L139.888 180.894L140.339 179.669L139.948 177.158L139.59 177.695L137.952 176.847L136.792 177.142L135.152 175.91L133.693 176.067L133.023 174.919L131.455 175.525L131.15 174.917L132.251 174.167L131.812 173.548L131.364 174.265L131.102 173.108L131.877 172.365L130.802 172.09L130.358 171.211L128.717 171.489L129.153 172.876L128.308 172.598L127.657 173.085L128.66 174.053L127.97 175.072L125.578 174.023L126.66 173.938L126.425 173.197L125.3 173.532L123.53 171.955L123.04 172.24L123.089 173.75L122.85 172.162L121.774 172.106L121.098 174.094L121.558 175.279L119.828 177.601L120.142 179.554L119.328 179.724L119.749 179.547L118.665 178.79L117.828 180.909L116.21 178.988L114.278 178.923L114.488 179.621L112.71 179.836L112.179 178.343L111.038 178.847L111.195 179.375L110.677 179.097L109.235 179.554L108.29 179.238L107.939 178.366L109.619 177.524L108.998 176.213L110.269 175.196L110.104 173.516L111.258 172.344L110.481 171.215L109.275 171.309L109.028 173.942L108.216 172.787L105.329 173.085L106.072 173.541L106.07 174.337L107.535 174.773L107.533 175.495L106.126 175.171L104.577 175.735L104.743 174.852L104.079 175.087L102.491 174.13L103.388 173.527L102.297 172.505L102.649 175.16L101.369 174.545L100.818 175.304L99.8389 174.238L98.8761 174.199L99.5644 174.605L99.3975 176.018L98.705 176.038L97.8525 174.844L95.6896 175.621L96.1628 177.154L95.4896 176.633L94.2702 177.364L92.8357 176.499L95.2717 172.837L97.3628 171.902L96.6497 169.701L96.0428 169.876L93.9074 168.232L94.1006 165.081L92.5156 163.754L92.208 164.517L90.7265 164.156L90.5527 165.198L88.6878 166.646L87.5332 166.089L85.7262 166.495L85.0338 168.879L83.4695 168.775L82.6281 170.006L82.3094 169.255L80.7135 169.79L81.4335 172.664L80.7286 173.204L80.9673 174.319L77.7822 172.869L73.5158 173.267L73.6578 172.522L73.2799 172.759L72.5819 171.792L70.3969 174.822L69.55 174.388L69.7762 173.171L68.6989 174.031L68.2396 173.022L67.7775 173.841L67.336 172.026L68.0795 170.794L69.0355 170.674L68.583 170.273L69.5114 168.853L70.4121 168.825L69.4589 168.391L68.2437 169.181L66.8615 168.058L66.4436 168.984L65.8035 168.066L66.2408 166.818L64.7621 166.589L63.7634 167.548L63.7427 168.79L64.5607 168.187L65.2049 169.095L66.0725 168.747L65.7553 170.119L66.2711 170.619L65.8559 171.049L64.1524 169.537L64.3027 171.158L65.3345 172.614L65.0076 173.207L63.762 173.566L63.7358 172.569L63.0627 172.323L62.4281 172.726L63.2834 172.968L63.1358 173.748L62.2116 173.831L61.5895 172.637L61.068 172.918L61.4295 173.706L59.9825 173.927L59.3659 172.875L59.7287 172.22L58.6858 171.313L57.4954 173.051L56.8802 172.892L56.9616 171.505L57.8816 170.252L56.6016 169.533L56.396 168.613L55.4194 169.638L56.0981 169.995L56.1312 171.204L54.76 170.429L52.5516 172.162L52.6675 169.291L53.1241 169.621L53.6124 168.696L54.538 169.07L55.3863 168.35L54.8897 166.279L54.1614 166.861L52.6854 166.453L51.6826 170.143L50.6398 168.806L50.8136 167.882L49.9928 167.952L50.2439 167.402L51.7323 166.841L51.5667 166.207L52.6358 165.07L54.789 164.668L54.2635 165.406L53.1461 165.465L54.1917 166.218L55.6318 165.443L55.1008 163.429L54.2055 163.767L53.4579 163.172L54.3945 162.11L53.8372 160.805L54.5738 160.471L54.2524 159.556L53.851 160.146L53.6634 159.568L52.6234 159.643L52.6716 160.691L51.295 161.15L52.1282 162.523L51.4674 163.634L50.877 163.191L51.7971 162.933L51.3391 162.57L49.2218 162.235L48.5072 161.448L48.3017 162.646L49.179 163.59L50.8495 163.7L48.8342 164.267L49.448 166.007L47.9831 166.181L47.8493 165.355L46.3733 165.059L46.3333 164.031L46.6974 164.55L47.6299 163.75L47.1789 163.144L46.2243 163.265L45.5277 164.467L44.8022 164.128L44.3649 164.927L43.5786 164.812L44.0145 166.214L42.5399 165.859L43.0117 167.025L42.5386 167.666L41.8213 167.744L41.5882 167.113L40.8626 168.1L40.0984 167.742L39.7163 168.239L40.4874 168.817L41.7192 168.072L43.7952 169.2L44.6201 174.34L45.9126 175.501L45.3387 178.585L46.2519 179.244L46.6768 180.58L49.4507 181.887L49.9156 183.366L49.4535 184.004L49.6797 186.897L48.7459 188.304L49.0176 190.055L49.8094 190.433L52.8372 188.95L55.2815 193.489L54.2524 193.885L53.7641 193.367L53.6124 194.449L55.8015 195.258L55.2953 198.044L53.5889 199.708L52.7544 202.189L50.8674 202.594L50.237 203.548L49.3293 201.064L48.9142 201.674L48.5196 201.213L47.5568 201.827L46.6974 201.491L44.0794 197.936L41.9689 196.765L39.9301 199.821L38.3383 200.522L36.7892 198.806L37.799 197.023L35.0829 195.066L35.1615 194.15L33.7214 192.669L34.8525 191.543L35.1284 188.077L33.7394 185.521L33.4111 183.427L32.1062 182.024L32.1517 181.237L36.8334 177.479L36.8403 174.63L38.7921 173.296L40.166 173.351L39.4556 172.562L40.2681 172.065L38.5038 171.229L38.8625 170.507L37.6141 169.602L37.3424 167.941L36.2706 167.524L36.9423 166.702L35.9092 165.481L36.9134 164.642L37.4127 162.917L38.2735 163.124L39.5246 162.188L39.177 160.416L39.7729 159.422L40.5205 159.804L41.4171 158.833L44.158 159.408L44.9511 158.613L46.1057 159.365L46.9264 158.452L50.6274 157.475L50.8039 155.873L48.9404 153.477L51.0688 151.861L51.1198 151.352L50.4439 151.256L50.8026 150.872L52.2647 151.868L51.8233 149.895L52.8648 149.581L52.6827 148.122L54.218 147.038L54.6442 144.218L56.3436 142.774L54.5959 140.926L56.2719 140.416L55.5987 139.11L56.6829 139.046L56.8416 137.859L57.8996 137.903L57.3216 136.803L58.1934 136.137L58.6651 136.627L58.9617 135.352L59.908 135.22L59.5921 134.604L60.1149 134.286L58.4693 133.713L58.7589 131.933L59.6376 131.955L59.9121 131.062L57.6513 130.697L58.0113 129.17L56.8457 127.607L56.1932 127.629L56.0015 126.614L55.6636 126.881L56.4153 125.703L56.0553 123.304L54.4593 124.013L54.7545 122.909L53.4786 122.371L52.3516 122.654L50.8067 120.683L49.5059 120.714L48.7748 119.806L48.252 120.234L48.0327 119.557L46.4064 120.561L43.7152 120.936L40.3922 119.627L39.6735 118.516L38.6307 118.757L37.5217 117.152L35.5216 117.487L34.9091 118.885L33.4345 118.394L32.8952 116.69L33.9187 116.883L34.9477 115.558L33.6111 114.57L33.3035 115.059L30.5916 114.593L30.306 116.159L28.5956 115.82L28.757 117.138L28.0121 117.591L27.5693 115.976L25.7002 116.328L24.4864 115.524L24.2036 116.662L20.2557 115.096L19.2598 115.788L19.1701 116.927L15.9561 118.501L13.5353 118.85L12.8801 118.009L12.389 119.959L12.7463 120.634L11.4455 121.29L11.9076 120.551L10.8772 120.533L11.1834 118.943L10.6992 117.391L17.239 113.925L19.7633 113.458L20.3026 112.335L19.4777 112.05L19.3577 113.063L18.817 113.064L17.9438 111.4L16.6169 112.571L14.5961 111.876L14.8347 110.539L13.556 110.891L12.8925 109.982L15.5602 109.074L15.9741 107.599L17.4031 107.368L17.9342 106.562L16.9672 106.011L17.1024 105.308L15.5851 103.3L16.2334 101.905L15.0912 102.448L12.8594 100.668L10.9724 100.087L10.4896 99.2323L10.9048 98.0371L9.94746 97.5229L9.54329 96.2597L8.1777 95.8191L8.04114 94.478L8.61083 93.7498L7.48661 93.1536L8.38599 91.8041L8.21908 90.3922L7.09487 89.657L7.28247 87.3903L6.46448 86.783L8.29909 85.0486L10.4082 85.0653L10.4054 83.8507L11.7393 84.2064L12.0359 82.6471L13.4925 82.6819L14.0167 81.8328L13.2442 81.4909L13.956 80.6668L12.3352 79.0019L12.04 77.6288L12.3104 76.9089L12.7173 77.2355L12.8345 75.2051L14.1615 74.4908L12.7118 74.3768L12.6249 73.4944L13.4898 73.8293L13.3891 72.9107L14.1284 72.32L11.9945 71.5973L12.7297 71.2388L12.818 70.3716L11.8924 69.3529L12.7725 68.6858L12.2042 66.8694L8.25219 63.7258L6.98451 61.8233L8.20803 60.4349L7.48661 59.2564L7.84112 56.905L6.72794 57.0176L4.98851 54.5369L4.18709 54.2839L4.7761 52.9623L3.89741 51.92L3.74982 51.1598L4.88782 50.6873L3.99122 48.9835L4.68504 47.3186L2.02418 44.0138L2.54284 41.4858L2.1166 40.0669L2.6601 39.454L2.23937 38.4756L2.94564 36.3952L1.96625 35.9213L1.87659 35.0291L2.7401 34.5941L2.13453 33.9006L2.5263 32.8541L0.952393 29.812L1.6683 29.1671L0.973083 27.5759L2.63941 24.0723L1.88073 21.9085L2.90148 21.1608L3.70429 17.3932L6.09894 14.1885L6.3086 12.6431L10.4675 10.678L9.99299 10.2889L10.731 8.62397L12.1669 7.94995L13.7118 4.81052L14.9699 3.84048L15.5961 1.84065L15.1009 1.3834L14.7588 0.712307Z"/>
</mask>
<path d="M14.7588 0.712307L16.8141 0.498291L19.0253 2.91782L25.3981 5.99472L22.7138 10.5058L21.9786 11.2632L21.2089 10.9172L20.3757 12.6474L20.8006 13.3812L19.5826 14.6792L20.0116 15.3421L19.2239 16.4331L19.6667 17.1502L18.7715 18.5427L20.5813 21.4222L20.3799 23.7403L21.4544 24.2559L21.3855 24.8744L22.4379 25.2941L23.7346 24.2059L25.9899 24.092L26.7072 27.1341L25.9857 27.0673L25.8547 27.9206L26.9072 27.9998L27.0313 29.4048L28.4411 29.1797L28.6452 27.8331L29.746 27.5412L31.393 25.0688L32.9641 23.9362L34.058 24.1349L36.9561 21.065L39.2901 21.8572L41.4557 22.8925L42.6034 26.7907L44.8532 28.874L50.0591 31.7271L54.0276 32.3872L52.5033 34.508L51.3088 35.3112L50.7363 34.8221L50.1542 36.6023L49.2466 35.9213L47.99 36.9984L50.4729 38.9718L51.9957 38.8579L53.3393 40.8049L53.3765 42.5282L54.6456 42.5616L55.1642 41.9918L56.7436 43.6136L57.0306 41.8097L60.0294 43.2328L60.2073 45.2215L61.028 45.8191L60.8225 46.7586L62.144 46.5529L64.8835 49.0683L66.4132 49.0905L66.6381 48.493L67.1388 49.5992L67.8437 49.7576L68.1264 52.2828L70.899 52.0368L71.7419 51.0695L72.1598 52.6121L73.9682 51.8575L75.4883 52.5315L76.8167 51.4628L78.6154 51.0945L79.6017 52.0521L78.872 53.9491L79.8114 53.7226L80.0596 52.6483L80.9135 52.665L81.5356 53.5224L80.5231 53.8421L82.2763 54.0575L81.9204 54.5981L82.886 56.3506L84.1992 56.9134L85.5207 56.1963L86.2959 54.6856L85.8683 54.1325L87.2173 53.1458L88.5871 53.1792L91.4149 55.6043L92.4122 55.5209L92.5749 56.4617L94.324 57.4248L95.5489 59.5066L98.2029 59.7776L100.123 62.3181L100.489 61.6037L99.7147 58.5769L101.599 57.832L102.836 59.4358L104.456 59.3495L105.108 61.1548L107.351 61.8636L107.961 63.2228L110.171 64.3693L110.47 63.7022L111.413 64.1025L111.58 65.085L113.452 66.1843L114.556 65.6159L115.061 66.8764L116.359 67.8131L120.137 68.6122L120.775 70.9678L123.314 73.9808L123.33 74.9146L122.777 74.973L123.523 75.5887L123.236 76.0737L124.777 75.7846L124.887 74.6464L126.874 75.1301L128.031 76.5754L127.87 77.7428L132.077 80.4014L134.332 80.8905L139.611 85.1278L140.8 85.0459L142.015 82.782L144.89 82.9599L146.494 84.8764L148.948 85.5921L155.894 90.9662L163.378 89.5584L163.489 91.4137L164.763 93.9722L164.16 96.6989L169.78 96.7712L170.489 97.8496L172.797 98.4708L177.247 98.2999L180.614 102.301L182.185 101.917L183.642 99.6521L182.924 98.9156L183.42 98.1859L183.043 97.4688L189.562 97.7968L196.544 101.658L195.691 102.578L196.433 102.953L198.225 102.493L198.484 103.182L197.684 104.639L199.316 105.433L200.016 106.559L198.88 110.053L201.228 109.972L200.363 110.847L201.808 111.623L201.977 114.31L201.349 114.935L202.007 115.288L202.132 116.59L203.23 117.061L203.535 116.294L204.697 116.724L204.432 117.758L205.508 118.444L206.672 117.262L207.592 117.54L207.915 119.282L207.116 120.956L207.387 121.524L207.773 121.856L209.236 121.079L210.034 123.314L212.245 123.736L212.597 125.162L208.49 126.063L202.992 124.655L203.012 126.056L202.01 127.871L199.884 128.245L199.549 128.999L197.807 128.692L197.809 130.885L200.109 131.391L200.946 130.944L202.71 133.01L205.578 133.349L205.876 135.188L205.231 137.484L203.893 136.967L202.921 138.28L200.963 137.652L201.154 140.733L202.047 142.198L203.259 142.299L205.46 144.588L205.429 145.682L206.457 145.39L209.187 147.115L210.776 146.717L212.42 147.618L212.853 148.87L215.895 149.342L215.846 150.738L216.699 150.636L218.539 152.032L217.971 153.106L218.838 154.144L216.674 153.884L216.578 155.566L215.975 155.284L216.104 154.202L215.777 155.556L214.732 155.764L213.588 154.589L212.234 155.07L211.602 153.489L210.196 153.621L209.83 155.955L208.818 155.788L208.876 156.288L206.489 156.028L206.24 154.944L204.909 154.059L203.356 154.4L202.641 155.195L202.839 157.06L198.234 159.594L196.332 162.313L195.15 162.563L195.962 163.493L194.692 163.662L194.837 164.322L193.754 165.062L192.904 164.335L192.082 165.117L191.81 164.799L191.252 165.366L191.649 165.594L190.53 165.7L189.726 166.931L188.045 167.615L187.331 167.312L185.046 169.413L183.573 169.499L182.964 170.85L181.85 171.109L181.437 171.67L182.073 173.498L180.941 176.912L181.683 177.13L181.975 181.593L183.026 182.789L182.923 184.347L184.839 185.969L185.61 185.826L185.636 186.846L186.588 187.63L186.12 188.568L187.387 189.38L186.14 192.534L183.104 193.356L182.768 194.804L183.308 196.296L184.167 196.451L184.788 197.692L182.608 199.284L183.359 200.827L181.097 206.048L180.101 206.949L179.725 208.522L177.993 209.595L177.227 211.756L174.256 213.115L169.987 213.187L166.203 210.429L165.901 209.096L164.304 208.582L165.005 206.792L163.334 206.7L161.861 204.988L162.25 204.237L163.68 204.854L163.871 202.182L164.533 201.773L164.944 199.986L164.84 197.428L163.298 197.043L164.148 193.4L163.544 192.969L163.454 191.606L164.421 192.074L166.002 191.718L165.874 190.22L164.827 190.219L164.904 188.76L162.952 188.804L162.974 187.804L161.877 187.017L158.161 188.56L157.85 187.719L155.84 187.733L155.362 186.831L154.476 187.545L154.693 190.283L152.401 189.457L151.366 189.777L151.438 187.986L150.484 187.463L150.186 188.108L149.518 187.995L149.914 184.617L149.761 185.298L149.259 184.895L149.312 185.383L148.639 185.373L149.052 186.118L147.871 185.77L148.347 184.408L148.928 184.435L148.048 183.697L148.537 183.063L147.482 184.092H146.119L143.02 182.228L141.7 182.869L139.888 180.894L140.339 179.669L139.948 177.158L139.59 177.695L137.952 176.847L136.792 177.142L135.152 175.91L133.693 176.067L133.023 174.919L131.455 175.525L131.15 174.917L132.251 174.167L131.812 173.548L131.364 174.265L131.102 173.108L131.877 172.365L130.802 172.09L130.358 171.211L128.717 171.489L129.153 172.876L128.308 172.598L127.657 173.085L128.66 174.053L127.97 175.072L125.578 174.023L126.66 173.938L126.425 173.197L125.3 173.532L123.53 171.955L123.04 172.24L123.089 173.75L122.85 172.162L121.774 172.106L121.098 174.094L121.558 175.279L119.828 177.601L120.142 179.554L119.328 179.724L119.749 179.547L118.665 178.79L117.828 180.909L116.21 178.988L114.278 178.923L114.488 179.621L112.71 179.836L112.179 178.343L111.038 178.847L111.195 179.375L110.677 179.097L109.235 179.554L108.29 179.238L107.939 178.366L109.619 177.524L108.998 176.213L110.269 175.196L110.104 173.516L111.258 172.344L110.481 171.215L109.275 171.309L109.028 173.942L108.216 172.787L105.329 173.085L106.072 173.541L106.07 174.337L107.535 174.773L107.533 175.495L106.126 175.171L104.577 175.735L104.743 174.852L104.079 175.087L102.491 174.13L103.388 173.527L102.297 172.505L102.649 175.16L101.369 174.545L100.818 175.304L99.8389 174.238L98.8761 174.199L99.5644 174.605L99.3975 176.018L98.705 176.038L97.8525 174.844L95.6896 175.621L96.1628 177.154L95.4896 176.633L94.2702 177.364L92.8357 176.499L95.2717 172.837L97.3628 171.902L96.6497 169.701L96.0428 169.876L93.9074 168.232L94.1006 165.081L92.5156 163.754L92.208 164.517L90.7265 164.156L90.5527 165.198L88.6878 166.646L87.5332 166.089L85.7262 166.495L85.0338 168.879L83.4695 168.775L82.6281 170.006L82.3094 169.255L80.7135 169.79L81.4335 172.664L80.7286 173.204L80.9673 174.319L77.7822 172.869L73.5158 173.267L73.6578 172.522L73.2799 172.759L72.5819 171.792L70.3969 174.822L69.55 174.388L69.7762 173.171L68.6989 174.031L68.2396 173.022L67.7775 173.841L67.336 172.026L68.0795 170.794L69.0355 170.674L68.583 170.273L69.5114 168.853L70.4121 168.825L69.4589 168.391L68.2437 169.181L66.8615 168.058L66.4436 168.984L65.8035 168.066L66.2408 166.818L64.7621 166.589L63.7634 167.548L63.7427 168.79L64.5607 168.187L65.2049 169.095L66.0725 168.747L65.7553 170.119L66.2711 170.619L65.8559 171.049L64.1524 169.537L64.3027 171.158L65.3345 172.614L65.0076 173.207L63.762 173.566L63.7358 172.569L63.0627 172.323L62.4281 172.726L63.2834 172.968L63.1358 173.748L62.2116 173.831L61.5895 172.637L61.068 172.918L61.4295 173.706L59.9825 173.927L59.3659 172.875L59.7287 172.22L58.6858 171.313L57.4954 173.051L56.8802 172.892L56.9616 171.505L57.8816 170.252L56.6016 169.533L56.396 168.613L55.4194 169.638L56.0981 169.995L56.1312 171.204L54.76 170.429L52.5516 172.162L52.6675 169.291L53.1241 169.621L53.6124 168.696L54.538 169.07L55.3863 168.35L54.8897 166.279L54.1614 166.861L52.6854 166.453L51.6826 170.143L50.6398 168.806L50.8136 167.882L49.9928 167.952L50.2439 167.402L51.7323 166.841L51.5667 166.207L52.6358 165.07L54.789 164.668L54.2635 165.406L53.1461 165.465L54.1917 166.218L55.6318 165.443L55.1008 163.429L54.2055 163.767L53.4579 163.172L54.3945 162.11L53.8372 160.805L54.5738 160.471L54.2524 159.556L53.851 160.146L53.6634 159.568L52.6234 159.643L52.6716 160.691L51.295 161.15L52.1282 162.523L51.4674 163.634L50.877 163.191L51.7971 162.933L51.3391 162.57L49.2218 162.235L48.5072 161.448L48.3017 162.646L49.179 163.59L50.8495 163.7L48.8342 164.267L49.448 166.007L47.9831 166.181L47.8493 165.355L46.3733 165.059L46.3333 164.031L46.6974 164.55L47.6299 163.75L47.1789 163.144L46.2243 163.265L45.5277 164.467L44.8022 164.128L44.3649 164.927L43.5786 164.812L44.0145 166.214L42.5399 165.859L43.0117 167.025L42.5386 167.666L41.8213 167.744L41.5882 167.113L40.8626 168.1L40.0984 167.742L39.7163 168.239L40.4874 168.817L41.7192 168.072L43.7952 169.2L44.6201 174.34L45.9126 175.501L45.3387 178.585L46.2519 179.244L46.6768 180.58L49.4507 181.887L49.9156 183.366L49.4535 184.004L49.6797 186.897L48.7459 188.304L49.0176 190.055L49.8094 190.433L52.8372 188.95L55.2815 193.489L54.2524 193.885L53.7641 193.367L53.6124 194.449L55.8015 195.258L55.2953 198.044L53.5889 199.708L52.7544 202.189L50.8674 202.594L50.237 203.548L49.3293 201.064L48.9142 201.674L48.5196 201.213L47.5568 201.827L46.6974 201.491L44.0794 197.936L41.9689 196.765L39.9301 199.821L38.3383 200.522L36.7892 198.806L37.799 197.023L35.0829 195.066L35.1615 194.15L33.7214 192.669L34.8525 191.543L35.1284 188.077L33.7394 185.521L33.4111 183.427L32.1062 182.024L32.1517 181.237L36.8334 177.479L36.8403 174.63L38.7921 173.296L40.166 173.351L39.4556 172.562L40.2681 172.065L38.5038 171.229L38.8625 170.507L37.6141 169.602L37.3424 167.941L36.2706 167.524L36.9423 166.702L35.9092 165.481L36.9134 164.642L37.4127 162.917L38.2735 163.124L39.5246 162.188L39.177 160.416L39.7729 159.422L40.5205 159.804L41.4171 158.833L44.158 159.408L44.9511 158.613L46.1057 159.365L46.9264 158.452L50.6274 157.475L50.8039 155.873L48.9404 153.477L51.0688 151.861L51.1198 151.352L50.4439 151.256L50.8026 150.872L52.2647 151.868L51.8233 149.895L52.8648 149.581L52.6827 148.122L54.218 147.038L54.6442 144.218L56.3436 142.774L54.5959 140.926L56.2719 140.416L55.5987 139.11L56.6829 139.046L56.8416 137.859L57.8996 137.903L57.3216 136.803L58.1934 136.137L58.6651 136.627L58.9617 135.352L59.908 135.22L59.5921 134.604L60.1149 134.286L58.4693 133.713L58.7589 131.933L59.6376 131.955L59.9121 131.062L57.6513 130.697L58.0113 129.17L56.8457 127.607L56.1932 127.629L56.0015 126.614L55.6636 126.881L56.4153 125.703L56.0553 123.304L54.4593 124.013L54.7545 122.909L53.4786 122.371L52.3516 122.654L50.8067 120.683L49.5059 120.714L48.7748 119.806L48.252 120.234L48.0327 119.557L46.4064 120.561L43.7152 120.936L40.3922 119.627L39.6735 118.516L38.6307 118.757L37.5217 117.152L35.5216 117.487L34.9091 118.885L33.4345 118.394L32.8952 116.69L33.9187 116.883L34.9477 115.558L33.6111 114.57L33.3035 115.059L30.5916 114.593L30.306 116.159L28.5956 115.82L28.757 117.138L28.0121 117.591L27.5693 115.976L25.7002 116.328L24.4864 115.524L24.2036 116.662L20.2557 115.096L19.2598 115.788L19.1701 116.927L15.9561 118.501L13.5353 118.85L12.8801 118.009L12.389 119.959L12.7463 120.634L11.4455 121.29L11.9076 120.551L10.8772 120.533L11.1834 118.943L10.6992 117.391L17.239 113.925L19.7633 113.458L20.3026 112.335L19.4777 112.05L19.3577 113.063L18.817 113.064L17.9438 111.4L16.6169 112.571L14.5961 111.876L14.8347 110.539L13.556 110.891L12.8925 109.982L15.5602 109.074L15.9741 107.599L17.4031 107.368L17.9342 106.562L16.9672 106.011L17.1024 105.308L15.5851 103.3L16.2334 101.905L15.0912 102.448L12.8594 100.668L10.9724 100.087L10.4896 99.2323L10.9048 98.0371L9.94746 97.5229L9.54329 96.2597L8.1777 95.8191L8.04114 94.478L8.61083 93.7498L7.48661 93.1536L8.38599 91.8041L8.21908 90.3922L7.09487 89.657L7.28247 87.3903L6.46448 86.783L8.29909 85.0486L10.4082 85.0653L10.4054 83.8507L11.7393 84.2064L12.0359 82.6471L13.4925 82.6819L14.0167 81.8328L13.2442 81.4909L13.956 80.6668L12.3352 79.0019L12.04 77.6288L12.3104 76.9089L12.7173 77.2355L12.8345 75.2051L14.1615 74.4908L12.7118 74.3768L12.6249 73.4944L13.4898 73.8293L13.3891 72.9107L14.1284 72.32L11.9945 71.5973L12.7297 71.2388L12.818 70.3716L11.8924 69.3529L12.7725 68.6858L12.2042 66.8694L8.25219 63.7258L6.98451 61.8233L8.20803 60.4349L7.48661 59.2564L7.84112 56.905L6.72794 57.0176L4.98851 54.5369L4.18709 54.2839L4.7761 52.9623L3.89741 51.92L3.74982 51.1598L4.88782 50.6873L3.99122 48.9835L4.68504 47.3186L2.02418 44.0138L2.54284 41.4858L2.1166 40.0669L2.6601 39.454L2.23937 38.4756L2.94564 36.3952L1.96625 35.9213L1.87659 35.0291L2.7401 34.5941L2.13453 33.9006L2.5263 32.8541L0.952393 29.812L1.6683 29.1671L0.973083 27.5759L2.63941 24.0723L1.88073 21.9085L2.90148 21.1608L3.70429 17.3932L6.09894 14.1885L6.3086 12.6431L10.4675 10.678L9.99299 10.2889L10.731 8.62397L12.1669 7.94995L13.7118 4.81052L14.9699 3.84048L15.5961 1.84065L15.1009 1.3834L14.7588 0.712307Z" fill="#D0D5DD" stroke="white" stroke-width="1.3794" mask="url(#path-1-inside-1_1159_4055)"/>
<g opacity="0.1">
<rect x="92.9993" y="95" width="28.2793" height="28.2793" rx="14.1396" fill="#236DF8"/>
</g>
<rect x="98.655" y="100.654" width="16.9676" height="16.9676" rx="8.48379" fill="#73C4FF" fill-opacity="0.7"/>
<rect x="104.311" y="106.311" width="5.65586" height="5.65586" rx="2.82793" fill="#236DF8"/>
</svg>
