<svg width="101" height="93" viewBox="0 0 101 93" fill="none" xmlns="http://www.w3.org/2000/svg">
<mask id="path-1-inside-1_1159_4054" fill="white">
<path d="M47.8764 4.69825L49.4158 6.62999L49.0061 8.07256L50.1289 8.86055L50.4779 10.9132L51.6394 12.2765L53.2781 12.6629L54.1802 15.3951L56.7252 15.3409L57.5887 17.5381L59.2081 18.5846L61.1352 17.1448L62.6028 17.224L63.6815 16.4332L65.4968 17.4144L66.9383 17.3755L68.6749 20.3023L72.4021 21.9269L74.1057 24.0963L75.6685 22.9817L76.6272 24.6299L77.561 24.5826L77.9804 25.5096L77.4728 26.8715L76.3389 27.7929L77.161 28.6268L77.3569 30.849L79.9515 31.2367L81.7627 32.6028L82.6938 32.4569L86.3299 35.0404L87.9962 33.9342L92.4227 36.9249L94.5539 39.5474L100.569 41.7932L100.549 42.3338L99.728 42.0002L97.4589 42.791L96.0933 44.6088L96.5154 45.961L93.1579 48.6057L92.7662 50.0385L90.7026 51.6603L88.6073 51.6395L87.1396 55.2945L85.4843 57.022L83.767 56.7468L81.8041 58.5841L82.2731 61.1036L83.3104 62.3002L82.9517 63.7706L82.1145 64.8907L81.0702 65.1714L81.2716 66.2999L79.455 67.6869L79.9116 68.4901L78.1969 68.7736L78.1542 69.8688L79.1225 70.5122L79.2439 71.9923L80.3281 73.1291L79.7612 76.7243L78.3446 76.2087L79.0232 78.8131L77.9142 79.5956L76.4989 78.9688L75.3444 80.107L75.0919 83.2756L74.5788 84.1206L74.0698 83.9649L72.8642 86.2844L73.2173 89.1459L71.8683 90.1326L72.2959 90.6857L71.5207 92.1963L70.1992 92.9135L68.886 92.3506L67.9204 90.5981L68.2763 90.0575L66.5231 89.8421L67.5356 89.5225L66.9135 88.665L66.0596 88.6483L65.8113 89.7226L64.8719 89.9491L65.6016 88.0521L64.6154 87.0946L62.8166 87.4629L61.4883 88.5316L59.9682 87.8576L58.1598 88.6122L57.7418 87.0696L56.899 88.0368L54.1264 88.2828L53.8436 85.7576L53.1388 85.5992L52.638 84.493L52.4132 85.0906L50.8834 85.0684L48.144 82.5529L46.8225 82.7586L47.028 81.8192L46.2073 81.2216L46.0293 79.2328L43.0305 77.8097L42.7436 79.6136L41.1642 77.9918L40.6455 78.5616L39.3765 78.5282L39.3392 76.8049L37.9957 74.8579L36.4728 74.9718L33.9899 72.9984L35.2466 71.9214L36.1542 72.6023L36.7363 70.8221L37.3088 71.3113L38.5033 70.508L40.0276 68.3873L36.059 67.7271L30.8532 64.874L28.6034 62.7908L27.4557 58.8926L25.29 57.8572L22.9561 57.065L20.058 60.135L18.9641 59.9362L17.393 61.0689L15.746 63.5412L14.6452 63.8331L14.4411 65.1797L13.0313 65.4049L12.9072 63.9998L11.8547 63.9207L11.9857 63.0674L12.7072 63.1341L11.9899 60.092L9.73455 60.2059L8.43791 61.2941L7.38543 60.8744L7.4544 60.256L6.37984 59.7404L6.58123 57.4223L4.77146 54.5427L5.66669 53.1502L5.22391 52.4331L6.01154 51.3422L5.58254 50.6793L6.80057 49.3812L6.3757 48.6474L7.20886 46.9172L7.97856 47.2633L8.71379 46.5059L11.3981 41.9947L5.02528 38.9179L2.81408 36.4983L0.758789 36.7123L1.28019 35.8465L4.10935 35.1266L7.57855 33.1226L7.90822 32.3903L7.69578 31.3618L6.49986 31.3882L5.566 30.1986L7.08196 29.4926L6.99644 27.9986L5.67772 27.2551L5.89982 26.4199L4.37557 24.4659L5.99637 22.4049L5.99913 20.6733L7.29438 21.4363L7.47509 19.2349L6.03085 19.2864L5.71222 18.0286L6.55778 17.4394L8.09582 18.2301L7.49715 17.6826L8.33168 16.3887L7.61854 14.5654L8.83793 13.9164L10.1277 11.4343L12.0699 10.6199L13.7872 11.426L14.2411 10.399L15.9101 10.2127L17.644 8.83271L20.0925 8.71602L21.1449 7.48608L21.8484 7.66537L21.9919 6.9149L23.6651 6.82456L24.8555 8.2838L25.4887 7.87519L26.2005 8.4047L26.9508 9.77498L28.8848 9.67498L30.5676 8.6702L31.696 9.16078L32.0781 10.0822L36.3335 9.73057L37.0177 11.6887L38.5378 13.0368L42.1532 12.7658L41.5201 10.6422L39.8165 9.04959L39.5641 7.89748L40.0979 5.43904L42.0098 4.34532L43.6333 0.737549L45.9728 1.81182L47.8764 4.69825Z"/>
</mask>
<path d="M47.8764 4.69825L49.4158 6.62999L49.0061 8.07256L50.1289 8.86055L50.4779 10.9132L51.6394 12.2765L53.2781 12.6629L54.1802 15.3951L56.7252 15.3409L57.5887 17.5381L59.2081 18.5846L61.1352 17.1448L62.6028 17.224L63.6815 16.4332L65.4968 17.4144L66.9383 17.3755L68.6749 20.3023L72.4021 21.9269L74.1057 24.0963L75.6685 22.9817L76.6272 24.6299L77.561 24.5826L77.9804 25.5096L77.4728 26.8715L76.3389 27.7929L77.161 28.6268L77.3569 30.849L79.9515 31.2367L81.7627 32.6028L82.6938 32.4569L86.3299 35.0404L87.9962 33.9342L92.4227 36.9249L94.5539 39.5474L100.569 41.7932L100.549 42.3338L99.728 42.0002L97.4589 42.791L96.0933 44.6088L96.5154 45.961L93.1579 48.6057L92.7662 50.0385L90.7026 51.6603L88.6073 51.6395L87.1396 55.2945L85.4843 57.022L83.767 56.7468L81.8041 58.5841L82.2731 61.1036L83.3104 62.3002L82.9517 63.7706L82.1145 64.8907L81.0702 65.1714L81.2716 66.2999L79.455 67.6869L79.9116 68.4901L78.1969 68.7736L78.1542 69.8688L79.1225 70.5122L79.2439 71.9923L80.3281 73.1291L79.7612 76.7243L78.3446 76.2087L79.0232 78.8131L77.9142 79.5956L76.4989 78.9688L75.3444 80.107L75.0919 83.2756L74.5788 84.1206L74.0698 83.9649L72.8642 86.2844L73.2173 89.1459L71.8683 90.1326L72.2959 90.6857L71.5207 92.1963L70.1992 92.9135L68.886 92.3506L67.9204 90.5981L68.2763 90.0575L66.5231 89.8421L67.5356 89.5225L66.9135 88.665L66.0596 88.6483L65.8113 89.7226L64.8719 89.9491L65.6016 88.0521L64.6154 87.0946L62.8166 87.4629L61.4883 88.5316L59.9682 87.8576L58.1598 88.6122L57.7418 87.0696L56.899 88.0368L54.1264 88.2828L53.8436 85.7576L53.1388 85.5992L52.638 84.493L52.4132 85.0906L50.8834 85.0684L48.144 82.5529L46.8225 82.7586L47.028 81.8192L46.2073 81.2216L46.0293 79.2328L43.0305 77.8097L42.7436 79.6136L41.1642 77.9918L40.6455 78.5616L39.3765 78.5282L39.3392 76.8049L37.9957 74.8579L36.4728 74.9718L33.9899 72.9984L35.2466 71.9214L36.1542 72.6023L36.7363 70.8221L37.3088 71.3113L38.5033 70.508L40.0276 68.3873L36.059 67.7271L30.8532 64.874L28.6034 62.7908L27.4557 58.8926L25.29 57.8572L22.9561 57.065L20.058 60.135L18.9641 59.9362L17.393 61.0689L15.746 63.5412L14.6452 63.8331L14.4411 65.1797L13.0313 65.4049L12.9072 63.9998L11.8547 63.9207L11.9857 63.0674L12.7072 63.1341L11.9899 60.092L9.73455 60.2059L8.43791 61.2941L7.38543 60.8744L7.4544 60.256L6.37984 59.7404L6.58123 57.4223L4.77146 54.5427L5.66669 53.1502L5.22391 52.4331L6.01154 51.3422L5.58254 50.6793L6.80057 49.3812L6.3757 48.6474L7.20886 46.9172L7.97856 47.2633L8.71379 46.5059L11.3981 41.9947L5.02528 38.9179L2.81408 36.4983L0.758789 36.7123L1.28019 35.8465L4.10935 35.1266L7.57855 33.1226L7.90822 32.3903L7.69578 31.3618L6.49986 31.3882L5.566 30.1986L7.08196 29.4926L6.99644 27.9986L5.67772 27.2551L5.89982 26.4199L4.37557 24.4659L5.99637 22.4049L5.99913 20.6733L7.29438 21.4363L7.47509 19.2349L6.03085 19.2864L5.71222 18.0286L6.55778 17.4394L8.09582 18.2301L7.49715 17.6826L8.33168 16.3887L7.61854 14.5654L8.83793 13.9164L10.1277 11.4343L12.0699 10.6199L13.7872 11.426L14.2411 10.399L15.9101 10.2127L17.644 8.83271L20.0925 8.71602L21.1449 7.48608L21.8484 7.66537L21.9919 6.9149L23.6651 6.82456L24.8555 8.2838L25.4887 7.87519L26.2005 8.4047L26.9508 9.77498L28.8848 9.67498L30.5676 8.6702L31.696 9.16078L32.0781 10.0822L36.3335 9.73057L37.0177 11.6887L38.5378 13.0368L42.1532 12.7658L41.5201 10.6422L39.8165 9.04959L39.5641 7.89748L40.0979 5.43904L42.0098 4.34532L43.6333 0.737549L45.9728 1.81182L47.8764 4.69825Z" fill="#D0D5DD" stroke="white" stroke-width="1.3794" mask="url(#path-1-inside-1_1159_4054)"/>
<g opacity="0.1">
<rect x="33.9993" y="29" width="28.2793" height="28.2793" rx="14.1396" fill="#236DF8"/>
</g>
<rect x="39.655" y="34.6542" width="16.9676" height="16.9676" rx="8.48379" fill="#73C4FF" fill-opacity="0.7"/>
<rect x="45.3108" y="40.3115" width="5.65586" height="5.65586" rx="2.82793" fill="#236DF8"/>
</svg>
