<svg width="118" height="182" viewBox="0 0 118 182" fill="none" xmlns="http://www.w3.org/2000/svg">
<mask id="path-1-inside-1_1162_4061" fill="white">
<path d="M77.5035 179.581L78.3174 180.358L78.4609 181.371L77.0428 180.982L77.5035 179.581ZM87.2366 179.349L89.2229 180.947L87.4683 181.007L87.2366 179.349ZM84.0254 178.747L84.8392 179.512L84.3798 180.457L83.5522 179.755L84.0254 178.747ZM78.6443 178.372L80.0968 179.513L79.014 180.704L77.858 179.503L78.2732 177.916L78.6443 178.372ZM85.4213 177.922L86.1758 179.833L84.8447 180.299L85.2764 179.532L84.5647 178.707L85.4213 177.922ZM91.0189 178.282L91.5693 178.908L90.7347 179.026L90.6175 177.47L91.0189 178.282ZM80.2568 177.145L80.2402 179.011L79.1188 178.314L80.2568 177.145ZM91.561 176.285L91.7431 177.578L92.368 178.1L92.8397 179.424L92.0079 179.521L92.0038 178.707L91.2258 177.99L90.5885 176.439L91.561 176.285ZM86.3731 176.558L86.1455 177.855L85.0199 177.184L86.3731 176.558ZM72.1142 176.265L73.1253 176.817L73.4716 178.095L72.2356 179.322L72.1142 176.265ZM76.2428 176.171L76.7228 177.302L76.0579 178.765L75.6469 177.167L76.2428 176.171ZM69.0368 175.804L69.3858 176.446L69.0519 177.016L69.5044 177.513L69.5913 178.251L69.2533 179.521L68.3678 176.85L69.0368 175.804ZM93.7184 175.783L94.7516 178.205L93.4977 179.028L91.979 177.081L92.2907 176.311L93.7184 175.783ZM78.985 175.929L79.7547 175.758L80.1878 176.74L78.8553 178.077L78.1118 176.357L78.985 175.929ZM88.6312 175.053L90.2837 176.61L89.7223 178.571L88.3415 176.635L88.6312 175.053ZM75.0385 175.488L75.5075 176.4L75.0054 177.748L75.6069 178.722L74.6441 179.712L74.0978 177.059L74.7861 175.943L74.0633 175.473L74.5392 174.749L75.0385 175.488ZM69.4133 174.909L70.841 175.148L71.8094 177.32L71.4011 179.453L71.9707 180.187L71.1514 180.844L70.1679 180.566L69.4133 174.909ZM90.0961 174.647L91.2189 175.898L89.9747 175.647L90.0961 174.647ZM73.8578 174.692L73.6798 175.77L74.2164 176.366L73.5446 176.886L73.2329 174.931L73.8578 174.692ZM92.3983 174.628L93.4825 175.47L92.7707 175.854L92.3983 174.628ZM87.2393 174.669L88.1194 174.637L87.3649 176.245L87.9594 178.427L87.5111 178.733L86.4917 178.366L86.6683 176.15L85.5054 176.355L86.1193 175.059L87.2393 174.669ZM79.9451 174.04L81.0334 175.538L80.6665 176.58L79.7754 174.749L79.9451 174.04ZM91.3969 173.888L92.4521 175.663L92.1321 175.962L90.5788 174.322L91.3969 173.888ZM80.7382 173.651L81.0114 174.956L80.5037 174.521L80.2127 173.854L80.7382 173.651ZM76.658 173.692L76.6235 175.303L75.6744 175.905L75.7986 174.344L76.658 173.692ZM83.8115 173.117L85.0557 174.618L84.8668 175.478L85.264 175.666L85.1564 176.689L84.1826 176.89L84.7302 177.759L82.9701 177.146L83.1991 175.096L83.8115 173.117ZM78.8567 173.027L79.6554 173.729L79.6637 175.356L78.1325 175.866L77.6911 174.257L78.8567 173.027ZM75.3117 173.002L75.9159 173.351L75.3158 175.192L74.6109 173.844L75.3117 173.002ZM91.9955 172.984L92.4838 172.974L92.6701 174.436L91.7252 173.656L91.9955 172.984ZM87.0435 173.221L87.1069 174.386L85.9675 174.904L86.8586 172.634L87.0435 173.221ZM90.3154 171.875L91.3334 172.707L90.9872 173.715L89.565 174.279L89.1981 173.02L90.3154 171.875ZM80.2333 171.788L80.6596 172.404L80.5479 173.376L79.7671 172.816L80.2333 171.788ZM72.7363 171.955L73.3833 173.541L74.1033 173.744L74.0164 174.359L73.0329 174.606L72.8094 175.717L71.7445 175.452L71.1956 173.302L72.7363 171.955ZM87.8532 171.315L88.4615 171.737L89.4574 175.321L87.4973 173.692L87.8532 171.315ZM67.0863 171.01L68.1126 172.974L68.0602 175.142L67.2725 177.099L67.5994 178.017L66.2835 178.769L64.3358 178.044L64.1923 177.24L65.2351 173.966L67.0863 171.01ZM85.9675 171.652L86.9593 170.545L87.4766 171.109L86.0213 173.202L85.7951 172.085L85.9675 171.652ZM91.4024 170.434L92.8425 171.297L92.4742 172.585L90.7458 171.968L91.4024 170.434ZM81.0831 170.301L82.0018 171.23L81.581 173.823L80.472 171.362L81.0831 170.301ZM79.3699 170.31L79.7409 170.907L79.1588 172.574L78.6843 171.868L79.3699 170.31ZM76.0248 170.079L77.0525 170.613L77.2856 171.591L76.0704 172.872L74.7778 172.827L75.3862 170.417L76.0248 170.079ZM83.7881 170.24L84.7399 170.353L85.671 171.495L85.013 173.936L83.2474 172.162L83.7881 170.24ZM81.6127 169.557L82.4059 169.869L81.8266 170.616L81.6127 169.557ZM87.289 169.673L89.5581 169.352L91.0506 170.197L90.6658 170.87L89.2436 171.998L87.289 169.673ZM84.0267 169.235L86.2172 169.616L86.4669 170.716L85.9372 171.33L85.3868 170.197L83.8915 169.944L84.0267 169.235ZM84.6557 167.744L84.8088 168.521L85.7082 168.7L85.9924 169.108L84.5661 169.005L84.0295 167.932L84.6557 167.744ZM82.1907 166.513L83.8005 167.092L82.7149 168.895L81.2858 168.421L82.1907 166.513ZM67.2146 166.289L65.6586 169.21L64.4944 169.869L65.249 167.261L67.2146 166.289ZM86.602 166.506L89.1926 166.748L89.027 169.069L87.8435 169.351L85.042 168.092L85.4392 166.731L86.602 166.506ZM93.1984 165.6L94.2605 167.521L93.8356 169.156L92.9514 169.418L91.4189 166.464L91.5789 165.393L93.1984 165.6ZM88.2711 164.649L88.747 166.071L86.14 165.681L88.2711 164.649ZM87.4325 163.881L87.8201 164.38L85.9882 164.901L85.6972 165.603L85.0088 165.4L85.7634 163.775L86.8076 163.38L87.4325 163.881ZM87.8642 161.144L89.5747 164.296L88.3194 164.374L87.1193 163.148L88.3387 162.665L87.369 160.993L87.8642 161.144ZM90.7196 161.403L91.5652 162.467L90.9872 164.249L89.8298 165.097L89.8092 166.356L90.4506 167.112L90.1251 165.393L90.9582 165.335L91.2134 167.493L92.6245 169.555L92.3707 170.168L90.1664 169.103L89.4864 167.286L89.1609 165.073L90.0064 164.049L88.9429 161.814L89.6878 162.081L90.7196 161.403ZM92.0645 160.894L93.466 163.036L93.0949 165.073L91.0741 164.854L91.9196 162.805L91.2189 161.074L92.0645 160.894ZM83.166 160.905L85.9206 161.823L82.8625 164.573L84.3854 166.143L84.1178 166.828L82.2321 166.167L81.4459 163.797L83.166 160.905ZM87.7304 162.435L85.5868 163.64L84.475 165.334L84.0046 165.291L83.4281 164.652L86.591 161.686L87.1952 161.556L87.7304 162.435ZM90.492 160.08L90.8989 160.955L90.0285 161.586L89.8243 161.014L89.8836 160.344L90.492 160.08ZM86.5965 158.263L86.9745 159.574L86.1882 160.058L86.8724 161.275L85.9455 161.471L84.7523 160.627L84.8737 159.888L86.5965 158.263ZM87.4228 156.315L88.8767 156.397L89.4409 157.563L90.1871 157.771L90.4064 159.65L89.2215 160.145L89.5319 161.643L86.5952 160.134L87.2407 159.775L86.809 156.997L87.4228 156.315ZM91.5665 155.166L91.5348 156.951L92.6811 157.821L91.8314 158.179L93.9405 160.922L93.9901 162.515L94.786 162.276L93.7943 163.108L92.5763 160.697L91.2134 160.566L90.7072 159.062L91.2024 154.596L91.5665 155.166ZM88.9401 150.377L88.8988 152.572L89.7457 154.572L88.7746 155.293L88.0573 151.31L88.9401 150.377ZM90.1085 149.626L90.852 149.964L91.9679 153.667L90.8382 154.283L90.332 157.435L89.3319 156.625L89.3291 155.325L90.0837 154.717L89.2864 152.503L89.3291 149.919L90.1085 149.626ZM63.6226 0.959883L65.2958 1.54636L65.6117 3.47672L67.078 4.27719L68.7816 3.64765L69.8465 4.18271L71.9239 3.89502L72.4825 4.66494L75.6055 5.42096L78.4346 3.1932L78.1698 2.28153L79.2747 1.93687L81.0086 1.9661L82.0886 2.7944L82.8956 2.21487L84.0543 3.57126L84.8378 3.2558L88.2532 4.53991L88.398 9.64584L89.6698 8.19633L90.6713 9.10522L90.2726 9.94322L90.9237 10.5367L92.7294 10.0127L93.3515 11.2009L94.6178 11.515L94.9557 13.3856L95.793 14.3015L99.3891 14.0166L102.9 12.4128L103.3 13.2355L104.981 13.4662L105.271 14.3612L108.147 14.061L109.964 15.3132L110.626 15.1826L110.907 15.7468L109.722 16.8947L110.264 17.1824L111.028 17.2073L111.466 16.4972L112.984 17.0823L113.858 16.6237L114.371 17.8188L115.318 17.3185L116.756 17.6827L117.316 19.4407L116.758 20.2857L117.35 21.5531L116.902 21.7588L116.633 24.6731L117.152 25.575L115.901 27.6235L116.465 27.4205L116.767 28.0112L114.593 29.0188L114.56 29.7414L113.684 30.0458L113.918 31.0839L112.74 30.5559L113.307 31.6732L112.953 32.0817L112.364 31.7107L113.055 32.7322L112.146 33.409L113.15 33.5688L112.077 34.3178L113.212 34.7723L112.768 35.0614L112.204 34.9863L111.544 33.9231L111.455 33.3645L110.424 33.0754L111.089 34.7542L109.903 34.6765L109.729 35.4714L109.186 35.3533L110.292 36.5818L109.242 37.1613L109.714 37.563L110.282 36.9654L110.86 38.3635L108.805 39.6309L108.773 41.4348L107.71 41.3597L107.675 40.2368L104.676 40.1341L104.417 38.9417L103.518 40.1883L102.191 40.0716L100.188 38.8305L100.247 38.2858L99.5671 38.3511L99.8746 37.4575L98.6608 36.4583L96.7034 35.9399L96.073 34.6072L96.2551 32.8242L95.1447 31.3093L96.1848 30.0683L94.6454 30.0335L95.1102 29.4818L94.5212 28.6049L94.7157 27.5347L93.1997 27.5764L90.9858 25.4696L90.612 26.5675L90.1016 26.3368L89.4519 27.1206L89.7016 28.4812L90.9637 28.6145L91.1017 28.987L91.7665 29.0537L92.2355 29.814L91.7803 30.5852L92.9776 31.2051L93.8963 30.9341L94.0287 32.1807L91.161 32.624L90.1333 31.1161L88.7898 31.0105L88.2091 31.4663L88.6974 32.7115L87.5911 32.8588L86.7952 32.0389L86.8641 30.7145L86.2089 30.3114L85.1302 30.7172L84.773 29.0176L83.4791 29.6263L82.8266 28.1434L83.4294 27.8808L81.1741 26.3632L81.0638 25.2111L80.3272 25.1875L80.3796 25.9115L79.2278 25.6711L79.3409 24.6343L78.3464 24.8665L77.1739 22.9403L75.7117 22.7624L75.1323 19.937L74.0399 21.2503L72.8122 24.9999L73.415 26.0283L73.7529 24.6955L77.0925 25.5349L78.2926 28.8064L77.2014 29.1496L76.3614 28.3575L75.7903 29.5429L74.8909 29.757L75.1558 30.2239L73.295 31.3343L73.3185 33.3216L70.3527 34.3111L68.3498 35.7161L67.7884 37.8981L68.4906 38.1385L68.1388 39.3545L68.543 39.6352L67.2987 40.0299L65.6462 43.2263L66.2697 43.9629L66.5235 46.9508L67.5222 47.686L68.5209 46.8827L69.1651 47.3108L70.9362 46.5812L70.9886 47.4873L74.073 49.6525L74.8992 51.0408L76.3311 51.3244L76.0331 53.3631L77.5808 53.8662L77.4815 54.6208L79.8334 56.2969L80.7396 56.0509L81.9066 57.2099L83.3218 57.4351L83.675 56.5664L85.3496 56.7179L85.1702 55.7882L86.5427 55.8383L87.3718 57.4462L86.7304 59.4141L87.5414 59.9324L87.5042 60.8803L88.8022 62.1574L89.3167 61.7405L89.8685 62.7633L92.3417 63.1205L90.7651 64.1809L90.8285 65.4497L90.1347 65.4971L90.4975 66.588L89.794 67.1286L87.5387 65.7194L86.351 66.9646L85.4613 66.3656L84.8571 66.7881L83.6212 65.7722L80.9603 65.8834L79.4802 66.7923L77.5711 65.7055L76.0166 66.1975L76.5021 67.9332L75.9283 68.4363L76.2193 69.9387L75.7476 70.867L76.2455 71.3326L74.6178 73.4547L74.7351 74.2024L73.0081 74.415L72.5639 75.3197L73.1874 75.909L72.5294 76.7484L71.1514 75.795L70.7583 76.4426L70.7514 75.0793L69.7237 73.7646L67.1732 74.5081L68.2119 76.9054L67.4022 77.2487L67.0711 78.6801L66.6766 78.1604L66.1994 79.5056L65.1786 79.8239L65.0103 81.3554L63.4461 83.0967L67.4091 88.2207L68.9168 89.6535L71.0866 90.3484L72.7556 92.1134L76.0883 92.3093L78.4071 93.353L79.1671 94.8664L79.545 93.9089L80.0692 93.9311L81.3259 94.5621L83.4253 94.4175L84.355 95.5432L84.2764 98.0128L83.3384 99.0079L83.6474 100.5L83.1991 100.676L83.3508 101.262L84.0916 101.23L84.1371 104.445L85.0475 104.009L85.402 104.75L84.3619 104.96L84.2626 107.021L83.4129 107.025L82.159 108.444L79.7727 108.707L80.5162 110.065L79.2981 111.06L79.8527 111.692L79.3588 115.587L80.2472 115.761L79.9133 116.892L81.7645 116.662L82.177 118.409L84.5937 120.678L86.1993 120.233L85.9813 121.922L85.2406 121.876L85.013 122.626L85.1551 124.43L84.3233 124.918L84.6861 126.067L83.2791 126.488L83.9412 127.867L86.1469 129.036L86.6489 129.005L86.7579 127.921L87.7649 128.752L89.5181 128.583L89.6823 129.265L91.8631 129.139L91.4948 130.114L90.9058 129.845L89.7291 131.851L88.2629 132.796L88.3594 135.679L87.5897 135.738L88.2022 136.143L88.0146 137.224L88.9939 137.37L89.5278 138.372L89.3954 139.667L90.4561 139.666L91.0768 140.758L90.8148 142.277L89.6823 143.297L90.8409 145.525L90.0671 147.779L90.7927 148.029L90.2119 149.309L88.2284 150.064L87.4752 151.254L87.9166 152.089L87.5704 154.995L88.4408 156.027L86.7841 155.767L86.2324 158.14L84.5509 159.681L84.3992 160.689L82.8266 160.57L81.0196 163.728L81.5217 165.711L80.4251 167.914L80.6554 169.837L79.8278 170.564L79.6678 170.018L78.745 170.122L78.3836 171.705L77.4084 170.895L78.3105 169.302L75.2565 170.037L74.6137 170.702L74.4164 173.391L73.6454 173.426L73.3432 171.577L72.1942 171.884L70.6121 173.123L71.0107 174.738L69.4078 174.468L67.8505 170.885L68.2519 169.43L67.5719 168.399L69.1347 166.423L69.601 164.776L68.9981 161.913L67.9153 160.915L65.1469 160.507L66.1662 157.609L64.5537 160.254L62.6971 159.453L61.9411 158.234L61.5853 154.436L60.9204 153.533L59.7769 153.329L61.4666 155.68L61.4018 158.999L63.384 160.837L67.0491 161.359L68.5885 164.031L64.9317 166.717L64.6668 166.805L62.5674 171.561L61.0914 173.344L59.9562 173.562L57.0649 176.63L56.0139 176.485L54.1765 177.798L48.1789 179.317L47.5043 178.188L47.8561 176.251L47.0505 175.57L47.0712 174.578L44.9483 174.604L44.4283 173.805L41.8377 172.928L41.0418 168.549L39.0969 167.956L38.8334 169.293L36.963 169.999L36.9947 171.481L35.1339 171.327L34.2014 170.012L35.2525 167.464L34.7697 165.838L33.0261 164.526L29.4094 164.159L28.2065 162.322L26.045 162.648L26.2561 160.407L27.5348 160.529L27.7941 160.452L28.4907 160.456L28.7721 159.696L28.83 158.886L28.9597 159.343L30.9612 159.256L30.9764 157.942L29.3307 156.989L29.757 154.754L27.3982 153.841L26.9113 152.262L28.1776 152.299L28.4479 151.537L27.3306 149.233L24.2035 149.127L23.2269 146.07L20.9564 144.588L20.0129 145.189L17.4003 142.836L17.8817 140.201L18.7548 139.067L17.8817 138.226L18.9673 137.408L19.3756 137.884L20.3522 137.569L20.9853 136.219L20.1757 136.879L19.7453 136.136L17.4031 135.983L16.734 136.629L13.9973 135.404L11.5199 136.075L9.71705 134.535L9.32804 133.208L6.77063 132.404L6.45201 131.305L2.93039 131.747L1.27096 129.708L0.521949 129.683L0.371582 127.543L1.86275 125.634L1.52476 124.337L2.37447 124.156L1.42545 122.915L1.51651 121.016L3.76494 121.508L6.74857 120.276L5.6947 118.446L6.73754 117.43L9.5653 117.937L9.58736 120.925L11.7654 121.464L12.2786 121.031L11.8717 122.104L12.4069 122.611L13.4263 121.931L14.047 122.597L14.4594 122.336L14.0511 121.849L16.1257 120.621L15.5988 120.186L15.7216 118.714L16.3837 117.411L18.079 116.628L18.0859 115.981L20.6502 116.001L22.4682 114.669L25.4201 113.931L26.5126 113.954L26.6988 114.466L28.2562 114.157L29.0562 111.827L28.2796 109.604L29.0852 110.239L30.5432 109.2L30.6591 108.623L31.2302 108.069L32.4247 109.179L33.3062 108.531L37.8471 110.755L38.5575 110.776L39.0679 109.98L38.043 108.481L39.9121 108.883L39.7079 109.308L40.5742 109.627L41.2708 109.772L41.4295 107.214L42.0709 108.291L42.7675 107.481L42.6888 105.673L41.8129 105.342L41.1329 102.964L43.86 103.287L43.3703 104.129L43.7317 104.396L44.5621 103.977L47.4878 104.857L46.7912 104.005L48.2023 103.837L49.0051 103.007L48.4478 102.621L48.5168 100.618L50.9018 101.569L50.7004 100.888L51.8094 100.183L50.7059 99.3383L54.1765 99.5231L54.2634 98.371L52.6799 97.565L52.6233 96.5838L53.9406 96.4587L54.7765 95.0106L56.1035 94.6437L57.6553 91.3723L56.9257 91.1207L58.0278 88.5817L57.5588 88.0661L57.2263 88.6887L57.5491 86.9681L56.4828 85.8036L58.7575 86.7806L59.8872 86.4095L60.5411 85.4186L59.4665 84.8808L60.2996 84.8224L59.8086 84.3749L60.6418 83.359L59.8679 82.8657L60.2776 81.3536L58.5147 80.8242L57.8898 79.9389L58.4513 79.2426L58.385 80.0251L58.941 79.9917L59.5796 79.055L59.3203 78.1211L60.21 78.0724L59.9369 77.1663L62.3743 75.7793L62.1757 74.7217L59.5906 71.5795L56.6898 69.5602L57.0084 65.4285L58.425 66.1081L58.025 64.9866L58.9975 63.5968L56.9036 61.8471L57.0443 60.5727L56.3766 60.3893L56.1849 59.5221L56.8277 58.2533L57.6167 58.5882L58.3423 57.614L59.1975 57.5876L59.6527 55.9658L60.2238 56.341L61.0045 55.3182L62.737 55.6837L62.755 56.3952L63.2626 56.6704L63.3564 56.1465L63.9358 56.9233L65.1717 57.104L65.2421 56.3535L64.1716 55.3015L63.7468 53.6908L64.7068 52.2177L64.1661 52.0898L64.5413 50.3637L62.0115 49.2686L61.1852 47.7691L60.2059 47.8192L60.5534 46.3711L59.77 45.9277L60.5645 45.1828L58.0223 44.5491L57.4719 43.2413L58.2278 42.4909L58.5795 38.9818L60.6238 37.4837L61.1494 38.1938L61.3452 37.6949L62.2184 37.7949L62.1011 35.5185L63.5164 35.8771L64.2199 34.6902L65.1551 34.7541L67.3111 32.2679L69.3265 31.3367L71.568 29.0047L70.8659 28.125L70.001 28.3126L69.7941 27.7123L70.8755 26.8145L69.7527 25.9945L69.6727 25.0537L68.7347 25.1912L68.3084 24.5909L69.8782 23.24L69.8162 22.6049L67.9981 23.0774L67.3373 23.9307L66.2035 23.1344L66.2063 23.122L66.1828 23.0122L67.8464 19.8769L68.6395 15.5006L68.2229 12.4599L67.1498 11.3842L67.4298 10.6685L66.6904 9.70401L67.1084 8.56305L65.8821 7.95432L65.4338 6.94538L64.3027 6.9051L63.824 5.24576L62.9716 4.66624L63.7744 2.53713L63.6226 0.959883Z"/>
</mask>
<path d="M77.5035 179.581L78.3174 180.358L78.4609 181.371L77.0428 180.982L77.5035 179.581ZM87.2366 179.349L89.2229 180.947L87.4683 181.007L87.2366 179.349ZM84.0254 178.747L84.8392 179.512L84.3798 180.457L83.5522 179.755L84.0254 178.747ZM78.6443 178.372L80.0968 179.513L79.014 180.704L77.858 179.503L78.2732 177.916L78.6443 178.372ZM85.4213 177.922L86.1758 179.833L84.8447 180.299L85.2764 179.532L84.5647 178.707L85.4213 177.922ZM91.0189 178.282L91.5693 178.908L90.7347 179.026L90.6175 177.47L91.0189 178.282ZM80.2568 177.145L80.2402 179.011L79.1188 178.314L80.2568 177.145ZM91.561 176.285L91.7431 177.578L92.368 178.1L92.8397 179.424L92.0079 179.521L92.0038 178.707L91.2258 177.99L90.5885 176.439L91.561 176.285ZM86.3731 176.558L86.1455 177.855L85.0199 177.184L86.3731 176.558ZM72.1142 176.265L73.1253 176.817L73.4716 178.095L72.2356 179.322L72.1142 176.265ZM76.2428 176.171L76.7228 177.302L76.0579 178.765L75.6469 177.167L76.2428 176.171ZM69.0368 175.804L69.3858 176.446L69.0519 177.016L69.5044 177.513L69.5913 178.251L69.2533 179.521L68.3678 176.85L69.0368 175.804ZM93.7184 175.783L94.7516 178.205L93.4977 179.028L91.979 177.081L92.2907 176.311L93.7184 175.783ZM78.985 175.929L79.7547 175.758L80.1878 176.74L78.8553 178.077L78.1118 176.357L78.985 175.929ZM88.6312 175.053L90.2837 176.61L89.7223 178.571L88.3415 176.635L88.6312 175.053ZM75.0385 175.488L75.5075 176.4L75.0054 177.748L75.6069 178.722L74.6441 179.712L74.0978 177.059L74.7861 175.943L74.0633 175.473L74.5392 174.749L75.0385 175.488ZM69.4133 174.909L70.841 175.148L71.8094 177.32L71.4011 179.453L71.9707 180.187L71.1514 180.844L70.1679 180.566L69.4133 174.909ZM90.0961 174.647L91.2189 175.898L89.9747 175.647L90.0961 174.647ZM73.8578 174.692L73.6798 175.77L74.2164 176.366L73.5446 176.886L73.2329 174.931L73.8578 174.692ZM92.3983 174.628L93.4825 175.47L92.7707 175.854L92.3983 174.628ZM87.2393 174.669L88.1194 174.637L87.3649 176.245L87.9594 178.427L87.5111 178.733L86.4917 178.366L86.6683 176.15L85.5054 176.355L86.1193 175.059L87.2393 174.669ZM79.9451 174.04L81.0334 175.538L80.6665 176.58L79.7754 174.749L79.9451 174.04ZM91.3969 173.888L92.4521 175.663L92.1321 175.962L90.5788 174.322L91.3969 173.888ZM80.7382 173.651L81.0114 174.956L80.5037 174.521L80.2127 173.854L80.7382 173.651ZM76.658 173.692L76.6235 175.303L75.6744 175.905L75.7986 174.344L76.658 173.692ZM83.8115 173.117L85.0557 174.618L84.8668 175.478L85.264 175.666L85.1564 176.689L84.1826 176.89L84.7302 177.759L82.9701 177.146L83.1991 175.096L83.8115 173.117ZM78.8567 173.027L79.6554 173.729L79.6637 175.356L78.1325 175.866L77.6911 174.257L78.8567 173.027ZM75.3117 173.002L75.9159 173.351L75.3158 175.192L74.6109 173.844L75.3117 173.002ZM91.9955 172.984L92.4838 172.974L92.6701 174.436L91.7252 173.656L91.9955 172.984ZM87.0435 173.221L87.1069 174.386L85.9675 174.904L86.8586 172.634L87.0435 173.221ZM90.3154 171.875L91.3334 172.707L90.9872 173.715L89.565 174.279L89.1981 173.02L90.3154 171.875ZM80.2333 171.788L80.6596 172.404L80.5479 173.376L79.7671 172.816L80.2333 171.788ZM72.7363 171.955L73.3833 173.541L74.1033 173.744L74.0164 174.359L73.0329 174.606L72.8094 175.717L71.7445 175.452L71.1956 173.302L72.7363 171.955ZM87.8532 171.315L88.4615 171.737L89.4574 175.321L87.4973 173.692L87.8532 171.315ZM67.0863 171.01L68.1126 172.974L68.0602 175.142L67.2725 177.099L67.5994 178.017L66.2835 178.769L64.3358 178.044L64.1923 177.24L65.2351 173.966L67.0863 171.01ZM85.9675 171.652L86.9593 170.545L87.4766 171.109L86.0213 173.202L85.7951 172.085L85.9675 171.652ZM91.4024 170.434L92.8425 171.297L92.4742 172.585L90.7458 171.968L91.4024 170.434ZM81.0831 170.301L82.0018 171.23L81.581 173.823L80.472 171.362L81.0831 170.301ZM79.3699 170.31L79.7409 170.907L79.1588 172.574L78.6843 171.868L79.3699 170.31ZM76.0248 170.079L77.0525 170.613L77.2856 171.591L76.0704 172.872L74.7778 172.827L75.3862 170.417L76.0248 170.079ZM83.7881 170.24L84.7399 170.353L85.671 171.495L85.013 173.936L83.2474 172.162L83.7881 170.24ZM81.6127 169.557L82.4059 169.869L81.8266 170.616L81.6127 169.557ZM87.289 169.673L89.5581 169.352L91.0506 170.197L90.6658 170.87L89.2436 171.998L87.289 169.673ZM84.0267 169.235L86.2172 169.616L86.4669 170.716L85.9372 171.33L85.3868 170.197L83.8915 169.944L84.0267 169.235ZM84.6557 167.744L84.8088 168.521L85.7082 168.7L85.9924 169.108L84.5661 169.005L84.0295 167.932L84.6557 167.744ZM82.1907 166.513L83.8005 167.092L82.7149 168.895L81.2858 168.421L82.1907 166.513ZM67.2146 166.289L65.6586 169.21L64.4944 169.869L65.249 167.261L67.2146 166.289ZM86.602 166.506L89.1926 166.748L89.027 169.069L87.8435 169.351L85.042 168.092L85.4392 166.731L86.602 166.506ZM93.1984 165.6L94.2605 167.521L93.8356 169.156L92.9514 169.418L91.4189 166.464L91.5789 165.393L93.1984 165.6ZM88.2711 164.649L88.747 166.071L86.14 165.681L88.2711 164.649ZM87.4325 163.881L87.8201 164.38L85.9882 164.901L85.6972 165.603L85.0088 165.4L85.7634 163.775L86.8076 163.38L87.4325 163.881ZM87.8642 161.144L89.5747 164.296L88.3194 164.374L87.1193 163.148L88.3387 162.665L87.369 160.993L87.8642 161.144ZM90.7196 161.403L91.5652 162.467L90.9872 164.249L89.8298 165.097L89.8092 166.356L90.4506 167.112L90.1251 165.393L90.9582 165.335L91.2134 167.493L92.6245 169.555L92.3707 170.168L90.1664 169.103L89.4864 167.286L89.1609 165.073L90.0064 164.049L88.9429 161.814L89.6878 162.081L90.7196 161.403ZM92.0645 160.894L93.466 163.036L93.0949 165.073L91.0741 164.854L91.9196 162.805L91.2189 161.074L92.0645 160.894ZM83.166 160.905L85.9206 161.823L82.8625 164.573L84.3854 166.143L84.1178 166.828L82.2321 166.167L81.4459 163.797L83.166 160.905ZM87.7304 162.435L85.5868 163.64L84.475 165.334L84.0046 165.291L83.4281 164.652L86.591 161.686L87.1952 161.556L87.7304 162.435ZM90.492 160.08L90.8989 160.955L90.0285 161.586L89.8243 161.014L89.8836 160.344L90.492 160.08ZM86.5965 158.263L86.9745 159.574L86.1882 160.058L86.8724 161.275L85.9455 161.471L84.7523 160.627L84.8737 159.888L86.5965 158.263ZM87.4228 156.315L88.8767 156.397L89.4409 157.563L90.1871 157.771L90.4064 159.65L89.2215 160.145L89.5319 161.643L86.5952 160.134L87.2407 159.775L86.809 156.997L87.4228 156.315ZM91.5665 155.166L91.5348 156.951L92.6811 157.821L91.8314 158.179L93.9405 160.922L93.9901 162.515L94.786 162.276L93.7943 163.108L92.5763 160.697L91.2134 160.566L90.7072 159.062L91.2024 154.596L91.5665 155.166ZM88.9401 150.377L88.8988 152.572L89.7457 154.572L88.7746 155.293L88.0573 151.31L88.9401 150.377ZM90.1085 149.626L90.852 149.964L91.9679 153.667L90.8382 154.283L90.332 157.435L89.3319 156.625L89.3291 155.325L90.0837 154.717L89.2864 152.503L89.3291 149.919L90.1085 149.626ZM63.6226 0.959883L65.2958 1.54636L65.6117 3.47672L67.078 4.27719L68.7816 3.64765L69.8465 4.18271L71.9239 3.89502L72.4825 4.66494L75.6055 5.42096L78.4346 3.1932L78.1698 2.28153L79.2747 1.93687L81.0086 1.9661L82.0886 2.7944L82.8956 2.21487L84.0543 3.57126L84.8378 3.2558L88.2532 4.53991L88.398 9.64584L89.6698 8.19633L90.6713 9.10522L90.2726 9.94322L90.9237 10.5367L92.7294 10.0127L93.3515 11.2009L94.6178 11.515L94.9557 13.3856L95.793 14.3015L99.3891 14.0166L102.9 12.4128L103.3 13.2355L104.981 13.4662L105.271 14.3612L108.147 14.061L109.964 15.3132L110.626 15.1826L110.907 15.7468L109.722 16.8947L110.264 17.1824L111.028 17.2073L111.466 16.4972L112.984 17.0823L113.858 16.6237L114.371 17.8188L115.318 17.3185L116.756 17.6827L117.316 19.4407L116.758 20.2857L117.35 21.5531L116.902 21.7588L116.633 24.6731L117.152 25.575L115.901 27.6235L116.465 27.4205L116.767 28.0112L114.593 29.0188L114.56 29.7414L113.684 30.0458L113.918 31.0839L112.74 30.5559L113.307 31.6732L112.953 32.0817L112.364 31.7107L113.055 32.7322L112.146 33.409L113.15 33.5688L112.077 34.3178L113.212 34.7723L112.768 35.0614L112.204 34.9863L111.544 33.9231L111.455 33.3645L110.424 33.0754L111.089 34.7542L109.903 34.6765L109.729 35.4714L109.186 35.3533L110.292 36.5818L109.242 37.1613L109.714 37.563L110.282 36.9654L110.86 38.3635L108.805 39.6309L108.773 41.4348L107.71 41.3597L107.675 40.2368L104.676 40.1341L104.417 38.9417L103.518 40.1883L102.191 40.0716L100.188 38.8305L100.247 38.2858L99.5671 38.3511L99.8746 37.4575L98.6608 36.4583L96.7034 35.9399L96.073 34.6072L96.2551 32.8242L95.1447 31.3093L96.1848 30.0683L94.6454 30.0335L95.1102 29.4818L94.5212 28.6049L94.7157 27.5347L93.1997 27.5764L90.9858 25.4696L90.612 26.5675L90.1016 26.3368L89.4519 27.1206L89.7016 28.4812L90.9637 28.6145L91.1017 28.987L91.7665 29.0537L92.2355 29.814L91.7803 30.5852L92.9776 31.2051L93.8963 30.9341L94.0287 32.1807L91.161 32.624L90.1333 31.1161L88.7898 31.0105L88.2091 31.4663L88.6974 32.7115L87.5911 32.8588L86.7952 32.0389L86.8641 30.7145L86.2089 30.3114L85.1302 30.7172L84.773 29.0176L83.4791 29.6263L82.8266 28.1434L83.4294 27.8808L81.1741 26.3632L81.0638 25.2111L80.3272 25.1875L80.3796 25.9115L79.2278 25.6711L79.3409 24.6343L78.3464 24.8665L77.1739 22.9403L75.7117 22.7624L75.1323 19.937L74.0399 21.2503L72.8122 24.9999L73.415 26.0283L73.7529 24.6955L77.0925 25.5349L78.2926 28.8064L77.2014 29.1496L76.3614 28.3575L75.7903 29.5429L74.8909 29.757L75.1558 30.2239L73.295 31.3343L73.3185 33.3216L70.3527 34.3111L68.3498 35.7161L67.7884 37.8981L68.4906 38.1385L68.1388 39.3545L68.543 39.6352L67.2987 40.0299L65.6462 43.2263L66.2697 43.9629L66.5235 46.9508L67.5222 47.686L68.5209 46.8827L69.1651 47.3108L70.9362 46.5812L70.9886 47.4873L74.073 49.6525L74.8992 51.0408L76.3311 51.3244L76.0331 53.3631L77.5808 53.8662L77.4815 54.6208L79.8334 56.2969L80.7396 56.0509L81.9066 57.2099L83.3218 57.4351L83.675 56.5664L85.3496 56.7179L85.1702 55.7882L86.5427 55.8383L87.3718 57.4462L86.7304 59.4141L87.5414 59.9324L87.5042 60.8803L88.8022 62.1574L89.3167 61.7405L89.8685 62.7633L92.3417 63.1205L90.7651 64.1809L90.8285 65.4497L90.1347 65.4971L90.4975 66.588L89.794 67.1286L87.5387 65.7194L86.351 66.9646L85.4613 66.3656L84.8571 66.7881L83.6212 65.7722L80.9603 65.8834L79.4802 66.7923L77.5711 65.7055L76.0166 66.1975L76.5021 67.9332L75.9283 68.4363L76.2193 69.9387L75.7476 70.867L76.2455 71.3326L74.6178 73.4547L74.7351 74.2024L73.0081 74.415L72.5639 75.3197L73.1874 75.909L72.5294 76.7484L71.1514 75.795L70.7583 76.4426L70.7514 75.0793L69.7237 73.7646L67.1732 74.5081L68.2119 76.9054L67.4022 77.2487L67.0711 78.6801L66.6766 78.1604L66.1994 79.5056L65.1786 79.8239L65.0103 81.3554L63.4461 83.0967L67.4091 88.2207L68.9168 89.6535L71.0866 90.3484L72.7556 92.1134L76.0883 92.3093L78.4071 93.353L79.1671 94.8664L79.545 93.9089L80.0692 93.9311L81.3259 94.5621L83.4253 94.4175L84.355 95.5432L84.2764 98.0128L83.3384 99.0079L83.6474 100.5L83.1991 100.676L83.3508 101.262L84.0916 101.23L84.1371 104.445L85.0475 104.009L85.402 104.75L84.3619 104.96L84.2626 107.021L83.4129 107.025L82.159 108.444L79.7727 108.707L80.5162 110.065L79.2981 111.06L79.8527 111.692L79.3588 115.587L80.2472 115.761L79.9133 116.892L81.7645 116.662L82.177 118.409L84.5937 120.678L86.1993 120.233L85.9813 121.922L85.2406 121.876L85.013 122.626L85.1551 124.43L84.3233 124.918L84.6861 126.067L83.2791 126.488L83.9412 127.867L86.1469 129.036L86.6489 129.005L86.7579 127.921L87.7649 128.752L89.5181 128.583L89.6823 129.265L91.8631 129.139L91.4948 130.114L90.9058 129.845L89.7291 131.851L88.2629 132.796L88.3594 135.679L87.5897 135.738L88.2022 136.143L88.0146 137.224L88.9939 137.37L89.5278 138.372L89.3954 139.667L90.4561 139.666L91.0768 140.758L90.8148 142.277L89.6823 143.297L90.8409 145.525L90.0671 147.779L90.7927 148.029L90.2119 149.309L88.2284 150.064L87.4752 151.254L87.9166 152.089L87.5704 154.995L88.4408 156.027L86.7841 155.767L86.2324 158.14L84.5509 159.681L84.3992 160.689L82.8266 160.57L81.0196 163.728L81.5217 165.711L80.4251 167.914L80.6554 169.837L79.8278 170.564L79.6678 170.018L78.745 170.122L78.3836 171.705L77.4084 170.895L78.3105 169.302L75.2565 170.037L74.6137 170.702L74.4164 173.391L73.6454 173.426L73.3432 171.577L72.1942 171.884L70.6121 173.123L71.0107 174.738L69.4078 174.468L67.8505 170.885L68.2519 169.43L67.5719 168.399L69.1347 166.423L69.601 164.776L68.9981 161.913L67.9153 160.915L65.1469 160.507L66.1662 157.609L64.5537 160.254L62.6971 159.453L61.9411 158.234L61.5853 154.436L60.9204 153.533L59.7769 153.329L61.4666 155.68L61.4018 158.999L63.384 160.837L67.0491 161.359L68.5885 164.031L64.9317 166.717L64.6668 166.805L62.5674 171.561L61.0914 173.344L59.9562 173.562L57.0649 176.63L56.0139 176.485L54.1765 177.798L48.1789 179.317L47.5043 178.188L47.8561 176.251L47.0505 175.57L47.0712 174.578L44.9483 174.604L44.4283 173.805L41.8377 172.928L41.0418 168.549L39.0969 167.956L38.8334 169.293L36.963 169.999L36.9947 171.481L35.1339 171.327L34.2014 170.012L35.2525 167.464L34.7697 165.838L33.0261 164.526L29.4094 164.159L28.2065 162.322L26.045 162.648L26.2561 160.407L27.5348 160.529L27.7941 160.452L28.4907 160.456L28.7721 159.696L28.83 158.886L28.9597 159.343L30.9612 159.256L30.9764 157.942L29.3307 156.989L29.757 154.754L27.3982 153.841L26.9113 152.262L28.1776 152.299L28.4479 151.537L27.3306 149.233L24.2035 149.127L23.2269 146.07L20.9564 144.588L20.0129 145.189L17.4003 142.836L17.8817 140.201L18.7548 139.067L17.8817 138.226L18.9673 137.408L19.3756 137.884L20.3522 137.569L20.9853 136.219L20.1757 136.879L19.7453 136.136L17.4031 135.983L16.734 136.629L13.9973 135.404L11.5199 136.075L9.71705 134.535L9.32804 133.208L6.77063 132.404L6.45201 131.305L2.93039 131.747L1.27096 129.708L0.521949 129.683L0.371582 127.543L1.86275 125.634L1.52476 124.337L2.37447 124.156L1.42545 122.915L1.51651 121.016L3.76494 121.508L6.74857 120.276L5.6947 118.446L6.73754 117.43L9.5653 117.937L9.58736 120.925L11.7654 121.464L12.2786 121.031L11.8717 122.104L12.4069 122.611L13.4263 121.931L14.047 122.597L14.4594 122.336L14.0511 121.849L16.1257 120.621L15.5988 120.186L15.7216 118.714L16.3837 117.411L18.079 116.628L18.0859 115.981L20.6502 116.001L22.4682 114.669L25.4201 113.931L26.5126 113.954L26.6988 114.466L28.2562 114.157L29.0562 111.827L28.2796 109.604L29.0852 110.239L30.5432 109.2L30.6591 108.623L31.2302 108.069L32.4247 109.179L33.3062 108.531L37.8471 110.755L38.5575 110.776L39.0679 109.98L38.043 108.481L39.9121 108.883L39.7079 109.308L40.5742 109.627L41.2708 109.772L41.4295 107.214L42.0709 108.291L42.7675 107.481L42.6888 105.673L41.8129 105.342L41.1329 102.964L43.86 103.287L43.3703 104.129L43.7317 104.396L44.5621 103.977L47.4878 104.857L46.7912 104.005L48.2023 103.837L49.0051 103.007L48.4478 102.621L48.5168 100.618L50.9018 101.569L50.7004 100.888L51.8094 100.183L50.7059 99.3383L54.1765 99.5231L54.2634 98.371L52.6799 97.565L52.6233 96.5838L53.9406 96.4587L54.7765 95.0106L56.1035 94.6437L57.6553 91.3723L56.9257 91.1207L58.0278 88.5817L57.5588 88.0661L57.2263 88.6887L57.5491 86.9681L56.4828 85.8036L58.7575 86.7806L59.8872 86.4095L60.5411 85.4186L59.4665 84.8808L60.2996 84.8224L59.8086 84.3749L60.6418 83.359L59.8679 82.8657L60.2776 81.3536L58.5147 80.8242L57.8898 79.9389L58.4513 79.2426L58.385 80.0251L58.941 79.9917L59.5796 79.055L59.3203 78.1211L60.21 78.0724L59.9369 77.1663L62.3743 75.7793L62.1757 74.7217L59.5906 71.5795L56.6898 69.5602L57.0084 65.4285L58.425 66.1081L58.025 64.9866L58.9975 63.5968L56.9036 61.8471L57.0443 60.5727L56.3766 60.3893L56.1849 59.5221L56.8277 58.2533L57.6167 58.5882L58.3423 57.614L59.1975 57.5876L59.6527 55.9658L60.2238 56.341L61.0045 55.3182L62.737 55.6837L62.755 56.3952L63.2626 56.6704L63.3564 56.1465L63.9358 56.9233L65.1717 57.104L65.2421 56.3535L64.1716 55.3015L63.7468 53.6908L64.7068 52.2177L64.1661 52.0898L64.5413 50.3637L62.0115 49.2686L61.1852 47.7691L60.2059 47.8192L60.5534 46.3711L59.77 45.9277L60.5645 45.1828L58.0223 44.5491L57.4719 43.2413L58.2278 42.4909L58.5795 38.9818L60.6238 37.4837L61.1494 38.1938L61.3452 37.6949L62.2184 37.7949L62.1011 35.5185L63.5164 35.8771L64.2199 34.6902L65.1551 34.7541L67.3111 32.2679L69.3265 31.3367L71.568 29.0047L70.8659 28.125L70.001 28.3126L69.7941 27.7123L70.8755 26.8145L69.7527 25.9945L69.6727 25.0537L68.7347 25.1912L68.3084 24.5909L69.8782 23.24L69.8162 22.6049L67.9981 23.0774L67.3373 23.9307L66.2035 23.1344L66.2063 23.122L66.1828 23.0122L67.8464 19.8769L68.6395 15.5006L68.2229 12.4599L67.1498 11.3842L67.4298 10.6685L66.6904 9.70401L67.1084 8.56305L65.8821 7.95432L65.4338 6.94538L64.3027 6.9051L63.824 5.24576L62.9716 4.66624L63.7744 2.53713L63.6226 0.959883Z" fill="#D0D5DD" stroke="white" stroke-width="1.3794" mask="url(#path-1-inside-1_1162_4061)"/>
<g opacity="0.1">
<rect x="42.9993" y="121" width="28.2793" height="28.2793" rx="14.1396" fill="#236DF8"/>
</g>
<rect x="48.655" y="126.654" width="16.9676" height="16.9676" rx="8.48379" fill="#73C4FF" fill-opacity="0.7"/>
<rect x="54.3108" y="132.311" width="5.65586" height="5.65586" rx="2.82793" fill="#236DF8"/>
</svg>
